<svg width="150" height="105" viewBox="0 0 150 105" fill="none" xmlns="http://www.w3.org/2000/svg">
<g clip-path="url(#clip0_1549_442)">
<path d="M111.458 43.9821C113.719 34.0312 113.719 24.0802 113.719 15.819C113.719 15.068 113.154 14.5047 112.4 14.5047C102.603 14.2231 81.3126 6.52516 76.2255 1.4558C75.6603 0.986413 74.8124 0.986413 74.3414 1.4558C72.5515 3.23946 68.4064 5.58639 62.9425 7.93332L55.0293 10.8435C48.2465 13.0966 42.0289 14.4108 38.0723 14.5047C37.3187 14.5047 36.7534 15.068 36.7534 15.819C36.7534 44.3576 41.2753 75.6187 74.624 91.1084C75.0008 91.2962 75.3776 91.2962 75.7545 91.1084C81.501 88.5738 86.8707 85.1003 91.4868 80.9697C95.255 77.5901 98.5522 73.6473 101.002 69.3289C101.19 69.2351 107.973 59.0963 111.458 43.9821Z" fill="#DADADA"/>
<path d="M104.675 44.3572C106.559 36.2838 106.559 28.2104 106.559 21.4512C106.559 20.8879 106.088 20.4186 105.523 20.4186C97.5156 20.2308 80.1818 13.941 76.131 9.81044C75.6599 9.43493 75.0005 9.43493 74.6237 9.81044C73.2106 11.3125 69.8192 13.19 65.3915 15.0676L58.9856 17.4145C53.4274 19.1982 48.4346 20.3247 45.2316 20.4186C44.6663 20.4186 44.1953 20.8879 44.1953 21.4512C44.1953 44.6388 47.8693 70.0795 75.0005 82.5652C75.2831 82.6591 75.6599 82.6591 75.9425 82.5652C80.6528 80.4999 84.9863 77.6836 88.7545 74.304C91.8633 71.5816 94.501 68.3898 96.4793 64.8224C96.2909 64.8224 101.849 56.6551 104.675 44.3572Z" fill="#005D33"/>
<path d="M101.943 18.0715C96.8561 16.7572 91.9574 15.1613 87.1529 13.2838C86.3993 12.9083 102.603 18.2593 101.943 18.0715Z" stroke="#333366" stroke-width="1.5" stroke-miterlimit="10"/>
<path d="M103.451 67.9205C104.299 66.5124 105.146 65.0103 105.9 63.5083" stroke="#333366" stroke-width="1.5" stroke-miterlimit="10"/>
<path d="M108.632 56.8426C113.907 42.6672 114.567 27.0835 114.567 15.1612C114.567 14.4101 114.002 13.8469 113.248 13.8469C103.168 13.5652 81.4065 5.67957 76.2253 0.422447C75.66 -0.140816 74.8122 -0.140816 74.2469 0.422447C72.457 2.29999 68.2178 4.64692 62.6597 6.99384" stroke="#333366" stroke-width="1.5" stroke-miterlimit="10"/>
<path d="M54.6527 9.99829C47.6815 12.2513 41.3697 13.6595 37.3189 13.7534C36.5652 13.7534 36 14.4105 36 15.0677C36 44.1696 40.6161 76.0878 74.7184 91.8591C75.0953 92.0469 75.4721 92.0469 75.8489 91.8591C84.7042 87.9163 92.6175 81.9082 98.7408 74.398" stroke="#333366" stroke-width="1.5" stroke-miterlimit="10"/>
<path d="M86.4 46.4224H64.2617V60.9733H86.4V46.4224Z" fill="#005D33"/>
<path d="M69.5382 36.1901C69.5382 32.9983 72.0817 30.4636 75.2847 30.4636C78.4877 30.4636 81.0312 32.9983 81.0312 36.1901C81.0312 38.0676 81.0312 44.7329 81.0312 44.7329H82.2559C82.2559 44.7329 82.2559 38.0676 82.2559 36.1901C82.2559 32.435 79.0529 29.2432 75.2847 29.2432C71.5165 29.2432 68.3135 32.435 68.3135 36.1901V44.7329H69.5382V36.1901Z" fill="white" stroke="white" stroke-width="0.75" stroke-miterlimit="10"/>
<path d="M86.6827 45.6716H69.5374H68.3127H67.088H63.885C63.5082 45.6716 63.2256 45.9533 63.2256 46.3288V61.5369C63.2256 61.9124 63.5082 62.194 63.885 62.194H86.6827C87.0596 62.194 87.3422 61.9124 87.3422 61.5369V46.3288C87.3422 45.9533 87.0596 45.6716 86.6827 45.6716ZM86.0233 60.8797H64.5445V46.892H86.1175V60.8797H86.0233Z" fill="white" stroke="white" stroke-width="0.75" stroke-miterlimit="10"/>
<path d="M72.2695 51.7734H78.3929" stroke="white" stroke-miterlimit="10"/>
<path d="M75.2837 54.8713V48.7693" stroke="white" stroke-miterlimit="10"/>
<path d="M33 104H117" stroke="#2D346A" stroke-width="2" stroke-miterlimit="10" stroke-linecap="round"/>
<path d="M144.496 13.1621C144.496 12.6635 144.296 10.37 141.695 10.37C141.194 10.37 140.794 9.97111 140.794 9.47252C140.794 8.97393 141.194 8.57506 141.695 8.57506C142.195 8.57506 144.496 8.37563 144.496 5.78296C144.496 5.28437 144.897 4.8855 145.397 4.8855C145.897 4.8855 146.298 5.28437 146.298 5.78296C146.298 8.37563 148.599 8.57506 149.099 8.57506C149.6 8.57506 150 8.97393 150 9.47252C150 9.97111 149.6 10.37 149.099 10.37C146.498 10.37 146.298 12.6635 146.298 13.1621C146.298 13.6607 145.897 14.0596 145.397 14.0596C144.897 14.0596 144.496 13.6607 144.496 13.1621Z" fill="#A92023"/>
<path d="M98.9662 4.28787C98.9662 4.08844 98.8661 2.89182 97.5653 2.89182C97.2651 2.89182 97.0649 2.69238 97.0649 2.39323C97.0649 2.09408 97.2651 1.89464 97.5653 1.89464C97.7654 1.89464 98.9662 1.79492 98.9662 0.49859C98.9662 0.199436 99.1663 0 99.4665 0C99.7667 0 99.9669 0.199436 99.9669 0.49859C99.9669 1.79492 101.168 1.89464 101.368 1.89464C101.668 1.89464 101.868 2.09408 101.868 2.39323C101.868 2.69238 101.668 2.89182 101.368 2.89182C100.067 2.89182 99.9669 4.08844 99.9669 4.28787C99.9669 4.58703 99.7667 4.78646 99.4665 4.78646C99.1663 4.68674 98.9662 4.48731 98.9662 4.28787Z" fill="#A92023"/>
<path d="M14.8095 12.9627C14.8095 12.7632 14.7094 11.5666 13.4085 11.5666C13.1083 11.5666 12.9082 11.3672 12.9082 11.068C12.9082 10.7689 13.1083 10.5694 13.4085 10.5694C13.6087 10.5694 14.8095 10.4697 14.8095 9.17339C14.8095 8.87424 15.0096 8.6748 15.3098 8.6748C15.61 8.6748 15.8101 8.87424 15.8101 9.17339C15.8101 10.4697 17.0109 10.5694 17.2111 10.5694C17.5113 10.5694 17.7114 10.7689 17.7114 11.068C17.7114 11.3672 17.5113 11.5666 17.2111 11.5666C15.9102 11.5666 15.8101 12.7632 15.8101 12.9627C15.8101 13.2618 15.61 13.4613 15.3098 13.4613C15.0096 13.4613 14.8095 13.1621 14.8095 12.9627Z" fill="#A92023"/>
<path d="M3.80253 86.356C3.80253 85.8575 3.6024 83.5639 1.00067 83.5639C0.400267 83.5639 0 83.0654 0 82.5668C0 82.0682 0.400267 81.6693 0.9006 81.6693C1.40093 81.6693 3.70247 81.4699 3.70247 78.8772C3.70247 78.3786 4.10274 77.9797 4.60307 77.9797C5.1034 77.9797 5.50367 78.3786 5.50367 78.8772C5.50367 81.4699 7.8052 81.6693 8.30554 81.6693C8.80587 81.6693 9.20614 82.0682 9.20614 82.5668C9.20614 83.0654 8.80587 83.4642 8.30554 83.4642C5.7038 83.4642 5.50367 85.7577 5.50367 86.2563C5.50367 86.7549 5.1034 87.1538 4.60307 87.1538C4.2028 87.2535 3.80253 86.8546 3.80253 86.356Z" fill="#A92023"/>
<path d="M139.093 91.1419C139.093 90.9424 138.993 89.7458 137.692 89.7458C137.392 89.7458 137.191 89.5464 137.191 89.2472C137.191 88.9481 137.392 88.7486 137.692 88.7486C137.892 88.7486 139.093 88.6489 139.093 87.3526C139.093 87.0534 139.293 86.854 139.593 86.854C139.893 86.854 140.093 87.0534 140.093 87.3526C140.093 88.6489 141.294 88.7486 141.494 88.7486C141.794 88.7486 141.995 88.9481 141.995 89.2472C141.995 89.5464 141.794 89.7458 141.494 89.7458C140.193 89.7458 140.093 90.9424 140.093 91.1419C140.093 91.441 139.893 91.6405 139.593 91.6405C139.293 91.5407 139.093 91.3413 139.093 91.1419Z" fill="#A92023"/>
</g>
<defs>
<clipPath id="clip0_1549_442">
<rect width="150" height="106" fill="white" transform="translate(0 -1)"/>
</clipPath>
</defs>
</svg>
