<svg width="150" height="106" viewBox="0 0 150 106" fill="none" xmlns="http://www.w3.org/2000/svg">
<g clip-path="url(#clip0_1549_546)">
<path d="M111.196 43.9822C113.449 34.0312 113.449 24.0802 113.449 15.819C113.449 15.068 112.886 14.5047 112.135 14.5047C102.372 14.2231 81.1554 6.52517 76.086 1.4558C75.5227 0.986413 74.6778 0.986413 74.2085 1.4558C72.4248 3.23947 68.2942 5.5864 62.8493 7.93332L54.9636 10.8435C48.2045 13.0966 42.0086 14.4108 38.0657 14.5047C37.3147 14.5047 36.7515 15.068 36.7515 15.819C36.7515 44.3577 41.2576 75.6188 74.4901 91.1085C74.8656 91.2963 75.2411 91.2963 75.6166 91.1085C81.3431 88.5738 86.6941 85.1004 91.2941 80.9698C95.0492 77.5902 98.3349 73.6473 100.776 69.329C100.963 69.2351 107.723 59.0964 111.196 43.9822Z" fill="#DADADA"/>
<path d="M104.437 44.3572C106.314 36.2838 106.314 28.2104 106.314 21.4512C106.314 20.8879 105.845 20.4186 105.282 20.4186C97.302 20.2308 80.0286 13.941 75.9918 9.81044C75.5225 9.43493 74.8653 9.43493 74.4898 9.81044C73.0817 11.3125 69.7021 13.19 65.2898 15.0676L58.9062 17.4145C53.3674 19.1982 48.392 20.3247 45.2001 20.4186C44.6369 20.4186 44.1675 20.8879 44.1675 21.4512C44.1675 44.6389 47.8287 70.0796 74.8653 82.5653C75.1469 82.6591 75.5225 82.6591 75.8041 82.5653C80.4979 80.5 84.8163 77.6836 88.5714 74.3041C91.6693 71.5816 94.2979 68.3898 96.2693 64.8225C96.0816 64.8225 101.62 56.6551 104.437 44.3572Z" fill="#005D33"/>
<path d="M101.714 18.0713C96.6445 16.757 91.7629 15.1611 86.9751 13.2835C86.2241 12.908 102.371 18.259 101.714 18.0713Z" stroke="#333366" stroke-width="1.5" stroke-miterlimit="10"/>
<path d="M103.216 67.9205C104.061 66.5124 104.906 65.0103 105.657 63.5083" stroke="#333366" stroke-width="1.5" stroke-miterlimit="10"/>
<path d="M108.379 56.8426C113.636 42.6672 114.293 27.0836 114.293 15.1612C114.293 14.4101 113.73 13.8469 112.979 13.8469C102.934 13.5653 81.2485 5.67957 76.0852 0.422447C75.5219 -0.140816 74.6771 -0.140816 74.1138 0.422447C72.3301 2.29999 68.1056 4.64692 62.5669 6.99385" stroke="#333366" stroke-width="1.5" stroke-miterlimit="10"/>
<path d="M54.5877 9.99829C47.6408 12.2513 41.351 13.6595 37.3143 13.7534C36.5633 13.7534 36 14.4105 36 15.0677C36 44.1696 40.6 76.0878 74.5835 91.8592C74.959 92.0469 75.3345 92.0469 75.71 91.8592C84.5345 87.9164 92.4202 81.9082 98.5222 74.398" stroke="#333366" stroke-width="1.5" stroke-miterlimit="10"/>
<path d="M77.9403 55.4466C77.532 55.4466 77.1237 55.1199 77.1237 54.6299V50.7099C77.1237 50.3015 77.4503 49.8932 77.9403 49.8932H79.6554C79.737 49.7299 79.8187 49.4848 79.9004 49.3215L78.6754 48.0965C78.512 47.9332 78.4304 47.7698 78.4304 47.5248C78.4304 47.2798 78.512 47.1165 78.6754 46.9531L81.4521 44.1764C81.7787 43.8498 82.2687 43.8498 82.5137 44.1764L83.7388 45.4015C83.8204 45.3198 83.9838 45.3198 84.0654 45.2381V43.6048H81.0437C80.7171 43.6048 80.3904 43.3598 80.3087 43.0331C80.0637 42.2164 79.737 41.3997 79.3287 40.6647C79.1654 40.3381 79.247 40.0114 79.492 39.7664L81.6154 37.643L77.9403 34.0496L75.817 36.173C75.572 36.418 75.1636 36.4997 74.9186 36.3363C74.1836 35.928 73.367 35.6013 72.5503 35.3563C72.2236 35.2747 71.9786 34.948 71.9786 34.6213V31.5996H66.8335V34.6213C66.8335 34.948 66.5885 35.2747 66.2619 35.3563C65.4452 35.6013 64.6285 35.928 63.8935 36.3363C63.5668 36.4997 63.1585 36.4997 62.9135 36.2547L60.7901 34.0496L57.1151 37.7247L59.2384 39.8481C59.4834 40.0931 59.5651 40.5014 59.4018 40.7464C58.9934 41.4814 58.6668 42.2981 58.4218 43.1148C58.3401 43.4414 58.0134 43.6864 57.6867 43.6864H54.665V48.8315H57.6867C58.0134 48.8315 58.3401 49.0765 58.4218 49.4032C58.4218 49.4848 58.5034 49.5665 58.5034 49.6482C58.5034 49.7298 58.5851 49.8115 58.5851 49.8932C58.8301 50.6282 59.0751 51.2815 59.4018 51.7715C59.5651 52.0982 59.4834 52.4249 59.2384 52.6699L57.1151 54.7933L60.7901 58.4683L62.9135 56.3449C63.1585 56.0999 63.5668 56.0183 63.8118 56.1816C64.5468 56.5899 65.3635 56.9166 66.1802 57.1616C66.5069 57.2433 66.7519 57.57 66.7519 57.8966V61H71.8969V57.9783C71.8969 57.6516 72.1419 57.325 72.4686 57.2433C73.2853 56.9983 74.102 56.6716 74.837 56.2633C75.1636 56.0999 75.4903 56.1816 75.7353 56.4266L77.8587 58.55L78.3487 58.06C78.3487 57.9783 78.267 57.8966 78.267 57.815V57.7333C78.267 57.6516 78.267 57.57 78.267 57.57V57.4883C78.267 57.4066 78.3487 57.325 78.4304 57.2433L79.6554 56.0183C79.5737 55.8549 79.492 55.6916 79.4104 55.4466H77.9403ZM69.3652 52.3432C66.0169 52.3432 63.3218 49.6482 63.3218 46.2998C63.3218 42.9514 66.0169 40.2564 69.3652 40.2564C72.7136 40.2564 75.4086 42.9514 75.4086 46.2998C75.4086 49.6482 72.7136 52.3432 69.3652 52.3432Z" fill="white"/>
<path d="M93.8654 51.4445C93.5387 51.4445 93.212 51.1994 93.1304 50.8728C92.967 50.3828 92.8037 49.9744 92.5587 49.5661C92.3954 49.2394 92.477 48.9128 92.722 48.6677L93.7837 47.6061L92.0687 45.891L91.007 46.9527C90.762 47.1977 90.3537 47.2794 90.1087 47.1161C89.7003 46.8711 89.292 46.7077 88.802 46.5444C88.4753 46.4627 88.2303 46.136 88.2303 45.8094V44.3394H85.8619V45.8094C85.8619 46.136 85.6169 46.4627 85.2903 46.5444L85.1269 46.6261C84.7186 46.7894 84.3102 46.9527 83.9836 47.1161C83.6569 47.2794 83.3302 47.1977 83.0852 46.9527L82.0235 45.891L80.3085 47.6061L81.3702 48.6677C81.6152 48.9128 81.6969 49.3211 81.5335 49.5661C81.2885 49.9744 81.1252 50.3828 80.9619 50.8728C80.8802 51.1994 80.5535 51.4445 80.2269 51.4445H78.7568V53.8128H80.2269C80.5535 53.8128 80.8802 54.0578 80.9619 54.3845C80.9619 54.4662 80.9619 54.4662 81.0435 54.4662L81.1252 54.6295C81.2885 55.0378 81.4519 55.3645 81.6152 55.6912C81.7785 56.0178 81.6969 56.3445 81.4519 56.5895L80.3085 57.7329L82.0235 59.4479L83.0852 58.3862C83.3302 58.1412 83.7386 58.0595 83.9836 58.2229C84.3919 58.4679 84.8002 58.6312 85.2903 58.7946C85.6169 58.8762 85.8619 59.2029 85.8619 59.5296V60.9996H88.2303V59.5296C88.2303 59.2029 88.4753 58.8762 88.802 58.7946C89.292 58.6312 89.7003 58.4679 90.1087 58.2229C90.4353 58.0595 90.762 58.1412 91.007 58.3862L92.0687 59.4479L93.7837 57.7329L92.722 56.6712C92.477 56.4262 92.3954 56.0178 92.5587 55.7728C92.8037 55.3645 92.967 54.9562 93.1304 54.4662C93.212 54.1395 93.5387 53.8945 93.8654 53.8945H95.3354V51.5261L93.8654 51.4445ZM87.0053 56.5079C84.8819 56.5079 83.1669 54.7928 83.1669 52.6695C83.1669 50.5461 84.8819 48.8311 87.0053 48.8311C89.1286 48.8311 90.8437 50.5461 90.8437 52.6695C90.9253 54.7928 89.1286 56.5079 87.0053 56.5079Z" fill="white"/>
<path d="M144.4 13.1994C144.4 12.6994 144.2 10.3994 141.6 10.3994C141.1 10.3994 140.7 9.99941 140.7 9.49941C140.7 8.99941 141.1 8.59941 141.6 8.59941C142.1 8.59941 144.4 8.39941 144.4 5.79941C144.4 5.29941 144.8 4.89941 145.3 4.89941C145.8 4.89941 146.2 5.29941 146.2 5.79941C146.2 8.39941 148.5 8.59941 149 8.59941C149.5 8.59941 149.9 8.99941 149.9 9.49941C149.9 9.99941 149.5 10.3994 149 10.3994C146.4 10.3994 146.2 12.6994 146.2 13.1994C146.2 13.6994 145.8 14.0994 145.3 14.0994C144.8 14.0994 144.4 13.6994 144.4 13.1994Z" fill="#A92023"/>
<path d="M98.9 4.3C98.9 4.1 98.8 2.9 97.5 2.9C97.2 2.9 97 2.7 97 2.4C97 2.1 97.2 1.9 97.5 1.9C97.7 1.9 98.9 1.8 98.9 0.5C98.9 0.2 99.1 0 99.4 0C99.7 0 99.9 0.2 99.9 0.5C99.9 1.8 101.1 1.9 101.3 1.9C101.6 1.9 101.8 2.1 101.8 2.4C101.8 2.7 101.6 2.9 101.3 2.9C100 2.9 99.9 4.1 99.9 4.3C99.9 4.6 99.7 4.8 99.4 4.8C99.1 4.7 98.9 4.5 98.9 4.3Z" fill="#A92023"/>
<path d="M14.7999 12.9992C14.7999 12.7992 14.6999 11.5992 13.3999 11.5992C13.0999 11.5992 12.8999 11.3992 12.8999 11.0992C12.8999 10.7992 13.0999 10.5992 13.3999 10.5992C13.5999 10.5992 14.7999 10.4992 14.7999 9.19922C14.7999 8.89922 14.9999 8.69922 15.2999 8.69922C15.5999 8.69922 15.7999 8.89922 15.7999 9.19922C15.7999 10.4992 16.9999 10.5992 17.1999 10.5992C17.4999 10.5992 17.6999 10.7992 17.6999 11.0992C17.6999 11.3992 17.4999 11.5992 17.1999 11.5992C15.8999 11.5992 15.7999 12.7992 15.7999 12.9992C15.7999 13.2992 15.5999 13.4992 15.2999 13.4992C14.9999 13.4992 14.7999 13.1992 14.7999 12.9992Z" fill="#A92023"/>
<path d="M3.8 86.5992C3.8 86.0992 3.6 83.7992 1 83.7992C0.4 83.7992 0 83.2992 0 82.7992C0 82.2992 0.4 81.8992 0.9 81.8992C1.4 81.8992 3.7 81.6992 3.7 79.0992C3.7 78.5992 4.1 78.1992 4.6 78.1992C5.1 78.1992 5.5 78.5992 5.5 79.0992C5.5 81.6992 7.8 81.8992 8.3 81.8992C8.8 81.8992 9.2 82.2992 9.2 82.7992C9.2 83.2992 8.8 83.6992 8.3 83.6992C5.7 83.6992 5.5 85.9992 5.5 86.4992C5.5 86.9992 5.1 87.3992 4.6 87.3992C4.2 87.4992 3.8 87.0992 3.8 86.5992Z" fill="#A92023"/>
<path d="M139 91.3996C139 91.1996 138.9 89.9996 137.6 89.9996C137.3 89.9996 137.1 89.7996 137.1 89.4996C137.1 89.1996 137.3 88.9996 137.6 88.9996C137.8 88.9996 139 88.8996 139 87.5996C139 87.2996 139.2 87.0996 139.5 87.0996C139.8 87.0996 140 87.2996 140 87.5996C140 88.8996 141.2 88.9996 141.4 88.9996C141.7 88.9996 141.9 89.1996 141.9 89.4996C141.9 89.7996 141.7 89.9996 141.4 89.9996C140.1 89.9996 140 91.1996 140 91.3996C140 91.6996 139.8 91.8996 139.5 91.8996C139.2 91.7996 139 91.5996 139 91.3996Z" fill="#A92023"/>
<path d="M33 105H117" stroke="#2D346A" stroke-width="2" stroke-miterlimit="10" stroke-linecap="round"/>
</g>
<defs>
<clipPath id="clip0_1549_546">
<rect width="150" height="106" fill="white"/>
</clipPath>
</defs>
</svg>
