<svg width="150" height="105" viewBox="0 0 150 105" fill="none" xmlns="http://www.w3.org/2000/svg">
<path d="M144.4 13.1994C144.4 12.6994 144.2 10.3994 141.6 10.3994C141.1 10.3994 140.7 9.99941 140.7 9.49941C140.7 8.99941 141.1 8.59941 141.6 8.59941C142.1 8.59941 144.4 8.39941 144.4 5.79941C144.4 5.29941 144.8 4.89941 145.3 4.89941C145.8 4.89941 146.2 5.29941 146.2 5.79941C146.2 8.39941 148.5 8.59941 149 8.59941C149.5 8.59941 149.9 8.99941 149.9 9.49941C149.9 9.99941 149.5 10.3994 149 10.3994C146.4 10.3994 146.2 12.6994 146.2 13.1994C146.2 13.6994 145.8 14.0994 145.3 14.0994C144.8 14.0994 144.4 13.6994 144.4 13.1994Z" fill="#A92023"/>
<path d="M98.9 4.3C98.9 4.1 98.8 2.9 97.5 2.9C97.2 2.9 97 2.7 97 2.4C97 2.1 97.2 1.9 97.5 1.9C97.7 1.9 98.9 1.8 98.9 0.5C98.9 0.2 99.1 0 99.4 0C99.7 0 99.9 0.2 99.9 0.5C99.9 1.8 101.1 1.9 101.3 1.9C101.6 1.9 101.8 2.1 101.8 2.4C101.8 2.7 101.6 2.9 101.3 2.9C100 2.9 99.9 4.1 99.9 4.3C99.9 4.6 99.7 4.8 99.4 4.8C99.1 4.7 98.9 4.5 98.9 4.3Z" fill="#A92023"/>
<path d="M14.7999 13.0002C14.7999 12.8002 14.6999 11.6002 13.3999 11.6002C13.0999 11.6002 12.8999 11.4002 12.8999 11.1002C12.8999 10.8002 13.0999 10.6002 13.3999 10.6002C13.5999 10.6002 14.7999 10.5002 14.7999 9.2002C14.7999 8.9002 14.9999 8.7002 15.2999 8.7002C15.5999 8.7002 15.7999 8.9002 15.7999 9.2002C15.7999 10.5002 16.9999 10.6002 17.1999 10.6002C17.4999 10.6002 17.6999 10.8002 17.6999 11.1002C17.6999 11.4002 17.4999 11.6002 17.1999 11.6002C15.8999 11.6002 15.7999 12.8002 15.7999 13.0002C15.7999 13.3002 15.5999 13.5002 15.2999 13.5002C14.9999 13.5002 14.7999 13.2002 14.7999 13.0002Z" fill="#A92023"/>
<path d="M3.8 86.6002C3.8 86.1002 3.6 83.8002 1 83.8002C0.4 83.8002 0 83.3002 0 82.8002C0 82.3002 0.4 81.9002 0.9 81.9002C1.4 81.9002 3.7 81.7002 3.7 79.1002C3.7 78.6002 4.1 78.2002 4.6 78.2002C5.1 78.2002 5.5 78.6002 5.5 79.1002C5.5 81.7002 7.8 81.9002 8.3 81.9002C8.8 81.9002 9.2 82.3002 9.2 82.8002C9.2 83.3002 8.8 83.7002 8.3 83.7002C5.7 83.7002 5.5 86.0002 5.5 86.5002C5.5 87.0002 5.1 87.4002 4.6 87.4002C4.2 87.5002 3.8 87.1002 3.8 86.6002Z" fill="#A92023"/>
<path d="M139 91.3996C139 91.1996 138.9 89.9996 137.6 89.9996C137.3 89.9996 137.1 89.7996 137.1 89.4996C137.1 89.1996 137.3 88.9996 137.6 88.9996C137.8 88.9996 139 88.8996 139 87.5996C139 87.2996 139.2 87.0996 139.5 87.0996C139.8 87.0996 140 87.2996 140 87.5996C140 88.8996 141.2 88.9996 141.4 88.9996C141.7 88.9996 141.9 89.1996 141.9 89.4996C141.9 89.7996 141.7 89.9996 141.4 89.9996C140.1 89.9996 140 91.1996 140 91.3996C140 91.6996 139.8 91.8996 139.5 91.8996C139.2 91.7996 139 91.5996 139 91.3996Z" fill="#A92023"/>
<path d="M33 104H117" stroke="#2D346A" stroke-width="2" stroke-miterlimit="10" stroke-linecap="round"/>
<path d="M74.9201 92C97.4967 92 115.84 73.6565 115.84 51.0799C115.84 28.5033 97.4967 10.2539 74.9201 10.2539C52.3435 10.2539 34 28.5974 34 51.174C34 73.7506 52.3435 92 74.9201 92Z" fill="#DADADA"/>
<path d="M34 51.0793H38.5153" stroke="#2D346A" stroke-width="1.5" stroke-miterlimit="10" stroke-linecap="round" stroke-linejoin="round"/>
<path d="M110.948 31.7012C119.979 48.4455 116.31 69.7051 101.259 82.4044C83.9505 96.8911 58.1755 94.7275 43.6889 77.4188C29.1082 60.11 31.3658 34.3351 48.5805 19.8484C65.8892 5.3618 91.6641 7.52539 106.151 24.8341" stroke="#2D346A" stroke-width="1.5" stroke-miterlimit="10" stroke-linecap="round" stroke-linejoin="round"/>
<path d="M53.7546 73.6561C59.3046 78.8299 66.7361 82.0283 74.9201 82.0283C91.9466 82.0283 105.775 68.2001 105.775 51.1736C105.775 34.1471 91.9466 20.2249 74.9201 20.2249C57.8936 20.2249 44.0654 34.053 44.0654 51.0795C44.0654 57.194 45.8527 62.9323 48.957 67.7298" fill="#005D33"/>
<path d="M74.9202 56.6299C77.9304 56.6299 80.4703 54.1841 80.4703 51.0799C80.4703 48.0697 78.0245 45.5298 74.9202 45.5298C71.91 45.5298 69.3701 47.9756 69.3701 51.0799C69.3701 54.1841 71.91 56.6299 74.9202 56.6299Z" fill="#DADADA" stroke="#2D346A" stroke-width="1.5" stroke-miterlimit="10" stroke-linecap="round" stroke-linejoin="round"/>
<path d="M74.9199 45.6235V20.2249" stroke="white" stroke-width="1.5" stroke-miterlimit="10" stroke-linecap="round" stroke-linejoin="round"/>
<path d="M78.7769 55.0305L89.3126 65.5663" stroke="white" stroke-width="1.5" stroke-miterlimit="10" stroke-linecap="round" stroke-linejoin="round"/>
<path d="M111.325 51.0793H115.841" stroke="#2D346A" stroke-width="1.5" stroke-miterlimit="10" stroke-linecap="round" stroke-linejoin="round"/>
<path d="M74.9199 87.4844V91.9997" stroke="#2D346A" stroke-width="1.5" stroke-miterlimit="10" stroke-linecap="round" stroke-linejoin="round"/>
<path d="M46.0405 22.2009L49.2389 25.3993" stroke="#2D346A" stroke-width="1.5" stroke-miterlimit="10" stroke-linecap="round" stroke-linejoin="round"/>
<path d="M49.2389 76.8547L46.0405 80.0531" stroke="#2D346A" stroke-width="1.5" stroke-miterlimit="10" stroke-linecap="round" stroke-linejoin="round"/>
<path d="M103.799 22.2009L100.601 25.3993" stroke="#2D346A" stroke-width="1.5" stroke-miterlimit="10" stroke-linecap="round" stroke-linejoin="round"/>
<path d="M84.4207 0H65.3247V4.70346H84.4207V0Z" fill="#DADADA" stroke="#2D346A" stroke-width="1.5" stroke-miterlimit="10" stroke-linecap="round" stroke-linejoin="round"/>
<path d="M78.8707 4.70337H71.063V9.7831H78.8707V4.70337Z" fill="#DADADA" stroke="#2D346A" stroke-width="1.5" stroke-miterlimit="10" stroke-linecap="round" stroke-linejoin="round"/>
<path d="M46.6994 17.6856L43.2188 21.0721L39.7383 24.3645L37.2925 21.8247L44.2536 15.1458L46.6994 17.6856Z" fill="#DADADA" stroke="#2D346A" stroke-width="1.5" stroke-miterlimit="10" stroke-linecap="round" stroke-linejoin="round"/>
<path d="M44.7239 22.5769L43.2188 21.0718" stroke="#2D346A" stroke-width="1.5" stroke-miterlimit="10" stroke-linecap="round" stroke-linejoin="round"/>
<path d="M103.141 17.6856L106.621 21.0721L110.102 24.3645L112.548 21.8247L105.586 15.1458L103.141 17.6856Z" fill="#DADADA" stroke="#2D346A" stroke-width="1.5" stroke-miterlimit="10" stroke-linecap="round" stroke-linejoin="round"/>
<path d="M105.116 22.5769L106.621 21.0718" stroke="#2D346A" stroke-width="1.5" stroke-miterlimit="10" stroke-linecap="round" stroke-linejoin="round"/>
</svg>
