<svg width="143" height="106" viewBox="0 0 143 106" fill="none" xmlns="http://www.w3.org/2000/svg">
<g clip-path="url(#clip0_1549_498)">
<path d="M123.687 12.7607C123.687 12.2462 123.481 9.87919 120.805 9.87919C120.291 9.87919 119.879 9.46754 119.879 8.95297C119.879 8.43841 120.291 8.02676 120.805 8.02676C121.32 8.02676 123.687 7.82094 123.687 5.14521C123.687 4.63064 124.098 4.21899 124.613 4.21899C125.127 4.21899 125.539 4.63064 125.539 5.14521C125.539 7.82094 127.906 8.02676 128.421 8.02676C128.935 8.02676 129.347 8.43841 129.347 8.95297C129.347 9.46754 128.935 9.87919 128.421 9.87919C125.745 9.87919 125.539 12.2462 125.539 12.7607C125.539 13.2753 125.127 13.687 124.613 13.687C124.098 13.687 123.687 13.2753 123.687 12.7607Z" fill="#A92023"/>
<path d="M136.55 58.8665C136.55 58.3519 136.345 55.9849 133.669 55.9849C133.154 55.9849 132.743 55.5732 132.743 55.0587C132.743 54.5441 133.154 54.1325 133.669 54.1325C134.183 54.1325 136.55 53.9266 136.55 51.2509C136.55 50.7364 136.962 50.3247 137.477 50.3247C137.991 50.3247 138.403 50.7364 138.403 51.2509C138.403 53.9266 140.77 54.1325 141.284 54.1325C141.799 54.1325 142.211 54.5441 142.211 55.0587C142.211 55.5732 141.799 55.9849 141.284 55.9849C138.609 55.9849 138.403 58.3519 138.403 58.8665C138.403 59.381 137.991 59.7927 137.477 59.7927C136.962 59.7927 136.55 59.381 136.55 58.8665Z" fill="#A92023"/>
<path d="M88.3875 23.5666C88.3875 23.3608 88.2846 22.1258 86.9467 22.1258C86.7409 22.1258 86.4321 21.92 86.4321 21.6113C86.4321 21.3025 86.638 21.0967 86.9467 21.0967C87.1525 21.0967 88.3875 20.9938 88.3875 19.6559C88.3875 19.3472 88.5933 19.1414 88.902 19.1414C89.2108 19.1414 89.4166 19.3472 89.4166 19.6559C89.4166 20.9938 90.6515 21.0967 90.8574 21.0967C91.1661 21.0967 91.3719 21.3025 91.3719 21.6113C91.3719 21.92 91.1661 22.1258 90.8574 22.1258C89.5195 22.1258 89.4166 23.3608 89.4166 23.5666C89.4166 23.7724 89.2108 23.9783 88.902 23.9783C88.5933 23.9783 88.3875 23.7724 88.3875 23.5666Z" fill="#A92023"/>
<path d="M99.9553 4.42524C99.9553 4.21942 99.8524 2.98447 98.5146 2.98447C98.3087 2.98447 98 2.77864 98 2.4699C98 2.16117 98.2058 1.95534 98.5146 1.95534C98.7204 1.95534 99.9553 1.85243 99.9553 0.514563C99.9553 0.205825 100.161 0 100.47 0C100.779 0 100.984 0.205825 100.984 0.514563C100.984 1.85243 102.219 1.95534 102.425 1.95534C102.734 1.95534 102.94 2.16117 102.94 2.4699C102.94 2.77864 102.734 2.98447 102.425 2.98447C101.087 2.98447 100.984 4.21942 100.984 4.42524C100.984 4.63107 100.779 4.83689 100.47 4.83689C100.161 4.93981 99.9553 4.73398 99.9553 4.42524Z" fill="#A92023"/>
<path d="M4.30777 101.266C4.30777 100.751 4.10194 98.3841 1.42621 98.3841C0.91165 98.3841 0.5 97.9724 0.5 97.4579C0.5 96.9433 0.91165 96.5316 1.42621 96.5316C1.94078 96.5316 4.30777 96.3258 4.30777 93.6501C4.30777 93.1355 4.71942 92.7239 5.23398 92.7239C5.74854 92.7239 6.16019 93.1355 6.16019 93.6501C6.16019 96.3258 8.52718 96.5316 9.04175 96.5316C9.55631 96.5316 9.96796 96.9433 9.96796 97.4579C9.96796 97.9724 9.55631 98.3841 9.04175 98.3841C6.36602 98.3841 6.16019 100.751 6.16019 101.266C6.16019 101.78 5.74854 102.192 5.23398 102.192C4.71942 102.192 4.30777 101.78 4.30777 101.266Z" fill="#A92023"/>
<path d="M134.904 95.2968C134.904 95.091 134.801 93.856 133.463 93.856C133.257 93.856 132.948 93.6502 132.948 93.3415C132.948 93.0327 133.154 92.8269 133.463 92.8269C133.669 92.8269 134.904 92.724 134.904 91.3861C134.904 91.0774 135.109 90.8716 135.418 90.8716C135.727 90.8716 135.933 91.0774 135.933 91.3861C135.933 92.724 137.168 92.8269 137.373 92.8269C137.682 92.8269 137.888 93.0327 137.888 93.3415C137.888 93.6502 137.682 93.856 137.373 93.856C136.036 93.856 135.933 95.091 135.933 95.2968C135.933 95.5026 135.727 95.7085 135.418 95.7085C135.109 95.7085 134.904 95.5026 134.904 95.2968Z" fill="#A92023"/>
<path d="M12.18 70.7812C12.4199 71.3349 12.8199 71.704 13.2198 71.704H31.1369V12.2737C31.1369 7.29037 34.4963 2.86078 39.7754 0H13.2198C12.7399 0 12.3399 0.369133 12.18 0.922832C11.94 1.56881 11.94 70.1352 12.18 70.7812Z" fill="#005D33"/>
<path d="M33.5366 12.2737C33.5366 18.0875 42.2552 24.5473 54.8131 24.5473C67.3711 24.5473 76.0896 18.0875 76.0896 12.2737C76.0896 6.45982 67.2911 0 54.8131 0C42.3352 0 33.5366 6.45982 33.5366 12.2737Z" fill="#005D33"/>
<path d="M54.8126 14.0274C61.6914 14.0274 65.2109 11.5358 65.4508 10.5207C65.2109 9.50556 61.6914 7.01392 54.8126 7.01392C47.9337 7.01392 44.3343 9.59785 44.1743 10.5207C44.3343 11.4435 47.8537 14.0274 54.8126 14.0274Z" fill="white"/>
<path d="M33.5366 19.1953V75.2112C33.5366 81.025 42.2552 87.4849 54.8131 87.4849C67.3711 87.4849 76.0896 81.025 76.0896 75.2112V19.1953C72.3302 24.4555 64.3316 27.9622 54.8131 27.9622C45.2947 27.9622 37.296 24.4555 33.5366 19.1953ZM38.2558 73.4578C38.2558 74.3807 37.6959 75.2112 37.056 75.2112C36.4161 75.2112 35.8562 74.4729 35.8562 73.4578V40.2359C35.8562 39.313 36.4161 38.4825 37.056 38.4825C37.6959 38.4825 38.2558 39.2208 38.2558 40.2359V73.4578ZM38.2558 33.2224C38.2558 34.1452 37.6959 34.9757 37.056 34.9757C36.4161 34.9757 35.8562 34.2375 35.8562 33.2224V29.7156C35.8562 28.7928 36.4161 27.9622 37.056 27.9622C37.6959 27.9622 38.2558 28.7005 38.2558 29.7156V33.2224Z" fill="#005D33"/>
<path d="M71.9458 89.2716C71.9458 87.8606 73.0746 86.6377 74.4857 86.6377H86.2443C87.6554 86.6377 88.7842 87.7665 88.7842 89.2716C88.7842 90.6827 87.6554 91.9056 86.2443 91.9056H74.4857C73.0746 91.8115 71.9458 90.6827 71.9458 89.2716Z" fill="#82B09B" stroke="#2D346A" stroke-width="1.5" stroke-miterlimit="10" stroke-linecap="round" stroke-linejoin="round"/>
<path d="M70.3467 84.0978C70.3467 82.6868 71.4755 81.4639 72.8865 81.4639H84.6452C86.0562 81.4639 87.1851 82.5927 87.1851 84.0978C87.1851 85.5089 86.0562 86.7318 84.6452 86.7318H72.8865C71.4755 86.6377 70.3467 85.5089 70.3467 84.0978Z" fill="#82B09B" stroke="#2D346A" stroke-width="1.5" stroke-miterlimit="10" stroke-linecap="round" stroke-linejoin="round"/>
<path d="M71.9458 78.8302C71.9458 77.4192 73.0746 76.1963 74.4857 76.1963H86.2443C87.6554 76.1963 88.7842 77.3251 88.7842 78.8302C88.7842 80.2413 87.6554 81.4642 86.2443 81.4642H74.4857C73.0746 81.4642 71.9458 80.3353 71.9458 78.8302Z" fill="#82B09B" stroke="#2D346A" stroke-width="1.5" stroke-miterlimit="10" stroke-linecap="round" stroke-linejoin="round"/>
<path d="M68.8413 68.4828C68.8413 67.0718 69.9701 65.8489 71.3812 65.8489H83.1398C84.5509 65.8489 85.6797 66.9777 85.6797 68.4828C85.6797 69.9879 84.5509 71.1168 83.1398 71.1168H84.6449C86.056 71.1168 87.1848 72.2456 87.1848 73.7507C87.1848 75.2558 86.056 76.3846 84.6449 76.3846H72.8863C71.4752 76.3846 70.3464 75.2558 70.3464 73.7507C70.3464 72.2456 71.4752 71.1168 72.8863 71.1168H71.3812C69.9701 71.1168 68.8413 69.8939 68.8413 68.4828Z" fill="#82B09B" stroke="#2D346A" stroke-width="1.5" stroke-miterlimit="10" stroke-linecap="round" stroke-linejoin="round"/>
<path d="M67.3364 63.309C67.3364 61.898 68.4653 60.675 69.8763 60.675H81.6349C83.046 60.675 84.1748 61.8039 84.1748 63.309C84.1748 64.72 83.046 65.9429 81.6349 65.9429H69.7822C68.4653 65.8489 67.3364 64.72 67.3364 63.309Z" fill="#82B09B" stroke="#2D346A" stroke-width="1.5" stroke-miterlimit="10" stroke-linecap="round" stroke-linejoin="round"/>
<path d="M67.3364 52.9611C67.3364 51.55 68.4653 50.3271 69.8763 50.3271H81.6349C83.046 50.3271 84.1748 51.456 84.1748 52.9611C84.1748 54.4662 82.9519 55.501 81.5409 55.501H83.1401C84.5511 55.501 85.6799 56.6298 85.6799 58.1349C85.6799 59.5459 84.5511 60.7688 83.1401 60.7688H71.3814C69.9704 60.7688 68.8415 59.64 68.8415 58.1349C68.8415 56.7239 69.9704 55.501 71.3814 55.501H69.8763C68.4653 55.501 67.3364 54.3721 67.3364 52.9611Z" fill="#82B09B" stroke="#2D346A" stroke-width="1.5" stroke-miterlimit="10" stroke-linecap="round" stroke-linejoin="round"/>
<path d="M81.5408 55.5012H76.2729" stroke="#2D346A" stroke-width="1.5" stroke-miterlimit="10" stroke-linecap="round" stroke-linejoin="round"/>
<path d="M71.3813 55.5012H72.4161" stroke="#2D346A" stroke-width="1.5" stroke-miterlimit="10" stroke-linecap="round" stroke-linejoin="round"/>
<path d="M72.8862 71.1162H79.1889" stroke="#2D346A" stroke-width="1.5" stroke-miterlimit="10" stroke-linecap="round" stroke-linejoin="round"/>
<path d="M70.3467 47.6935C70.3467 46.2825 71.4755 45.0596 72.8865 45.0596H84.6452C86.0562 45.0596 87.1851 46.1884 87.1851 47.6935C87.1851 49.1046 86.0562 50.3275 84.6452 50.3275H72.8865C71.4755 50.3275 70.3467 49.1986 70.3467 47.6935Z" fill="#82B09B" stroke="#2D346A" stroke-width="1.5" stroke-miterlimit="10" stroke-linecap="round" stroke-linejoin="round"/>
<path d="M71.9458 42.5199C71.9458 41.1089 73.0746 39.886 74.4857 39.886H86.2443C87.6554 39.886 88.7842 41.0148 88.7842 42.5199C88.7842 43.931 87.6554 45.1539 86.2443 45.1539H74.4857C73.0746 45.1539 71.9458 43.931 71.9458 42.5199Z" fill="#82B09B" stroke="#2D346A" stroke-width="1.5" stroke-miterlimit="10" stroke-linecap="round" stroke-linejoin="round"/>
<path d="M120.015 65.4724C118.416 57.0062 110.044 50.6095 99.9783 50.6095L97.3444 50.7976C96.4978 50.8917 95.7452 50.9858 94.8986 51.1739H94.9927C86.9027 47.9755 80.1297 49.6688 79.5653 50.6095C79.0009 51.6442 80.6001 53.9019 83.8925 57.4765C81.823 59.7342 80.4119 62.4622 79.8475 65.4724C76.367 66.0368 73.5449 67.1657 73.8271 70.4581C74.1093 73.7505 75.4263 76.4785 76.8373 78.2659C78.6246 80.6176 80.6001 79.5828 82.7637 78.2659C84.4569 80.5235 86.7146 82.499 89.3485 83.91C90.1011 87.955 88.3138 92 88.3138 92H93.9579C93.9579 92 96.78 89.272 97.1563 86.1677L99.9783 86.4499C101.295 86.4499 102.989 86.2618 102.989 86.2618C103.835 91.5296 102.989 91.9059 102.989 91.9059H110.702C110.702 91.9059 119.827 80.7117 120.391 68.5767L120.015 65.4724Z" fill="#DADADA" stroke="#2D346A" stroke-width="1.5" stroke-miterlimit="10" stroke-linecap="round" stroke-linejoin="round"/>
<path d="M124.812 61.4275C124.624 60.1105 123.119 59.9224 122.367 60.4868C121.614 61.0512 121.614 62.3682 122.367 63.403C123.119 64.4377 124.812 64.4377 125.941 63.5911C127.07 62.7445 127.635 61.8038 127.352 59.2639" stroke="#2D346A" stroke-width="1.5" stroke-miterlimit="10" stroke-linecap="round" stroke-linejoin="round"/>
<path d="M122.743 63.7791C120.015 66.9774 117.005 65.096 117.005 65.096" stroke="#2D346A" stroke-width="1.5" stroke-miterlimit="10" stroke-linecap="round" stroke-linejoin="round"/>
<path d="M99.8843 86.3556C101.201 86.3556 102.894 86.1675 102.894 86.1675C103.741 91.4353 102.894 91.8116 102.894 91.8116H110.608C110.608 91.8116 119.733 80.6174 120.297 68.4824" stroke="#2D346A" stroke-width="1.5" stroke-miterlimit="10" stroke-linecap="round" stroke-linejoin="round"/>
<path d="M97.3444 50.7976C96.4978 50.8917 95.7452 50.9858 94.8986 51.1739H94.9927C86.9027 47.9755 80.1297 49.6688 79.5653 50.6095C79.0009 51.6442 80.6001 53.9019 83.8925 57.4765C81.823 59.7342 80.4119 62.4622 79.8475 65.4724C76.367 66.0369 73.5449 67.1657 73.8271 70.4581C74.1093 73.7505 75.4263 76.4785 76.8373 78.2659C78.6246 80.6176 80.6001 79.5828 82.7637 78.2659C84.4569 80.5235 86.7146 82.499 89.3485 83.91C90.1011 87.955 88.3138 92 88.3138 92H93.9579C93.9579 92 96.78 89.272 97.1563 86.1677" stroke="#2D346A" stroke-width="1.5" stroke-miterlimit="10" stroke-linecap="round" stroke-linejoin="round"/>
<path d="M120.015 65.4723C118.416 57.0061 110.043 50.6094 99.978 50.6094" stroke="#2D346A" stroke-width="1.5" stroke-miterlimit="10" stroke-linecap="round" stroke-linejoin="round"/>
<path d="M87.3731 64.7203C88.2563 64.7203 88.9723 64.0044 88.9723 63.1211C88.9723 62.2379 88.2563 61.522 87.3731 61.522C86.4899 61.522 85.7739 62.2379 85.7739 63.1211C85.7739 64.0044 86.4899 64.7203 87.3731 64.7203Z" fill="#2D346A"/>
<path d="M106.281 56.0659C109.866 56.0659 112.772 53.0756 112.772 49.3869C112.772 45.6983 109.866 42.708 106.281 42.708C102.696 42.708 99.79 45.6983 99.79 49.3869C99.79 53.0756 102.696 56.0659 106.281 56.0659Z" fill="#005D33"/>
<path d="M106.281 53.3374C108.411 53.3374 110.137 51.5685 110.137 49.3865C110.137 47.2044 108.411 45.4355 106.281 45.4355C104.151 45.4355 102.424 47.2044 102.424 49.3865C102.424 51.5685 104.151 53.3374 106.281 53.3374Z" fill="white"/>
<path d="M109.479 55.2191C112.584 53.4318 113.712 49.3869 112.019 46.1885C110.326 42.9901 106.375 41.7672 103.271 43.5546C100.166 45.3419 99.0376 49.3869 100.731 52.5852" stroke="#2D346A" stroke-width="1.5" stroke-miterlimit="10" stroke-linecap="round" stroke-linejoin="round"/>
<path d="M111.36 59.452C107.033 55.9714 101.765 54.5604 96.6855 55.1248" stroke="#2D346A" stroke-width="1.5" stroke-miterlimit="10" stroke-linecap="round" stroke-linejoin="round"/>
<path d="M121.803 91.8115C126.582 91.8115 130.457 87.8526 130.457 82.969C130.457 78.0854 126.582 74.1265 121.803 74.1265C117.023 74.1265 113.148 78.0854 113.148 82.969C113.148 87.8526 117.023 91.8115 121.803 91.8115Z" fill="#005D33" stroke="#2D346A" stroke-width="1.5" stroke-miterlimit="10" stroke-linecap="round" stroke-linejoin="round"/>
<path d="M121.803 88.2369C124.66 88.2369 126.977 85.8784 126.977 82.9691C126.977 80.0597 124.66 77.7012 121.803 77.7012C118.945 77.7012 116.629 80.0597 116.629 82.9691C116.629 85.8784 118.945 88.2369 121.803 88.2369Z" fill="white"/>
<path d="M29 105H113" stroke="#2D346A" stroke-width="2" stroke-miterlimit="10" stroke-linecap="round"/>
</g>
<defs>
<clipPath id="clip0_1549_498">
<rect width="141.711" height="106" fill="white" transform="translate(0.5)"/>
</clipPath>
</defs>
</svg>
