<svg width="31" height="30" viewBox="0 0 31 30" fill="none" xmlns="http://www.w3.org/2000/svg">
<g clip-path="url(#clip0_1968_2105)">
<mask id="mask0_1968_2105" style="mask-type:luminance" maskUnits="userSpaceOnUse" x="0" y="0" width="31" height="30">
<path d="M23.0589 0H7.60439C3.58778 0 0.331665 3.25611 0.331665 7.27273V22.7273C0.331665 26.7439 3.58778 30 7.60439 30H23.0589C27.0756 30 30.3317 26.7439 30.3317 22.7273V7.27273C30.3317 3.25611 27.0756 0 23.0589 0Z" fill="white"/>
</mask>
<g mask="url(#mask0_1968_2105)">
<path d="M30.3317 0H0.331665V30H30.3317V0Z" fill="#100943"/>
<path d="M30.3317 15C38.616 15 45.3317 8.28427 45.3317 7.62939e-06C45.3317 -8.28427 38.616 -15 30.3317 -15C22.0474 -15 15.3317 -8.28427 15.3317 7.62939e-06C15.3317 8.28427 22.0474 15 30.3317 15Z" fill="#ED143B"/>
<path d="M18.8626 14.3151H9.9995V10.8079H18.8626C19.3803 10.8079 19.7402 10.8981 19.9209 11.0557C20.1016 11.2133 20.2135 11.5056 20.2135 11.9325V13.1918C20.2135 13.6417 20.1016 13.934 19.9209 14.0915C19.7402 14.2491 19.3803 14.3165 18.8626 14.3165V14.3151ZM19.4706 7.50134H6.24072V22.5H9.9995V17.6203H16.9265L20.2135 22.5H24.4225L20.7986 17.5974C22.1347 17.3994 22.7346 16.99 23.2294 16.3152C23.7241 15.6404 23.9723 14.5616 23.9723 13.1218V11.9972C23.9723 11.1433 23.8819 10.4685 23.7241 9.9513C23.5664 9.43409 23.2969 8.98425 22.9139 8.58018C22.5094 8.19768 22.0592 7.9283 21.5185 7.74782C20.9779 7.59025 20.3025 7.5 19.4706 7.5V7.50134Z" fill="white"/>
</g>
</g>
<defs>
<clipPath id="clip0_1968_2105">
<rect width="30" height="30" fill="white" transform="translate(0.331665)"/>
</clipPath>
</defs>
</svg>
