<svg width="31" height="30" viewBox="0 0 31 30" fill="none" xmlns="http://www.w3.org/2000/svg">
<g clip-path="url(#clip0_1968_2099)">
<rect x="0.331665" width="30" height="30" rx="8" fill="#1BD741"/>
<path fill-rule="evenodd" clip-rule="evenodd" d="M6.99489 23.4751L10.3131 22.6315L10.6333 22.8156C11.9794 23.5898 13.5224 23.9994 15.0956 24H15.0992C19.9314 24 23.8644 20.1882 23.8663 15.5031C23.8672 13.2327 22.9562 11.0979 21.3009 9.49181C19.6456 7.88572 17.4443 7.00079 15.1026 7C10.2666 7 6.33359 10.8114 6.33167 15.4962C6.33099 17.1017 6.7945 18.6653 7.67212 20.0181L7.88058 20.3396L6.99489 23.4751ZM20.0523 17.7046C20.2361 17.7907 20.3602 17.8489 20.4132 17.9346C20.4791 18.0411 20.4791 18.5526 20.2596 19.1493C20.0399 19.746 18.9869 20.2906 18.4805 20.3639C18.0264 20.4297 17.4518 20.4571 16.8205 20.2626C16.4376 20.1449 15.9467 19.9878 15.3179 19.7246C12.847 18.6906 11.1773 16.3696 10.8617 15.931C10.8396 15.9002 10.8241 15.8787 10.8155 15.8676L10.8133 15.8648C10.6739 15.6845 9.73927 14.476 9.73927 13.2252C9.73927 12.0486 10.3356 11.4319 10.6101 11.148C10.6289 11.1285 10.6462 11.1106 10.6617 11.0943C10.9033 10.8385 11.1889 10.7746 11.3646 10.7746C11.5402 10.7746 11.7161 10.7762 11.8697 10.7836C11.8887 10.7846 11.9084 10.7844 11.9287 10.7843C12.0823 10.7835 12.2738 10.7824 12.4627 11.2221C12.5354 11.3913 12.6417 11.6422 12.7539 11.9068C12.9807 12.442 13.2312 13.0332 13.2753 13.1188C13.3412 13.2466 13.3852 13.3957 13.2973 13.5663C13.2841 13.5919 13.2719 13.616 13.2603 13.6391C13.1943 13.7696 13.1457 13.8656 13.0337 13.9924C12.9897 14.0422 12.9442 14.0959 12.8987 14.1496C12.808 14.2567 12.7173 14.3637 12.6384 14.4399C12.5064 14.5673 12.3691 14.7055 12.5228 14.9612C12.6766 15.2169 13.2055 16.0534 13.9891 16.7307C14.8313 17.4588 15.5634 17.7665 15.9344 17.9225C16.0069 17.953 16.0656 17.9777 16.1086 17.9986C16.3721 18.1265 16.5258 18.1051 16.6796 17.9346C16.8333 17.7642 17.3385 17.1887 17.5141 16.933C17.6898 16.6774 17.8656 16.72 18.1071 16.8052C18.3488 16.8905 19.6446 17.5084 19.9081 17.6362C19.9596 17.6612 20.0077 17.6837 20.0523 17.7046Z" fill="white"/>
</g>
<defs>
<clipPath id="clip0_1968_2099">
<rect width="30" height="30" fill="white" transform="translate(0.331665)"/>
</clipPath>
</defs>
</svg>
