<svg width="31" height="30" viewBox="0 0 31 30" fill="none" xmlns="http://www.w3.org/2000/svg">
<g clip-path="url(#clip0_1968_2091)">
<rect x="0.331665" width="30" height="30" rx="8" fill="#1F476C"/>
<path d="M16.2017 20.0406C16.2017 20.0406 16.559 20.0016 16.742 19.8087C16.9095 19.6319 16.9037 19.2983 16.9037 19.2983C16.9037 19.2983 16.8814 17.7404 17.6183 17.5104C18.3446 17.2841 19.2771 19.0169 20.2667 19.6832C21.0143 20.187 21.5817 20.0767 21.5817 20.0767L24.2262 20.0406C24.2262 20.0406 25.609 19.957 24.9534 18.8896C24.8992 18.8021 24.5709 18.0997 22.9877 16.6568C21.329 15.1465 21.5517 15.3907 23.5484 12.7778C24.7646 11.1866 25.2507 10.2152 25.0987 9.79985C24.9544 9.40254 24.0596 9.50805 24.0596 9.50805L21.083 9.52611C21.083 9.52611 20.8622 9.49664 20.6986 9.59264C20.5388 9.68674 20.4352 9.90631 20.4352 9.90631C20.4352 9.90631 19.9646 11.1372 19.3361 12.1847C18.0105 14.3937 17.4808 14.5106 17.2639 14.3737C16.7594 14.0534 16.8853 13.0886 16.8853 12.4033C16.8853 10.2618 17.2165 9.36927 16.2414 9.1383C15.9179 9.06131 15.6797 9.01093 14.8518 9.00238C13.7896 8.99192 12.891 9.00618 12.3816 9.25046C12.0427 9.413 11.7812 9.77609 11.941 9.797C12.1376 9.82267 12.583 9.91486 12.8193 10.2304C13.1243 10.6382 13.1137 11.5526 13.1137 11.5526C13.1137 11.5526 13.2889 14.0733 12.7041 14.3861C12.3032 14.6009 11.7532 14.1627 10.5708 12.1581C9.96563 11.1315 9.50858 9.99661 9.50858 9.99661C9.50858 9.99661 9.42047 9.78465 9.26263 9.67058C9.07187 9.53276 8.80558 9.48999 8.80558 9.48999L5.97709 9.50805C5.97709 9.50805 5.552 9.51945 5.3961 9.701C5.25763 9.86164 5.38544 10.1953 5.38544 10.1953C5.38544 10.1953 7.60001 15.2814 10.108 17.8449C12.4078 20.1946 15.0184 20.0406 15.0184 20.0406H16.2017Z" fill="white"/>
</g>
<defs>
<clipPath id="clip0_1968_2091">
<rect width="30" height="30" fill="white" transform="translate(0.331665)"/>
</clipPath>
</defs>
</svg>
