<svg width="150" height="106" viewBox="0 0 150 106" fill="none" xmlns="http://www.w3.org/2000/svg">
<g clip-path="url(#clip0_1637_1107)">
<path d="M111.196 43.6531C113.449 33.7021 113.449 23.7511 113.449 15.4899C113.449 14.7389 112.885 14.1756 112.134 14.1756C102.371 13.894 81.1549 6.19607 76.0855 1.1267C75.5223 0.657312 74.6774 0.657312 74.208 1.1267C72.4243 2.91036 68.2937 5.25729 62.8488 7.60422L54.9632 10.5144C48.204 12.7675 42.0081 14.0817 38.0653 14.1756C37.3142 14.1756 36.751 14.7389 36.751 15.4899C36.751 44.0286 41.2571 75.2897 74.4896 90.7794C74.8651 90.9672 75.2406 90.9672 75.6161 90.7794C81.3426 88.2447 86.6936 84.7713 91.2936 80.6407C95.0487 77.2611 98.3344 73.3182 100.775 68.9999C100.963 68.906 107.722 58.7673 111.196 43.6531Z" fill="#DADADA"/>
<path d="M104.437 44.0283C106.315 35.9548 106.315 27.8814 106.315 21.1222C106.315 20.559 105.845 20.0896 105.282 20.0896C97.3025 19.9018 80.0291 13.6121 75.9923 9.48146C75.5229 9.10595 74.8658 9.10595 74.4903 9.48146C73.0821 10.9835 69.7026 12.861 65.2903 14.7386L58.9067 17.0855C53.3679 18.8692 48.3924 19.9957 45.2006 20.0896C44.6374 20.0896 44.168 20.559 44.168 21.1222C44.168 44.3099 47.8292 69.7506 74.8658 82.2363C75.1474 82.3301 75.5229 82.3301 75.8046 82.2363C80.4984 80.171 84.8168 77.3547 88.5719 73.9751C91.6698 71.2526 94.2984 68.0608 96.2698 64.4935C96.0821 64.4935 101.621 56.3262 104.437 44.0283Z" fill="#005D33"/>
<mask id="path-3-inside-1_1637_1107" fill="white">
<path d="M101.713 18.0714C96.644 16.7571 91.7624 15.1612 86.9746 13.2837C86.2236 12.9081 102.37 18.2591 101.713 18.0714Z"/>
</mask>
<path d="M101.713 18.0714L102.125 16.6291L102.108 16.624L102.09 16.6194L101.713 18.0714ZM86.9746 13.2837L86.3038 14.6253L86.3642 14.6555L86.427 14.6801L86.9746 13.2837ZM102.09 16.6194C97.0802 15.3206 92.2557 13.7434 87.5223 11.8872L86.427 14.6801C91.269 16.5789 96.2078 18.1936 101.337 19.5234L102.09 16.6194ZM87.6455 11.942C87.657 11.9478 87.684 11.9615 87.7188 11.9819C87.7396 11.9941 87.8294 12.0464 87.9311 12.1341C87.978 12.1745 88.0916 12.2764 88.1988 12.4376C88.2884 12.5723 88.5339 12.9894 88.4204 13.5595C88.2933 14.1974 87.8315 14.5067 87.5977 14.6185C87.3742 14.7255 87.1797 14.7493 87.1095 14.7567C86.9513 14.7733 86.8282 14.7594 86.8044 14.7569C86.7593 14.7521 86.7256 14.7463 86.7113 14.7437C86.6818 14.7384 86.6654 14.7342 86.6722 14.7359C86.7048 14.7437 86.8035 14.7708 86.99 14.8265C87.344 14.9323 87.8992 15.1061 88.5973 15.3288C89.989 15.7727 91.9117 16.399 93.841 17.0323C95.7694 17.6653 97.7007 18.3042 99.1082 18.7729C99.8123 19.0074 100.383 19.1986 100.757 19.325C100.946 19.3888 101.078 19.4341 101.151 19.4597C101.203 19.4781 101.19 19.4742 101.159 19.4613C101.151 19.4582 101.135 19.4514 101.114 19.442C101.104 19.4376 101.045 19.4114 100.974 19.3696C100.928 19.342 100.801 19.2512 100.722 19.1839C100.543 18.9888 100.233 18.0517 100.424 17.3441C100.79 16.9099 101.476 16.5984 101.665 16.5778C101.746 16.5763 101.873 16.5828 101.917 16.5876C101.989 16.5965 102.044 16.6089 102.055 16.6114C102.075 16.616 102.091 16.62 102.099 16.622C102.114 16.6259 102.125 16.6289 102.125 16.6291L101.301 19.5137C101.312 19.5168 101.331 19.522 101.352 19.5276C101.363 19.5303 101.382 19.535 101.404 19.5401C101.418 19.543 101.474 19.5557 101.547 19.5647C101.592 19.5696 101.719 19.5762 101.801 19.5747C101.99 19.554 102.676 19.2425 103.042 18.8082C103.233 18.1004 102.923 17.1632 102.744 16.968C102.665 16.9005 102.537 16.8094 102.491 16.7816C102.419 16.7393 102.358 16.7124 102.347 16.7072C102.324 16.697 102.305 16.6892 102.295 16.6849C102.241 16.6628 102.174 16.6396 102.145 16.6292C102.054 16.5972 101.907 16.5471 101.719 16.4833C101.338 16.3545 100.761 16.1614 100.056 15.9265C98.6442 15.4564 96.7089 14.8162 94.7766 14.1819C92.8452 13.5479 90.913 12.9185 89.509 12.4707C88.8091 12.2474 88.2312 12.0663 87.8485 11.952C87.6666 11.8977 87.4961 11.8485 87.375 11.8193C87.3434 11.8117 87.2958 11.8007 87.2426 11.7911C87.2164 11.7864 87.1727 11.7791 87.1195 11.7735C87.0877 11.7701 86.9584 11.756 86.7959 11.7731C86.7236 11.7807 86.5275 11.8049 86.3028 11.9124C86.0678 12.0248 85.6054 12.3348 85.4781 12.9736C85.3644 13.5445 85.6102 13.9627 85.7006 14.0986C85.8086 14.2611 85.9235 14.3643 85.9722 14.4063C86.0776 14.4971 86.173 14.5532 86.2015 14.5699C86.2439 14.5948 86.2806 14.6137 86.3038 14.6253L87.6455 11.942Z" fill="#333366" mask="url(#path-3-inside-1_1637_1107)"/>
<mask id="path-5-inside-2_1637_1107" fill="white">
<path d="M103.216 67.9205C104.061 66.5124 104.906 65.0103 105.657 63.5083L103.216 67.9205Z"/>
</mask>
<path d="M104.502 68.6923C105.361 67.2605 106.226 65.724 106.998 64.1791L104.315 62.8375C103.585 64.2967 102.76 65.7643 101.93 67.1488L104.502 68.6923Z" fill="#333366" mask="url(#path-5-inside-2_1637_1107)"/>
<mask id="path-7-inside-3_1637_1107" fill="white">
<path d="M108.379 56.8426C113.637 42.6672 114.294 27.0836 114.294 15.1612C114.294 14.4101 113.73 13.8469 112.979 13.8469C102.935 13.5653 81.2489 5.67957 76.0857 0.422447C75.5224 -0.140816 74.6775 -0.140816 74.1143 0.422447C72.3306 2.29999 68.1061 4.64692 62.5674 6.99385"/>
</mask>
<path d="M112.979 13.8469L112.937 15.3463L112.958 15.3469H112.979V13.8469ZM76.0857 0.422447L77.1559 -0.628657L77.1464 -0.638213L76.0857 0.422447ZM74.1143 0.422447L73.0536 -0.638213L73.04 -0.624617L73.0268 -0.610677L74.1143 0.422447ZM109.786 57.3642C115.142 42.9226 115.794 27.1103 115.794 15.1612H112.794C112.794 27.0568 112.131 42.4118 106.973 56.3211L109.786 57.3642ZM115.794 15.1612C115.794 13.5817 114.559 12.3469 112.979 12.3469V15.3469C112.979 15.3469 112.978 15.3469 112.976 15.3467C112.974 15.3465 112.971 15.3461 112.967 15.3453C112.959 15.3437 112.948 15.3408 112.936 15.3358C112.91 15.3253 112.882 15.3079 112.858 15.283C112.833 15.2582 112.815 15.2306 112.805 15.2049C112.8 15.1924 112.797 15.1818 112.795 15.1737C112.795 15.1697 112.794 15.1666 112.794 15.1644C112.794 15.1622 112.794 15.1611 112.794 15.1612H115.794ZM113.021 12.3475C108.247 12.2136 100.499 10.2405 93.2148 7.59085C89.5966 6.27463 86.1459 4.81058 83.296 3.36122C80.4059 1.89148 78.267 0.5027 77.1559 -0.628615L75.0155 1.47351C76.486 2.97076 78.994 4.53911 81.9361 6.0353C84.9182 7.55187 88.4849 9.06256 92.1892 10.4101C99.5503 13.0879 107.667 15.1985 112.937 15.3463L113.021 12.3475ZM77.1464 -0.638213C75.9973 -1.78726 74.2027 -1.78726 73.0536 -0.638213L75.1749 1.48311C75.1822 1.47585 75.1791 1.4812 75.1628 1.48806C75.1468 1.49479 75.125 1.5 75.1 1.5C75.0749 1.5 75.0531 1.49479 75.0372 1.48806C75.0208 1.4812 75.0178 1.47585 75.025 1.48311L77.1464 -0.638213ZM73.0268 -0.610677C72.2908 0.164005 70.9449 1.13263 69.0106 2.22643C67.103 3.30517 64.7166 4.45405 61.9822 5.61272L63.1526 8.37498C65.9569 7.18672 68.4522 5.98867 70.4873 4.83783C72.4959 3.70205 74.1541 2.55843 75.2018 1.45557L73.0268 -0.610677Z" fill="#333366" mask="url(#path-7-inside-3_1637_1107)"/>
<mask id="path-9-inside-4_1637_1107" fill="white">
<path d="M54.5877 9.99829C47.6408 12.2513 41.351 13.6595 37.3143 13.7534C36.5633 13.7534 36 14.4105 36 15.0677C36 44.1696 40.6 76.0878 74.5835 91.8592C74.959 92.0469 75.3345 92.0469 75.71 91.8592C84.5345 87.9164 92.4202 81.9082 98.5222 74.398"/>
</mask>
<path d="M37.3143 13.7534V15.2534H37.3317L37.3492 15.253L37.3143 13.7534ZM74.5835 91.8592L75.2543 90.5176L75.2348 90.5078L75.215 90.4986L74.5835 91.8592ZM75.71 91.8592L75.0981 90.4897L75.0684 90.503L75.0392 90.5176L75.71 91.8592ZM54.1249 8.57146C47.2108 10.8139 41.0907 12.1651 37.2794 12.2538L37.3492 15.253C41.6113 15.1539 48.0707 13.6888 55.0504 11.4251L54.1249 8.57146ZM37.3143 12.2534C35.6667 12.2534 34.5 13.6519 34.5 15.0677H37.5C37.5 15.117 37.4898 15.1491 37.4832 15.1648C37.4766 15.1804 37.4694 15.1905 37.4617 15.1986C37.4456 15.2155 37.3939 15.2534 37.3143 15.2534V12.2534ZM34.5 15.0677C34.5 44.2384 39.093 77.0421 73.9521 93.2198L75.215 90.4986C42.1069 75.1335 37.5 44.1007 37.5 15.0677H34.5ZM73.9127 93.2008C74.7105 93.5997 75.5831 93.5997 76.3809 93.2008L75.0392 90.5176C75.0349 90.5197 75.0754 90.5 75.1468 90.5C75.2182 90.5 75.2587 90.5197 75.2543 90.5176L73.9127 93.2008ZM76.322 93.2287C85.3581 89.1913 93.434 83.0392 99.6864 75.3439L97.358 73.4521C91.4064 80.7772 83.7109 86.6414 75.0981 90.4897L76.322 93.2287Z" fill="#333366" mask="url(#path-9-inside-4_1637_1107)"/>
<path d="M88.8354 48.1059L97.52 45.2984C97.7313 45.2455 97.7313 44.927 97.52 44.8741L88.8367 42.0684C89.0479 43.0206 89.1536 44.0275 89.1536 45.0871C89.1536 46.094 89.0484 47.099 88.8354 48.1059Z" fill="white"/>
<path d="M86.1859 25.6015L79.4092 31.6901C81.3683 32.3256 83.169 33.3324 84.6512 34.7089L86.5575 25.7602C86.5575 25.6018 86.3444 25.443 86.1859 25.6015Z" fill="white"/>
<path d="M63.788 25.8128L65.6943 34.7088C67.1764 33.3323 68.9243 32.3254 70.8835 31.69L64.1595 25.6013C64.0011 25.4429 63.7351 25.6015 63.788 25.8128Z" fill="white"/>
<path d="M61.4593 42.068L52.7746 44.8755C52.5634 44.9283 52.5634 45.2469 52.7746 45.2997L61.4579 48.1055C61.2467 47.1533 61.1411 46.1464 61.1411 45.0868C61.1411 44.0271 61.2463 43.022 61.4593 42.068Z" fill="white"/>
<path d="M94.6601 56.1006L88.5187 49.3239C87.8833 51.283 86.8765 53.0837 85.5 54.5658L94.4487 56.4721C94.6599 56.4721 94.8203 56.259 94.6601 56.1006Z" fill="white"/>
<path d="M78.1918 31.3734L75.3843 22.6887C75.3315 22.4775 75.0129 22.4775 74.9601 22.6887L72.1543 31.372C73.1066 31.1608 74.1134 31.0552 75.173 31.0552C76.1799 31.0552 77.185 31.1604 78.1918 31.3734Z" fill="white"/>
<path d="M94.4487 33.7021L85.5 35.6084C86.8765 37.0906 87.8833 38.8384 88.5187 40.7977L94.6619 34.0191C94.8204 33.9153 94.6599 33.6493 94.4487 33.7021Z" fill="white"/>
<path d="M55.6882 34.0736L61.8314 40.8522C62.4668 38.893 63.4736 37.1452 64.8501 35.6629L55.8996 33.702C55.6884 33.6492 55.5298 33.9152 55.6882 34.0736Z" fill="white"/>
<path d="M86.5575 64.3613L84.6512 55.4126C83.169 56.7891 81.4212 57.7959 79.4092 58.4313L86.1877 64.5745C86.3444 64.733 86.5575 64.5725 86.5575 64.3613Z" fill="white"/>
<path d="M72.1543 58.7479L74.9601 67.4312C75.0129 67.6425 75.3315 67.6425 75.3843 67.4312L78.1901 58.7479C77.2378 58.9591 76.2309 59.0648 75.1713 59.0648C74.1134 59.0665 73.1083 58.9609 72.1543 58.7479Z" fill="white"/>
<path d="M64.1597 64.5726L70.9382 58.4294C68.9791 57.7939 67.2312 56.7871 65.749 55.4106L63.7881 64.3612C63.7353 64.5724 64.0012 64.7328 64.1597 64.5726Z" fill="white"/>
<path d="M55.8998 56.472L64.7958 54.5129C63.4193 53.0308 62.4125 51.2829 61.7771 49.3236L55.6884 56.1004C55.53 56.2588 55.6886 56.472 55.8998 56.472Z" fill="white"/>
<path d="M86.9589 45.0873C86.9589 51.5952 81.6821 56.8719 75.1743 56.8719C68.6664 56.8719 63.3896 51.5952 63.3896 45.0873C63.3896 38.5795 68.6664 33.3027 75.1743 33.3027C81.6821 33.3027 86.9589 38.5795 86.9589 45.0873Z" fill="#005D33" stroke="white"/>
<path d="M72.2287 40.3672H73.8366V46.1658C73.8366 46.8015 73.6864 47.3605 73.3859 47.843C73.0883 48.3255 72.6694 48.7026 72.1291 48.9742C71.5888 49.2428 70.9575 49.3772 70.2352 49.3772C69.51 49.3772 68.8773 49.2428 68.337 48.9742C67.7967 48.7026 67.3778 48.3255 67.0802 47.843C66.7826 47.3605 66.6338 46.8015 66.6338 46.1658V40.3672H68.2416V46.0315C68.2416 46.4013 68.3225 46.7307 68.4843 47.0196C68.649 47.3085 68.8802 47.5353 69.1777 47.7C69.4753 47.8618 69.8278 47.9427 70.2352 47.9427C70.6426 47.9427 70.9951 47.8618 71.2926 47.7C71.5931 47.5353 71.8243 47.3085 71.9861 47.0196C72.1479 46.7307 72.2287 46.4013 72.2287 46.0315V40.3672Z" fill="white"/>
<path d="M76.7717 40.3672L79.0816 47.3533H79.1726L81.4782 40.3672H83.2464L80.1174 49.2428H78.1325L75.0078 40.3672H76.7717Z" fill="white"/>
<path d="M144.4 13.1994C144.4 12.6994 144.2 10.3994 141.6 10.3994C141.1 10.3994 140.7 9.99941 140.7 9.49941C140.7 8.99941 141.1 8.59941 141.6 8.59941C142.1 8.59941 144.4 8.39941 144.4 5.79941C144.4 5.29941 144.8 4.89941 145.3 4.89941C145.8 4.89941 146.2 5.29941 146.2 5.79941C146.2 8.39941 148.5 8.59941 149 8.59941C149.5 8.59941 149.9 8.99941 149.9 9.49941C149.9 9.99941 149.5 10.3994 149 10.3994C146.4 10.3994 146.2 12.6994 146.2 13.1994C146.2 13.6994 145.8 14.0994 145.3 14.0994C144.8 14.0994 144.4 13.6994 144.4 13.1994Z" fill="#A92023"/>
<path d="M98.9 4.3C98.9 4.1 98.8 2.9 97.5 2.9C97.2 2.9 97 2.7 97 2.4C97 2.1 97.2 1.9 97.5 1.9C97.7 1.9 98.9 1.8 98.9 0.5C98.9 0.2 99.1 0 99.4 0C99.7 0 99.9 0.2 99.9 0.5C99.9 1.8 101.1 1.9 101.3 1.9C101.6 1.9 101.8 2.1 101.8 2.4C101.8 2.7 101.6 2.9 101.3 2.9C100 2.9 99.9 4.1 99.9 4.3C99.9 4.6 99.7 4.8 99.4 4.8C99.1 4.7 98.9 4.5 98.9 4.3Z" fill="#A92023"/>
<path d="M14.8004 12.9992C14.8004 12.7992 14.7004 11.5992 13.4004 11.5992C13.1004 11.5992 12.9004 11.3992 12.9004 11.0992C12.9004 10.7992 13.1004 10.5992 13.4004 10.5992C13.6004 10.5992 14.8004 10.4992 14.8004 9.19922C14.8004 8.89922 15.0004 8.69922 15.3004 8.69922C15.6004 8.69922 15.8004 8.89922 15.8004 9.19922C15.8004 10.4992 17.0004 10.5992 17.2004 10.5992C17.5004 10.5992 17.7004 10.7992 17.7004 11.0992C17.7004 11.3992 17.5004 11.5992 17.2004 11.5992C15.9004 11.5992 15.8004 12.7992 15.8004 12.9992C15.8004 13.2992 15.6004 13.4992 15.3004 13.4992C15.0004 13.4992 14.8004 13.1992 14.8004 12.9992Z" fill="#A92023"/>
<path d="M3.8 86.6002C3.8 86.1002 3.6 83.8002 1 83.8002C0.4 83.8002 0 83.3002 0 82.8002C0 82.3002 0.4 81.9002 0.9 81.9002C1.4 81.9002 3.7 81.7002 3.7 79.1002C3.7 78.6002 4.1 78.2002 4.6 78.2002C5.1 78.2002 5.5 78.6002 5.5 79.1002C5.5 81.7002 7.8 81.9002 8.3 81.9002C8.8 81.9002 9.2 82.3002 9.2 82.8002C9.2 83.3002 8.8 83.7002 8.3 83.7002C5.7 83.7002 5.5 86.0002 5.5 86.5002C5.5 87.0002 5.1 87.4002 4.6 87.4002C4.2 87.5002 3.8 87.1002 3.8 86.6002Z" fill="#A92023"/>
<path d="M139 91.3996C139 91.1996 138.9 89.9996 137.6 89.9996C137.3 89.9996 137.1 89.7996 137.1 89.4996C137.1 89.1996 137.3 88.9996 137.6 88.9996C137.8 88.9996 139 88.8996 139 87.5996C139 87.2996 139.2 87.0996 139.5 87.0996C139.8 87.0996 140 87.2996 140 87.5996C140 88.8996 141.2 88.9996 141.4 88.9996C141.7 88.9996 141.9 89.1996 141.9 89.4996C141.9 89.7996 141.7 89.9996 141.4 89.9996C140.1 89.9996 140 91.1996 140 91.3996C140 91.6996 139.8 91.8996 139.5 91.8996C139.2 91.7996 139 91.5996 139 91.3996Z" fill="#A92023"/>
<path d="M33 105H117" stroke="#2D346A" stroke-width="2" stroke-miterlimit="10" stroke-linecap="round"/>
</g>
<defs>
<clipPath id="clip0_1637_1107">
<rect width="150" height="106" fill="white"/>
</clipPath>
</defs>
</svg>
