<svg width="150" height="106" viewBox="0 0 150 106" fill="none" xmlns="http://www.w3.org/2000/svg">
<g clip-path="url(#clip0_1631_3876)">
<path d="M111.706 43.9822C113.959 34.0312 113.959 24.0802 113.959 15.819C113.959 15.068 113.396 14.5047 112.645 14.5047C102.882 14.2231 81.6656 6.52517 76.5963 1.4558C76.033 0.986413 75.1881 0.986413 74.7187 1.4558C72.9351 3.23947 68.8045 5.5864 63.3596 7.93332L55.4739 10.8435C48.7147 13.0966 42.5188 14.4108 38.576 14.5047C37.825 14.5047 37.2617 15.068 37.2617 15.819C37.2617 44.3577 41.7678 75.6188 75.0004 91.1085C75.3759 91.2963 75.7514 91.2963 76.1269 91.1085C81.8534 88.5738 87.2044 85.1004 91.8044 80.9698C95.5594 77.5902 98.8452 73.6473 101.286 69.329C101.474 69.2351 108.233 59.0964 111.706 43.9822Z" fill="#DADADA"/>
<path d="M104.948 44.3574C106.825 36.2839 106.825 28.2105 106.825 21.4513C106.825 20.8881 106.356 20.4187 105.793 20.4187C97.8132 20.2309 80.5398 13.9412 76.5031 9.81056C76.0337 9.43505 75.3766 9.43505 75.001 9.81056C73.5929 11.3126 70.2133 13.1901 65.8011 15.0677L59.4174 17.4146C53.8787 19.1983 48.9032 20.3248 45.7114 20.4187C45.1481 20.4187 44.6787 20.8881 44.6787 21.4513C44.6787 44.639 48.3399 70.0797 75.3765 82.5654C75.6582 82.6592 76.0337 82.6592 76.3153 82.5654C81.0092 80.5001 85.3275 77.6838 89.0826 74.3042C92.1806 71.5817 94.8091 68.3899 96.7805 64.8226C96.5928 64.8226 102.132 56.6553 104.948 44.3574Z" fill="#005D33"/>
<mask id="path-3-inside-1_1631_3876" fill="white">
<path d="M101.975 18.0714C96.9057 16.7571 92.0241 15.1612 87.2364 13.2837C86.4853 12.9081 102.632 18.2591 101.975 18.0714Z"/>
</mask>
<path d="M101.975 18.0714L102.387 16.6291L102.369 16.624L102.352 16.6194L101.975 18.0714ZM87.2364 13.2837L86.5655 14.6253L86.6259 14.6555L86.6887 14.6801L87.2364 13.2837ZM102.352 16.6194C97.3419 15.3206 92.5174 13.7434 87.784 11.8872L86.6887 14.6801C91.5308 16.5789 96.4695 18.1936 101.599 19.5234L102.352 16.6194ZM87.9072 11.942C87.9187 11.9478 87.9457 11.9615 87.9805 11.9819C88.0013 11.9941 88.0911 12.0464 88.1928 12.1341C88.2397 12.1745 88.3534 12.2764 88.4605 12.4376C88.5501 12.5723 88.7956 12.9894 88.6821 13.5595C88.555 14.1974 88.0932 14.5067 87.8594 14.6185C87.6359 14.7255 87.4414 14.7493 87.3712 14.7567C87.213 14.7733 87.0899 14.7594 87.0661 14.7569C87.021 14.7521 86.9873 14.7463 86.973 14.7437C86.9435 14.7384 86.9271 14.7342 86.9339 14.7359C86.9665 14.7437 87.0653 14.7708 87.2517 14.8265C87.6058 14.9323 88.161 15.1061 88.859 15.3288C90.2508 15.7727 92.1734 16.399 94.1027 17.0323C96.0311 17.6653 97.9624 18.3042 99.3699 18.7729C100.074 19.0074 100.645 19.1986 101.019 19.325C101.207 19.3888 101.34 19.4341 101.413 19.4597C101.465 19.4781 101.452 19.4742 101.42 19.4613C101.413 19.4582 101.396 19.4514 101.375 19.442C101.366 19.4376 101.307 19.4114 101.235 19.3696C101.19 19.342 101.062 19.2512 100.983 19.1839C100.804 18.9888 100.495 18.0517 100.685 17.3441C101.051 16.9099 101.737 16.5984 101.926 16.5778C102.008 16.5763 102.134 16.5828 102.179 16.5876C102.25 16.5965 102.305 16.6089 102.316 16.6114C102.337 16.616 102.353 16.62 102.361 16.622C102.376 16.6259 102.387 16.6289 102.387 16.6291L101.563 19.5137C101.574 19.5168 101.592 19.522 101.614 19.5276C101.625 19.5303 101.643 19.535 101.666 19.5401C101.679 19.543 101.736 19.5557 101.809 19.5647C101.854 19.5696 101.98 19.5762 102.062 19.5747C102.252 19.554 102.938 19.2425 103.304 18.8082C103.494 18.1004 103.185 17.1632 103.006 16.968C102.926 16.9005 102.798 16.8094 102.753 16.7816C102.681 16.7393 102.62 16.7124 102.609 16.7072C102.586 16.697 102.567 16.6892 102.557 16.6849C102.503 16.6628 102.436 16.6396 102.407 16.6292C102.316 16.5972 102.169 16.5471 101.98 16.4833C101.6 16.3545 101.023 16.1614 100.318 15.9265C98.9059 15.4564 96.9706 14.8162 95.0383 14.1819C93.1069 13.5479 91.1747 12.9185 89.7707 12.4707C89.0709 12.2474 88.4929 12.0663 88.1102 11.952C87.9284 11.8977 87.7578 11.8485 87.6367 11.8193C87.6051 11.8117 87.5575 11.8007 87.5043 11.7911C87.4782 11.7864 87.4344 11.7791 87.3813 11.7735C87.3494 11.7701 87.2201 11.756 87.0577 11.7731C86.9853 11.7807 86.7892 11.8049 86.5645 11.9124C86.3296 12.0248 85.8671 12.3348 85.7399 12.9736C85.6261 13.5445 85.872 13.9627 85.9623 14.0986C86.0703 14.2611 86.1853 14.3643 86.234 14.4063C86.3393 14.4971 86.4347 14.5532 86.4632 14.5699C86.5056 14.5948 86.5423 14.6137 86.5655 14.6253L87.9072 11.942Z" fill="#333366" mask="url(#path-3-inside-1_1631_3876)"/>
<mask id="path-5-inside-2_1631_3876" fill="white">
<path d="M103.478 67.9205C104.322 66.5124 105.167 65.0103 105.918 63.5083L103.478 67.9205Z"/>
</mask>
<path d="M104.764 68.6923C105.623 67.2605 106.488 65.724 107.26 64.1791L104.577 62.8375C103.847 64.2967 103.022 65.7643 102.191 67.1488L104.764 68.6923Z" fill="#333366" mask="url(#path-5-inside-2_1631_3876)"/>
<mask id="path-7-inside-3_1631_3876" fill="white">
<path d="M108.641 56.8426C113.898 42.6672 114.555 27.0836 114.555 15.1612C114.555 14.4101 113.992 13.8469 113.241 13.8469C103.196 13.5653 81.5107 5.67957 76.3474 0.422447C75.7842 -0.140816 74.9393 -0.140816 74.376 0.422447C72.5923 2.29999 68.3679 4.64692 62.8291 6.99385"/>
</mask>
<path d="M113.241 13.8469L113.199 15.3463L113.22 15.3469H113.241V13.8469ZM76.3474 0.422447L77.4176 -0.628657L77.4081 -0.638213L76.3474 0.422447ZM74.376 0.422447L73.3153 -0.638213L73.3017 -0.624617L73.2885 -0.610677L74.376 0.422447ZM110.048 57.3642C115.403 42.9226 116.055 27.1103 116.055 15.1612H113.055C113.055 27.0568 112.393 42.4118 107.235 56.3211L110.048 57.3642ZM116.055 15.1612C116.055 13.5817 114.821 12.3469 113.241 12.3469V15.3469C113.241 15.3469 113.24 15.3469 113.238 15.3467C113.236 15.3465 113.233 15.3461 113.229 15.3453C113.221 15.3437 113.21 15.3408 113.197 15.3358C113.172 15.3253 113.144 15.3079 113.119 15.283C113.094 15.2582 113.077 15.2306 113.067 15.2049C113.061 15.1924 113.059 15.1818 113.057 15.1737C113.056 15.1697 113.056 15.1666 113.056 15.1644C113.055 15.1622 113.055 15.1611 113.055 15.1612H116.055ZM113.283 12.3475C108.508 12.2136 100.76 10.2405 93.4765 7.59085C89.8583 6.27463 86.4077 4.81058 83.5577 3.36122C80.6676 1.89148 78.5287 0.5027 77.4176 -0.628615L75.2772 1.47351C76.7478 2.97076 79.2557 4.53911 82.1978 6.0353C85.1799 7.55187 88.7466 9.06256 92.4509 10.4101C99.812 13.0879 107.929 15.1985 113.199 15.3463L113.283 12.3475ZM77.4081 -0.638213C76.259 -1.78726 74.4644 -1.78726 73.3153 -0.638213L75.4367 1.48311C75.4439 1.47585 75.4408 1.4812 75.4245 1.48806C75.4086 1.49479 75.3868 1.5 75.3617 1.5C75.3366 1.5 75.3148 1.49479 75.2989 1.48806C75.2826 1.4812 75.2795 1.47585 75.2868 1.48311L77.4081 -0.638213ZM73.2885 -0.610677C72.5525 0.164005 71.2067 1.13263 69.2724 2.22643C67.3647 3.30517 64.9783 4.45405 62.2439 5.61272L63.4143 8.37498C66.2186 7.18672 68.7139 5.98867 70.749 4.83783C72.7576 3.70205 74.4158 2.55843 75.4635 1.45557L73.2885 -0.610677Z" fill="#333366" mask="url(#path-7-inside-3_1631_3876)"/>
<mask id="path-9-inside-4_1631_3876" fill="white">
<path d="M54.8494 9.99829C47.9025 12.2513 41.6127 13.6595 37.576 13.7534C36.825 13.7534 36.2617 14.4105 36.2617 15.0677C36.2617 44.1696 40.8617 76.0878 74.8452 91.8592C75.2207 92.0469 75.5963 92.0469 75.9718 91.8592C84.7962 87.9164 92.6819 81.9082 98.7839 74.398"/>
</mask>
<path d="M37.576 13.7534V15.2534H37.5934L37.6109 15.253L37.576 13.7534ZM74.8452 91.8592L75.5161 90.5176L75.4965 90.5078L75.4767 90.4986L74.8452 91.8592ZM75.9718 91.8592L75.3599 90.4897L75.3301 90.503L75.3009 90.5176L75.9718 91.8592ZM54.3866 8.57146C47.4725 10.8139 41.3524 12.1651 37.5411 12.2538L37.6109 15.253C41.8731 15.1539 48.3325 13.6888 55.3122 11.4251L54.3866 8.57146ZM37.576 12.2534C35.9284 12.2534 34.7617 13.6519 34.7617 15.0677H37.7617C37.7617 15.117 37.7515 15.1491 37.7449 15.1648C37.7384 15.1804 37.7311 15.1905 37.7234 15.1986C37.7074 15.2155 37.6557 15.2534 37.576 15.2534V12.2534ZM34.7617 15.0677C34.7617 44.2384 39.3547 77.0421 74.2138 93.2198L75.4767 90.4986C42.3687 75.1335 37.7617 44.1007 37.7617 15.0677H34.7617ZM74.1744 93.2008C74.9722 93.5997 75.8448 93.5997 76.6426 93.2008L75.3009 90.5176C75.2966 90.5197 75.3371 90.5 75.4085 90.5C75.4799 90.5 75.5204 90.5197 75.5161 90.5176L74.1744 93.2008ZM76.5837 93.2287C85.6199 89.1913 93.6957 83.0392 99.9481 75.3439L97.6198 73.4521C91.6681 80.7772 83.9726 86.6414 75.3599 90.4897L76.5837 93.2287Z" fill="#333366" mask="url(#path-9-inside-4_1631_3876)"/>
<path d="M94.3907 43.9603L78.5622 46.5275L82.9116 49.6901L84.3727 50.7471C84.3727 50.7471 80.2637 56.4587 79.3042 57.7401C71.7834 65.7323 63.0156 62.635 63.0156 62.635C65.5552 63.9804 70.1818 66.4575 72.3373 66.6222C82.2349 69.4484 90.7675 55.4968 90.7675 55.4968L95.5 59.1546L94.3907 43.9603Z" fill="white"/>
<path d="M62.7886 57.5535C69.6239 57.2249 70.2399 51.1335 70.267 50.4937C70.295 50.049 70.2241 49.5422 70.1237 49.02C70.1214 49.0181 70.1214 49.0148 70.1214 49.013C70.1177 49.0097 70.1177 49.0032 70.1177 48.9999C69.6729 46.7613 68.3368 44.1731 68.3368 44.1731C65.0954 37.7308 62.7886 33.135 62.7886 33.135C62.2627 33.7771 58.5228 41.6653 58.1807 42.3223C57.8718 42.8977 57.6081 43.4241 57.3613 43.9249C57.2651 44.1218 57.1783 44.3066 57.0887 44.4937C56.9618 44.7639 56.8447 45.0211 56.7387 45.2703C56.5138 45.7733 56.3211 46.2367 56.1661 46.6595C56.1526 46.6866 56.1367 46.7183 56.1265 46.7454C56.1251 46.7491 56.1251 46.751 56.1251 46.7543C55.5128 48.3811 55.335 49.3947 55.2874 49.9757C55.2841 49.9962 55.2813 50.013 55.2813 50.0312C55.2669 50.2067 55.2617 50.3546 55.2617 50.4503C55.9081 57.3579 62.4764 57.5535 62.7886 57.5535Z" fill="white"/>
<path d="M71.7366 40.9965C76.2143 40.7841 76.6147 36.7876 76.638 36.3704C76.722 34.8322 75.371 32.2208 75.371 32.2208C73.2439 28.0077 71.7366 25 71.7366 25C71.3912 25.4219 68.9398 30.5902 68.7177 31.0163C66.8463 34.5056 66.8076 35.9303 66.8076 36.3424C67.23 40.8691 71.5294 40.9965 71.7366 40.9965Z" fill="white"/>
<path d="M71.1327 55.7637C69.6641 57.9864 67.109 59.9352 62.9123 60.1368L62.8507 60.1401H62.7882C61.4997 60.1401 59.1379 59.7098 57.015 58.2996L56.9805 58.3584L62.671 61.6652C62.671 61.6652 70.75 63.6802 76.5302 58.9109L71.1327 55.7637Z" fill="white"/>
<path d="M144.662 13.1994C144.662 12.6994 144.462 10.3994 141.862 10.3994C141.362 10.3994 140.962 9.99941 140.962 9.49941C140.962 8.99941 141.362 8.59941 141.862 8.59941C142.362 8.59941 144.662 8.39941 144.662 5.79941C144.662 5.29941 145.062 4.89941 145.562 4.89941C146.062 4.89941 146.462 5.29941 146.462 5.79941C146.462 8.39941 148.762 8.59941 149.262 8.59941C149.762 8.59941 150.162 8.99941 150.162 9.49941C150.162 9.99941 149.762 10.3994 149.262 10.3994C146.662 10.3994 146.462 12.6994 146.462 13.1994C146.462 13.6994 146.062 14.0994 145.562 14.0994C145.062 14.0994 144.662 13.6994 144.662 13.1994Z" fill="#A92023"/>
<path d="M99.1617 4.3C99.1617 4.1 99.0617 2.9 97.7617 2.9C97.4617 2.9 97.2617 2.7 97.2617 2.4C97.2617 2.1 97.4617 1.9 97.7617 1.9C97.9617 1.9 99.1617 1.8 99.1617 0.5C99.1617 0.2 99.3617 0 99.6617 0C99.9617 0 100.162 0.2 100.162 0.5C100.162 1.8 101.362 1.9 101.562 1.9C101.862 1.9 102.062 2.1 102.062 2.4C102.062 2.7 101.862 2.9 101.562 2.9C100.262 2.9 100.162 4.1 100.162 4.3C100.162 4.6 99.9617 4.8 99.6617 4.8C99.3617 4.7 99.1617 4.5 99.1617 4.3Z" fill="#A92023"/>
<path d="M15.0621 12.9992C15.0621 12.7992 14.9621 11.5992 13.6621 11.5992C13.3621 11.5992 13.1621 11.3992 13.1621 11.0992C13.1621 10.7992 13.3621 10.5992 13.6621 10.5992C13.8621 10.5992 15.0621 10.4992 15.0621 9.19922C15.0621 8.89922 15.2621 8.69922 15.5621 8.69922C15.8621 8.69922 16.0621 8.89922 16.0621 9.19922C16.0621 10.4992 17.2621 10.5992 17.4621 10.5992C17.7621 10.5992 17.9621 10.7992 17.9621 11.0992C17.9621 11.3992 17.7621 11.5992 17.4621 11.5992C16.1621 11.5992 16.0621 12.7992 16.0621 12.9992C16.0621 13.2992 15.8621 13.4992 15.5621 13.4992C15.2621 13.4992 15.0621 13.1992 15.0621 12.9992Z" fill="#A92023"/>
<path d="M4.06172 86.6002C4.06172 86.1002 3.86172 83.8002 1.26172 83.8002C0.661719 83.8002 0.261719 83.3002 0.261719 82.8002C0.261719 82.3002 0.661719 81.9002 1.16172 81.9002C1.66172 81.9002 3.96172 81.7002 3.96172 79.1002C3.96172 78.6002 4.36172 78.2002 4.86172 78.2002C5.36172 78.2002 5.76172 78.6002 5.76172 79.1002C5.76172 81.7002 8.06172 81.9002 8.56172 81.9002C9.06172 81.9002 9.46172 82.3002 9.46172 82.8002C9.46172 83.3002 9.06172 83.7002 8.56172 83.7002C5.96172 83.7002 5.76172 86.0002 5.76172 86.5002C5.76172 87.0002 5.36172 87.4002 4.86172 87.4002C4.46172 87.5002 4.06172 87.1002 4.06172 86.6002Z" fill="#A92023"/>
<path d="M139.261 91.3996C139.261 91.1996 139.161 89.9996 137.861 89.9996C137.561 89.9996 137.361 89.7996 137.361 89.4996C137.361 89.1996 137.561 88.9996 137.861 88.9996C138.061 88.9996 139.261 88.8996 139.261 87.5996C139.261 87.2996 139.461 87.0996 139.761 87.0996C140.061 87.0996 140.261 87.2996 140.261 87.5996C140.261 88.8996 141.461 88.9996 141.661 88.9996C141.961 88.9996 142.161 89.1996 142.161 89.4996C142.161 89.7996 141.961 89.9996 141.661 89.9996C140.361 89.9996 140.261 91.1996 140.261 91.3996C140.261 91.6996 140.061 91.8996 139.761 91.8996C139.461 91.7996 139.261 91.5996 139.261 91.3996Z" fill="#A92023"/>
<path d="M33.2617 105H117.262" stroke="#2D346A" stroke-width="2" stroke-miterlimit="10" stroke-linecap="round"/>
</g>
<defs>
<clipPath id="clip0_1631_3876">
<rect width="149.477" height="106" fill="white" transform="translate(0.261719)"/>
</clipPath>
</defs>
</svg>
