<svg width="150" height="107" viewBox="0 0 150 107" fill="none" xmlns="http://www.w3.org/2000/svg">
<g clip-path="url(#clip0_1582_635)">
<path d="M33 105.074H117" stroke="#2D346A" stroke-width="2" stroke-miterlimit="10" stroke-linecap="round"/>
<path d="M144.4 13.2739C144.4 12.7739 144.2 10.4739 141.6 10.4739C141.1 10.4739 140.7 10.0739 140.7 9.57388C140.7 9.07388 141.1 8.67388 141.6 8.67388C142.1 8.67388 144.4 8.47388 144.4 5.87388C144.4 5.37388 144.8 4.97388 145.3 4.97388C145.8 4.97388 146.2 5.37388 146.2 5.87388C146.2 8.47388 148.5 8.67388 149 8.67388C149.5 8.67388 149.9 9.07388 149.9 9.57388C149.9 10.0739 149.5 10.4739 149 10.4739C146.4 10.4739 146.2 12.7739 146.2 13.2739C146.2 13.7739 145.8 14.1739 145.3 14.1739C144.8 14.1739 144.4 13.7739 144.4 13.2739Z" fill="#A92023"/>
<path d="M98.9 4.37446C98.9 4.17446 98.8 2.97446 97.5 2.97446C97.2 2.97446 97 2.77446 97 2.47446C97 2.17446 97.2 1.97446 97.5 1.97446C97.7 1.97446 98.9 1.87446 98.9 0.574463C98.9 0.274463 99.1 0.0744629 99.4 0.0744629C99.7 0.0744629 99.9 0.274463 99.9 0.574463C99.9 1.87446 101.1 1.97446 101.3 1.97446C101.6 1.97446 101.8 2.17446 101.8 2.47446C101.8 2.77446 101.6 2.97446 101.3 2.97446C100 2.97446 99.9 4.17446 99.9 4.37446C99.9 4.67446 99.7 4.87446 99.4 4.87446C99.1 4.77446 98.9 4.57446 98.9 4.37446Z" fill="#A92023"/>
<path d="M14.8004 13.0737C14.8004 12.8737 14.7004 11.6737 13.4004 11.6737C13.1004 11.6737 12.9004 11.4737 12.9004 11.1737C12.9004 10.8737 13.1004 10.6737 13.4004 10.6737C13.6004 10.6737 14.8004 10.5737 14.8004 9.27368C14.8004 8.97368 15.0004 8.77368 15.3004 8.77368C15.6004 8.77368 15.8004 8.97368 15.8004 9.27368C15.8004 10.5737 17.0004 10.6737 17.2004 10.6737C17.5004 10.6737 17.7004 10.8737 17.7004 11.1737C17.7004 11.4737 17.5004 11.6737 17.2004 11.6737C15.9004 11.6737 15.8004 12.8737 15.8004 13.0737C15.8004 13.3737 15.6004 13.5737 15.3004 13.5737C15.0004 13.5737 14.8004 13.2737 14.8004 13.0737Z" fill="#A92023"/>
<path d="M3.8 86.6737C3.8 86.1737 3.6 83.8737 1 83.8737C0.4 83.8737 0 83.3737 0 82.8737C0 82.3737 0.4 81.9737 0.9 81.9737C1.4 81.9737 3.7 81.7737 3.7 79.1737C3.7 78.6737 4.1 78.2737 4.6 78.2737C5.1 78.2737 5.5 78.6737 5.5 79.1737C5.5 81.7737 7.8 81.9737 8.3 81.9737C8.8 81.9737 9.2 82.3737 9.2 82.8737C9.2 83.3737 8.8 83.7737 8.3 83.7737C5.7 83.7737 5.5 86.0737 5.5 86.5737C5.5 87.0737 5.1 87.4737 4.6 87.4737C4.2 87.5737 3.8 87.1737 3.8 86.6737Z" fill="#A92023"/>
<path d="M139 91.4741C139 91.2741 138.9 90.0741 137.6 90.0741C137.3 90.0741 137.1 89.8741 137.1 89.5741C137.1 89.2741 137.3 89.0741 137.6 89.0741C137.8 89.0741 139 88.9741 139 87.6741C139 87.3741 139.2 87.1741 139.5 87.1741C139.8 87.1741 140 87.3741 140 87.6741C140 88.9741 141.2 89.0741 141.4 89.0741C141.7 89.0741 141.9 89.2741 141.9 89.5741C141.9 89.8741 141.7 90.0741 141.4 90.0741C140.1 90.0741 140 91.2741 140 91.4741C140 91.7741 139.8 91.9741 139.5 91.9741C139.2 91.8741 139 91.6741 139 91.4741Z" fill="#A92023"/>
<path d="M75.0529 92.0745C100.461 92.0745 121.106 71.43 121.106 46.0215C121.106 20.613 100.461 0.0744629 75.0529 0.0744629C49.6444 0.0744629 29 20.7189 29 46.1274C29 71.5359 49.6444 92.0745 75.0529 92.0745Z" fill="#DADADA"/>
<path d="M115.532 24.1966C125.695 43.0412 121.566 66.9676 104.627 81.2599C85.1474 97.5637 56.1393 95.1287 39.8355 75.6488C23.4259 56.169 25.9667 27.1609 45.3407 10.8571C64.8206 -5.44668 93.8286 -3.01169 110.132 16.4682" stroke="#2D346A" stroke-width="1.5" stroke-miterlimit="10" stroke-linecap="round" stroke-linejoin="round"/>
<path d="M51.55 71.8536C57.7963 77.6764 66.1599 81.2759 75.3705 81.2759C94.5327 81.2759 110.095 65.7132 110.095 46.5509C110.095 27.3887 94.5327 11.7201 75.3705 11.7201C56.2082 11.7201 40.6455 27.2828 40.6455 46.4451C40.6455 53.3265 42.657 59.7845 46.1507 65.1838" fill="#005D33"/>
<path d="M83.2809 24.4049L78.6243 27.4018C78.5564 27.4454 78.4986 27.503 78.4547 27.5706L76.4472 30.6595C76.4064 30.7223 76.3785 30.7924 76.3649 30.866C76.3513 30.9395 76.3524 31.015 76.3681 31.0881C76.3838 31.1612 76.4138 31.2305 76.4564 31.2921C76.499 31.3537 76.5533 31.4063 76.6163 31.4469C76.6793 31.4875 76.7497 31.5154 76.8235 31.5289C76.8973 31.5425 76.973 31.5414 77.0464 31.5257C77.1198 31.5101 77.1893 31.4802 77.2511 31.4377C77.3129 31.3953 77.3657 31.3412 77.4064 31.2784L79.3473 28.2921L83.9007 25.3614C83.9645 25.3212 84.0197 25.2688 84.0631 25.2072C84.1065 25.1456 84.1372 25.0761 84.1534 25.0026C84.1696 24.9292 84.1711 24.8532 84.1577 24.7792C84.1443 24.7051 84.1163 24.6345 84.0754 24.5713C84.0344 24.5081 83.9813 24.4536 83.9191 24.411C83.8569 24.3683 83.7868 24.3384 83.7129 24.323C83.639 24.3075 83.5628 24.3068 83.4886 24.3208C83.4145 24.3349 83.3438 24.3635 83.2808 24.4049H83.2809Z" fill="white"/>
<path d="M66.9402 24.5743C66.8995 24.6371 66.8715 24.7073 66.858 24.7809C66.8445 24.8545 66.8456 24.93 66.8614 25.0032C66.8772 25.0763 66.9073 25.1457 66.95 25.2072C66.9927 25.2688 67.0471 25.3213 67.1102 25.3619L71.6637 28.292L73.6045 31.2784C73.6448 31.3421 73.6975 31.3971 73.7593 31.4404C73.8212 31.4836 73.8911 31.5142 73.9649 31.5304C74.0387 31.5466 74.115 31.548 74.1894 31.5346C74.2637 31.5212 74.3347 31.4932 74.3981 31.4522C74.4615 31.4113 74.5162 31.3582 74.5589 31.2961C74.6016 31.234 74.6315 31.164 74.6469 31.0903C74.6623 31.0166 74.6629 30.9405 74.6486 30.8666C74.6343 30.7926 74.6054 30.7222 74.5636 30.6595L72.5562 27.5706C72.5123 27.503 72.4545 27.4454 72.3866 27.4017L67.73 24.4049C67.6028 24.323 67.4481 24.2948 67.2999 24.3266C67.1518 24.3584 67.0224 24.4474 66.9402 24.5743Z" fill="white"/>
<path d="M79.5313 34.8931H76.0879V48.0638L83.5156 40.6953V38.7553C83.5156 36.591 81.7035 34.8931 79.5313 34.8931Z" fill="white"/>
<path d="M72.2617 33.7543H78.749C78.3081 32.8053 77.0182 31.3162 75.5054 31.3162C73.9927 31.3162 72.7026 32.8053 72.2617 33.7543Z" fill="white"/>
<path d="M63.3193 51.71C63.3193 56.2795 66.3165 59.8615 68.0997 61.5898C70.5528 63.9675 73.231 65.343 74.9451 65.6318V49.6739L66.9746 41.7373C64.6491 44.3594 63.3193 47.9578 63.3193 51.71Z" fill="white"/>
<path d="M74.9453 34.8931H71.479C69.3068 34.8931 67.5176 36.591 67.5176 38.7553V40.6949L74.9453 48.0634V34.8931Z" fill="white"/>
<path d="M84.0467 41.7373L76.0879 49.6739V65.6484C77.7067 65.4092 80.3856 64.1179 82.9685 61.5917C84.7343 59.8646 87.6965 56.2846 87.6965 51.7101C87.6965 47.9579 86.3724 44.3595 84.0467 41.7373Z" fill="white"/>
<path d="M93.7925 66.5296C93.9416 66.5566 94.0954 66.5235 94.22 66.4375C94.3446 66.3515 94.4298 66.2198 94.4569 66.0712C94.484 65.9226 94.4507 65.7694 94.3645 65.6452C94.2782 65.5211 94.146 65.4362 93.9969 65.4092C93.868 65.3858 93.3055 65.0002 92.4429 63.5834C91.8154 62.5527 91.2865 61.3811 91.1566 60.7341C90.8087 59.0006 87.0966 58.1661 86.3559 58.0164C86.2824 58.0015 86.2066 58.0012 86.133 58.0155C86.0593 58.0298 85.9892 58.0585 85.9267 58.0998C85.8641 58.1411 85.8103 58.1942 85.7684 58.2563C85.7265 58.3183 85.6972 58.3879 85.6823 58.4612C85.6674 58.5345 85.6671 58.61 85.6815 58.6834C85.6958 58.7567 85.7245 58.8266 85.766 58.8889C85.8074 58.9513 85.8608 59.0048 85.923 59.0466C85.9853 59.0884 86.0551 59.1176 86.1287 59.1324C87.9113 59.4939 89.9068 60.3134 90.036 60.9574C90.315 62.3478 92.2984 66.2588 93.7925 66.5296Z" fill="white"/>
<path d="M93.6091 49.9415C93.4802 49.9181 92.9178 49.5325 92.0552 48.1156C91.4277 47.0851 90.8987 45.9133 90.7689 45.2663C90.4209 43.5329 86.7087 42.6984 85.9681 42.5487C85.8196 42.5187 85.6652 42.5487 85.5389 42.6321C85.4126 42.7156 85.3247 42.8456 85.2946 42.9936C85.2645 43.1416 85.2946 43.2954 85.3783 43.4213C85.462 43.5472 85.5925 43.6348 85.741 43.6648C88.1491 44.1514 89.5575 45.0372 89.6484 45.4896C89.9274 46.8801 91.9105 50.7911 93.4048 51.0618C93.5532 51.0873 93.7057 51.0533 93.8291 50.9673C93.9525 50.8813 94.0368 50.7502 94.0638 50.6025C94.0907 50.4549 94.058 50.3026 93.9729 50.1788C93.8878 50.055 93.757 49.9697 93.6091 49.9415Z" fill="white"/>
<path d="M56.6743 50.6036C56.6876 50.6772 56.7154 50.7474 56.756 50.8103C56.7966 50.8732 56.8493 50.9275 56.911 50.97C56.9727 51.0126 57.0423 51.0426 57.1156 51.0584C57.189 51.0741 57.2647 51.0753 57.3386 51.0618C58.8327 50.7911 60.8159 46.8801 61.0951 45.4896C61.2242 44.8456 63.2198 44.0261 65.0025 43.6647C65.1503 43.6339 65.2799 43.5461 65.3629 43.4205C65.4459 43.2948 65.4757 43.1415 65.4456 42.9941C65.4156 42.8466 65.3282 42.717 65.2026 42.6336C65.077 42.5501 64.9233 42.5196 64.7752 42.5487C64.0346 42.6984 60.3224 43.5329 59.9744 45.2663C59.8447 45.9133 59.3156 47.0851 58.6881 48.1156C57.8256 49.5325 57.2632 49.9181 57.1341 49.9415C56.985 49.9685 56.8528 50.0535 56.7666 50.1776C56.6804 50.3018 56.6471 50.455 56.6743 50.6036Z" fill="white"/>
<path d="M56.5766 66.0712C56.5899 66.1449 56.6177 66.2151 56.6583 66.278C56.6989 66.3409 56.7516 66.3952 56.8133 66.4378C56.875 66.4803 56.9446 66.5104 57.0179 66.5261C57.0913 66.5419 57.1671 66.5431 57.2409 66.5296C58.735 66.2589 60.7183 62.3479 60.9974 60.9574C61.1266 60.3134 63.1221 59.4939 64.9048 59.1324C65.0533 59.1024 65.1837 59.0148 65.2675 58.8889C65.3512 58.7631 65.3813 58.6092 65.3511 58.4612C65.321 58.3132 65.2331 58.1832 65.1068 58.0998C64.9805 58.0163 64.8261 57.9863 64.6776 58.0164C63.9369 58.1661 60.2247 59.0006 59.8769 60.7341C59.747 61.3811 59.218 62.5527 58.5906 63.5834C57.7279 65.0002 57.1655 65.3858 57.0366 65.4092C56.9627 65.4225 56.8923 65.4503 56.8292 65.4908C56.7661 65.5313 56.7117 65.5838 56.669 65.6453C56.6263 65.7068 56.5961 65.776 56.5803 65.8491C56.5644 65.9222 56.5632 65.9977 56.5766 66.0712Z" fill="white"/>
<path d="M86.4469 35.8766L88.8323 31.3055L91.4482 30.958C91.5226 30.9481 91.5943 30.9237 91.6592 30.8862C91.7241 30.8487 91.781 30.7989 91.8266 30.7395C91.8722 30.6801 91.9056 30.6123 91.9249 30.5401C91.9442 30.4678 91.949 30.3925 91.9391 30.3183C91.9292 30.2442 91.9047 30.1728 91.8671 30.1081C91.8295 30.0434 91.7794 29.9867 91.7198 29.9413C91.6602 29.8959 91.5922 29.8626 91.5197 29.8434C91.4472 29.8241 91.3716 29.8193 91.2972 29.8292L88.3868 30.2159C88.2959 30.228 88.2092 30.2617 88.1341 30.3142C88.059 30.3667 87.9977 30.4365 87.9554 30.5176L85.5783 35.0733L83.1086 35.2821C82.9617 35.2943 82.8253 35.3627 82.7278 35.4729C82.6303 35.583 82.5793 35.7264 82.5855 35.8732C82.5916 36.0199 82.6544 36.1586 82.7608 36.2603C82.8671 36.362 83.0088 36.4188 83.1562 36.4188C83.1724 36.4188 83.1886 36.4181 83.2051 36.4167L85.9883 36.1811C86.0843 36.173 86.1767 36.1408 86.2569 36.0876C86.3371 36.0343 86.4025 35.9618 86.4469 35.8766Z" fill="white"/>
<path d="M63.0004 30.5176C62.9581 30.4365 62.8968 30.3667 62.8217 30.3142C62.7466 30.2617 62.6599 30.228 62.5689 30.2159L59.6586 29.8292C59.5084 29.8093 59.3564 29.8496 59.236 29.9413C59.1156 30.033 59.0368 30.1687 59.0167 30.3184C58.9967 30.468 59.0372 30.6195 59.1292 30.7395C59.2213 30.8594 59.3574 30.938 59.5076 30.958L62.1236 31.3055L64.5088 35.8766C64.5533 35.9618 64.6186 36.0344 64.6988 36.0877C64.779 36.141 64.8714 36.1732 64.9674 36.1813L67.7505 36.4169C67.767 36.4182 67.7833 36.419 67.7996 36.419C67.9469 36.419 68.0886 36.3622 68.195 36.2605C68.3013 36.1588 68.3641 36.0201 68.3703 35.8734C68.3764 35.7266 68.3254 35.5832 68.2279 35.473C68.1305 35.3629 67.994 35.2945 67.8472 35.2823L65.3774 35.0735L63.0004 30.5176Z" fill="white"/>
<path d="M41.2109 90.8666L118.495 13.5823" stroke="#A92023" stroke-width="5"/>
</g>
<defs>
<clipPath id="clip0_1582_635">
<rect width="150" height="106" fill="white" transform="translate(0 0.0744629)"/>
</clipPath>
</defs>
</svg>
