<svg width="150" height="128" viewBox="0 0 150 128" fill="none" xmlns="http://www.w3.org/2000/svg">
<g clip-path="url(#clip0_1732_1497)">
<path d="M33 127H117" stroke="#2D346A" stroke-width="2" stroke-miterlimit="10" stroke-linecap="round"/>
<path d="M113.4 48.5002C115.8 37.9002 115.8 27.3002 115.8 18.5002C115.8 17.7002 115.2 17.1002 114.4 17.1002C104 16.8002 81.4 8.6002 76 3.2002C75.4 2.7002 74.5 2.7002 74 3.2002C72.1 5.1002 67.7 7.6002 61.9 10.1002L53.5 13.2002C46.3 15.6002 39.7 17.0002 35.5 17.1002C34.7 17.1002 34.1 17.7002 34.1 18.5002C34.1 48.9002 38.9 82.2002 74.3 98.7002C74.7 98.9002 75.1 98.9002 75.5 98.7002C81.6 96.0002 87.3 92.3002 92.2 87.9002C96.2 84.3002 99.7 80.1002 102.3 75.5002C102.5 75.4002 109.7 64.6002 113.4 48.5002Z" fill="#DADADA"/>
<path d="M106.2 48.8998C108.2 40.2998 108.2 31.6998 108.2 24.4998C108.2 23.8998 107.7 23.3998 107.1 23.3998C98.6 23.1998 80.2 16.4998 75.9 12.0998C75.4 11.6998 74.7 11.6998 74.3 12.0998C72.8 13.6998 69.2 15.6998 64.5 17.6998L57.7 20.1998C51.8 22.0998 46.5 23.2998 43.1 23.3998C42.5 23.3998 42 23.8998 42 24.4998C42 49.1998 45.9 76.2998 74.7 89.5998C75 89.6998 75.4 89.6998 75.7 89.5998C80.7 87.3998 85.3 84.3998 89.3 80.7998C92.6 77.8998 95.4 74.4998 97.5 70.6998C97.3 70.6998 103.2 61.9998 106.2 48.8998Z" fill="#005D33"/>
<path d="M103.3 20.8994C97.9001 19.4994 92.7001 17.7994 87.6001 15.7994C86.8001 15.3994 104 21.0994 103.3 20.8994Z" stroke="#333366" stroke-width="1.5" stroke-miterlimit="10"/>
<path d="M104.9 73.9998C105.8 72.4998 106.7 70.8998 107.5 69.2998" stroke="#333366" stroke-width="1.5" stroke-miterlimit="10"/>
<path d="M110.4 62.1994C116 47.0994 116.7 30.4994 116.7 17.7994C116.7 16.9994 116.1 16.3994 115.3 16.3994C104.6 16.0994 81.5 7.69941 76 2.09941C75.4 1.49941 74.5 1.49941 73.9 2.09941C72 4.09941 67.5 6.59941 61.6 9.09941" stroke="#333366" stroke-width="1.5" stroke-miterlimit="10"/>
<path d="M53.1 12.2998C45.7 14.6998 39.0001 16.1998 34.7001 16.2998C33.9001 16.2998 33.3 16.9998 33.3 17.6998C33.3 48.6998 38.2001 82.6998 74.4001 99.4998C74.8001 99.6998 75.2 99.6998 75.6 99.4998C85 95.2998 93.4001 88.8998 99.9001 80.8998" stroke="#333366" stroke-width="1.5" stroke-miterlimit="10"/>
<path d="M144.4 13.1994C144.4 12.6994 144.2 10.3994 141.6 10.3994C141.1 10.3994 140.7 9.99941 140.7 9.49941C140.7 8.99941 141.1 8.59941 141.6 8.59941C142.1 8.59941 144.4 8.39941 144.4 5.79941C144.4 5.29941 144.8 4.89941 145.3 4.89941C145.8 4.89941 146.2 5.29941 146.2 5.79941C146.2 8.39941 148.5 8.59941 149 8.59941C149.5 8.59941 149.9 8.99941 149.9 9.49941C149.9 9.99941 149.5 10.3994 149 10.3994C146.4 10.3994 146.2 12.6994 146.2 13.1994C146.2 13.6994 145.8 14.0994 145.3 14.0994C144.8 14.0994 144.4 13.6994 144.4 13.1994Z" fill="#A92023"/>
<path d="M98.9 4.3C98.9 4.1 98.8 2.9 97.5 2.9C97.2 2.9 97 2.7 97 2.4C97 2.1 97.2 1.9 97.5 1.9C97.7 1.9 98.9 1.8 98.9 0.5C98.9 0.2 99.1 0 99.4 0C99.7 0 99.9 0.2 99.9 0.5C99.9 1.8 101.1 1.9 101.3 1.9C101.6 1.9 101.8 2.1 101.8 2.4C101.8 2.7 101.6 2.9 101.3 2.9C100 2.9 99.9 4.1 99.9 4.3C99.9 4.6 99.7 4.8 99.4 4.8C99.1 4.7 98.9 4.5 98.9 4.3Z" fill="#A92023"/>
<path d="M14.8 12.9992C14.8 12.7992 14.7 11.5992 13.4 11.5992C13.1 11.5992 12.9 11.3992 12.9 11.0992C12.9 10.7992 13.1 10.5992 13.4 10.5992C13.6 10.5992 14.8 10.4992 14.8 9.19922C14.8 8.89922 15 8.69922 15.3 8.69922C15.6 8.69922 15.8 8.89922 15.8 9.19922C15.8 10.4992 17 10.5992 17.2 10.5992C17.5 10.5992 17.7 10.7992 17.7 11.0992C17.7 11.3992 17.5 11.5992 17.2 11.5992C15.9 11.5992 15.8 12.7992 15.8 12.9992C15.8 13.2992 15.6 13.4992 15.3 13.4992C15 13.4992 14.8 13.1992 14.8 12.9992Z" fill="#A92023"/>
<path d="M3.8 86.6002C3.8 86.1002 3.6 83.8002 1 83.8002C0.4 83.8002 0 83.3002 0 82.8002C0 82.3002 0.4 81.9002 0.9 81.9002C1.4 81.9002 3.7 81.7002 3.7 79.1002C3.7 78.6002 4.1 78.2002 4.6 78.2002C5.1 78.2002 5.5 78.6002 5.5 79.1002C5.5 81.7002 7.8 81.9002 8.3 81.9002C8.8 81.9002 9.2 82.3002 9.2 82.8002C9.2 83.3002 8.8 83.7002 8.3 83.7002C5.7 83.7002 5.5 86.0002 5.5 86.5002C5.5 87.0002 5.1 87.4002 4.6 87.4002C4.2 87.5002 3.8 87.1002 3.8 86.6002Z" fill="#A92023"/>
<path d="M139 91.3996C139 91.1996 138.9 89.9996 137.6 89.9996C137.3 89.9996 137.1 89.7996 137.1 89.4996C137.1 89.1996 137.3 88.9996 137.6 88.9996C137.8 88.9996 139 88.8996 139 87.5996C139 87.2996 139.2 87.0996 139.5 87.0996C139.8 87.0996 140 87.2996 140 87.5996C140 88.8996 141.2 88.9996 141.4 88.9996C141.7 88.9996 141.9 89.1996 141.9 89.4996C141.9 89.7996 141.7 89.9996 141.4 89.9996C140.1 89.9996 140 91.1996 140 91.3996C140 91.6996 139.8 91.8996 139.5 91.8996C139.2 91.7996 139 91.5996 139 91.3996Z" fill="#A92023"/>
<circle cx="75.1577" cy="43.8881" r="15.5764" fill="#005D33"/>
<path d="M74.6826 24.052C74.5856 24.0734 74.0471 24.6876 73.4866 25.4203C71.9025 27.4672 71.5474 27.543 69.3708 26.2931C67.2699 25.0758 67.0972 25.1403 66.5154 27.3169C66.1059 28.8792 65.8905 29.3639 65.481 29.6337C64.9206 30 64.5975 30.0214 62.9274 29.7953C61.4622 29.5905 61.3006 29.5799 61.0633 29.7414C60.5893 30.0539 60.5568 30.2368 60.7509 31.6594C60.9988 33.4371 60.9882 33.9005 60.7077 34.3638C60.3739 34.9024 59.9644 35.1071 58.4021 35.506C56.1397 36.0984 56.0746 36.2712 57.2706 38.3288C58.0032 39.5787 58.0464 39.6864 58.0571 40.3219C58.0571 41.1729 57.9387 41.3345 56.3764 42.5311C54.5235 43.9531 54.5342 44.0934 56.4521 45.5805C57.9067 46.7002 58.1115 46.9807 58.1115 47.8104C58.1115 48.198 57.9712 48.5217 57.3031 49.6633C56.3983 51.2043 56.3119 51.6138 56.7534 51.9689C56.8936 52.0766 57.7014 52.3565 58.5423 52.5831C60.9775 53.2406 61.1604 53.5312 60.7941 56.1279C60.6 57.6038 60.5893 57.7441 60.7509 57.9814C61.0527 58.4447 61.2787 58.4773 62.9594 58.2619C64.5543 58.0571 65.0064 58.0784 65.4916 58.3909C65.9225 58.6714 66.0734 59.0052 66.5042 60.6C66.7303 61.4403 67.0001 62.2162 67.1078 62.3345C67.4528 62.7222 67.8943 62.6145 69.3382 61.7741C70.4478 61.1385 70.7603 60.9983 71.2562 60.9663C72.0646 60.9018 72.3765 61.1279 73.5405 62.6582C74.9519 64.5117 75.1028 64.5117 76.5467 62.6369C77.1072 61.9149 77.6995 61.2361 77.883 61.1284C78.0877 61.0101 78.4109 60.9343 78.7452 60.9343C79.2192 60.9343 79.4565 61.0314 80.6845 61.7427C82.2361 62.6369 82.6238 62.7339 82.9688 62.2919C83.0871 62.1517 83.3564 61.3652 83.583 60.5462C84.0464 58.8548 84.2837 58.456 84.9731 58.1867C85.4258 58.0145 85.5335 58.0145 87.0958 58.2406C88.6043 58.4453 88.7552 58.456 89.0032 58.2944C89.4559 57.9926 89.4878 57.7665 89.2724 56.0859C89.0677 54.491 89.089 54.0389 89.402 53.5536C89.6926 53.1116 90.0376 52.95 91.6218 52.5298C92.4515 52.3144 93.2273 52.0452 93.3457 51.9375C93.7333 51.5818 93.6256 51.151 92.7852 49.707C92.1497 48.5974 92.0094 48.285 91.9769 47.7891C91.9124 46.9807 92.1384 46.6682 93.6144 45.548C95.5323 44.0934 95.5323 43.9425 93.593 42.4559C92.1491 41.3351 91.9443 41.0551 91.9443 40.2255C91.9443 39.8485 92.0952 39.5035 92.7527 38.3613C93.6149 36.8635 93.7226 36.4434 93.3451 36.0989C93.2267 35.9912 92.4722 35.722 91.6751 35.4953C89.8755 35 89.5955 34.8379 89.2612 34.181L89.0133 33.6744L89.2399 31.9937C89.4553 30.4421 89.466 30.2912 89.3044 30.0432C88.9919 29.5799 88.7765 29.5586 87.1065 29.774C85.501 29.9894 85.0489 29.9681 84.5636 29.6444C84.1328 29.3645 83.9819 29.0301 83.5505 27.4358C83.3244 26.5955 83.0552 25.8197 82.9475 25.7013C82.6025 25.3131 82.161 25.4208 80.717 26.2617C79.6074 26.8973 79.295 27.0375 78.7991 27.0701C77.9907 27.1346 77.6782 26.9085 76.558 25.4326C75.5017 24.0408 75.2969 23.8905 74.6826 24.052ZM77.1072 30.6031C81.1153 31.2067 84.6063 33.5875 86.7503 37.1861C88.7866 40.6125 89.1529 44.8899 87.7415 48.7691C87.0628 50.6657 85.533 52.8849 84.0458 54.1673C82.1604 55.7941 80.1129 56.8179 77.7209 57.3351C76.374 57.6263 73.508 57.6156 72.1717 57.3026C68.0564 56.3439 64.7164 53.7365 62.8629 50.0728C62.3457 49.0383 61.7965 47.2926 61.6131 46.0966C60.7295 40.2249 63.6819 34.5248 69.0045 31.8423C69.9637 31.3576 71.7628 30.7753 72.8404 30.6137C74.1116 30.409 75.8248 30.409 77.1072 30.6031Z" fill="#F1F2F3"/>
<path d="M86.2218 60.6536C86.1892 60.7507 86.0928 61.1383 86.0064 61.5372C85.6401 63.1533 85.1015 64.0587 84.1748 64.5973C83.0113 65.2761 81.7183 65.1358 80.156 64.1665L79.6926 63.886L79.9725 64.6724C80.1341 65.1033 80.8886 67.1828 81.6532 69.2842C82.4184 71.3851 83.0214 73.1847 83.0001 73.271C82.9788 73.3574 82.7202 73.7883 82.4397 74.2303C82.084 74.7907 81.9012 74.9848 81.8473 74.8766C81.8041 74.7902 80.9531 72.4952 79.9619 69.7695C78.9706 67.0437 78.1516 64.802 78.141 64.7807C78.1196 64.7701 77.8072 65.0393 77.4515 65.395L76.7941 66.0306L79.057 72.2691C80.3069 75.6956 81.3626 78.5616 81.4058 78.648C81.4922 78.7882 81.6538 78.5509 84.4659 74.241C85.037 73.3788 85.5649 72.668 85.6513 72.6461C85.7377 72.6248 87.3432 73.077 89.2286 73.648C91.1034 74.2191 92.6657 74.6718 92.687 74.6393C92.7302 74.5961 87.7415 60.8045 87.6444 60.7181C87.6119 60.6856 87.2994 60.6211 86.9337 60.5779C86.3721 60.5027 86.2644 60.5134 86.2218 60.6536Z" fill="#F1F2F3"/>
<path d="M62.7434 60.6536C62.4416 60.7181 62.3664 60.9122 59.9093 67.6574C58.5193 71.4714 57.4096 74.6179 57.431 74.6392C57.4523 74.6605 59.0039 74.2191 60.868 73.6586C62.7428 73.0876 64.3377 72.6242 64.4235 72.6242C64.5205 72.6242 65.4254 73.9066 66.503 75.566C67.5481 77.1715 68.4748 78.5616 68.5394 78.6367C68.6471 78.7551 68.6903 78.7338 68.7873 78.4752C68.8412 78.3136 69.8969 75.4364 71.1148 72.0857L73.3346 65.998L72.7528 65.4914C72.4404 65.2115 72.074 64.7588 71.9445 64.5002C71.6645 63.8966 71.2982 63.6273 70.8887 63.735C70.7272 63.7676 70.2851 63.983 69.8975 64.2091C68.9926 64.7369 68.4754 64.8985 67.7316 64.8985C66.9125 64.8985 66.1154 64.6073 65.5337 64.1013C65.2644 63.8534 65.0383 63.6812 65.0271 63.7025C65.0271 63.7132 64.3809 65.4802 63.605 67.6136L62.183 71.4821L61.213 71.7839C60.6852 71.9454 60.2111 72.0857 60.1786 72.0857C60.1354 72.0857 60.9976 69.6398 62.0859 66.6442C64.2945 60.5779 64.3057 60.5459 63.4867 60.5672C63.2499 60.5779 62.9049 60.6104 62.7434 60.6536Z" fill="#F1F2F3"/>
<path d="M73.2307 43.8565H75.8648C77.0606 43.8565 77.9763 43.5696 78.6118 42.9958C79.2223 42.4387 79.5275 41.6611 79.5275 40.6632C79.5275 39.6653 79.2223 38.8877 78.6118 38.3306C77.9763 37.7568 77.0606 37.4699 75.8648 37.4699H73.2307V43.8565ZM73.2307 50.3555V53H70.4209V50.3555H68V48.3597H70.4209V46.2266H68V43.8815H70.4209V35H76.6551C78.3777 35 79.77 35.5322 80.8321 36.5967C81.8774 37.6445 82.4 38.9917 82.4 40.6383C82.4 42.2765 81.869 43.6154 80.807 44.6549C79.7199 45.7193 78.3066 46.2516 76.5672 46.2516H73.2307V48.3597H78.3233V50.3555H73.2307Z" fill="white"/>
</g>
<defs>
<clipPath id="clip0_1732_1497">
<rect width="150" height="128" fill="white"/>
</clipPath>
</defs>
</svg>
