<svg width="150" height="106" viewBox="0 0 150 106" fill="none" xmlns="http://www.w3.org/2000/svg">
<g clip-path="url(#clip0_1565_987)">
<path d="M144.661 13.1994C144.661 12.6994 144.461 10.3994 141.861 10.3994C141.361 10.3994 140.961 9.99941 140.961 9.49941C140.961 8.99941 141.361 8.59941 141.861 8.59941C142.361 8.59941 144.661 8.39941 144.661 5.79941C144.661 5.29941 145.061 4.89941 145.561 4.89941C146.061 4.89941 146.461 5.29941 146.461 5.79941C146.461 8.39941 148.761 8.59941 149.261 8.59941C149.761 8.59941 150.161 8.99941 150.161 9.49941C150.161 9.99941 149.761 10.3994 149.261 10.3994C146.661 10.3994 146.461 12.6994 146.461 13.1994C146.461 13.6994 146.061 14.0994 145.561 14.0994C145.061 14.0994 144.661 13.6994 144.661 13.1994Z" fill="#A92023"/>
<path d="M45.1615 28.3C45.1615 28.1 45.0615 26.9 43.7615 26.9C43.4615 26.9 43.2615 26.7 43.2615 26.4C43.2615 26.1 43.4615 25.9 43.7615 25.9C43.9615 25.9 45.1615 25.8 45.1615 24.5C45.1615 24.2 45.3615 24 45.6615 24C45.9615 24 46.1615 24.2 46.1615 24.5C46.1615 25.8 47.3615 25.9 47.5615 25.9C47.8615 25.9 48.0615 26.1 48.0615 26.4C48.0615 26.7 47.8615 26.9 47.5615 26.9C46.2615 26.9 46.1615 28.1 46.1615 28.3C46.1615 28.6 45.9615 28.8 45.6615 28.8C45.3615 28.7 45.1615 28.5 45.1615 28.3Z" fill="#A92023"/>
<path d="M15.0616 12.9992C15.0616 12.7992 14.9616 11.5992 13.6616 11.5992C13.3616 11.5992 13.1616 11.3992 13.1616 11.0992C13.1616 10.7992 13.3616 10.5992 13.6616 10.5992C13.8616 10.5992 15.0616 10.4992 15.0616 9.19922C15.0616 8.89922 15.2616 8.69922 15.5616 8.69922C15.8616 8.69922 16.0616 8.89922 16.0616 9.19922C16.0616 10.4992 17.2616 10.5992 17.4616 10.5992C17.7616 10.5992 17.9616 10.7992 17.9616 11.0992C17.9616 11.3992 17.7616 11.5992 17.4616 11.5992C16.1616 11.5992 16.0616 12.7992 16.0616 12.9992C16.0616 13.2992 15.8616 13.4992 15.5616 13.4992C15.2616 13.4992 15.0616 13.1992 15.0616 12.9992Z" fill="#A92023"/>
<path d="M4.06147 86.5992C4.06147 86.0992 3.86147 83.7992 1.26147 83.7992C0.661475 83.7992 0.261475 83.2992 0.261475 82.7992C0.261475 82.2992 0.661475 81.8992 1.16147 81.8992C1.66147 81.8992 3.96147 81.6992 3.96147 79.0992C3.96147 78.5992 4.36147 78.1992 4.86147 78.1992C5.36147 78.1992 5.76147 78.5992 5.76147 79.0992C5.76147 81.6992 8.06147 81.8992 8.56147 81.8992C9.06147 81.8992 9.46147 82.2992 9.46147 82.7992C9.46147 83.2992 9.06147 83.6992 8.56147 83.6992C5.96147 83.6992 5.76147 85.9992 5.76147 86.4992C5.76147 86.9992 5.36147 87.3992 4.86147 87.3992C4.46147 87.4992 4.06147 87.0992 4.06147 86.5992Z" fill="#A92023"/>
<path d="M139.261 91.3996C139.261 91.1996 139.161 89.9996 137.861 89.9996C137.561 89.9996 137.361 89.7996 137.361 89.4996C137.361 89.1996 137.561 88.9996 137.861 88.9996C138.061 88.9996 139.261 88.8996 139.261 87.5996C139.261 87.2996 139.461 87.0996 139.761 87.0996C140.061 87.0996 140.261 87.2996 140.261 87.5996C140.261 88.8996 141.461 88.9996 141.661 88.9996C141.961 88.9996 142.161 89.1996 142.161 89.4996C142.161 89.7996 141.961 89.9996 141.661 89.9996C140.361 89.9996 140.261 91.1996 140.261 91.3996C140.261 91.6996 140.061 91.8996 139.761 91.8996C139.461 91.7996 139.261 91.5996 139.261 91.3996Z" fill="#A92023"/>
<path d="M33.2615 105H117.261" stroke="#2D346A" stroke-width="1.5" stroke-miterlimit="10" stroke-linecap="round"/>
<path d="M129.624 20.3734H109.249L109.366 0.116211H129.624V20.3734Z" fill="#DADADA"/>
<path d="M119.202 20.8416H98.9453V41.0987H119.202V20.8416Z" fill="#DADADA"/>
<path d="M140.279 20.4915H120.021V40.7486H140.279V20.4915Z" fill="#DADADA"/>
<path d="M144.846 41.2168H94.2615V44.8467H144.846V41.2168Z" fill="#DADADA"/>
<path d="M99.9977 44.8472H94.9626V49.8822H99.9977V44.8472Z" fill="#DADADA"/>
<path d="M144.494 44.9639H139.459V49.9989H144.494V44.9639Z" fill="#DADADA"/>
<path d="M122.247 44.9639H117.212V49.9989H122.247V44.9639Z" fill="#DADADA"/>
<path d="M111.943 20.7258H106.791V27.7514H111.943V20.7258Z" fill="#005D33" stroke="#333768" stroke-width="1.5" stroke-miterlimit="10"/>
<path d="M132.785 20.7258H127.633V27.7514H132.785V20.7258Z" fill="#005D33" stroke="#333768" stroke-width="1.5" stroke-miterlimit="10"/>
<path d="M122.364 0.584961H117.68V7.49348H122.364V0.584961Z" fill="#005D33"/>
<path d="M121.778 1.17093V6.90851H118.266V1.17093H121.778ZM122.949 0H117.095V8.07945H122.949V0Z" fill="#333768"/>
<path d="M109.366 7.84701V0.353027H129.858V20.7273H109.249V11.1256" stroke="#333768" stroke-width="1.5" stroke-miterlimit="10" stroke-linejoin="round"/>
<path d="M100.585 20.7266H98.9453V41.4522H119.788V20.4924H104.215" stroke="#333768" stroke-width="1.5" stroke-miterlimit="10" stroke-linecap="round" stroke-linejoin="round"/>
<path d="M140.395 30.3283V20.4924H119.553V41.3351H140.512V33.6069" stroke="#333768" stroke-width="1.5" stroke-miterlimit="10" stroke-linecap="round" stroke-linejoin="round"/>
<path d="M98.8294 41.4521H94.614V44.9649H129.157" stroke="#333768" stroke-width="1.5" stroke-miterlimit="10" stroke-linecap="round" stroke-linejoin="round"/>
<path d="M140.513 41.3354H144.611V44.9653H137" stroke="#333768" stroke-width="1.5" stroke-miterlimit="10" stroke-linecap="round" stroke-linejoin="round"/>
<path d="M94.614 45.7845V49.9998H99.8832V45.5503" stroke="#333768" stroke-width="1.5" stroke-miterlimit="10" stroke-linecap="round" stroke-linejoin="round"/>
<path d="M117.212 45.6674V49.9998H122.247V45.5503" stroke="#333768" stroke-width="1.5" stroke-miterlimit="10" stroke-linecap="round" stroke-linejoin="round"/>
<path d="M139.459 45.7845V49.9998H144.611V45.5503" stroke="#333768" stroke-width="1.5" stroke-miterlimit="10" stroke-linecap="round" stroke-linejoin="round"/>
<path d="M91.8013 37.7927H58.6492L58.8397 4.83105H91.8013V37.7927Z" fill="#DADADA"/>
<path d="M74.8447 38.5544H41.8831V71.5161H74.8447V38.5544Z" fill="#DADADA"/>
<path d="M109.139 37.9849H76.1772V70.9465H109.139V37.9849Z" fill="#DADADA"/>
<path d="M116.57 71.7083H34.2615V77.6147H116.57V71.7083Z" fill="#DADADA"/>
<path d="M43.5951 77.6155H35.4023V85.8083H43.5951V77.6155Z" fill="#DADADA"/>
<path d="M115.998 77.8052H107.806V85.9979H115.998V77.8052Z" fill="#DADADA"/>
<path d="M79.7985 77.8052H71.6057V85.9979H79.7985V77.8052Z" fill="#DADADA"/>
<path d="M63.0327 38.3665H54.6494V49.7982H63.0327V38.3665Z" fill="#005D33" stroke="#333768" stroke-width="1.5" stroke-miterlimit="10"/>
<path d="M96.9451 38.3665H88.5618V49.7982H96.9451V38.3665Z" fill="#005D33" stroke="#333768" stroke-width="1.5" stroke-miterlimit="10"/>
<path d="M79.9889 5.59399H72.3677V16.8352H79.9889V5.59399Z" fill="#005D33"/>
<path d="M79.0362 6.54738V15.8833H73.3203V6.54738H79.0362ZM80.9415 4.64209H71.415V17.7886H80.9415V4.64209Z" fill="#333768"/>
<path d="M58.8395 17.4104V5.21655H92.1821V38.3687H58.6489V22.7453" stroke="#333768" stroke-width="1.5" stroke-miterlimit="10" stroke-linejoin="round"/>
<path d="M44.5505 38.3676H41.8831V72.0914H75.7973V37.9866H50.4569" stroke="#333768" stroke-width="1.5" stroke-miterlimit="10" stroke-linecap="round" stroke-linejoin="round"/>
<path d="M109.329 53.9911V37.9866H75.4146V71.9008H109.519V59.3259" stroke="#333768" stroke-width="1.5" stroke-miterlimit="10" stroke-linecap="round" stroke-linejoin="round"/>
<path d="M41.6943 72.0911H34.8352V77.8069H91.0414" stroke="#333768" stroke-width="1.5" stroke-miterlimit="10" stroke-linecap="round" stroke-linejoin="round"/>
<path d="M109.52 71.9011H116.188V77.8075H103.804" stroke="#333768" stroke-width="1.5" stroke-miterlimit="10" stroke-linecap="round" stroke-linejoin="round"/>
<path d="M34.8352 79.1408V85.9999H43.409V78.7598" stroke="#333768" stroke-width="1.5" stroke-miterlimit="10" stroke-linecap="round" stroke-linejoin="round"/>
<path d="M71.605 78.9503V85.9999H79.7977V78.7598" stroke="#333768" stroke-width="1.5" stroke-miterlimit="10" stroke-linecap="round" stroke-linejoin="round"/>
<path d="M107.805 79.1408V85.9999H116.188V78.7598" stroke="#333768" stroke-width="1.5" stroke-miterlimit="10" stroke-linecap="round" stroke-linejoin="round"/>
</g>
<defs>
<clipPath id="clip0_1565_987">
<rect width="149.477" height="106" fill="white" transform="translate(0.261475)"/>
</clipPath>
</defs>
</svg>
