<svg width="175" height="160" viewBox="0 0 175 160" fill="none" xmlns="http://www.w3.org/2000/svg">
<path fill-rule="evenodd" clip-rule="evenodd" d="M0 106.394V159.707H53.3135H106.627V113.648C106.627 88.3153 106.59 67.6276 106.546 67.6753C106.501 67.723 105.142 69.7524 103.526 72.1853L100.588 76.6082V115.137V153.666L53.663 153.719C27.8547 153.748 6.58131 153.742 6.38888 153.705C6.06296 153.642 6.03943 150.454 6.03943 106.378V59.1195H50.3161H94.5928L96.4017 57.1931C97.3968 56.1337 98.6646 54.7747 99.2194 54.1734L100.228 53.0801H50.1141H0V106.394Z" fill="#005D33"/>
<g opacity="0.7" filter="url(#filter0_f_2004_3653)">
<path fill-rule="evenodd" clip-rule="evenodd" d="M164.582 10.1056C154.107 17.9174 144.498 26.4555 130.539 40.3547C125.124 45.7461 122.959 47.9598 115.978 55.2451C110.822 60.6243 103.865 68.0951 98.8131 73.6757C97.0505 75.6229 95.2226 77.6378 94.7513 78.1532C91.3982 81.8194 81.5431 93.1735 77.0368 98.5623C76.127 99.6504 75.3329 100.588 75.2721 100.645C75.2115 100.702 74.7037 101.311 74.1437 101.999C72.8698 103.562 71.8588 104.49 70.7885 105.078C70.1052 105.453 69.6185 105.536 68.0812 105.537C66.2981 105.539 66.1207 105.496 64.4367 104.664C63.4631 104.183 62.1511 103.489 61.5211 103.122C59.5929 101.998 45.1462 94.7604 42.0492 93.3667C36.1495 90.7119 29.3722 88.157 25.1861 87.0097C23.7123 86.6057 22.4619 86.2752 22.4077 86.2752C22.3536 86.2752 24.5018 88.501 27.1814 91.2213C36.9005 101.088 44.9158 110.922 53.7528 123.82C57.0107 128.575 58.5275 130.869 61.9075 136.153C63.9723 139.38 70.4761 150.221 70.4761 150.435C70.4761 150.969 70.8937 150.495 71.3619 149.429C71.6511 148.77 72.5645 146.685 73.3915 144.795C80.2309 129.167 88.6367 112.433 96.5113 98.7706C100.675 91.5464 101.149 90.75 104.062 86.0669C107.885 79.9238 114.447 69.9044 116.533 67.0267C116.871 66.5602 118.189 64.7259 119.461 62.9505C121.677 59.8583 125.846 54.2134 126.075 53.9955C126.135 53.9382 126.789 53.0948 127.528 52.1212C129.494 49.5305 134.496 43.3457 137.718 39.5217C145.614 30.1502 150.768 24.5352 159.65 15.6304C163.395 11.8759 166.429 8.80396 166.393 8.80396C166.357 8.80396 165.542 9.38978 164.582 10.1056Z" fill="#333333"/>
</g>
<path fill-rule="evenodd" clip-rule="evenodd" d="M154.248 5.23324C143.773 13.0451 134.164 21.5832 120.205 35.4824C114.79 40.8738 112.625 43.0875 105.644 50.3727C100.488 55.752 93.531 63.2228 88.4791 68.8034C86.7165 70.7506 84.8886 72.7655 84.4173 73.2809C81.0642 76.947 71.2091 88.3012 66.7029 93.69C65.793 94.7781 64.9989 95.7153 64.9381 95.7726C64.8775 95.8298 64.3698 96.439 63.8098 97.1262C62.5359 98.6896 61.5248 99.6176 60.4545 100.206C59.7713 100.581 59.2846 100.664 57.7472 100.665C55.9641 100.667 55.7867 100.624 54.1027 99.7921C53.1291 99.311 51.8171 98.6169 51.1872 98.2498C49.2589 97.1258 34.8122 89.8881 31.7152 88.4944C25.8155 85.8396 19.0383 83.2847 14.8521 82.1374C13.3783 81.7334 12.1279 81.4029 12.0738 81.4029C12.0196 81.4029 14.1678 83.6287 16.8474 86.349C26.5665 96.2159 34.5819 106.049 43.4188 118.948C46.6767 123.703 48.1935 125.997 51.5735 131.28C53.6383 134.508 60.1422 145.349 60.1422 145.563C60.1422 146.097 60.5597 145.622 61.0279 144.557C61.3171 143.898 62.2306 141.813 63.0575 139.923C69.8969 124.294 78.3027 107.56 86.1773 93.8982C90.3412 86.6741 90.8145 85.8777 93.7282 81.1946C97.5506 75.0515 104.113 65.0321 106.199 62.1544C106.537 61.6879 107.855 59.8536 109.127 58.0782C111.343 54.986 115.512 49.341 115.741 49.1232C115.801 49.0659 116.455 48.2225 117.194 47.2489C119.16 44.6582 124.162 38.4734 127.384 34.6494C135.28 25.2779 140.434 19.6629 149.316 10.7581C153.061 7.00363 156.096 3.93164 156.059 3.93164C156.023 3.93164 155.208 4.51746 154.248 5.23324Z" fill="#A92023"/>
<defs>
<filter id="filter0_f_2004_3653" x="14.4067" y="0.803955" width="159.987" height="157.852" filterUnits="userSpaceOnUse" color-interpolation-filters="sRGB">
<feFlood flood-opacity="0" result="BackgroundImageFix"/>
<feBlend mode="normal" in="SourceGraphic" in2="BackgroundImageFix" result="shape"/>
<feGaussianBlur stdDeviation="4" result="effect1_foregroundBlur_2004_3653"/>
</filter>
</defs>
</svg>
