<svg width="150" height="128" viewBox="0 0 150 128" fill="none" xmlns="http://www.w3.org/2000/svg">
<g clip-path="url(#clip0_1722_1330)">
<mask id="path-1-inside-1_1722_1330" fill="white">
<path fill-rule="evenodd" clip-rule="evenodd" d="M128.854 0.305995C128.702 0.474196 128.361 0.702186 128.097 0.812509C127.814 0.930323 127.549 1.1827 127.453 1.42464C127.363 1.65102 127.231 1.95099 127.159 2.09128C126.924 2.54756 127.017 2.64422 127.689 2.64422C128.442 2.64422 128.498 2.74866 127.998 3.21757C127.647 3.54766 127.644 3.5478 126.901 3.28412L126.157 3.0197L125.739 3.41956C125.509 3.63947 125.18 3.81942 125.007 3.81942C124.834 3.81942 124.241 4.20886 123.689 4.68482C123.137 5.16063 122.436 5.65407 122.132 5.78129C121.532 6.03161 119.825 7.57127 119.825 7.8617C119.825 7.95968 119.693 8.20794 119.531 8.41346C119.369 8.61882 119.237 8.93143 119.237 9.108C119.237 9.28855 119.124 9.46071 118.98 9.50111C118.838 9.54063 118.571 9.80652 118.387 10.0921C118.068 10.5851 118.065 10.6209 118.314 10.8056C118.458 10.9125 118.84 11.0442 119.163 11.0982C119.789 11.2027 120.266 11.5256 120.266 11.8445C120.266 12.2778 118.719 12.76 118.207 12.4861C117.953 12.3501 117.928 12.2792 118.075 12.1029C118.35 11.7719 117.994 11.4622 117.689 11.7671C117.49 11.966 117.494 12.0641 117.725 12.6884C117.981 13.378 117.98 13.3902 117.671 13.6346C117.498 13.7708 117.313 14.0308 117.258 14.2127C117.204 14.3945 117.102 14.5432 117.033 14.5432C116.787 14.5432 116.444 15.0092 116.444 15.3437C116.444 15.5299 116.344 15.7654 116.222 15.8668C116.054 16.0062 116.04 16.0998 116.165 16.2503C116.292 16.4041 116.268 16.4686 116.056 16.534C115.906 16.5804 115.571 16.7222 115.312 16.8487C114.859 17.0705 114.825 17.0647 114.382 16.6924C114.129 16.4798 113.769 16.2675 113.582 16.2205C112.905 16.0507 111.848 16.9055 111.457 17.9391C110.963 19.2465 110.493 19.6866 109.886 19.4102C109.462 19.2171 109.075 19.3421 109.128 19.6546C109.159 19.8313 109.007 19.8961 108.479 19.9328C107.743 19.984 107.486 19.8078 107.779 19.4544C108.043 19.1377 107.887 19.0732 107.317 19.2621C106.632 19.4895 106.448 19.7685 106.448 20.5821C106.448 20.9641 106.408 21.3811 106.359 21.5089C106.212 21.8926 106.007 21.7716 106.007 21.3006C106.007 20.8175 105.725 20.7119 105.419 21.0803C105.167 21.3839 104.978 21.3562 104.978 21.0152C104.978 20.8582 105.125 20.6268 105.305 20.5011L105.632 20.2723H105.191C104.695 20.2723 104.096 20.629 104.096 20.9237C104.096 21.2735 103.616 21.5461 102.934 21.5831C102.775 21.5919 102.788 21.6614 102.994 21.8882C103.242 22.1621 103.243 22.2003 103.017 22.4507C102.745 22.7505 102.696 23.0634 102.92 23.0634C103.001 23.0634 103.067 22.9973 103.067 22.9165C103.067 22.8357 103.133 22.7696 103.214 22.7696C103.295 22.7696 103.361 22.8982 103.361 23.0551C103.361 23.2168 103.553 23.4539 103.804 23.6018C104.339 23.918 104.304 24.1117 103.682 24.2729C103.167 24.4063 103.102 24.5501 103.433 24.8249C103.762 25.0974 103.565 25.2577 103.011 25.1679C102.321 25.0559 101.891 25.3213 101.891 25.8597C101.891 26.2496 101.841 26.297 101.414 26.3126C100.93 26.3302 100.865 26.322 100.361 26.1807C100.123 26.1138 100.097 26.1553 100.188 26.4557C100.246 26.6502 100.346 27.0077 100.409 27.2501C100.471 27.4925 100.567 27.8282 100.621 27.9961C100.712 28.2784 100.668 28.2984 100.039 28.2629C99.5938 28.2377 99.2468 28.1195 99.0353 27.9209C98.8574 27.754 98.5983 27.6174 98.4595 27.6174C98.3208 27.6174 98.1692 27.5187 98.1229 27.3979C98.0764 27.2772 97.9928 27.2066 97.9366 27.2413C97.8806 27.2758 97.7414 27.2464 97.6272 27.1759C97.4521 27.0678 97.4591 27.0042 97.671 26.77C98.0162 26.389 97.9946 26.0952 97.6284 26.191C97.4351 26.2415 97.3344 26.1954 97.3344 26.0566C97.3344 25.9404 97.2314 25.8058 97.1055 25.7576C96.9796 25.7093 96.9094 25.584 96.9497 25.4791C97.0313 25.2665 96.6988 24.9228 96.5527 25.0688C96.5015 25.1201 96.3525 25.0732 96.2216 24.9646C96.0183 24.796 95.9484 24.8113 95.7404 25.0692C95.3932 25.4999 95.0079 25.5953 94.6438 25.3404C94.4708 25.2192 94.2373 25.1201 94.1252 25.1201C93.9197 25.1201 93.9267 25.2902 94.1834 26.5506C94.262 26.9368 94.2288 27.0423 94.0067 27.1109C93.8562 27.1574 93.5237 27.2977 93.2677 27.4227C93.0118 27.5479 92.7278 27.604 92.6365 27.5477C92.5452 27.4913 92.3724 27.5267 92.2523 27.6263C91.9742 27.857 91.3075 27.5874 91.3075 27.2442C91.3075 27.0511 91.1896 27.0284 90.6093 27.1103C89.6768 27.2417 89.0258 27.6246 89.0407 28.0328C89.0472 28.2084 88.9778 28.3519 88.8864 28.3519C88.6068 28.3519 88.3678 28.019 88.3644 27.6247L88.3611 27.2501L88.1059 27.5814C87.8744 27.8819 87.807 27.8959 87.3763 27.7336C86.7695 27.5046 86.4812 27.7192 86.7715 28.1838C86.9448 28.461 86.9098 28.5402 86.4146 28.9935C86.1127 29.2699 85.6986 29.5378 85.4946 29.5891C85.2876 29.6409 85.0621 29.8429 84.9851 30.0454C84.8292 30.4552 84.5457 30.5339 84.5457 30.1676C84.5457 29.7818 85.1619 28.6566 85.4174 28.5755C85.6376 28.5057 86.3136 27.278 86.311 26.9531C86.3102 26.8705 86.5246 26.5424 86.7874 26.224C87.0502 25.9055 87.347 25.4112 87.4471 25.1255C87.6206 24.6299 87.6087 24.5889 87.1885 24.2387C86.6704 23.8068 86.6289 23.6468 87.0643 23.7605C87.4944 23.8729 87.3598 23.4896 86.886 23.2528C86.6902 23.155 86.4299 22.9518 86.3073 22.8015C85.9987 22.4231 85.5397 22.3317 84.8394 22.5093C84.3528 22.6329 84.2599 22.7109 84.3314 22.9361C84.3874 23.1122 84.3349 23.244 84.1864 23.301C83.8607 23.4258 83.4916 23.0803 83.5968 22.7489C83.6727 22.5099 83.5996 22.4758 83.0121 22.4758C82.274 22.4758 82.1911 22.3629 82.6347 21.9617C83.0131 21.6194 83.0044 21.5571 82.5493 21.3462C82.0654 21.1217 81.8992 21.195 81.5009 21.8077C81.0755 22.4622 80.9566 22.9685 81.1454 23.3211C81.3345 23.6743 81.107 23.9449 80.6209 23.9449C80.2156 23.9449 80.1981 24.0486 80.5399 24.4259C80.7883 24.7002 80.7839 24.7083 80.4133 24.6597C80.2024 24.6321 79.9378 24.6824 79.8255 24.7716C79.7132 24.8608 79.4395 24.9665 79.2171 25.0065C78.8884 25.0657 78.8128 25.0253 78.8128 24.7901C78.8128 24.5749 78.7471 24.5264 78.5556 24.6005C78.4142 24.6551 78.1165 24.7366 77.8941 24.7815C77.5147 24.858 77.3155 25.1201 77.6368 25.1201C77.9 25.1201 77.7915 25.4137 77.5266 25.4186C77.3852 25.4211 77.1409 25.5202 76.984 25.6389C76.827 25.7575 76.5151 25.8546 76.2909 25.8546C76.0474 25.8546 75.6808 26.0322 75.3809 26.2953C75.1047 26.5377 74.7645 26.736 74.625 26.736C74.4624 26.736 74.4011 26.8134 74.4542 26.9516C74.4998 27.0702 74.4738 27.2063 74.3964 27.2541C74.3191 27.3018 74.2559 27.5353 74.2559 27.7729C74.2559 28.0791 74.1842 28.205 74.0098 28.205C73.8052 28.205 73.8212 28.2662 74.1047 28.5677L74.4457 28.9305L74.0201 29.1134C73.786 29.2142 73.0322 29.3051 72.345 29.3158C70.5986 29.3427 70.0875 29.5628 70.5947 30.0696C70.7108 30.1856 70.7108 30.313 70.5947 30.53C70.3451 30.9958 70.4034 31.3907 70.7647 31.6832C71.1828 32.0216 71.5284 32.681 71.3982 32.8918C71.1297 33.3258 70.14 32.8131 70.14 32.2402C70.14 31.9924 70.0037 31.8146 69.689 31.652C69.0922 31.3435 68.5863 31.4161 68.6287 31.8041C68.6934 32.3965 68.5501 32.5077 68.1386 32.1842C67.9268 32.0178 67.6952 31.9176 67.6237 31.9617C67.3572 32.1264 67.5116 32.4937 68.0821 33.0527C68.6328 33.5923 68.8464 34.081 68.5314 34.081C68.4551 34.081 68.2956 33.9425 68.177 33.7731C68.0283 33.561 67.8704 33.4941 67.6688 33.558C67.4591 33.6246 67.2894 33.54 67.0678 33.2585C66.6825 32.7689 66.6784 32.3695 67.0531 31.8041C67.3659 31.3321 67.456 30.2616 67.1829 30.2616C67.0885 30.2616 67.0531 30.3928 67.0995 30.5702C67.2217 31.0371 66.9186 31.5506 66.4176 31.7252C65.7646 31.9526 65.4199 32.3056 65.569 32.5938C65.7723 32.9865 65.903 34.1946 65.7524 34.2876C65.5012 34.4427 65.0435 35.465 64.9447 36.0909C64.8602 36.627 64.8863 36.7176 65.149 36.8009C65.3147 36.8535 65.5414 36.8209 65.6526 36.7285C65.8107 36.5974 66.011 36.67 66.5643 37.0587C67.2218 37.5204 67.2759 37.6058 67.3053 38.2289C67.3262 38.6724 67.2636 38.9619 67.1216 39.0799C66.8157 39.3336 66.8543 39.5923 67.2368 39.8517C67.5046 40.0333 67.5323 40.1125 67.3822 40.2679C67.2302 40.4252 67.1414 40.4045 66.8901 40.1532C66.5714 39.8347 66.5259 39.4879 66.6951 38.6634C66.7751 38.2739 66.7281 38.1068 66.4573 37.8188C66.0954 37.4337 65.4637 37.344 65.1715 37.636C65.0745 37.733 64.9951 38.0914 64.9951 38.4327C64.9951 38.8603 64.8906 39.1821 64.6586 39.4683C64.4736 39.6967 64.2451 40.0618 64.1509 40.2796C64.028 40.5639 63.8014 40.7264 63.3482 40.8553C63.0008 40.9541 62.6069 41.1696 62.4727 41.3342C62.2395 41.6203 62.207 41.6229 61.7377 41.3923C61.4676 41.2596 61.1313 41.116 60.9903 41.0731C60.6503 40.9698 60.1113 40.0781 60.2843 39.9052C60.3635 39.826 60.5783 39.899 60.816 40.0857C61.0988 40.3081 61.2674 40.3556 61.3959 40.2491C61.4954 40.1665 61.6861 40.1407 61.8194 40.1918C62.0887 40.2952 63.5113 39.0767 63.7167 38.5668C63.7815 38.4056 63.9407 38.1566 64.0704 38.0134C64.2872 37.774 64.2845 37.7128 64.037 37.2535C63.7728 36.7634 63.7742 36.7323 64.1049 35.6011C64.2904 34.9671 64.5665 34.2422 64.7186 33.9902C65.0258 33.4814 65.078 32.9005 64.8381 32.6608C64.6773 32.5001 64.8093 32.1372 65.4438 30.9961C65.601 30.7133 65.7276 30.3497 65.7253 30.1881C65.7197 29.8125 65.2193 29.4528 64.5224 29.3233L63.9761 29.2218L63.5224 30.1203C63.2301 30.6988 62.9091 31.1063 62.6208 31.2645C61.6748 31.7839 61.4719 32.0115 61.5605 32.4539C61.6074 32.6884 61.5732 32.9139 61.482 32.9701C61.393 33.0251 61.3202 33.2106 61.3202 33.3825C61.3202 33.5542 61.1764 33.8479 61.0006 34.0349L60.6809 34.3748L60.9953 34.7093C61.1898 34.9161 61.2804 35.1566 61.2324 35.3394C61.1836 35.5258 61.2674 35.7366 61.4594 35.9102C61.7236 36.1491 61.7365 36.2159 61.557 36.4185C61.4435 36.5469 61.3262 36.784 61.2967 36.9456C61.2599 37.1455 61.1268 37.2394 60.8797 37.2394C60.5751 37.2394 60.5025 37.152 60.4284 36.6963C60.366 36.3132 60.0041 35.7401 59.1987 34.7497C57.8376 33.0756 57.818 33.0608 56.9103 33.0028C56.592 32.9823 56.5363 33.0482 56.4942 33.4934C56.4426 34.0375 55.983 34.6019 55.7226 34.4409C55.6373 34.3883 55.5312 34.4841 55.4868 34.6538C55.3832 35.05 55.2016 35.0462 54.986 34.6435C54.8469 34.3838 54.8595 34.2921 55.0542 34.1499C55.281 33.9842 55.387 33.6403 55.2115 33.6403C55.1663 33.6403 54.8343 33.7146 54.4734 33.8054C53.8489 33.9626 53.7994 33.9512 53.4454 33.5695C53.0759 33.171 52.6938 33.1262 52.0469 33.4056C51.909 33.4652 51.6721 33.3916 51.467 33.2256L51.1201 32.9449L51.5163 32.5779C51.7341 32.3762 51.9124 32.1691 51.9124 32.1177C51.9124 31.9091 51.037 32.0388 50.9096 32.2663C50.7838 32.4908 50.7494 32.4908 50.4286 32.2663C50.0278 31.9858 48.2481 31.9257 47.9895 32.1841C47.8744 32.2991 47.8021 32.2991 47.7309 32.1841C47.5731 31.9288 47.0852 31.9994 46.9238 32.3009C46.4453 33.1945 45.1506 32.4087 45.1506 31.2247C45.1506 30.7691 45.9263 30.4183 46.3493 30.6825C47.0762 31.1361 47.1384 30.0185 46.4371 29.1067L45.9596 28.4859L45.8438 29.043C45.7713 29.3915 45.5097 29.8224 45.1453 30.1936C44.8248 30.5198 44.5626 30.8639 44.5626 30.958C44.5626 31.326 44.2087 31.8765 43.9155 31.9646C43.7459 32.0156 43.4251 32.2276 43.2029 32.4356C42.8284 32.7859 42.7986 32.7923 42.7986 32.522C42.7986 32.3614 42.8709 32.1578 42.9593 32.0695C43.0754 31.9534 43.0739 31.8233 42.954 31.5994C42.7564 31.2304 42.8967 31.2599 41.2184 31.2339L39.8587 31.2128V31.6185C39.8587 31.8418 39.7925 32.0244 39.7117 32.0244C39.6308 32.0244 39.5647 32.1566 39.5647 32.3182C39.5647 32.7269 38.897 32.7185 38.6767 32.307C38.587 32.1394 38.3862 31.875 38.2305 31.7194C38.0352 31.5242 37.9477 31.2323 37.9477 30.7757C37.9477 30.0909 37.8187 29.9596 37.5104 30.3306C37.3897 30.4761 37.3636 30.7831 37.4304 31.2692C37.5194 31.9163 37.4944 32.0163 37.1907 32.229C36.8655 32.4566 36.831 32.446 36.3553 31.9706C35.9356 31.5512 35.8837 31.4287 36.0188 31.1765C36.1339 30.9614 36.1336 30.7492 36.0175 30.4163C35.8889 30.0476 35.9002 29.9039 36.0738 29.704C36.1935 29.5663 36.3328 29.2787 36.3835 29.0648C36.4384 28.8334 36.685 28.5525 36.9925 28.3713C37.5836 28.0227 37.9414 27.4054 37.6949 27.159C37.3662 26.8306 37.784 25.1201 38.1931 25.1201C38.4144 25.1201 38.4575 25.5765 38.2561 25.7885C38.0493 26.0062 39.5853 29.3825 40.0484 29.728C40.2773 29.8989 40.7564 30.0427 41.2255 30.0816C41.9501 30.1417 42.0611 30.1079 42.5509 29.6781C43.2464 29.068 43.4698 28.3174 43.1405 27.6983C42.986 27.4077 42.8968 26.8553 42.8871 26.1271C42.8755 25.2556 42.8113 24.9369 42.6005 24.704C42.4511 24.5391 42.3676 24.3413 42.4151 24.2645C42.4626 24.1878 42.4029 24.0434 42.2825 23.9435C42.1621 23.8436 42.0636 23.6812 42.0636 23.5824C42.0636 23.4836 41.9313 23.2831 41.7696 23.1369C41.5835 22.9685 41.4756 22.6844 41.4756 22.3624C41.4756 21.9263 41.5174 21.8649 41.7696 21.9308C41.9313 21.973 42.0636 21.9489 42.0636 21.8772C42.0636 21.8055 41.8816 21.7064 41.6594 21.6567C41.4371 21.6071 40.9747 21.4406 40.632 21.2867C39.8434 20.9325 39.5463 20.9353 38.8238 21.3036C38.3527 21.5438 38.2417 21.6796 38.2417 22.0162C38.2417 22.2449 38.1691 22.6402 38.0803 22.8947C37.936 23.3088 37.8578 23.3572 37.3356 23.3572C36.4913 23.3572 36.3105 23.5066 35.7473 24.67C35.4095 25.3677 35.1655 25.7034 35.0141 25.6786C34.6867 25.6247 33.8318 26.3031 33.8318 26.6167C33.8318 26.7631 33.7721 26.8829 33.6994 26.8829C33.6265 26.8829 33.4302 27.1142 33.2634 27.397C33.0774 27.712 32.8459 27.9112 32.666 27.9112C32.2736 27.9112 32.0678 28.3362 32.0678 29.1465C32.0678 30.163 31.8138 30.2428 28.8339 30.1627C26.5516 30.1013 26.4258 30.1119 26.7025 30.3433C26.9074 30.5146 26.9407 30.61 26.8127 30.6579C26.565 30.7508 26.5806 31.2264 26.8445 31.6289C27.0617 31.9604 27.0029 32.612 26.7557 32.612C26.6825 32.612 26.5525 32.4633 26.4667 32.2815C26.3808 32.0996 26.0768 31.8001 25.7911 31.6159C25.3092 31.3049 25.2585 31.2986 25.0896 31.5295C24.9857 31.6714 24.8083 31.7403 24.6764 31.6898C24.1821 31.5001 22.6601 32.4218 22.6601 32.9108C22.6601 32.989 22.4931 33.0527 22.2889 33.0527C22.0305 33.0527 21.8763 33.1619 21.781 33.4123C21.7058 33.6101 21.4758 33.8821 21.2702 34.0168C21.0644 34.1515 20.8961 34.3761 20.8961 34.5158C20.8961 34.6557 20.7638 34.8897 20.6021 35.0359C20.2452 35.3586 20.2287 35.6596 20.5489 36.0132C20.747 36.2319 20.7563 36.3192 20.6015 36.5056C20.4979 36.6303 20.4392 36.7473 20.4708 36.7655C20.5026 36.7837 20.6575 36.8698 20.8151 36.9569C20.9725 37.0439 21.1523 37.3052 21.2146 37.5377C21.3156 37.9153 21.2515 38.0329 20.6159 38.6354C20.0343 39.187 19.8734 39.4533 19.7361 40.0931C19.6384 40.5486 19.6221 40.9448 19.6972 41.0407C19.7738 41.1387 19.7448 41.3995 19.6257 41.6831C19.3817 42.2644 18.9857 42.3059 18.5133 41.7999L18.1767 41.4393L17.6805 42.0322C17.0824 42.7471 17.0073 43.1301 17.4746 43.081C17.6748 43.06 17.8618 43.1596 17.9575 43.3381C18.0433 43.4984 18.2081 43.6296 18.3237 43.6296C18.5916 43.6296 18.8381 44.0866 18.8381 44.5831C18.8381 44.8295 18.6678 45.1239 18.3651 45.4C17.899 45.8255 17.8956 45.8379 18.1376 46.2473C18.3826 46.6619 18.3533 47.1894 18.0648 47.5581C17.8684 47.8089 18.2997 48.6836 18.9305 49.3139C19.3247 49.7079 19.4094 49.8887 19.3359 50.1809C19.2703 50.4424 19.331 50.6442 19.5442 50.8725C19.9916 51.3519 20.6162 52.6765 20.5168 52.9353C20.4692 53.0594 20.2539 53.1814 20.0384 53.2063C19.8229 53.2312 19.6609 53.3275 19.6785 53.4205C19.696 53.5134 19.5434 53.6313 19.3394 53.6824C19.0682 53.7505 18.9907 53.8457 19.0511 54.0362C19.1074 54.2132 18.9942 54.3999 18.6981 54.6188C18.15 55.0237 18.041 55.0216 17.7085 54.5993C17.2838 54.0597 16.0452 53.9297 16.0452 54.4247C16.0452 54.5274 16.2436 54.6937 16.4862 54.794C16.7639 54.9089 16.9272 55.0831 16.9272 55.2643C16.9272 55.5134 16.8634 55.5372 16.4494 55.4416C16.1866 55.3809 15.8262 55.3261 15.6483 55.3197C15.4703 55.3133 15.2422 55.2256 15.1412 55.1246C14.8306 54.8142 14.7369 54.9177 14.8269 55.4717L14.913 56.0025L14.333 55.9046C13.8711 55.8266 13.6744 55.8683 13.3675 56.1097C13.0238 56.3798 12.958 56.3887 12.7601 56.1909C12.3648 55.7959 12.1405 55.9259 12.1149 56.5643C12.0986 56.9752 12.1598 57.1857 12.3127 57.2444C12.4345 57.2911 12.4977 57.4242 12.4533 57.5399C12.4088 57.6558 12.4711 57.9415 12.5918 58.1748C12.7273 58.4366 12.8116 59.0094 12.8122 59.6712C12.813 60.7118 12.8264 60.751 13.2601 60.9977C13.5542 61.165 13.83 61.5299 14.0672 62.0662C14.2896 62.5686 14.5545 62.9297 14.7587 63.0087C15.0603 63.1255 15.267 63.4428 15.723 64.4895C15.811 64.6915 15.9038 64.9888 15.9294 65.1501C15.9548 65.3114 16.1766 65.5428 16.4224 65.6643C17.438 66.1659 18.0103 66.935 17.6716 67.3428C17.5253 67.5189 17.5355 67.627 17.7229 67.8947C17.8512 68.0777 17.9562 68.3379 17.9562 68.4729C17.9562 68.6077 18.0471 68.753 18.1583 68.7958C18.2772 68.8413 18.403 69.2141 18.464 69.702C18.5718 70.5641 18.8158 70.8358 19.1981 70.5186C19.3482 70.3942 19.4886 70.3886 19.6953 70.4992C20.2123 70.7757 20.356 70.376 20.24 68.9844L20.137 67.7488L20.639 67.1843C21.2962 66.445 21.3749 66.1918 21.1647 65.4909C20.964 64.8215 21.1038 64.6426 21.8304 64.6386C22.0649 64.6374 22.4497 64.4685 22.7024 64.2561C23.0724 63.9449 23.2366 63.8965 23.6055 63.9889C24.2804 64.158 25.6776 64.1468 25.6481 63.9726C25.6341 63.8903 25.5765 63.6391 25.52 63.4145C25.4237 63.0312 25.4412 63.012 25.8027 63.1026C26.1867 63.199 26.188 63.1962 26.188 62.3093C26.188 61.5014 26.1455 61.3799 25.7266 60.9886C25.3094 60.5988 25.2798 60.5155 25.4187 60.1174C25.54 59.7699 25.5258 59.6306 25.3513 59.4562C25.0482 59.1532 25.3272 58.6464 25.8615 58.5294C26.5637 58.3759 26.629 58.3345 26.629 58.0419C26.629 57.8374 26.8877 57.6259 27.5292 57.3055C28.0244 57.0582 28.4913 56.894 28.5668 56.9407C28.6424 56.9874 28.6634 57.2112 28.6134 57.438C28.5423 57.7619 28.5948 57.9007 28.858 58.0849C29.1758 58.3073 29.203 58.3009 29.3824 57.9587C29.511 57.7136 29.7478 57.5662 30.1215 57.4988C30.424 57.4443 30.7375 57.3588 30.8184 57.3088C30.8992 57.2587 31.263 57.2079 31.6269 57.1956C31.9907 57.1834 32.5033 57.1262 32.7661 57.0688C33.2246 56.9685 33.2438 56.9826 33.2438 57.418C33.2438 57.843 33.2715 57.866 33.6817 57.7841C34.0522 57.71 34.1409 57.7526 34.258 58.0601C34.334 58.26 34.6254 58.5588 34.9056 58.7239C35.4144 59.0241 35.573 59.4524 35.6144 60.6388C35.6238 60.9078 35.6666 60.941 35.8298 60.8057C35.9899 60.673 36.1445 60.7341 36.5504 61.0902C36.9953 61.4808 37.1207 61.5233 37.4534 61.3969C37.9293 61.2161 38.3403 61.3338 38.541 61.7084C38.6524 61.9162 38.8504 61.9922 39.2811 61.9922C39.8327 61.9922 39.8859 62.031 40.1389 62.6165C40.5002 63.4528 40.9522 63.8594 41.2478 63.6141C41.4254 63.4669 41.5403 63.4907 41.8584 63.7408C42.3238 64.1065 42.8362 64.1371 43.1557 63.818C43.4832 63.4906 43.4526 63.3707 42.8558 62.6428C42.2465 61.8999 42.2791 61.5914 42.974 61.5247C43.3401 61.4895 43.4638 61.4056 43.4751 61.1842C43.4833 61.0226 43.4999 60.8079 43.5118 60.7068C43.5398 60.4709 44.4457 60.4652 44.6802 60.6995C44.81 60.8292 44.8999 60.8324 45.0206 60.7118C45.1413 60.5912 45.1219 60.4584 44.9471 60.2091C44.6371 59.7669 44.6384 59.0722 44.9493 58.9531C45.081 58.9024 45.3993 58.9743 45.6562 59.1126C45.9133 59.251 46.4834 59.3909 46.9232 59.4236C47.3629 59.4564 48.0429 59.5598 48.4342 59.6537C48.9958 59.7884 49.2205 59.7844 49.5 59.6347C49.7642 59.4935 49.9387 59.4858 50.1852 59.6045C50.3782 59.6974 51.036 59.7383 51.7654 59.7024C52.4526 59.6688 53.2464 59.6318 53.5294 59.6202C53.8123 59.6087 54.2092 59.6759 54.4114 59.7696C55.6898 60.3622 55.9697 60.8035 55.5106 61.5034C55.293 61.8354 55.2897 61.9046 55.4822 62.0969C55.6489 62.2637 55.7695 62.2776 55.9957 62.1566C56.3435 61.9706 56.6761 62.2531 56.5368 62.6161C56.4696 62.7907 56.5746 62.8332 57.0439 62.8209C57.8564 62.7996 58.0935 63.0578 57.6728 63.5054C57.2374 63.9684 57.2684 64.0904 57.7923 63.9754C58.0672 63.915 58.2333 63.9376 58.2333 64.0353C58.2333 64.1215 58.6049 64.0278 59.06 63.8265C59.5148 63.6256 59.9943 63.4588 60.1257 63.4561C60.2571 63.4531 60.5299 63.3594 60.7318 63.2477C60.9955 63.1019 61.152 63.089 61.2879 63.2016C61.4384 63.3265 61.4121 63.4274 61.1588 63.6968L60.8407 64.0353L61.2884 64.4119C61.8822 64.9113 62.4962 65.9794 62.4962 66.5129C62.4962 66.7487 62.593 67.1358 62.7115 67.3732C62.83 67.6104 63.0354 68.2321 63.1677 68.7545C63.3001 69.277 63.516 69.8257 63.6476 69.9738C63.8779 70.233 63.899 70.2289 64.2134 69.8636C64.6366 69.3719 64.751 69.3851 65.0054 69.9552C65.2663 70.5399 65.9951 70.7788 66.7222 70.5179C67.1374 70.3691 67.2767 70.3898 67.7879 70.677C68.1115 70.8585 68.376 71.094 68.376 71.2001C68.376 71.3062 68.6076 71.6492 68.8905 71.9621C69.1735 72.2751 69.405 72.6021 69.405 72.6886C69.405 72.9204 70.0096 73.3036 70.3752 73.3036C70.5494 73.3036 70.7743 73.2044 70.875 73.0832C71.1578 72.7427 71.3904 72.8194 71.6203 73.3293C71.9282 74.0122 72.2247 74.144 72.8117 73.8584C73.0805 73.7275 73.6146 73.5107 73.9987 73.3764C74.3828 73.2421 74.6969 73.0701 74.6969 72.994C74.6969 72.9178 74.8501 72.7973 75.0374 72.7262C75.2246 72.6551 75.6308 72.4254 75.9399 72.2158C76.249 72.0061 76.6249 71.8345 76.7754 71.8345C76.9258 71.8345 77.0489 71.7715 77.0489 71.6946C77.0489 71.6176 77.2804 71.4447 77.5635 71.3106C78.0446 71.0824 78.103 71.0827 78.4593 71.316C78.6711 71.4548 78.9813 71.5303 79.1574 71.4863C79.3632 71.4347 79.7002 71.5585 80.1192 71.8397C80.8852 72.354 81.4855 72.5376 82.8126 72.6635L83.7989 72.7571L84.3353 72.221C84.8353 71.7214 84.8573 71.6625 84.6596 71.3558C84.5429 71.1747 84.3719 70.8067 84.2798 70.5378C84.1228 70.0803 84.1495 69.9986 84.7011 69.2525C85.2666 68.4876 85.601 68.2888 85.7952 68.6027C85.8451 68.6835 86.0327 68.7496 86.2122 68.7496C86.3915 68.7496 86.6907 68.8564 86.8771 68.9869C87.1172 69.1549 87.3808 69.1977 87.7818 69.1336C88.5846 69.0052 89.0422 69.2307 89.3992 69.93C89.9402 70.9896 91.4331 71.2544 92.4326 70.4682C92.7521 70.217 93.024 70.149 93.6557 70.1624C95.0442 70.1916 96.04 70.3937 96.5709 70.7538C97.0044 71.0478 97.2614 71.0998 98.2737 71.0977C99.2808 71.0956 99.5571 71.0391 100.054 70.7334C100.377 70.5345 100.847 70.2743 101.098 70.1552C101.524 69.9533 101.9 69.5673 102.751 68.4577C102.94 68.2105 103.275 67.9155 103.493 67.8026C103.839 67.6241 103.953 67.6269 104.36 67.8237C104.792 68.0326 104.861 68.0295 105.234 67.7838C105.549 67.5766 105.876 67.5254 106.691 67.555C107.687 67.5912 107.758 67.5721 108.014 67.1991C108.164 66.9823 108.435 66.6564 108.616 66.475C109.009 66.0831 109.024 65.9193 108.711 65.4417C108.516 65.1431 108.502 64.9636 108.633 64.3818C109.091 62.3506 109.024 61.7655 108.313 61.5793C107.927 61.478 107.853 61.3939 107.893 61.1001C107.97 60.5429 108.272 60.17 109.271 59.4036C110.08 58.7827 110.317 58.6793 111.152 58.5825C111.678 58.5217 112.413 58.4316 112.787 58.3824C113.517 58.2865 114.325 58.5778 114.485 58.9947C114.531 59.1151 114.824 59.3436 115.136 59.5025C115.448 59.6615 115.8 59.9799 115.92 60.2101C116.039 60.4403 116.336 60.7112 116.579 60.8121C116.823 60.9131 117.257 61.2819 117.544 61.6317C118.164 62.3876 118.493 62.5203 119.046 62.2375C119.629 61.9395 120.578 61.8069 121.004 61.9644C121.203 62.038 121.545 62.047 121.763 61.9843C122.077 61.8945 122.24 61.9439 122.536 62.2181C122.743 62.4092 122.912 62.6947 122.912 62.8521C122.912 63.3077 123.646 63.4953 124.074 63.1492C124.261 62.9976 124.496 62.8736 124.596 62.8736C124.874 62.8736 125.281 62.3547 125.189 62.1163C125.114 61.9208 125.428 61.4125 126.245 60.4039L126.565 60.009L127.098 60.5224C127.51 60.9198 127.622 61.1356 127.594 61.4773C127.573 61.7201 127.628 62.084 127.715 62.286C128.132 63.25 128.498 64.6583 128.416 64.9846C128.366 65.182 128.402 65.4861 128.495 65.6605C128.726 66.0904 128.458 66.3992 127.854 66.3992C127.443 66.3992 127.356 66.48 127.052 67.144L126.71 67.8888L127.025 68.209C127.597 68.7912 128.498 70.1327 128.498 70.4034C128.498 70.5499 128.393 70.8298 128.265 71.0253C128.047 71.357 128.08 71.6877 128.33 71.6877C128.519 71.6877 128.792 70.7374 128.792 70.0801C128.792 69.5292 128.821 69.4721 129.017 69.6349C129.203 69.7888 129.276 69.7753 129.435 69.5577C129.618 69.3079 129.632 69.3105 129.71 69.6067C129.789 69.9074 129.818 69.9116 130.47 69.7155C131.209 69.4931 131.536 69.1714 132.046 68.162C132.354 67.5515 132.384 67.2649 132.44 64.4103C132.496 61.6033 132.473 61.2155 132.19 60.1853C131.969 59.38 131.879 58.6235 131.879 57.5777C131.879 56.3638 131.823 55.9955 131.565 55.4859C131.125 54.6195 130.463 53.6658 129.73 52.842C129.249 52.3014 129.065 51.9445 128.934 51.2996C128.75 50.3858 128.448 49.7994 128.162 49.7994C128.062 49.7994 127.898 49.6672 127.797 49.5056C127.676 49.3129 127.454 49.2118 127.151 49.2118C126.712 49.2118 126.701 49.198 126.931 48.9431C127.279 48.5599 127.242 48.5077 126.624 48.4983C126.32 48.4938 125.739 48.4487 125.332 48.3981C124.733 48.3238 124.526 48.3593 124.248 48.5837L123.906 48.861L124.22 49.4771L124.535 50.0932H124.164C123.896 50.0932 123.794 50.1715 123.794 50.3783C123.794 50.886 123.515 50.8533 123.291 50.3194C123.172 50.0334 122.969 49.7994 122.841 49.7994C122.65 49.7994 122.637 49.8552 122.771 50.1047C122.948 50.4361 122.867 50.8277 122.62 50.8277C122.535 50.8277 122.356 50.5964 122.221 50.3136C122.086 50.0308 121.909 49.7994 121.827 49.7994C121.745 49.7994 121.428 49.9725 121.123 50.1839C120.818 50.3954 120.467 50.5297 120.343 50.4824C120.017 50.3572 120.055 49.2363 120.429 47.9825C120.684 47.1279 120.721 46.738 120.639 45.7989C120.578 45.0965 120.605 44.3381 120.711 43.8319C120.859 43.1179 120.848 42.9453 120.629 42.5388C120.39 42.0961 120.39 42.0426 120.628 41.5841C120.808 41.2349 120.834 41.0537 120.719 40.9391C120.503 40.7231 120.519 40.193 120.758 39.6218C121.032 38.9655 122.394 37.5109 122.839 37.3994C123.059 37.344 123.206 37.2022 123.206 37.0439C123.206 36.899 123.404 36.6339 123.647 36.4546C123.889 36.2754 124.088 35.9987 124.088 35.8394C124.088 35.6571 124.187 35.55 124.356 35.55C124.564 35.55 124.613 35.4584 124.573 35.146C124.511 34.666 124.566 34.5836 125.361 33.965C126.093 33.3954 126.978 33.0006 127.096 33.1908C127.142 33.2653 127.112 33.3677 127.03 33.4185C126.798 33.5616 126.854 34.081 127.101 34.081C127.238 34.081 127.322 33.9428 127.322 33.7189C127.322 33.5066 127.444 33.2916 127.617 33.1989C127.836 33.0821 127.889 32.9488 127.823 32.6868C127.754 32.4119 127.852 32.2117 128.26 31.792C128.771 31.2665 128.864 30.7644 128.373 31.1846C127.869 31.6151 127.775 31.5977 127.401 31.0045C127.135 30.5846 127.028 30.2109 127.028 29.7095C127.028 29.3092 126.929 28.8637 126.799 28.6781C126.673 28.4983 126.609 28.2872 126.658 28.2088C126.706 28.1305 126.636 27.8991 126.502 27.6946C126.339 27.4461 126.292 27.1893 126.359 26.9193C126.414 26.6973 126.504 26.2541 126.559 25.9345C126.639 25.4767 126.738 25.3342 127.028 25.2636C127.322 25.1919 127.387 25.0952 127.353 24.7797C127.293 24.2235 127.509 24.2899 127.983 24.9732C128.377 25.5414 128.645 25.719 128.645 25.4127C128.645 25.3237 128.76 25.3361 128.932 25.4438C129.393 25.7313 129.441 25.4898 129.162 24.3043C128.967 23.4748 128.942 23.1481 129.066 23.0242C129.31 22.7807 129.27 22.6227 128.964 22.6227C128.551 22.6227 128.057 22.0031 128.057 21.4854C128.057 21.1625 128.174 20.9356 128.457 20.7132C128.881 20.3804 129.113 20.5464 128.782 20.9448C128.628 21.1301 128.692 21.2629 129.166 21.7479C129.478 22.0675 129.814 22.3289 129.912 22.3289C130.01 22.3289 130.234 22.5613 130.41 22.8454C130.669 23.2638 130.712 23.4943 130.638 24.0574C130.561 24.6431 130.617 24.8997 130.992 25.6842C131.237 26.1964 131.438 26.7774 131.438 26.9754C131.438 27.1734 131.569 27.5145 131.73 27.7334C132.108 28.2471 132.639 30.2988 132.429 30.4304C132.345 30.4828 132.316 30.6268 132.363 30.7502C132.41 30.8736 132.354 31.0535 132.238 31.1499C132.058 31.2989 132.092 31.3998 132.46 31.8193C132.699 32.0911 132.977 32.5954 133.079 32.94C133.21 33.384 133.566 33.8736 134.299 34.6182C135.233 35.5678 135.414 35.6859 136.169 35.8385C136.674 35.9409 137.215 36.1748 137.538 36.4313C137.831 36.6644 138.381 36.9704 138.76 37.1114C139.139 37.2523 139.607 37.4876 139.8 37.6341C139.992 37.7806 140.22 37.9004 140.306 37.9004C140.392 37.9004 140.717 38.0769 141.028 38.2924C141.53 38.6402 141.619 38.6596 141.814 38.4647C141.985 38.2934 142 38.1568 141.88 37.8429C141.796 37.6216 141.727 37.2325 141.727 36.9782C141.727 36.6073 141.565 36.3621 140.906 35.7395C140.11 34.9877 140.088 34.9446 140.184 34.3753C140.238 34.0519 140.385 33.7305 140.509 33.6612C140.687 33.5614 140.616 33.4765 140.169 33.257C139.63 32.9919 139.223 32.4705 139.017 31.7794C138.948 31.5468 139.046 31.3202 139.381 30.9391C139.907 30.3405 139.852 30.1147 139.18 30.1147C138.566 30.1147 137.706 29.523 137.461 28.9317C137.282 28.4992 137.293 28.445 137.609 28.2064C137.838 28.0344 137.919 27.865 137.855 27.6967C137.776 27.4928 137.648 27.4633 137.181 27.5422C136.45 27.6656 136.054 27.4567 135.781 26.8041C135.512 26.161 135.113 26.1202 135.113 26.736C135.113 27.1053 135.055 27.1767 134.754 27.1767C134.556 27.1767 134.352 27.1065 134.299 27.0207C134.245 26.9349 134.043 26.8044 133.849 26.7305C133.561 26.6212 133.496 26.4926 133.496 26.0357C133.496 25.5637 133.39 25.3716 132.825 24.8201C132.253 24.2619 132.166 24.1025 132.237 23.7404C132.283 23.5066 132.431 23.2349 132.566 23.1365C132.783 22.9775 132.789 22.8814 132.618 22.2718C132.512 21.8946 132.458 21.5539 132.497 21.5147C132.537 21.4754 132.757 21.5914 132.987 21.7722C133.374 22.0769 133.396 22.0797 133.276 21.8111C133.206 21.6516 133.121 21.1759 133.088 20.754C133.033 20.0462 133.07 19.9359 133.572 19.3231C134.019 18.7785 134.18 18.6749 134.468 18.7472C134.905 18.8568 134.928 18.584 134.525 18.0688C134.36 17.858 134.236 17.47 134.234 17.158C134.232 16.8191 134.144 16.5657 134 16.4851C133.868 16.4113 133.734 16.0774 133.69 15.7066C133.646 15.3495 133.519 14.7741 133.406 14.4279C133.294 14.0816 133.202 13.533 133.202 13.2086C133.202 12.6186 132.921 11.9016 132.503 11.4252C132.302 11.1956 132.313 11.1584 132.631 11.0264C133.119 10.8235 133.643 10.3476 133.638 10.1127C133.624 9.52373 132.945 9.32424 132.126 9.66843C131.621 9.881 131.337 9.88937 131.217 9.69546C131.072 9.46071 130.479 9.52535 130.098 9.81739C129.905 9.96517 129.631 10.1284 129.49 10.1799C129.349 10.2316 129.233 10.3821 129.233 10.5146C129.233 10.6737 129.154 10.7249 129 10.666C128.872 10.617 128.742 10.5769 128.711 10.5769C128.68 10.5769 128.696 10.4663 128.748 10.331C128.82 10.1447 128.783 10.108 128.597 10.1795C128.461 10.2314 128.351 10.2098 128.351 10.1316C128.351 10.0533 128.412 9.98926 128.487 9.98926C128.562 9.98926 128.858 9.76818 129.145 9.49803C129.624 9.04689 129.655 8.96713 129.527 8.5229C129.353 7.9159 128.975 7.48739 128.704 7.59096C128.577 7.63988 128.498 7.57509 128.498 7.42261C128.498 7.22532 128.41 7.19403 128.07 7.26881C127.72 7.34549 127.623 7.307 127.545 7.06006C127.492 6.89362 127.383 6.75744 127.302 6.75744C127.217 6.75744 127.198 6.61701 127.257 6.42692C127.391 5.9915 127.415 5.97167 127.643 6.11842C127.749 6.18703 128.082 6.24725 128.382 6.2524C128.984 6.26239 129.14 6.06877 128.995 5.49116C128.858 4.94513 129.29 4.52719 129.795 4.7189C130.143 4.85126 130.24 4.80204 130.787 4.21532C131.12 3.85762 131.486 3.53135 131.599 3.49022C131.761 3.43131 131.767 3.3752 131.627 3.22594C131.485 3.07625 131.501 2.99296 131.7 2.82946C131.933 2.63805 131.929 2.62732 131.644 2.68696C131.45 2.7278 131.272 2.64848 131.162 2.4722C130.914 2.07615 130.281 1.85742 130.017 2.07659C129.862 2.20484 129.765 2.20704 129.643 2.08452C129.52 1.96216 129.541 1.89502 129.723 1.82539C129.995 1.7208 130.06 1.32211 129.805 1.32211C129.715 1.32211 129.682 1.21869 129.73 1.0925C129.825 0.847324 129.453 0 129.252 0C129.186 0 129.007 0.137646 128.854 0.305995ZM117.73 3.39047C117.366 3.60245 117.391 4.47211 117.772 4.85302C118.114 5.19471 118.409 5.10334 118.28 4.69584C118.232 4.54511 118.295 4.2234 118.421 3.98101C118.546 3.73848 118.649 3.47083 118.649 3.38607C118.649 3.19054 118.069 3.19348 117.73 3.39047ZM61.4596 10.9349C61.5644 11.0612 61.8207 11.1645 62.029 11.1645C62.4954 11.1645 62.2955 10.9481 61.6987 10.8069C61.3205 10.7175 61.2918 10.7329 61.4596 10.9349ZM62.8315 11.3657C62.6085 11.6489 62.4397 11.7073 61.9261 11.6782C61.4257 11.65 61.3355 11.6792 61.4912 11.8188C61.6111 11.9263 61.9789 11.9714 62.4349 11.9344C63.1485 11.8766 63.1822 11.8546 63.1822 11.4458C63.1822 11.2103 63.1649 11.0176 63.1438 11.0176C63.1227 11.0176 62.9821 11.1742 62.8315 11.3657ZM67.3638 13.2033C67.1297 13.3833 67.0689 13.5074 67.1814 13.5767C67.4579 13.7476 67.9351 13.5161 67.9351 13.2112C67.9351 12.8597 67.813 12.8581 67.3638 13.2033ZM65.5831 13.2546C65.5831 13.3727 65.6989 13.5736 65.8404 13.7013C66.0535 13.8933 66.1417 13.9008 66.3548 13.7445C66.6532 13.5258 66.6957 13.222 66.4283 13.219C66.3274 13.218 66.0958 13.1772 65.9138 13.1285C65.6813 13.0662 65.5831 13.1037 65.5831 13.2546ZM64.2601 13.6039C64.2601 13.7244 64.4114 13.8087 64.6276 13.8087C65.1071 13.8087 65.1071 13.4479 64.6275 13.4203C64.4013 13.4072 64.2601 13.4777 64.2601 13.6039ZM77.3684 14.6908C77.1279 14.8912 77.0546 15.0644 77.1213 15.2743C77.1848 15.4745 77.1401 15.6021 76.9855 15.6614C76.6806 15.7783 76.6927 16.198 77.0121 16.5858L77.2693 16.8982L77.8879 16.5898C78.4403 16.3144 78.4978 16.2374 78.4243 15.8707C78.3761 15.6292 78.4137 15.4161 78.516 15.3529C78.637 15.2781 78.566 15.1161 78.2829 14.8208C77.805 14.3224 77.81 14.3231 77.3684 14.6908ZM102.949 15.2859C102.845 15.4519 102.648 15.5706 102.51 15.5496C102.183 15.4998 101.597 15.8248 101.597 16.0555C101.597 16.1544 101.73 16.3179 101.891 16.4188C102.053 16.5197 102.185 16.5422 102.185 16.4688C102.185 16.3953 102.51 16.2575 102.906 16.1625C103.608 15.9943 103.793 15.7879 103.8 15.1675C103.804 14.8681 103.154 14.9586 102.949 15.2859ZM100.054 16.3905C99.8119 16.5168 99.4594 16.5907 99.2708 16.5547C98.8244 16.4694 98.66 16.8655 99.0299 17.1357C99.2302 17.2822 99.2595 17.379 99.1397 17.4987C99.0197 17.6186 98.8552 17.6017 98.5221 17.4357C98.0976 17.224 98.0582 17.2277 97.9165 17.4921C97.8332 17.6476 97.6681 17.775 97.5498 17.775C97.2583 17.775 97.2684 17.8095 97.7832 18.5718C98.316 19.3608 98.4367 19.4475 99.0582 19.4891C99.5411 19.5212 99.8144 19.3404 99.5394 19.1706C99.3297 19.0412 99.5029 18.8033 99.8066 18.8033C99.9442 18.8033 100.141 18.6686 100.244 18.5041C100.346 18.3396 100.594 18.1429 100.793 18.0671C101.367 17.8491 101.217 17.6281 100.495 17.6281C100.042 17.6281 99.8334 17.5664 99.8334 17.4323C99.8334 17.1477 100.002 17.0235 100.187 17.1717C100.276 17.2425 100.563 17.3464 100.826 17.4025C101.209 17.4844 101.303 17.4579 101.303 17.2679C101.303 17.1378 101.204 16.9932 101.083 16.9468C100.962 16.9002 100.862 16.704 100.862 16.5106C100.862 16.1014 100.665 16.0721 100.054 16.3905ZM78.1219 16.8204C77.7118 17.1075 77.2689 17.9707 77.4932 18.0455C77.5827 18.0753 77.7161 18.258 77.7897 18.4515C77.8797 18.6879 78.0395 18.8033 78.2767 18.8033C78.4709 18.8033 78.7121 18.9025 78.8128 19.0237C79.0238 19.2777 79.6316 19.3182 79.774 19.0879C79.8271 19.0019 79.754 18.803 79.6116 18.6457C79.3913 18.4024 79.3805 18.3078 79.5391 18.0114C79.8197 17.4875 79.4789 16.7047 79.1803 17.1874C79.0273 17.4349 78.8357 17.3512 78.7864 17.0152C78.7256 16.6036 78.5185 16.5428 78.1219 16.8204ZM76.4609 17.1041C76.4609 17.3331 77.0098 17.5693 77.17 17.4092C77.2708 17.3085 76.796 16.8936 76.5798 16.8936C76.5144 16.8936 76.4609 16.9884 76.4609 17.1041ZM80.6266 18.0809C80.5328 18.1954 80.4116 18.5536 80.357 18.8768C80.3026 19.2 80.1903 19.6853 80.1076 19.9553C80.0239 20.2284 80.013 20.5019 80.0832 20.5717C80.2453 20.7329 82.0385 19.877 82.1507 19.585C82.2005 19.4551 82.0754 19.216 81.8471 19.0044C81.6335 18.8064 81.4567 18.5646 81.4541 18.4669C81.4514 18.3654 81.3657 18.3995 81.2541 18.5462C80.9776 18.9103 80.8959 18.8688 80.8433 18.3379C80.8059 17.9603 80.7652 17.9118 80.6266 18.0809ZM101.77 19.7178C101.531 19.9562 101.554 20.3472 101.819 20.567C102.105 20.8045 103.361 20.4862 103.361 20.1761C103.361 19.8269 102.041 19.4466 101.77 19.7178ZM100.862 19.823C100.862 19.8991 100.928 20.002 101.009 20.052C101.09 20.1019 101.156 20.0396 101.156 19.9137C101.156 19.7878 101.09 19.6847 101.009 19.6847C100.928 19.6847 100.862 19.7469 100.862 19.823ZM64.6623 21.7077C63.5834 22.072 63.5035 22.0794 63.0354 21.8562C62.7212 21.7064 62.4681 21.6689 62.3359 21.7526C62.2219 21.8248 61.8234 21.8847 61.4503 21.886C60.9971 21.8875 60.6478 21.9858 60.3981 22.182C60.1926 22.3436 59.8798 22.4758 59.7031 22.4758C59.5054 22.4758 59.3522 22.589 59.3049 22.7698C59.2549 22.9608 58.836 23.2471 58.108 23.5877C57.4921 23.876 56.959 24.141 56.9232 24.1768C56.8875 24.2125 56.9857 24.3381 57.1415 24.4559C57.4164 24.6636 57.4148 24.6701 57.0895 24.6747C56.905 24.6773 56.7161 24.7781 56.6698 24.8987C56.6147 25.0425 56.4714 25.0894 56.2535 25.0347C56.0016 24.9714 55.902 25.025 55.8415 25.2567C55.788 25.461 55.6848 25.5326 55.5294 25.4729C55.3718 25.4125 55.2532 25.5001 55.1597 25.7461C54.9993 26.1676 54.6615 26.3543 54.0439 26.3627C53.4375 26.3709 53.3447 26.9403 53.8778 27.3812C54.3537 27.7749 54.5401 28.4587 54.2064 28.5866C53.7408 28.7651 53.9611 29.2114 54.785 29.7579C55.6267 30.3164 55.8684 30.3456 55.6069 29.8575C55.3545 29.3861 55.6705 27.6622 56.1037 27.1476C56.3048 26.9089 56.4693 26.6193 56.4693 26.5043C56.4693 26.3893 56.6054 26.2953 56.7718 26.2953C56.9382 26.2953 57.3729 25.9925 57.7379 25.6226C58.133 25.222 58.4864 24.9824 58.6113 25.0303C58.7385 25.0791 58.8213 25.0196 58.8213 24.8794C58.8213 24.7318 58.9028 24.6792 59.0465 24.7343C59.1961 24.7917 59.3181 24.6985 59.4103 24.4562C59.5183 24.1724 59.6537 24.0918 60.0224 24.0918C60.3181 24.0918 60.6365 23.9604 60.8711 23.7415C61.1489 23.4824 61.6011 23.3274 62.608 23.1463C63.3568 23.0114 64.0361 22.9424 64.1177 22.9928C64.3354 23.1273 65.3115 22.7801 65.6934 22.4322C66.0144 22.1396 66.1407 21.5368 65.9105 21.3946C65.848 21.3562 65.2863 21.4969 64.6623 21.7077ZM134.035 24.0428C133.86 24.2169 133.931 24.9091 134.152 25.2022C134.351 25.4647 134.369 25.4262 134.373 24.7161C134.377 24.001 134.277 23.8009 134.035 24.0428ZM87.511 26.4849C87.3945 26.6254 87.4239 26.7185 87.6242 26.8435C87.9344 27.0371 88.0736 26.9506 88.0736 26.5645C88.0736 26.2537 87.7421 26.2068 87.511 26.4849ZM64.7992 28.4499C64.5968 28.652 64.7119 28.9395 64.9951 28.9395C65.1568 28.9395 65.2891 28.8734 65.2891 28.7926C65.2891 28.7118 65.219 28.6457 65.1334 28.6457C65.0479 28.6457 65.0186 28.5796 65.0686 28.4988C65.1696 28.3354 64.9531 28.2961 64.7992 28.4499ZM49.1262 29.5925C48.6411 30.1765 49.3038 30.8092 49.925 30.3553C50.1853 30.1651 50.1937 30.1065 50.0094 29.7623C49.7832 29.3398 49.3976 29.2657 49.1262 29.5925ZM12.9905 30.121L12.6552 30.2554L12.9693 30.8828C13.4403 31.8236 14.2645 32.6312 14.5808 32.4622C14.9589 32.2599 15.05 31.8774 14.8079 31.5082C14.6897 31.3279 14.6279 31.0472 14.6703 30.8844C14.713 30.7217 14.6759 30.5441 14.588 30.4899C14.4979 30.4342 14.4282 30.4958 14.4282 30.6309C14.4282 31.0064 13.942 30.8264 13.7231 30.37C13.513 29.9319 13.4851 29.9224 12.9905 30.121ZM69.405 30.3998C69.405 30.4759 69.4712 30.5789 69.552 30.6288C69.6329 30.6788 69.699 30.6165 69.699 30.4906C69.699 30.3647 69.6329 30.2616 69.552 30.2616C69.4712 30.2616 69.405 30.3237 69.405 30.3998ZM68.229 31.143C68.229 31.2238 68.2912 31.2899 68.3674 31.2899C68.4435 31.2899 68.5466 31.2238 68.5965 31.143C68.6465 31.0622 68.5842 30.9961 68.4582 30.9961C68.3322 30.9961 68.229 31.0622 68.229 31.143ZM56.0283 31.4876C56.0283 31.842 56.499 32.6411 56.6304 32.5098C56.8202 32.3201 56.4922 31.2899 56.2419 31.2899C56.1245 31.2899 56.0283 31.3789 56.0283 31.4876ZM142.097 39.9801C142.15 40.1947 142.126 40.4957 142.044 40.6491C141.955 40.8152 141.947 41.0125 142.025 41.1378C142.124 41.2975 142.21 41.2158 142.385 40.7966C142.604 40.2722 142.601 40.2293 142.308 39.9175L142 39.5898L142.097 39.9801ZM127.028 46.0593C127.028 46.1125 127.226 46.3412 127.469 46.5676C127.943 47.0101 128.106 47.8086 127.689 47.6491C127.536 47.5903 127.469 47.6592 127.469 47.874C127.469 48.0629 127.563 48.1835 127.71 48.1835C127.991 48.1835 128.272 48.5079 128.564 49.171C128.692 49.4602 129.08 49.8401 129.56 50.1473C130.468 50.7278 132.516 52.7057 133.055 53.522C133.257 53.8285 133.598 54.2565 133.813 54.4734C134.812 55.4823 135.701 56.6313 135.701 56.9153C135.701 57.107 135.871 57.3288 136.142 57.4885C136.763 57.8555 136.964 57.6577 136.513 57.1221C136.309 56.8796 136.143 56.6368 136.144 56.5823C136.151 56.2708 136.472 56.0775 137.007 56.0636C137.339 56.0547 137.612 56.0014 137.612 55.9449C137.612 55.7915 137.049 55.6424 136.875 55.7498C136.792 55.8011 136.503 55.7062 136.232 55.5388C135.961 55.3717 135.589 55.2347 135.406 55.2347C134.886 55.2347 133.826 53.9715 133.989 53.5466C134.036 53.4246 134.013 53.325 133.937 53.325C133.678 53.325 133.46 52.7365 133.64 52.5208C133.747 52.391 133.753 52.2914 133.656 52.2317C133.407 52.0776 133.652 51.6924 133.942 51.7842C134.529 51.9705 134.329 51.5618 133.607 51.0998C133.184 50.8289 132.446 50.2934 131.967 49.9096C131.487 49.5257 130.964 49.2118 130.803 49.2118C130.433 49.2118 129.38 48.1199 129.38 47.7366C129.38 47.5464 129.28 47.449 129.084 47.449C128.922 47.449 128.676 47.3168 128.537 47.1552C128.399 46.9936 128.206 46.8614 128.108 46.8614C128.011 46.8614 127.811 46.7095 127.663 46.524C127.371 46.1566 127.028 45.9052 127.028 46.0593ZM121.984 48.2784C121.767 48.4949 121.891 48.855 122.183 48.855C122.397 48.855 122.471 48.773 122.44 48.5675C122.395 48.2628 122.153 48.1096 121.984 48.2784ZM8.10738 51.5549C8.10738 51.6317 8.20483 51.7491 8.32405 51.8156C8.6179 51.98 8.46443 53.0462 8.16353 52.9308C8.04667 52.8859 7.96038 52.9459 7.96038 53.0718C7.96038 53.1922 7.83102 53.3246 7.67285 53.3659C7.41899 53.4323 7.40605 53.4863 7.56261 53.8299C7.72901 54.1948 7.78354 54.2131 8.44958 54.1239C9.05448 54.0428 9.20191 54.0745 9.44755 54.3379C9.61409 54.5167 9.91794 54.6471 10.1672 54.6471C10.494 54.6471 10.6519 54.7498 10.8176 55.0701C11.0827 55.5825 11.4696 55.7571 11.7403 55.4865C12.0201 55.2068 11.837 54.8421 11.3686 54.7462C10.7886 54.6273 10.5361 54.143 10.7655 53.5893C10.9122 53.2354 10.9103 53.1282 10.7554 53.0326C10.6498 52.9673 10.5988 52.8219 10.642 52.7094C10.7457 52.4395 10.3774 51.9453 10.1687 52.0743C10.0789 52.1297 9.92514 52.1086 9.82694 52.0272C9.65261 51.8825 8.43621 51.4216 8.21762 51.4175C8.15691 51.4164 8.10738 51.4782 8.10738 51.5549Z"/>
</mask>
<path fill-rule="evenodd" clip-rule="evenodd" d="M128.854 0.305995C128.702 0.474196 128.361 0.702186 128.097 0.812509C127.814 0.930323 127.549 1.1827 127.453 1.42464C127.363 1.65102 127.231 1.95099 127.159 2.09128C126.924 2.54756 127.017 2.64422 127.689 2.64422C128.442 2.64422 128.498 2.74866 127.998 3.21757C127.647 3.54766 127.644 3.5478 126.901 3.28412L126.157 3.0197L125.739 3.41956C125.509 3.63947 125.18 3.81942 125.007 3.81942C124.834 3.81942 124.241 4.20886 123.689 4.68482C123.137 5.16063 122.436 5.65407 122.132 5.78129C121.532 6.03161 119.825 7.57127 119.825 7.8617C119.825 7.95968 119.693 8.20794 119.531 8.41346C119.369 8.61882 119.237 8.93143 119.237 9.108C119.237 9.28855 119.124 9.46071 118.98 9.50111C118.838 9.54063 118.571 9.80652 118.387 10.0921C118.068 10.5851 118.065 10.6209 118.314 10.8056C118.458 10.9125 118.84 11.0442 119.163 11.0982C119.789 11.2027 120.266 11.5256 120.266 11.8445C120.266 12.2778 118.719 12.76 118.207 12.4861C117.953 12.3501 117.928 12.2792 118.075 12.1029C118.35 11.7719 117.994 11.4622 117.689 11.7671C117.49 11.966 117.494 12.0641 117.725 12.6884C117.981 13.378 117.98 13.3902 117.671 13.6346C117.498 13.7708 117.313 14.0308 117.258 14.2127C117.204 14.3945 117.102 14.5432 117.033 14.5432C116.787 14.5432 116.444 15.0092 116.444 15.3437C116.444 15.5299 116.344 15.7654 116.222 15.8668C116.054 16.0062 116.04 16.0998 116.165 16.2503C116.292 16.4041 116.268 16.4686 116.056 16.534C115.906 16.5804 115.571 16.7222 115.312 16.8487C114.859 17.0705 114.825 17.0647 114.382 16.6924C114.129 16.4798 113.769 16.2675 113.582 16.2205C112.905 16.0507 111.848 16.9055 111.457 17.9391C110.963 19.2465 110.493 19.6866 109.886 19.4102C109.462 19.2171 109.075 19.3421 109.128 19.6546C109.159 19.8313 109.007 19.8961 108.479 19.9328C107.743 19.984 107.486 19.8078 107.779 19.4544C108.043 19.1377 107.887 19.0732 107.317 19.2621C106.632 19.4895 106.448 19.7685 106.448 20.5821C106.448 20.9641 106.408 21.3811 106.359 21.5089C106.212 21.8926 106.007 21.7716 106.007 21.3006C106.007 20.8175 105.725 20.7119 105.419 21.0803C105.167 21.3839 104.978 21.3562 104.978 21.0152C104.978 20.8582 105.125 20.6268 105.305 20.5011L105.632 20.2723H105.191C104.695 20.2723 104.096 20.629 104.096 20.9237C104.096 21.2735 103.616 21.5461 102.934 21.5831C102.775 21.5919 102.788 21.6614 102.994 21.8882C103.242 22.1621 103.243 22.2003 103.017 22.4507C102.745 22.7505 102.696 23.0634 102.92 23.0634C103.001 23.0634 103.067 22.9973 103.067 22.9165C103.067 22.8357 103.133 22.7696 103.214 22.7696C103.295 22.7696 103.361 22.8982 103.361 23.0551C103.361 23.2168 103.553 23.4539 103.804 23.6018C104.339 23.918 104.304 24.1117 103.682 24.2729C103.167 24.4063 103.102 24.5501 103.433 24.8249C103.762 25.0974 103.565 25.2577 103.011 25.1679C102.321 25.0559 101.891 25.3213 101.891 25.8597C101.891 26.2496 101.841 26.297 101.414 26.3126C100.93 26.3302 100.865 26.322 100.361 26.1807C100.123 26.1138 100.097 26.1553 100.188 26.4557C100.246 26.6502 100.346 27.0077 100.409 27.2501C100.471 27.4925 100.567 27.8282 100.621 27.9961C100.712 28.2784 100.668 28.2984 100.039 28.2629C99.5938 28.2377 99.2468 28.1195 99.0353 27.9209C98.8574 27.754 98.5983 27.6174 98.4595 27.6174C98.3208 27.6174 98.1692 27.5187 98.1229 27.3979C98.0764 27.2772 97.9928 27.2066 97.9366 27.2413C97.8806 27.2758 97.7414 27.2464 97.6272 27.1759C97.4521 27.0678 97.4591 27.0042 97.671 26.77C98.0162 26.389 97.9946 26.0952 97.6284 26.191C97.4351 26.2415 97.3344 26.1954 97.3344 26.0566C97.3344 25.9404 97.2314 25.8058 97.1055 25.7576C96.9796 25.7093 96.9094 25.584 96.9497 25.4791C97.0313 25.2665 96.6988 24.9228 96.5527 25.0688C96.5015 25.1201 96.3525 25.0732 96.2216 24.9646C96.0183 24.796 95.9484 24.8113 95.7404 25.0692C95.3932 25.4999 95.0079 25.5953 94.6438 25.3404C94.4708 25.2192 94.2373 25.1201 94.1252 25.1201C93.9197 25.1201 93.9267 25.2902 94.1834 26.5506C94.262 26.9368 94.2288 27.0423 94.0067 27.1109C93.8562 27.1574 93.5237 27.2977 93.2677 27.4227C93.0118 27.5479 92.7278 27.604 92.6365 27.5477C92.5452 27.4913 92.3724 27.5267 92.2523 27.6263C91.9742 27.857 91.3075 27.5874 91.3075 27.2442C91.3075 27.0511 91.1896 27.0284 90.6093 27.1103C89.6768 27.2417 89.0258 27.6246 89.0407 28.0328C89.0472 28.2084 88.9778 28.3519 88.8864 28.3519C88.6068 28.3519 88.3678 28.019 88.3644 27.6247L88.3611 27.2501L88.1059 27.5814C87.8744 27.8819 87.807 27.8959 87.3763 27.7336C86.7695 27.5046 86.4812 27.7192 86.7715 28.1838C86.9448 28.461 86.9098 28.5402 86.4146 28.9935C86.1127 29.2699 85.6986 29.5378 85.4946 29.5891C85.2876 29.6409 85.0621 29.8429 84.9851 30.0454C84.8292 30.4552 84.5457 30.5339 84.5457 30.1676C84.5457 29.7818 85.1619 28.6566 85.4174 28.5755C85.6376 28.5057 86.3136 27.278 86.311 26.9531C86.3102 26.8705 86.5246 26.5424 86.7874 26.224C87.0502 25.9055 87.347 25.4112 87.4471 25.1255C87.6206 24.6299 87.6087 24.5889 87.1885 24.2387C86.6704 23.8068 86.6289 23.6468 87.0643 23.7605C87.4944 23.8729 87.3598 23.4896 86.886 23.2528C86.6902 23.155 86.4299 22.9518 86.3073 22.8015C85.9987 22.4231 85.5397 22.3317 84.8394 22.5093C84.3528 22.6329 84.2599 22.7109 84.3314 22.9361C84.3874 23.1122 84.3349 23.244 84.1864 23.301C83.8607 23.4258 83.4916 23.0803 83.5968 22.7489C83.6727 22.5099 83.5996 22.4758 83.0121 22.4758C82.274 22.4758 82.1911 22.3629 82.6347 21.9617C83.0131 21.6194 83.0044 21.5571 82.5493 21.3462C82.0654 21.1217 81.8992 21.195 81.5009 21.8077C81.0755 22.4622 80.9566 22.9685 81.1454 23.3211C81.3345 23.6743 81.107 23.9449 80.6209 23.9449C80.2156 23.9449 80.1981 24.0486 80.5399 24.4259C80.7883 24.7002 80.7839 24.7083 80.4133 24.6597C80.2024 24.6321 79.9378 24.6824 79.8255 24.7716C79.7132 24.8608 79.4395 24.9665 79.2171 25.0065C78.8884 25.0657 78.8128 25.0253 78.8128 24.7901C78.8128 24.5749 78.7471 24.5264 78.5556 24.6005C78.4142 24.6551 78.1165 24.7366 77.8941 24.7815C77.5147 24.858 77.3155 25.1201 77.6368 25.1201C77.9 25.1201 77.7915 25.4137 77.5266 25.4186C77.3852 25.4211 77.1409 25.5202 76.984 25.6389C76.827 25.7575 76.5151 25.8546 76.2909 25.8546C76.0474 25.8546 75.6808 26.0322 75.3809 26.2953C75.1047 26.5377 74.7645 26.736 74.625 26.736C74.4624 26.736 74.4011 26.8134 74.4542 26.9516C74.4998 27.0702 74.4738 27.2063 74.3964 27.2541C74.3191 27.3018 74.2559 27.5353 74.2559 27.7729C74.2559 28.0791 74.1842 28.205 74.0098 28.205C73.8052 28.205 73.8212 28.2662 74.1047 28.5677L74.4457 28.9305L74.0201 29.1134C73.786 29.2142 73.0322 29.3051 72.345 29.3158C70.5986 29.3427 70.0875 29.5628 70.5947 30.0696C70.7108 30.1856 70.7108 30.313 70.5947 30.53C70.3451 30.9958 70.4034 31.3907 70.7647 31.6832C71.1828 32.0216 71.5284 32.681 71.3982 32.8918C71.1297 33.3258 70.14 32.8131 70.14 32.2402C70.14 31.9924 70.0037 31.8146 69.689 31.652C69.0922 31.3435 68.5863 31.4161 68.6287 31.8041C68.6934 32.3965 68.5501 32.5077 68.1386 32.1842C67.9268 32.0178 67.6952 31.9176 67.6237 31.9617C67.3572 32.1264 67.5116 32.4937 68.0821 33.0527C68.6328 33.5923 68.8464 34.081 68.5314 34.081C68.4551 34.081 68.2956 33.9425 68.177 33.7731C68.0283 33.561 67.8704 33.4941 67.6688 33.558C67.4591 33.6246 67.2894 33.54 67.0678 33.2585C66.6825 32.7689 66.6784 32.3695 67.0531 31.8041C67.3659 31.3321 67.456 30.2616 67.1829 30.2616C67.0885 30.2616 67.0531 30.3928 67.0995 30.5702C67.2217 31.0371 66.9186 31.5506 66.4176 31.7252C65.7646 31.9526 65.4199 32.3056 65.569 32.5938C65.7723 32.9865 65.903 34.1946 65.7524 34.2876C65.5012 34.4427 65.0435 35.465 64.9447 36.0909C64.8602 36.627 64.8863 36.7176 65.149 36.8009C65.3147 36.8535 65.5414 36.8209 65.6526 36.7285C65.8107 36.5974 66.011 36.67 66.5643 37.0587C67.2218 37.5204 67.2759 37.6058 67.3053 38.2289C67.3262 38.6724 67.2636 38.9619 67.1216 39.0799C66.8157 39.3336 66.8543 39.5923 67.2368 39.8517C67.5046 40.0333 67.5323 40.1125 67.3822 40.2679C67.2302 40.4252 67.1414 40.4045 66.8901 40.1532C66.5714 39.8347 66.5259 39.4879 66.6951 38.6634C66.7751 38.2739 66.7281 38.1068 66.4573 37.8188C66.0954 37.4337 65.4637 37.344 65.1715 37.636C65.0745 37.733 64.9951 38.0914 64.9951 38.4327C64.9951 38.8603 64.8906 39.1821 64.6586 39.4683C64.4736 39.6967 64.2451 40.0618 64.1509 40.2796C64.028 40.5639 63.8014 40.7264 63.3482 40.8553C63.0008 40.9541 62.6069 41.1696 62.4727 41.3342C62.2395 41.6203 62.207 41.6229 61.7377 41.3923C61.4676 41.2596 61.1313 41.116 60.9903 41.0731C60.6503 40.9698 60.1113 40.0781 60.2843 39.9052C60.3635 39.826 60.5783 39.899 60.816 40.0857C61.0988 40.3081 61.2674 40.3556 61.3959 40.2491C61.4954 40.1665 61.6861 40.1407 61.8194 40.1918C62.0887 40.2952 63.5113 39.0767 63.7167 38.5668C63.7815 38.4056 63.9407 38.1566 64.0704 38.0134C64.2872 37.774 64.2845 37.7128 64.037 37.2535C63.7728 36.7634 63.7742 36.7323 64.1049 35.6011C64.2904 34.9671 64.5665 34.2422 64.7186 33.9902C65.0258 33.4814 65.078 32.9005 64.8381 32.6608C64.6773 32.5001 64.8093 32.1372 65.4438 30.9961C65.601 30.7133 65.7276 30.3497 65.7253 30.1881C65.7197 29.8125 65.2193 29.4528 64.5224 29.3233L63.9761 29.2218L63.5224 30.1203C63.2301 30.6988 62.9091 31.1063 62.6208 31.2645C61.6748 31.7839 61.4719 32.0115 61.5605 32.4539C61.6074 32.6884 61.5732 32.9139 61.482 32.9701C61.393 33.0251 61.3202 33.2106 61.3202 33.3825C61.3202 33.5542 61.1764 33.8479 61.0006 34.0349L60.6809 34.3748L60.9953 34.7093C61.1898 34.9161 61.2804 35.1566 61.2324 35.3394C61.1836 35.5258 61.2674 35.7366 61.4594 35.9102C61.7236 36.1491 61.7365 36.2159 61.557 36.4185C61.4435 36.5469 61.3262 36.784 61.2967 36.9456C61.2599 37.1455 61.1268 37.2394 60.8797 37.2394C60.5751 37.2394 60.5025 37.152 60.4284 36.6963C60.366 36.3132 60.0041 35.7401 59.1987 34.7497C57.8376 33.0756 57.818 33.0608 56.9103 33.0028C56.592 32.9823 56.5363 33.0482 56.4942 33.4934C56.4426 34.0375 55.983 34.6019 55.7226 34.4409C55.6373 34.3883 55.5312 34.4841 55.4868 34.6538C55.3832 35.05 55.2016 35.0462 54.986 34.6435C54.8469 34.3838 54.8595 34.2921 55.0542 34.1499C55.281 33.9842 55.387 33.6403 55.2115 33.6403C55.1663 33.6403 54.8343 33.7146 54.4734 33.8054C53.8489 33.9626 53.7994 33.9512 53.4454 33.5695C53.0759 33.171 52.6938 33.1262 52.0469 33.4056C51.909 33.4652 51.6721 33.3916 51.467 33.2256L51.1201 32.9449L51.5163 32.5779C51.7341 32.3762 51.9124 32.1691 51.9124 32.1177C51.9124 31.9091 51.037 32.0388 50.9096 32.2663C50.7838 32.4908 50.7494 32.4908 50.4286 32.2663C50.0278 31.9858 48.2481 31.9257 47.9895 32.1841C47.8744 32.2991 47.8021 32.2991 47.7309 32.1841C47.5731 31.9288 47.0852 31.9994 46.9238 32.3009C46.4453 33.1945 45.1506 32.4087 45.1506 31.2247C45.1506 30.7691 45.9263 30.4183 46.3493 30.6825C47.0762 31.1361 47.1384 30.0185 46.4371 29.1067L45.9596 28.4859L45.8438 29.043C45.7713 29.3915 45.5097 29.8224 45.1453 30.1936C44.8248 30.5198 44.5626 30.8639 44.5626 30.958C44.5626 31.326 44.2087 31.8765 43.9155 31.9646C43.7459 32.0156 43.4251 32.2276 43.2029 32.4356C42.8284 32.7859 42.7986 32.7923 42.7986 32.522C42.7986 32.3614 42.8709 32.1578 42.9593 32.0695C43.0754 31.9534 43.0739 31.8233 42.954 31.5994C42.7564 31.2304 42.8967 31.2599 41.2184 31.2339L39.8587 31.2128V31.6185C39.8587 31.8418 39.7925 32.0244 39.7117 32.0244C39.6308 32.0244 39.5647 32.1566 39.5647 32.3182C39.5647 32.7269 38.897 32.7185 38.6767 32.307C38.587 32.1394 38.3862 31.875 38.2305 31.7194C38.0352 31.5242 37.9477 31.2323 37.9477 30.7757C37.9477 30.0909 37.8187 29.9596 37.5104 30.3306C37.3897 30.4761 37.3636 30.7831 37.4304 31.2692C37.5194 31.9163 37.4944 32.0163 37.1907 32.229C36.8655 32.4566 36.831 32.446 36.3553 31.9706C35.9356 31.5512 35.8837 31.4287 36.0188 31.1765C36.1339 30.9614 36.1336 30.7492 36.0175 30.4163C35.8889 30.0476 35.9002 29.9039 36.0738 29.704C36.1935 29.5663 36.3328 29.2787 36.3835 29.0648C36.4384 28.8334 36.685 28.5525 36.9925 28.3713C37.5836 28.0227 37.9414 27.4054 37.6949 27.159C37.3662 26.8306 37.784 25.1201 38.1931 25.1201C38.4144 25.1201 38.4575 25.5765 38.2561 25.7885C38.0493 26.0062 39.5853 29.3825 40.0484 29.728C40.2773 29.8989 40.7564 30.0427 41.2255 30.0816C41.9501 30.1417 42.0611 30.1079 42.5509 29.6781C43.2464 29.068 43.4698 28.3174 43.1405 27.6983C42.986 27.4077 42.8968 26.8553 42.8871 26.1271C42.8755 25.2556 42.8113 24.9369 42.6005 24.704C42.4511 24.5391 42.3676 24.3413 42.4151 24.2645C42.4626 24.1878 42.4029 24.0434 42.2825 23.9435C42.1621 23.8436 42.0636 23.6812 42.0636 23.5824C42.0636 23.4836 41.9313 23.2831 41.7696 23.1369C41.5835 22.9685 41.4756 22.6844 41.4756 22.3624C41.4756 21.9263 41.5174 21.8649 41.7696 21.9308C41.9313 21.973 42.0636 21.9489 42.0636 21.8772C42.0636 21.8055 41.8816 21.7064 41.6594 21.6567C41.4371 21.6071 40.9747 21.4406 40.632 21.2867C39.8434 20.9325 39.5463 20.9353 38.8238 21.3036C38.3527 21.5438 38.2417 21.6796 38.2417 22.0162C38.2417 22.2449 38.1691 22.6402 38.0803 22.8947C37.936 23.3088 37.8578 23.3572 37.3356 23.3572C36.4913 23.3572 36.3105 23.5066 35.7473 24.67C35.4095 25.3677 35.1655 25.7034 35.0141 25.6786C34.6867 25.6247 33.8318 26.3031 33.8318 26.6167C33.8318 26.7631 33.7721 26.8829 33.6994 26.8829C33.6265 26.8829 33.4302 27.1142 33.2634 27.397C33.0774 27.712 32.8459 27.9112 32.666 27.9112C32.2736 27.9112 32.0678 28.3362 32.0678 29.1465C32.0678 30.163 31.8138 30.2428 28.8339 30.1627C26.5516 30.1013 26.4258 30.1119 26.7025 30.3433C26.9074 30.5146 26.9407 30.61 26.8127 30.6579C26.565 30.7508 26.5806 31.2264 26.8445 31.6289C27.0617 31.9604 27.0029 32.612 26.7557 32.612C26.6825 32.612 26.5525 32.4633 26.4667 32.2815C26.3808 32.0996 26.0768 31.8001 25.7911 31.6159C25.3092 31.3049 25.2585 31.2986 25.0896 31.5295C24.9857 31.6714 24.8083 31.7403 24.6764 31.6898C24.1821 31.5001 22.6601 32.4218 22.6601 32.9108C22.6601 32.989 22.4931 33.0527 22.2889 33.0527C22.0305 33.0527 21.8763 33.1619 21.781 33.4123C21.7058 33.6101 21.4758 33.8821 21.2702 34.0168C21.0644 34.1515 20.8961 34.3761 20.8961 34.5158C20.8961 34.6557 20.7638 34.8897 20.6021 35.0359C20.2452 35.3586 20.2287 35.6596 20.5489 36.0132C20.747 36.2319 20.7563 36.3192 20.6015 36.5056C20.4979 36.6303 20.4392 36.7473 20.4708 36.7655C20.5026 36.7837 20.6575 36.8698 20.8151 36.9569C20.9725 37.0439 21.1523 37.3052 21.2146 37.5377C21.3156 37.9153 21.2515 38.0329 20.6159 38.6354C20.0343 39.187 19.8734 39.4533 19.7361 40.0931C19.6384 40.5486 19.6221 40.9448 19.6972 41.0407C19.7738 41.1387 19.7448 41.3995 19.6257 41.6831C19.3817 42.2644 18.9857 42.3059 18.5133 41.7999L18.1767 41.4393L17.6805 42.0322C17.0824 42.7471 17.0073 43.1301 17.4746 43.081C17.6748 43.06 17.8618 43.1596 17.9575 43.3381C18.0433 43.4984 18.2081 43.6296 18.3237 43.6296C18.5916 43.6296 18.8381 44.0866 18.8381 44.5831C18.8381 44.8295 18.6678 45.1239 18.3651 45.4C17.899 45.8255 17.8956 45.8379 18.1376 46.2473C18.3826 46.6619 18.3533 47.1894 18.0648 47.5581C17.8684 47.8089 18.2997 48.6836 18.9305 49.3139C19.3247 49.7079 19.4094 49.8887 19.3359 50.1809C19.2703 50.4424 19.331 50.6442 19.5442 50.8725C19.9916 51.3519 20.6162 52.6765 20.5168 52.9353C20.4692 53.0594 20.2539 53.1814 20.0384 53.2063C19.8229 53.2312 19.6609 53.3275 19.6785 53.4205C19.696 53.5134 19.5434 53.6313 19.3394 53.6824C19.0682 53.7505 18.9907 53.8457 19.0511 54.0362C19.1074 54.2132 18.9942 54.3999 18.6981 54.6188C18.15 55.0237 18.041 55.0216 17.7085 54.5993C17.2838 54.0597 16.0452 53.9297 16.0452 54.4247C16.0452 54.5274 16.2436 54.6937 16.4862 54.794C16.7639 54.9089 16.9272 55.0831 16.9272 55.2643C16.9272 55.5134 16.8634 55.5372 16.4494 55.4416C16.1866 55.3809 15.8262 55.3261 15.6483 55.3197C15.4703 55.3133 15.2422 55.2256 15.1412 55.1246C14.8306 54.8142 14.7369 54.9177 14.8269 55.4717L14.913 56.0025L14.333 55.9046C13.8711 55.8266 13.6744 55.8683 13.3675 56.1097C13.0238 56.3798 12.958 56.3887 12.7601 56.1909C12.3648 55.7959 12.1405 55.9259 12.1149 56.5643C12.0986 56.9752 12.1598 57.1857 12.3127 57.2444C12.4345 57.2911 12.4977 57.4242 12.4533 57.5399C12.4088 57.6558 12.4711 57.9415 12.5918 58.1748C12.7273 58.4366 12.8116 59.0094 12.8122 59.6712C12.813 60.7118 12.8264 60.751 13.2601 60.9977C13.5542 61.165 13.83 61.5299 14.0672 62.0662C14.2896 62.5686 14.5545 62.9297 14.7587 63.0087C15.0603 63.1255 15.267 63.4428 15.723 64.4895C15.811 64.6915 15.9038 64.9888 15.9294 65.1501C15.9548 65.3114 16.1766 65.5428 16.4224 65.6643C17.438 66.1659 18.0103 66.935 17.6716 67.3428C17.5253 67.5189 17.5355 67.627 17.7229 67.8947C17.8512 68.0777 17.9562 68.3379 17.9562 68.4729C17.9562 68.6077 18.0471 68.753 18.1583 68.7958C18.2772 68.8413 18.403 69.2141 18.464 69.702C18.5718 70.5641 18.8158 70.8358 19.1981 70.5186C19.3482 70.3942 19.4886 70.3886 19.6953 70.4992C20.2123 70.7757 20.356 70.376 20.24 68.9844L20.137 67.7488L20.639 67.1843C21.2962 66.445 21.3749 66.1918 21.1647 65.4909C20.964 64.8215 21.1038 64.6426 21.8304 64.6386C22.0649 64.6374 22.4497 64.4685 22.7024 64.2561C23.0724 63.9449 23.2366 63.8965 23.6055 63.9889C24.2804 64.158 25.6776 64.1468 25.6481 63.9726C25.6341 63.8903 25.5765 63.6391 25.52 63.4145C25.4237 63.0312 25.4412 63.012 25.8027 63.1026C26.1867 63.199 26.188 63.1962 26.188 62.3093C26.188 61.5014 26.1455 61.3799 25.7266 60.9886C25.3094 60.5988 25.2798 60.5155 25.4187 60.1174C25.54 59.7699 25.5258 59.6306 25.3513 59.4562C25.0482 59.1532 25.3272 58.6464 25.8615 58.5294C26.5637 58.3759 26.629 58.3345 26.629 58.0419C26.629 57.8374 26.8877 57.6259 27.5292 57.3055C28.0244 57.0582 28.4913 56.894 28.5668 56.9407C28.6424 56.9874 28.6634 57.2112 28.6134 57.438C28.5423 57.7619 28.5948 57.9007 28.858 58.0849C29.1758 58.3073 29.203 58.3009 29.3824 57.9587C29.511 57.7136 29.7478 57.5662 30.1215 57.4988C30.424 57.4443 30.7375 57.3588 30.8184 57.3088C30.8992 57.2587 31.263 57.2079 31.6269 57.1956C31.9907 57.1834 32.5033 57.1262 32.7661 57.0688C33.2246 56.9685 33.2438 56.9826 33.2438 57.418C33.2438 57.843 33.2715 57.866 33.6817 57.7841C34.0522 57.71 34.1409 57.7526 34.258 58.0601C34.334 58.26 34.6254 58.5588 34.9056 58.7239C35.4144 59.0241 35.573 59.4524 35.6144 60.6388C35.6238 60.9078 35.6666 60.941 35.8298 60.8057C35.9899 60.673 36.1445 60.7341 36.5504 61.0902C36.9953 61.4808 37.1207 61.5233 37.4534 61.3969C37.9293 61.2161 38.3403 61.3338 38.541 61.7084C38.6524 61.9162 38.8504 61.9922 39.2811 61.9922C39.8327 61.9922 39.8859 62.031 40.1389 62.6165C40.5002 63.4528 40.9522 63.8594 41.2478 63.6141C41.4254 63.4669 41.5403 63.4907 41.8584 63.7408C42.3238 64.1065 42.8362 64.1371 43.1557 63.818C43.4832 63.4906 43.4526 63.3707 42.8558 62.6428C42.2465 61.8999 42.2791 61.5914 42.974 61.5247C43.3401 61.4895 43.4638 61.4056 43.4751 61.1842C43.4833 61.0226 43.4999 60.8079 43.5118 60.7068C43.5398 60.4709 44.4457 60.4652 44.6802 60.6995C44.81 60.8292 44.8999 60.8324 45.0206 60.7118C45.1413 60.5912 45.1219 60.4584 44.9471 60.2091C44.6371 59.7669 44.6384 59.0722 44.9493 58.9531C45.081 58.9024 45.3993 58.9743 45.6562 59.1126C45.9133 59.251 46.4834 59.3909 46.9232 59.4236C47.3629 59.4564 48.0429 59.5598 48.4342 59.6537C48.9958 59.7884 49.2205 59.7844 49.5 59.6347C49.7642 59.4935 49.9387 59.4858 50.1852 59.6045C50.3782 59.6974 51.036 59.7383 51.7654 59.7024C52.4526 59.6688 53.2464 59.6318 53.5294 59.6202C53.8123 59.6087 54.2092 59.6759 54.4114 59.7696C55.6898 60.3622 55.9697 60.8035 55.5106 61.5034C55.293 61.8354 55.2897 61.9046 55.4822 62.0969C55.6489 62.2637 55.7695 62.2776 55.9957 62.1566C56.3435 61.9706 56.6761 62.2531 56.5368 62.6161C56.4696 62.7907 56.5746 62.8332 57.0439 62.8209C57.8564 62.7996 58.0935 63.0578 57.6728 63.5054C57.2374 63.9684 57.2684 64.0904 57.7923 63.9754C58.0672 63.915 58.2333 63.9376 58.2333 64.0353C58.2333 64.1215 58.6049 64.0278 59.06 63.8265C59.5148 63.6256 59.9943 63.4588 60.1257 63.4561C60.2571 63.4531 60.5299 63.3594 60.7318 63.2477C60.9955 63.1019 61.152 63.089 61.2879 63.2016C61.4384 63.3265 61.4121 63.4274 61.1588 63.6968L60.8407 64.0353L61.2884 64.4119C61.8822 64.9113 62.4962 65.9794 62.4962 66.5129C62.4962 66.7487 62.593 67.1358 62.7115 67.3732C62.83 67.6104 63.0354 68.2321 63.1677 68.7545C63.3001 69.277 63.516 69.8257 63.6476 69.9738C63.8779 70.233 63.899 70.2289 64.2134 69.8636C64.6366 69.3719 64.751 69.3851 65.0054 69.9552C65.2663 70.5399 65.9951 70.7788 66.7222 70.5179C67.1374 70.3691 67.2767 70.3898 67.7879 70.677C68.1115 70.8585 68.376 71.094 68.376 71.2001C68.376 71.3062 68.6076 71.6492 68.8905 71.9621C69.1735 72.2751 69.405 72.6021 69.405 72.6886C69.405 72.9204 70.0096 73.3036 70.3752 73.3036C70.5494 73.3036 70.7743 73.2044 70.875 73.0832C71.1578 72.7427 71.3904 72.8194 71.6203 73.3293C71.9282 74.0122 72.2247 74.144 72.8117 73.8584C73.0805 73.7275 73.6146 73.5107 73.9987 73.3764C74.3828 73.2421 74.6969 73.0701 74.6969 72.994C74.6969 72.9178 74.8501 72.7973 75.0374 72.7262C75.2246 72.6551 75.6308 72.4254 75.9399 72.2158C76.249 72.0061 76.6249 71.8345 76.7754 71.8345C76.9258 71.8345 77.0489 71.7715 77.0489 71.6946C77.0489 71.6176 77.2804 71.4447 77.5635 71.3106C78.0446 71.0824 78.103 71.0827 78.4593 71.316C78.6711 71.4548 78.9813 71.5303 79.1574 71.4863C79.3632 71.4347 79.7002 71.5585 80.1192 71.8397C80.8852 72.354 81.4855 72.5376 82.8126 72.6635L83.7989 72.7571L84.3353 72.221C84.8353 71.7214 84.8573 71.6625 84.6596 71.3558C84.5429 71.1747 84.3719 70.8067 84.2798 70.5378C84.1228 70.0803 84.1495 69.9986 84.7011 69.2525C85.2666 68.4876 85.601 68.2888 85.7952 68.6027C85.8451 68.6835 86.0327 68.7496 86.2122 68.7496C86.3915 68.7496 86.6907 68.8564 86.8771 68.9869C87.1172 69.1549 87.3808 69.1977 87.7818 69.1336C88.5846 69.0052 89.0422 69.2307 89.3992 69.93C89.9402 70.9896 91.4331 71.2544 92.4326 70.4682C92.7521 70.217 93.024 70.149 93.6557 70.1624C95.0442 70.1916 96.04 70.3937 96.5709 70.7538C97.0044 71.0478 97.2614 71.0998 98.2737 71.0977C99.2808 71.0956 99.5571 71.0391 100.054 70.7334C100.377 70.5345 100.847 70.2743 101.098 70.1552C101.524 69.9533 101.9 69.5673 102.751 68.4577C102.94 68.2105 103.275 67.9155 103.493 67.8026C103.839 67.6241 103.953 67.6269 104.36 67.8237C104.792 68.0326 104.861 68.0295 105.234 67.7838C105.549 67.5766 105.876 67.5254 106.691 67.555C107.687 67.5912 107.758 67.5721 108.014 67.1991C108.164 66.9823 108.435 66.6564 108.616 66.475C109.009 66.0831 109.024 65.9193 108.711 65.4417C108.516 65.1431 108.502 64.9636 108.633 64.3818C109.091 62.3506 109.024 61.7655 108.313 61.5793C107.927 61.478 107.853 61.3939 107.893 61.1001C107.97 60.5429 108.272 60.17 109.271 59.4036C110.08 58.7827 110.317 58.6793 111.152 58.5825C111.678 58.5217 112.413 58.4316 112.787 58.3824C113.517 58.2865 114.325 58.5778 114.485 58.9947C114.531 59.1151 114.824 59.3436 115.136 59.5025C115.448 59.6615 115.8 59.9799 115.92 60.2101C116.039 60.4403 116.336 60.7112 116.579 60.8121C116.823 60.9131 117.257 61.2819 117.544 61.6317C118.164 62.3876 118.493 62.5203 119.046 62.2375C119.629 61.9395 120.578 61.8069 121.004 61.9644C121.203 62.038 121.545 62.047 121.763 61.9843C122.077 61.8945 122.24 61.9439 122.536 62.2181C122.743 62.4092 122.912 62.6947 122.912 62.8521C122.912 63.3077 123.646 63.4953 124.074 63.1492C124.261 62.9976 124.496 62.8736 124.596 62.8736C124.874 62.8736 125.281 62.3547 125.189 62.1163C125.114 61.9208 125.428 61.4125 126.245 60.4039L126.565 60.009L127.098 60.5224C127.51 60.9198 127.622 61.1356 127.594 61.4773C127.573 61.7201 127.628 62.084 127.715 62.286C128.132 63.25 128.498 64.6583 128.416 64.9846C128.366 65.182 128.402 65.4861 128.495 65.6605C128.726 66.0904 128.458 66.3992 127.854 66.3992C127.443 66.3992 127.356 66.48 127.052 67.144L126.71 67.8888L127.025 68.209C127.597 68.7912 128.498 70.1327 128.498 70.4034C128.498 70.5499 128.393 70.8298 128.265 71.0253C128.047 71.357 128.08 71.6877 128.33 71.6877C128.519 71.6877 128.792 70.7374 128.792 70.0801C128.792 69.5292 128.821 69.4721 129.017 69.6349C129.203 69.7888 129.276 69.7753 129.435 69.5577C129.618 69.3079 129.632 69.3105 129.71 69.6067C129.789 69.9074 129.818 69.9116 130.47 69.7155C131.209 69.4931 131.536 69.1714 132.046 68.162C132.354 67.5515 132.384 67.2649 132.44 64.4103C132.496 61.6033 132.473 61.2155 132.19 60.1853C131.969 59.38 131.879 58.6235 131.879 57.5777C131.879 56.3638 131.823 55.9955 131.565 55.4859C131.125 54.6195 130.463 53.6658 129.73 52.842C129.249 52.3014 129.065 51.9445 128.934 51.2996C128.75 50.3858 128.448 49.7994 128.162 49.7994C128.062 49.7994 127.898 49.6672 127.797 49.5056C127.676 49.3129 127.454 49.2118 127.151 49.2118C126.712 49.2118 126.701 49.198 126.931 48.9431C127.279 48.5599 127.242 48.5077 126.624 48.4983C126.32 48.4938 125.739 48.4487 125.332 48.3981C124.733 48.3238 124.526 48.3593 124.248 48.5837L123.906 48.861L124.22 49.4771L124.535 50.0932H124.164C123.896 50.0932 123.794 50.1715 123.794 50.3783C123.794 50.886 123.515 50.8533 123.291 50.3194C123.172 50.0334 122.969 49.7994 122.841 49.7994C122.65 49.7994 122.637 49.8552 122.771 50.1047C122.948 50.4361 122.867 50.8277 122.62 50.8277C122.535 50.8277 122.356 50.5964 122.221 50.3136C122.086 50.0308 121.909 49.7994 121.827 49.7994C121.745 49.7994 121.428 49.9725 121.123 50.1839C120.818 50.3954 120.467 50.5297 120.343 50.4824C120.017 50.3572 120.055 49.2363 120.429 47.9825C120.684 47.1279 120.721 46.738 120.639 45.7989C120.578 45.0965 120.605 44.3381 120.711 43.8319C120.859 43.1179 120.848 42.9453 120.629 42.5388C120.39 42.0961 120.39 42.0426 120.628 41.5841C120.808 41.2349 120.834 41.0537 120.719 40.9391C120.503 40.7231 120.519 40.193 120.758 39.6218C121.032 38.9655 122.394 37.5109 122.839 37.3994C123.059 37.344 123.206 37.2022 123.206 37.0439C123.206 36.899 123.404 36.6339 123.647 36.4546C123.889 36.2754 124.088 35.9987 124.088 35.8394C124.088 35.6571 124.187 35.55 124.356 35.55C124.564 35.55 124.613 35.4584 124.573 35.146C124.511 34.666 124.566 34.5836 125.361 33.965C126.093 33.3954 126.978 33.0006 127.096 33.1908C127.142 33.2653 127.112 33.3677 127.03 33.4185C126.798 33.5616 126.854 34.081 127.101 34.081C127.238 34.081 127.322 33.9428 127.322 33.7189C127.322 33.5066 127.444 33.2916 127.617 33.1989C127.836 33.0821 127.889 32.9488 127.823 32.6868C127.754 32.4119 127.852 32.2117 128.26 31.792C128.771 31.2665 128.864 30.7644 128.373 31.1846C127.869 31.6151 127.775 31.5977 127.401 31.0045C127.135 30.5846 127.028 30.2109 127.028 29.7095C127.028 29.3092 126.929 28.8637 126.799 28.6781C126.673 28.4983 126.609 28.2872 126.658 28.2088C126.706 28.1305 126.636 27.8991 126.502 27.6946C126.339 27.4461 126.292 27.1893 126.359 26.9193C126.414 26.6973 126.504 26.2541 126.559 25.9345C126.639 25.4767 126.738 25.3342 127.028 25.2636C127.322 25.1919 127.387 25.0952 127.353 24.7797C127.293 24.2235 127.509 24.2899 127.983 24.9732C128.377 25.5414 128.645 25.719 128.645 25.4127C128.645 25.3237 128.76 25.3361 128.932 25.4438C129.393 25.7313 129.441 25.4898 129.162 24.3043C128.967 23.4748 128.942 23.1481 129.066 23.0242C129.31 22.7807 129.27 22.6227 128.964 22.6227C128.551 22.6227 128.057 22.0031 128.057 21.4854C128.057 21.1625 128.174 20.9356 128.457 20.7132C128.881 20.3804 129.113 20.5464 128.782 20.9448C128.628 21.1301 128.692 21.2629 129.166 21.7479C129.478 22.0675 129.814 22.3289 129.912 22.3289C130.01 22.3289 130.234 22.5613 130.41 22.8454C130.669 23.2638 130.712 23.4943 130.638 24.0574C130.561 24.6431 130.617 24.8997 130.992 25.6842C131.237 26.1964 131.438 26.7774 131.438 26.9754C131.438 27.1734 131.569 27.5145 131.73 27.7334C132.108 28.2471 132.639 30.2988 132.429 30.4304C132.345 30.4828 132.316 30.6268 132.363 30.7502C132.41 30.8736 132.354 31.0535 132.238 31.1499C132.058 31.2989 132.092 31.3998 132.46 31.8193C132.699 32.0911 132.977 32.5954 133.079 32.94C133.21 33.384 133.566 33.8736 134.299 34.6182C135.233 35.5678 135.414 35.6859 136.169 35.8385C136.674 35.9409 137.215 36.1748 137.538 36.4313C137.831 36.6644 138.381 36.9704 138.76 37.1114C139.139 37.2523 139.607 37.4876 139.8 37.6341C139.992 37.7806 140.22 37.9004 140.306 37.9004C140.392 37.9004 140.717 38.0769 141.028 38.2924C141.53 38.6402 141.619 38.6596 141.814 38.4647C141.985 38.2934 142 38.1568 141.88 37.8429C141.796 37.6216 141.727 37.2325 141.727 36.9782C141.727 36.6073 141.565 36.3621 140.906 35.7395C140.11 34.9877 140.088 34.9446 140.184 34.3753C140.238 34.0519 140.385 33.7305 140.509 33.6612C140.687 33.5614 140.616 33.4765 140.169 33.257C139.63 32.9919 139.223 32.4705 139.017 31.7794C138.948 31.5468 139.046 31.3202 139.381 30.9391C139.907 30.3405 139.852 30.1147 139.18 30.1147C138.566 30.1147 137.706 29.523 137.461 28.9317C137.282 28.4992 137.293 28.445 137.609 28.2064C137.838 28.0344 137.919 27.865 137.855 27.6967C137.776 27.4928 137.648 27.4633 137.181 27.5422C136.45 27.6656 136.054 27.4567 135.781 26.8041C135.512 26.161 135.113 26.1202 135.113 26.736C135.113 27.1053 135.055 27.1767 134.754 27.1767C134.556 27.1767 134.352 27.1065 134.299 27.0207C134.245 26.9349 134.043 26.8044 133.849 26.7305C133.561 26.6212 133.496 26.4926 133.496 26.0357C133.496 25.5637 133.39 25.3716 132.825 24.8201C132.253 24.2619 132.166 24.1025 132.237 23.7404C132.283 23.5066 132.431 23.2349 132.566 23.1365C132.783 22.9775 132.789 22.8814 132.618 22.2718C132.512 21.8946 132.458 21.5539 132.497 21.5147C132.537 21.4754 132.757 21.5914 132.987 21.7722C133.374 22.0769 133.396 22.0797 133.276 21.8111C133.206 21.6516 133.121 21.1759 133.088 20.754C133.033 20.0462 133.07 19.9359 133.572 19.3231C134.019 18.7785 134.18 18.6749 134.468 18.7472C134.905 18.8568 134.928 18.584 134.525 18.0688C134.36 17.858 134.236 17.47 134.234 17.158C134.232 16.8191 134.144 16.5657 134 16.4851C133.868 16.4113 133.734 16.0774 133.69 15.7066C133.646 15.3495 133.519 14.7741 133.406 14.4279C133.294 14.0816 133.202 13.533 133.202 13.2086C133.202 12.6186 132.921 11.9016 132.503 11.4252C132.302 11.1956 132.313 11.1584 132.631 11.0264C133.119 10.8235 133.643 10.3476 133.638 10.1127C133.624 9.52373 132.945 9.32424 132.126 9.66843C131.621 9.881 131.337 9.88937 131.217 9.69546C131.072 9.46071 130.479 9.52535 130.098 9.81739C129.905 9.96517 129.631 10.1284 129.49 10.1799C129.349 10.2316 129.233 10.3821 129.233 10.5146C129.233 10.6737 129.154 10.7249 129 10.666C128.872 10.617 128.742 10.5769 128.711 10.5769C128.68 10.5769 128.696 10.4663 128.748 10.331C128.82 10.1447 128.783 10.108 128.597 10.1795C128.461 10.2314 128.351 10.2098 128.351 10.1316C128.351 10.0533 128.412 9.98926 128.487 9.98926C128.562 9.98926 128.858 9.76818 129.145 9.49803C129.624 9.04689 129.655 8.96713 129.527 8.5229C129.353 7.9159 128.975 7.48739 128.704 7.59096C128.577 7.63988 128.498 7.57509 128.498 7.42261C128.498 7.22532 128.41 7.19403 128.07 7.26881C127.72 7.34549 127.623 7.307 127.545 7.06006C127.492 6.89362 127.383 6.75744 127.302 6.75744C127.217 6.75744 127.198 6.61701 127.257 6.42692C127.391 5.9915 127.415 5.97167 127.643 6.11842C127.749 6.18703 128.082 6.24725 128.382 6.2524C128.984 6.26239 129.14 6.06877 128.995 5.49116C128.858 4.94513 129.29 4.52719 129.795 4.7189C130.143 4.85126 130.24 4.80204 130.787 4.21532C131.12 3.85762 131.486 3.53135 131.599 3.49022C131.761 3.43131 131.767 3.3752 131.627 3.22594C131.485 3.07625 131.501 2.99296 131.7 2.82946C131.933 2.63805 131.929 2.62732 131.644 2.68696C131.45 2.7278 131.272 2.64848 131.162 2.4722C130.914 2.07615 130.281 1.85742 130.017 2.07659C129.862 2.20484 129.765 2.20704 129.643 2.08452C129.52 1.96216 129.541 1.89502 129.723 1.82539C129.995 1.7208 130.06 1.32211 129.805 1.32211C129.715 1.32211 129.682 1.21869 129.73 1.0925C129.825 0.847324 129.453 0 129.252 0C129.186 0 129.007 0.137646 128.854 0.305995ZM117.73 3.39047C117.366 3.60245 117.391 4.47211 117.772 4.85302C118.114 5.19471 118.409 5.10334 118.28 4.69584C118.232 4.54511 118.295 4.2234 118.421 3.98101C118.546 3.73848 118.649 3.47083 118.649 3.38607C118.649 3.19054 118.069 3.19348 117.73 3.39047ZM61.4596 10.9349C61.5644 11.0612 61.8207 11.1645 62.029 11.1645C62.4954 11.1645 62.2955 10.9481 61.6987 10.8069C61.3205 10.7175 61.2918 10.7329 61.4596 10.9349ZM62.8315 11.3657C62.6085 11.6489 62.4397 11.7073 61.9261 11.6782C61.4257 11.65 61.3355 11.6792 61.4912 11.8188C61.6111 11.9263 61.9789 11.9714 62.4349 11.9344C63.1485 11.8766 63.1822 11.8546 63.1822 11.4458C63.1822 11.2103 63.1649 11.0176 63.1438 11.0176C63.1227 11.0176 62.9821 11.1742 62.8315 11.3657ZM67.3638 13.2033C67.1297 13.3833 67.0689 13.5074 67.1814 13.5767C67.4579 13.7476 67.9351 13.5161 67.9351 13.2112C67.9351 12.8597 67.813 12.8581 67.3638 13.2033ZM65.5831 13.2546C65.5831 13.3727 65.6989 13.5736 65.8404 13.7013C66.0535 13.8933 66.1417 13.9008 66.3548 13.7445C66.6532 13.5258 66.6957 13.222 66.4283 13.219C66.3274 13.218 66.0958 13.1772 65.9138 13.1285C65.6813 13.0662 65.5831 13.1037 65.5831 13.2546ZM64.2601 13.6039C64.2601 13.7244 64.4114 13.8087 64.6276 13.8087C65.1071 13.8087 65.1071 13.4479 64.6275 13.4203C64.4013 13.4072 64.2601 13.4777 64.2601 13.6039ZM77.3684 14.6908C77.1279 14.8912 77.0546 15.0644 77.1213 15.2743C77.1848 15.4745 77.1401 15.6021 76.9855 15.6614C76.6806 15.7783 76.6927 16.198 77.0121 16.5858L77.2693 16.8982L77.8879 16.5898C78.4403 16.3144 78.4978 16.2374 78.4243 15.8707C78.3761 15.6292 78.4137 15.4161 78.516 15.3529C78.637 15.2781 78.566 15.1161 78.2829 14.8208C77.805 14.3224 77.81 14.3231 77.3684 14.6908ZM102.949 15.2859C102.845 15.4519 102.648 15.5706 102.51 15.5496C102.183 15.4998 101.597 15.8248 101.597 16.0555C101.597 16.1544 101.73 16.3179 101.891 16.4188C102.053 16.5197 102.185 16.5422 102.185 16.4688C102.185 16.3953 102.51 16.2575 102.906 16.1625C103.608 15.9943 103.793 15.7879 103.8 15.1675C103.804 14.8681 103.154 14.9586 102.949 15.2859ZM100.054 16.3905C99.8119 16.5168 99.4594 16.5907 99.2708 16.5547C98.8244 16.4694 98.66 16.8655 99.0299 17.1357C99.2302 17.2822 99.2595 17.379 99.1397 17.4987C99.0197 17.6186 98.8552 17.6017 98.5221 17.4357C98.0976 17.224 98.0582 17.2277 97.9165 17.4921C97.8332 17.6476 97.6681 17.775 97.5498 17.775C97.2583 17.775 97.2684 17.8095 97.7832 18.5718C98.316 19.3608 98.4367 19.4475 99.0582 19.4891C99.5411 19.5212 99.8144 19.3404 99.5394 19.1706C99.3297 19.0412 99.5029 18.8033 99.8066 18.8033C99.9442 18.8033 100.141 18.6686 100.244 18.5041C100.346 18.3396 100.594 18.1429 100.793 18.0671C101.367 17.8491 101.217 17.6281 100.495 17.6281C100.042 17.6281 99.8334 17.5664 99.8334 17.4323C99.8334 17.1477 100.002 17.0235 100.187 17.1717C100.276 17.2425 100.563 17.3464 100.826 17.4025C101.209 17.4844 101.303 17.4579 101.303 17.2679C101.303 17.1378 101.204 16.9932 101.083 16.9468C100.962 16.9002 100.862 16.704 100.862 16.5106C100.862 16.1014 100.665 16.0721 100.054 16.3905ZM78.1219 16.8204C77.7118 17.1075 77.2689 17.9707 77.4932 18.0455C77.5827 18.0753 77.7161 18.258 77.7897 18.4515C77.8797 18.6879 78.0395 18.8033 78.2767 18.8033C78.4709 18.8033 78.7121 18.9025 78.8128 19.0237C79.0238 19.2777 79.6316 19.3182 79.774 19.0879C79.8271 19.0019 79.754 18.803 79.6116 18.6457C79.3913 18.4024 79.3805 18.3078 79.5391 18.0114C79.8197 17.4875 79.4789 16.7047 79.1803 17.1874C79.0273 17.4349 78.8357 17.3512 78.7864 17.0152C78.7256 16.6036 78.5185 16.5428 78.1219 16.8204ZM76.4609 17.1041C76.4609 17.3331 77.0098 17.5693 77.17 17.4092C77.2708 17.3085 76.796 16.8936 76.5798 16.8936C76.5144 16.8936 76.4609 16.9884 76.4609 17.1041ZM80.6266 18.0809C80.5328 18.1954 80.4116 18.5536 80.357 18.8768C80.3026 19.2 80.1903 19.6853 80.1076 19.9553C80.0239 20.2284 80.013 20.5019 80.0832 20.5717C80.2453 20.7329 82.0385 19.877 82.1507 19.585C82.2005 19.4551 82.0754 19.216 81.8471 19.0044C81.6335 18.8064 81.4567 18.5646 81.4541 18.4669C81.4514 18.3654 81.3657 18.3995 81.2541 18.5462C80.9776 18.9103 80.8959 18.8688 80.8433 18.3379C80.8059 17.9603 80.7652 17.9118 80.6266 18.0809ZM101.77 19.7178C101.531 19.9562 101.554 20.3472 101.819 20.567C102.105 20.8045 103.361 20.4862 103.361 20.1761C103.361 19.8269 102.041 19.4466 101.77 19.7178ZM100.862 19.823C100.862 19.8991 100.928 20.002 101.009 20.052C101.09 20.1019 101.156 20.0396 101.156 19.9137C101.156 19.7878 101.09 19.6847 101.009 19.6847C100.928 19.6847 100.862 19.7469 100.862 19.823ZM64.6623 21.7077C63.5834 22.072 63.5035 22.0794 63.0354 21.8562C62.7212 21.7064 62.4681 21.6689 62.3359 21.7526C62.2219 21.8248 61.8234 21.8847 61.4503 21.886C60.9971 21.8875 60.6478 21.9858 60.3981 22.182C60.1926 22.3436 59.8798 22.4758 59.7031 22.4758C59.5054 22.4758 59.3522 22.589 59.3049 22.7698C59.2549 22.9608 58.836 23.2471 58.108 23.5877C57.4921 23.876 56.959 24.141 56.9232 24.1768C56.8875 24.2125 56.9857 24.3381 57.1415 24.4559C57.4164 24.6636 57.4148 24.6701 57.0895 24.6747C56.905 24.6773 56.7161 24.7781 56.6698 24.8987C56.6147 25.0425 56.4714 25.0894 56.2535 25.0347C56.0016 24.9714 55.902 25.025 55.8415 25.2567C55.788 25.461 55.6848 25.5326 55.5294 25.4729C55.3718 25.4125 55.2532 25.5001 55.1597 25.7461C54.9993 26.1676 54.6615 26.3543 54.0439 26.3627C53.4375 26.3709 53.3447 26.9403 53.8778 27.3812C54.3537 27.7749 54.5401 28.4587 54.2064 28.5866C53.7408 28.7651 53.9611 29.2114 54.785 29.7579C55.6267 30.3164 55.8684 30.3456 55.6069 29.8575C55.3545 29.3861 55.6705 27.6622 56.1037 27.1476C56.3048 26.9089 56.4693 26.6193 56.4693 26.5043C56.4693 26.3893 56.6054 26.2953 56.7718 26.2953C56.9382 26.2953 57.3729 25.9925 57.7379 25.6226C58.133 25.222 58.4864 24.9824 58.6113 25.0303C58.7385 25.0791 58.8213 25.0196 58.8213 24.8794C58.8213 24.7318 58.9028 24.6792 59.0465 24.7343C59.1961 24.7917 59.3181 24.6985 59.4103 24.4562C59.5183 24.1724 59.6537 24.0918 60.0224 24.0918C60.3181 24.0918 60.6365 23.9604 60.8711 23.7415C61.1489 23.4824 61.6011 23.3274 62.608 23.1463C63.3568 23.0114 64.0361 22.9424 64.1177 22.9928C64.3354 23.1273 65.3115 22.7801 65.6934 22.4322C66.0144 22.1396 66.1407 21.5368 65.9105 21.3946C65.848 21.3562 65.2863 21.4969 64.6623 21.7077ZM134.035 24.0428C133.86 24.2169 133.931 24.9091 134.152 25.2022C134.351 25.4647 134.369 25.4262 134.373 24.7161C134.377 24.001 134.277 23.8009 134.035 24.0428ZM87.511 26.4849C87.3945 26.6254 87.4239 26.7185 87.6242 26.8435C87.9344 27.0371 88.0736 26.9506 88.0736 26.5645C88.0736 26.2537 87.7421 26.2068 87.511 26.4849ZM64.7992 28.4499C64.5968 28.652 64.7119 28.9395 64.9951 28.9395C65.1568 28.9395 65.2891 28.8734 65.2891 28.7926C65.2891 28.7118 65.219 28.6457 65.1334 28.6457C65.0479 28.6457 65.0186 28.5796 65.0686 28.4988C65.1696 28.3354 64.9531 28.2961 64.7992 28.4499ZM49.1262 29.5925C48.6411 30.1765 49.3038 30.8092 49.925 30.3553C50.1853 30.1651 50.1937 30.1065 50.0094 29.7623C49.7832 29.3398 49.3976 29.2657 49.1262 29.5925ZM12.9905 30.121L12.6552 30.2554L12.9693 30.8828C13.4403 31.8236 14.2645 32.6312 14.5808 32.4622C14.9589 32.2599 15.05 31.8774 14.8079 31.5082C14.6897 31.3279 14.6279 31.0472 14.6703 30.8844C14.713 30.7217 14.6759 30.5441 14.588 30.4899C14.4979 30.4342 14.4282 30.4958 14.4282 30.6309C14.4282 31.0064 13.942 30.8264 13.7231 30.37C13.513 29.9319 13.4851 29.9224 12.9905 30.121ZM69.405 30.3998C69.405 30.4759 69.4712 30.5789 69.552 30.6288C69.6329 30.6788 69.699 30.6165 69.699 30.4906C69.699 30.3647 69.6329 30.2616 69.552 30.2616C69.4712 30.2616 69.405 30.3237 69.405 30.3998ZM68.229 31.143C68.229 31.2238 68.2912 31.2899 68.3674 31.2899C68.4435 31.2899 68.5466 31.2238 68.5965 31.143C68.6465 31.0622 68.5842 30.9961 68.4582 30.9961C68.3322 30.9961 68.229 31.0622 68.229 31.143ZM56.0283 31.4876C56.0283 31.842 56.499 32.6411 56.6304 32.5098C56.8202 32.3201 56.4922 31.2899 56.2419 31.2899C56.1245 31.2899 56.0283 31.3789 56.0283 31.4876ZM142.097 39.9801C142.15 40.1947 142.126 40.4957 142.044 40.6491C141.955 40.8152 141.947 41.0125 142.025 41.1378C142.124 41.2975 142.21 41.2158 142.385 40.7966C142.604 40.2722 142.601 40.2293 142.308 39.9175L142 39.5898L142.097 39.9801ZM127.028 46.0593C127.028 46.1125 127.226 46.3412 127.469 46.5676C127.943 47.0101 128.106 47.8086 127.689 47.6491C127.536 47.5903 127.469 47.6592 127.469 47.874C127.469 48.0629 127.563 48.1835 127.71 48.1835C127.991 48.1835 128.272 48.5079 128.564 49.171C128.692 49.4602 129.08 49.8401 129.56 50.1473C130.468 50.7278 132.516 52.7057 133.055 53.522C133.257 53.8285 133.598 54.2565 133.813 54.4734C134.812 55.4823 135.701 56.6313 135.701 56.9153C135.701 57.107 135.871 57.3288 136.142 57.4885C136.763 57.8555 136.964 57.6577 136.513 57.1221C136.309 56.8796 136.143 56.6368 136.144 56.5823C136.151 56.2708 136.472 56.0775 137.007 56.0636C137.339 56.0547 137.612 56.0014 137.612 55.9449C137.612 55.7915 137.049 55.6424 136.875 55.7498C136.792 55.8011 136.503 55.7062 136.232 55.5388C135.961 55.3717 135.589 55.2347 135.406 55.2347C134.886 55.2347 133.826 53.9715 133.989 53.5466C134.036 53.4246 134.013 53.325 133.937 53.325C133.678 53.325 133.46 52.7365 133.64 52.5208C133.747 52.391 133.753 52.2914 133.656 52.2317C133.407 52.0776 133.652 51.6924 133.942 51.7842C134.529 51.9705 134.329 51.5618 133.607 51.0998C133.184 50.8289 132.446 50.2934 131.967 49.9096C131.487 49.5257 130.964 49.2118 130.803 49.2118C130.433 49.2118 129.38 48.1199 129.38 47.7366C129.38 47.5464 129.28 47.449 129.084 47.449C128.922 47.449 128.676 47.3168 128.537 47.1552C128.399 46.9936 128.206 46.8614 128.108 46.8614C128.011 46.8614 127.811 46.7095 127.663 46.524C127.371 46.1566 127.028 45.9052 127.028 46.0593ZM121.984 48.2784C121.767 48.4949 121.891 48.855 122.183 48.855C122.397 48.855 122.471 48.773 122.44 48.5675C122.395 48.2628 122.153 48.1096 121.984 48.2784ZM8.10738 51.5549C8.10738 51.6317 8.20483 51.7491 8.32405 51.8156C8.6179 51.98 8.46443 53.0462 8.16353 52.9308C8.04667 52.8859 7.96038 52.9459 7.96038 53.0718C7.96038 53.1922 7.83102 53.3246 7.67285 53.3659C7.41899 53.4323 7.40605 53.4863 7.56261 53.8299C7.72901 54.1948 7.78354 54.2131 8.44958 54.1239C9.05448 54.0428 9.20191 54.0745 9.44755 54.3379C9.61409 54.5167 9.91794 54.6471 10.1672 54.6471C10.494 54.6471 10.6519 54.7498 10.8176 55.0701C11.0827 55.5825 11.4696 55.7571 11.7403 55.4865C12.0201 55.2068 11.837 54.8421 11.3686 54.7462C10.7886 54.6273 10.5361 54.143 10.7655 53.5893C10.9122 53.2354 10.9103 53.1282 10.7554 53.0326C10.6498 52.9673 10.5988 52.8219 10.642 52.7094C10.7457 52.4395 10.3774 51.9453 10.1687 52.0743C10.0789 52.1297 9.92514 52.1086 9.82694 52.0272C9.65261 51.8825 8.43621 51.4216 8.21762 51.4175C8.15691 51.4164 8.10738 51.4782 8.10738 51.5549Z" fill="#DADADA" stroke="#2D346A" stroke-width="1.5" mask="url(#path-1-inside-1_1722_1330)"/>
<path d="M40.8152 15.3152C40.8152 14.9348 40.663 13.1848 38.6848 13.1848C38.3043 13.1848 38 12.8804 38 12.5C38 12.1196 38.3043 11.8152 38.6848 11.8152C39.0652 11.8152 40.8152 11.663 40.8152 9.68478C40.8152 9.30435 41.1196 9 41.5 9C41.8804 9 42.1848 9.30435 42.1848 9.68478C42.1848 11.663 43.9348 11.8152 44.3152 11.8152C44.6957 11.8152 45 12.1196 45 12.5C45 12.8804 44.6957 13.1848 44.3152 13.1848C42.337 13.1848 42.1848 14.9348 42.1848 15.3152C42.1848 15.6957 41.8804 16 41.5 16C41.1196 16 40.8152 15.6957 40.8152 15.3152Z" fill="#A92023"/>
<path d="M95.0042 8.73924C95.0042 8.33326 94.8418 6.46576 92.7308 6.46576C92.3248 6.46576 92 6.14098 92 5.735C92 5.32902 92.3248 5.00424 92.7308 5.00424C93.1367 5.00424 95.0042 4.84185 95.0042 2.73076C95.0042 2.32478 95.329 2 95.735 2C96.141 2 96.4658 2.32478 96.4658 2.73076C96.4658 4.84185 98.3333 5.00424 98.7392 5.00424C99.1452 5.00424 99.47 5.32902 99.47 5.735C99.47 6.14098 99.1452 6.46576 98.7392 6.46576C96.6282 6.46576 96.4658 8.33326 96.4658 8.73924C96.4658 9.14522 96.141 9.47 95.735 9.47C95.329 9.47 95.0042 9.14522 95.0042 8.73924Z" fill="#A92023"/>
<path d="M144.808 71.8665C144.808 71.3519 144.602 68.9849 141.926 68.9849C141.412 68.9849 141 68.5732 141 68.0587C141 67.5441 141.412 67.1325 141.926 67.1325C142.441 67.1325 144.808 66.9266 144.808 64.2509C144.808 63.7364 145.219 63.3247 145.734 63.3247C146.249 63.3247 146.66 63.7364 146.66 64.2509C146.66 66.9266 149.027 67.1325 149.542 67.1325C150.056 67.1325 150.468 67.5441 150.468 68.0587C150.468 68.5732 150.056 68.9849 149.542 68.9849C146.866 68.9849 146.66 71.3519 146.66 71.8665C146.66 72.381 146.249 72.7927 145.734 72.7927C145.219 72.7927 144.808 72.381 144.808 71.8665Z" fill="#A92023"/>
<path d="M116.955 62.4252C116.955 62.2194 116.852 60.9845 115.515 60.9845C115.309 60.9845 115 60.7786 115 60.4699C115 60.1612 115.206 59.9553 115.515 59.9553C115.72 59.9553 116.955 59.8524 116.955 58.5146C116.955 58.2058 117.161 58 117.47 58C117.779 58 117.984 58.2058 117.984 58.5146C117.984 59.8524 119.219 59.9553 119.425 59.9553C119.734 59.9553 119.94 60.1612 119.94 60.4699C119.94 60.7786 119.734 60.9845 119.425 60.9845C118.087 60.9845 117.984 62.2194 117.984 62.4252C117.984 62.6311 117.779 62.8369 117.47 62.8369C117.161 62.8369 116.955 62.6311 116.955 62.4252Z" fill="#A92023"/>
<path d="M12.3358 4.42524C12.3358 4.21942 12.2329 2.98447 10.8951 2.98447C10.6892 2.98447 10.3805 2.77864 10.3805 2.4699C10.3805 2.16117 10.5863 1.95534 10.8951 1.95534C11.1009 1.95534 12.3358 1.85243 12.3358 0.514563C12.3358 0.205825 12.5417 0 12.8504 0C13.1591 0 13.365 0.205825 13.365 0.514563C13.365 1.85243 14.5999 1.95534 14.8057 1.95534C15.1145 1.95534 15.3203 2.16117 15.3203 2.4699C15.3203 2.77864 15.1145 2.98447 14.8057 2.98447C13.4679 2.98447 13.365 4.21942 13.365 4.42524C13.365 4.63107 13.1591 4.83689 12.8504 4.83689C12.5417 4.93981 12.3358 4.73398 12.3358 4.42524Z" fill="#A92023"/>
<path d="M7.80777 111.266C7.80777 110.751 7.60194 108.384 4.92621 108.384C4.41165 108.384 4 107.972 4 107.458C4 106.943 4.41165 106.532 4.92621 106.532C5.44078 106.532 7.80777 106.326 7.80777 103.65C7.80777 103.136 8.21942 102.724 8.73398 102.724C9.24854 102.724 9.66019 103.136 9.66019 103.65C9.66019 106.326 12.0272 106.532 12.5417 106.532C13.0563 106.532 13.468 106.943 13.468 107.458C13.468 107.972 13.0563 108.384 12.5417 108.384C9.86602 108.384 9.66019 110.751 9.66019 111.266C9.66019 111.78 9.24854 112.192 8.73398 112.192C8.21942 112.192 7.80777 111.78 7.80777 111.266Z" fill="#A92023"/>
<path d="M138.404 110.425C138.404 110.219 138.301 108.984 136.963 108.984C136.757 108.984 136.448 108.779 136.448 108.47C136.448 108.161 136.654 107.955 136.963 107.955C137.169 107.955 138.404 107.852 138.404 106.515C138.404 106.206 138.61 106 138.918 106C139.227 106 139.433 106.206 139.433 106.515C139.433 107.852 140.668 107.955 140.874 107.955C141.182 107.955 141.388 108.161 141.388 108.47C141.388 108.779 141.182 108.984 140.874 108.984C139.536 108.984 139.433 110.219 139.433 110.425C139.433 110.631 139.227 110.837 138.918 110.837C138.61 110.837 138.404 110.631 138.404 110.425Z" fill="#A92023"/>
<path d="M33 127H117" stroke="#2D346A" stroke-width="2" stroke-miterlimit="10" stroke-linecap="round"/>
<path d="M29 39L30.5716 43.8369H35.6574L31.5429 46.8262L33.1145 51.6631L29 48.6738L24.8855 51.6631L26.4571 46.8262L22.3426 43.8369H27.4284L29 39Z" fill="#A92023"/>
<path fill-rule="evenodd" clip-rule="evenodd" d="M100.802 56.0319C101.517 56.1781 101.901 56.4957 102.136 57.1339C102.265 57.4852 102.274 58.8965 102.253 74.7869L102.23 92.058L91.9871 92.0796L81.7438 92.0382L81.6186 92.0304H81.4064L81.3947 92.0382H80.7201H80.3744H80.0368H79.8788H79.5817H78.9764H78.3554C78.3554 92.0382 78.3767 92.1633 78.2201 91.7034C78.0634 91.2435 78.0116 90.9696 78.0116 90.9696L77.9605 90.7699L77.7687 89.7241L77.5873 89.3146L77.2183 88.8101C77.2183 88.8101 74.304 85.0546 72.2177 84.3251C68.7969 83.1289 65.3492 83.7297 62.6808 85.9871C61.1476 87.2841 60.1644 88.9479 59.6589 91.101C59.5332 91.6361 59.4328 91.882 59.3025 91.9733C59.1466 92.0825 58.4641 92.1005 54.4705 92.1005H49.8202L49.8427 75.0203C49.8648 58.4182 49.87 57.9283 50.0281 57.5188C50.2522 56.9383 50.8567 56.352 51.4404 56.1489C51.8824 55.995 52.2208 55.9893 59.3235 56.0154C65.2982 56.0373 66.7622 56.0642 66.8345 56.1534C66.8839 56.2142 67.0007 56.3059 67.0941 56.3569C67.2181 56.4247 65.2701 56.4504 59.8686 56.4524C51.5783 56.4552 51.8807 56.434 51.2588 57.056C50.6432 57.6715 50.6064 62.2049 50.6064 62.2049L50.5108 66.2238V66.9028L50.6252 78.1393C50.6252 78.1393 50.7192 89.3259 50.7683 89.5525C50.8614 89.981 51.2071 90.4879 51.4065 90.4879C51.4995 90.4879 51.52 90.444 51.4759 90.3394C51.1708 89.6157 51.1665 89.4244 51.2599 80.763C51.3098 76.1343 51.3506 70.8337 51.3506 68.9841C51.3506 66.7986 51.4019 65.6722 51.4019 65.6297C51.4019 65.5873 51.4019 65.46 51.4019 65.3751V65.2478L51.4032 65.0716L51.4237 61.8029C51.435 60.0051 51.4838 58.2992 51.532 58.0119C51.6247 57.4606 51.802 57.1931 52.1863 57.0248C52.3502 56.953 54.4832 56.9182 60.0288 56.897C67.6152 56.8681 67.8693 56.9334 67.8693 56.9334H68.8852H69.7675H69.9202H70.0899H70.387L81.7766 56.7991C88.0316 56.7498 94.8106 56.7022 96.8411 56.6932L100.533 56.6769L97.6474 56.6204C96.0603 56.5893 89.3631 56.5584 82.7648 56.5518C72.6106 56.5416 70.7747 56.5218 70.8127 56.4228C70.8374 56.3585 70.8153 56.2636 70.7638 56.2121C70.7122 56.1605 70.6865 56.1035 70.7068 56.0856C70.7848 56.0164 100.468 55.9634 100.802 56.0319ZM70.5313 56.0993C70.5313 56.2882 70.2 56.4549 69.8244 56.4549C69.3929 56.4549 69.3599 56.426 69.5618 56.2241C69.7049 56.081 70.5313 55.9745 70.5313 56.0993ZM69.1734 56.1023C69.1734 56.1417 69.1036 56.2372 69.0182 56.3144C68.8971 56.4241 68.6968 56.4537 68.1058 56.4496C67.5519 56.4456 67.4014 56.423 67.5449 56.3654C67.6529 56.3222 67.7988 56.2291 67.8693 56.1586C68.0084 56.0194 69.1734 55.9691 69.1734 56.1023ZM120.709 58.8781C121.418 59.0505 122.018 59.3838 122.509 59.8795C122.766 60.1392 123.559 61.2808 124.462 62.6929C126.505 65.8874 129.442 70.4148 131.323 73.271C131.866 74.0944 132.445 75.0135 132.61 75.3135C133.323 76.6107 133.759 78.4792 133.759 80.2398L133.76 81.1522H132.322C131.532 81.1522 130.786 81.1898 130.665 81.2358C130.376 81.3458 130.309 81.5439 130.493 81.7475C130.629 81.8973 130.783 81.9144 132.18 81.9354L133.717 81.9584L133.743 82.4464L133.768 82.9345H132.191C131.003 82.9345 130.606 82.9607 130.582 83.0405C130.564 83.0989 130.528 83.2699 130.502 83.4207L130.455 83.6946L132.086 83.7177L133.717 83.7407V84.2924V84.844L132.177 84.8671C131.065 84.8838 130.612 84.92 130.548 84.9973C130.49 85.0682 130.486 85.2184 130.537 85.441C130.58 85.6261 130.616 86.0545 130.618 86.3929L130.62 87.0082H131.596H132.572V86.503C132.572 86.2251 132.617 85.8988 132.672 85.7779C132.764 85.5743 132.807 85.5597 133.245 85.5828L133.717 85.6079L133.742 86.3423L133.766 87.0768L134.32 87.1732C136.028 87.4706 136.919 88.4578 137.123 90.2757L137.18 90.785L136.912 90.4999C136.69 90.2628 136.596 90.2205 136.357 90.2483C136.072 90.2817 136.07 90.2796 135.966 89.812C135.795 89.0407 135.561 88.7156 134.958 88.4104C134.709 88.2848 134.283 88.2588 131.817 88.2194C128.562 88.1674 127.966 88.22 127.486 88.6016C126.949 89.0297 126.85 89.3464 126.801 90.785L126.758 92.058L125.704 92.082C124.954 92.099 124.631 92.0765 124.587 92.0043C124.552 91.9484 124.5 91.7275 124.47 91.5136C124.375 90.8386 123.917 89.4746 123.54 88.7486C121.359 84.5438 116.26 82.6279 111.768 84.3251C110.098 84.9558 108.409 86.2697 107.454 87.6801C106.695 88.8 106.019 90.4555 105.864 91.5691C105.837 91.767 105.766 91.9689 105.707 92.0179C105.644 92.0706 105.26 92.0969 104.764 92.0824L103.928 92.058V75.4234V58.7888L112.075 58.7745C118.781 58.7626 120.309 58.781 120.709 58.8781ZM120.398 59.505C120.839 59.6104 121.543 60.0402 121.836 60.3823C121.989 60.5614 123.062 62.1859 124.221 63.992C125.379 65.7981 126.674 67.8106 127.099 68.4641C127.524 69.1176 128.435 70.5307 129.124 71.6043C129.814 72.6779 130.643 73.9573 130.968 74.4474C132.155 76.2372 132.461 77.1188 132.548 78.9961C132.594 80.0041 132.591 80.0253 132.395 80.1631C132.243 80.2692 132.002 80.3035 131.407 80.3035H130.62L130.606 79.5184C130.598 79.0867 130.589 78.1605 130.585 77.4603C130.578 76.2748 130.562 76.1552 130.357 75.7205C130.17 75.324 129.26 73.8384 128.2 72.1984C128.049 71.965 127.381 70.9147 126.716 69.8644C126.051 68.8141 125.337 67.6875 125.13 67.3607C124.922 67.034 124.463 66.3084 124.11 65.7482C123.757 65.1881 123.309 64.4815 123.114 64.1781C122.919 63.8747 122.342 62.9617 121.831 62.1494C120.974 60.7869 120.157 59.7739 119.903 59.7586C119.846 59.7551 119.646 59.6815 119.459 59.5951L119.12 59.4379L119.629 59.4404C119.909 59.4417 120.255 59.4708 120.398 59.505ZM118.095 62.3523C118.614 62.5371 118.907 62.903 120.037 64.7722C120.615 65.7291 121.409 67.0361 121.801 67.6765C123.009 69.6489 124.58 72.2195 125.42 73.5987L126.222 74.9142L124.754 74.9375C123.007 74.9652 123.141 75.0401 122.512 73.6836C122.027 72.6366 121.99 72.2718 122.297 71.5416C122.41 71.2739 122.485 71.0372 122.464 71.0159C122.428 70.9803 121.867 71.0826 121.517 71.1888C121.39 71.2273 121.369 71.1747 121.368 70.8249C121.367 70.2578 121.064 69.0473 120.817 68.6259C120.586 68.2313 120.262 68.0598 119.763 68.0667C118.855 68.0793 118.221 68.9397 118.482 69.8082C118.594 70.1838 119.209 71.4406 119.915 72.7391C120.153 73.1765 120.326 73.569 120.3 73.6113C120.237 73.7135 118.633 74.8978 118.633 74.8978L118.424 74.9779H118.042H117.718C117.719 74.9661 115.508 74.9566 112.806 74.9566H107.894L107.44 74.7195C107.109 74.5469 106.916 74.3698 106.73 74.0685L106.474 73.6546L106.45 68.1313C106.436 65.0935 106.447 62.5221 106.472 62.417L106.52 62.2261L112.141 62.2298C116.734 62.2329 117.823 62.2553 118.095 62.3523ZM109.996 76.3747C110.443 76.5391 110.572 77.1005 110.235 77.4146C110.065 77.5726 109.94 77.5876 108.788 77.5876C107.562 77.5876 107.521 77.5818 107.319 77.3793C106.991 77.0516 107.07 76.6463 107.508 76.4133C107.696 76.3133 109.743 76.2816 109.996 76.3747ZM116.276 85.4463C117.524 85.6771 118.775 86.1666 119.644 86.7638C120.254 87.1828 121.194 88.1591 121.647 88.8437C122.592 90.2727 122.932 91.4139 122.932 93.1613C122.932 94.1282 122.896 94.4828 122.74 95.0652C122.394 96.3535 121.782 97.4901 120.938 98.4145C120.491 98.9036 119.624 99.6258 119.236 99.8323C119.114 99.8976 118.891 100.021 118.74 100.106C118.459 100.265 118.508 100.22 118.508 100.22L118.254 100.345L117.92 100.472C117.92 100.472 117.633 100.579 117.475 100.642C117.1 100.793 117.023 100.73 117.023 100.73L116.896 100.8H116.687C116.571 100.915 115.352 101.028 114.706 100.983C112.813 100.852 111.151 100.126 109.839 98.8549C108.615 97.6713 107.886 96.4349 107.525 94.9332C107.366 94.2684 107.35 94.025 107.395 92.8643C107.444 91.5658 107.514 91.1261 107.752 90.6024C107.819 90.4553 107.874 90.2825 107.874 90.2185C107.874 90.0817 108.526 88.9191 108.8 88.5668C109.168 88.093 110.045 87.2314 110.507 86.8888C111.128 86.4295 112.262 85.8784 113.051 85.6529C113.525 85.5177 113.992 85.4629 114.876 85.4391C115.53 85.4215 116.16 85.4247 116.276 85.4463ZM70.2062 85.4767C71.8145 85.7719 73.263 86.5244 74.3868 87.6481L74.9421 88.2034C75.2958 88.6356 75.2958 88.6781 75.2958 88.6781L75.5657 89.1088C76.4403 90.5085 76.8381 92.304 76.6459 93.9825C76.208 97.8051 73.204 100.685 69.3431 100.984C67.671 101.114 65.4158 100.431 64.1722 99.4187C63.2206 98.644 62.3129 97.5433 61.8118 96.5561C61.0951 95.1441 60.8767 93.1547 61.245 91.3922C61.8011 88.7312 64.009 86.4487 66.797 85.6528C67.5091 85.4495 69.4986 85.3467 70.2062 85.4767ZM116.573 86.0242C117.635 86.2667 118.903 86.8989 119.764 87.6158C120.534 88.2564 121.247 89.2921 121.494 90.1272C121.575 90.404 121.429 90.3617 121.301 90.0714C120.918 89.2069 119.427 87.7186 118.418 87.1935C117.278 86.6002 116.622 86.4578 115.046 86.4608C113.531 86.4638 112.954 86.5864 111.854 87.1405C110.888 87.6267 109.568 88.7998 109.153 89.5408C109.11 89.6175 109.051 89.6557 109.021 89.6257C108.991 89.5958 109.069 89.3687 109.194 89.1212C109.823 87.88 111.187 86.8401 112.986 86.2301C113.686 85.9928 113.899 85.9603 114.919 85.9357C115.679 85.9173 116.236 85.9471 116.573 86.0242ZM69.9797 85.9602C72.1612 86.3047 74.3435 87.9419 75.0992 89.8011C75.2017 90.0535 75.2693 90.2764 75.2492 90.2965C75.2291 90.3166 75.0292 90.0547 74.805 89.7143C74.0005 88.4931 72.9093 87.5175 71.7913 87.0198C70.7039 86.5356 70.2728 86.4569 68.749 86.4644C67.405 86.471 67.3163 86.4823 66.5424 86.7442C65.2139 87.1938 64.007 88.0584 63.1412 89.1808C62.6652 89.7977 62.6097 89.6281 63.0467 88.8925C63.7617 87.6891 65.2146 86.6689 66.9668 86.1402C67.5136 85.9752 69.3718 85.8642 69.9797 85.9602ZM134.697 89.3212C135.195 89.6569 135.33 89.9951 135.33 90.9123C135.33 91.6025 135.302 91.763 135.138 92.0278C134.778 92.6059 134.752 92.6097 131.139 92.6097H127.908L127.767 92.3956C127.56 92.0789 127.631 90.0518 127.863 89.6583C128.168 89.1431 128.258 89.13 131.49 89.13C134.383 89.13 134.417 89.132 134.697 89.3212ZM115.937 89.5315C116.478 89.6306 117.399 90.1544 117.873 90.632C119.358 92.1272 119.348 94.3894 117.851 95.8784C117.241 96.4845 116.57 96.831 115.721 96.9785C115.255 97.0593 115.074 97.1064 115.032 97.1328C115.032 97.1328 114.392 97.0446 114.138 96.9785C113.883 96.9123 113.509 96.684 113.509 96.684C111.989 95.9884 111.091 94.5322 111.211 92.9537C111.33 91.3807 112.601 89.9199 114.164 89.5594C114.536 89.4737 115.536 89.4579 115.937 89.5315ZM69.8453 89.6042C71.6992 90.1027 72.9992 92.0452 72.6685 93.8229C72.2544 96.0496 70.0498 97.463 67.8743 96.8963C65.3499 96.2388 64.1595 93.516 65.4547 91.3622C66.3478 89.8769 68.1604 89.1512 69.8453 89.6042ZM136.582 90.6644C136.67 90.7159 136.73 90.8524 136.73 91.0014C136.73 91.2155 136.763 91.2518 136.955 91.2518H137.179L137.128 91.8015C137.03 92.8429 136.432 93.69 135.477 94.1389C134.875 94.4219 133.941 94.4705 129.028 94.4738L124.594 94.4768V93.8877C124.594 93.5637 124.63 93.2762 124.675 93.2487C124.719 93.2212 126.911 93.2003 129.545 93.2023C132.814 93.2049 134.477 93.1755 134.784 93.1096C135.146 93.0321 135.311 92.9342 135.628 92.6083C135.953 92.2754 136.063 92.2111 136.249 92.2467C136.437 92.2826 136.476 92.2592 136.476 92.1104C136.476 91.9754 136.423 91.9307 136.263 91.9307C136.055 91.9307 136.051 91.9194 136.051 91.2518C136.051 90.6034 136.06 90.5729 136.242 90.5753C136.347 90.5768 136.5 90.6168 136.582 90.6644ZM116.076 90.9905C117.728 91.7407 118.062 93.7894 116.728 94.9877C115.508 96.0834 113.758 95.7807 112.906 94.3266C112.705 93.9841 112.672 93.8349 112.674 93.2893C112.679 92.2805 113.107 91.557 113.972 91.0959C114.408 90.8636 114.56 90.8276 115.1 90.8293C115.527 90.8305 115.836 90.8816 116.076 90.9905ZM69.8154 90.9878C70.286 91.2016 70.7268 91.6044 71.0133 92.0828C71.2258 92.4375 71.2527 92.5634 71.2527 93.2038C71.2527 93.8355 71.2241 93.9739 71.0226 94.3167C70.5624 95.0994 69.7969 95.5826 68.9188 95.6445C68.4624 95.6766 68.2866 95.6474 67.9003 95.4756C66.9793 95.0656 66.3751 94.1881 66.3735 93.2583C66.3719 92.3115 67.0345 91.3287 67.9254 90.9565C68.3648 90.7729 69.3793 90.7897 69.8154 90.9878ZM105.717 93.3194C105.742 93.3829 105.75 93.6599 105.736 93.9347L105.71 94.4344L94.5284 94.4559C88.3785 94.4677 82.7644 94.4531 82.7644 94.4531L83.1576 93.2427H94.6823C94.6823 93.2427 105.68 93.2226 105.717 93.3194ZM83.1576 93.2427L82.7644 94.4531C81.4065 94.4531 81.1801 94.4531 81.1801 94.4531C79.482 94.4531 79.2963 94.4621 78.9654 94.302C78.6992 94.1732 78.5565 94.0286 78.4229 93.7526C78.3232 93.5466 78.2669 93.3316 78.2978 93.2816C78.3546 93.1898 82.4132 93.2427 82.4132 93.2427H82.7644H83.1576Z" fill="#005D33"/>
<rect x="24" y="70" width="23" height="2" rx="1" fill="#005D33"/>
<rect x="14" y="75" width="23" height="2" rx="1" fill="#005D33"/>
<rect x="24" y="80" width="23" height="2" rx="1" fill="#005D33"/>
</g>
<defs>
<clipPath id="clip0_1722_1330">
<rect width="150" height="128" fill="white"/>
</clipPath>
</defs>
</svg>
