<svg width="150" height="128" viewBox="0 0 150 128" fill="none" xmlns="http://www.w3.org/2000/svg">
<g clip-path="url(#clip0_1499_554)">
<path d="M86.1374 18.0787C88.871 11.9203 89.6958 10.1456 92.8257 3H88.4443L82.4915 16.3938C83.7661 16.8421 84.9859 17.4078 86.1374 18.0787Z" fill="#005D33"/>
<path d="M75.4313 15.1919C76.8279 15.1919 78.1932 15.3276 79.5154 15.5851L85.1089 3H80.6339C79.0684 6.5446 77.0352 11.1478 75.4243 14.795L70.203 3H65.7538L71.3471 15.5851C72.6695 15.3276 74.0348 15.1919 75.4313 15.1919Z" fill="#005D33"/>
<path d="M68.3711 16.3938L62.4183 3H58L64.7181 18.083C65.8716 17.4103 67.0939 16.8431 68.3711 16.3938Z" fill="#005D33"/>
<path d="M75.5 101.9C99.5 101.9 119 82.4 119 58.4C119 34.4 99.5 15 75.5 15C51.5 15 32 34.5 32 58.5C32 82.5 51.5 101.9 75.5 101.9Z" fill="#DADADA"/>
<path d="M113.735 37.7849C123.335 55.5849 119.435 78.1849 103.435 91.6849C85.0349 107.085 57.6349 104.785 42.2349 86.3849C26.7349 67.9849 29.1349 40.5849 47.4349 25.1849C65.8349 9.78492 93.2348 12.0849 108.635 30.4849" stroke="#2D346A" stroke-width="1.5" stroke-miterlimit="10" stroke-linecap="round" stroke-linejoin="round"/>
<path d="M53.3 82.8C59.2 88.3 67.1 91.7 75.8 91.7C93.9 91.7 108.6 77 108.6 58.9C108.6 40.8 93.9 26 75.8 26C57.7 26 43 40.7 43 58.8C43 65.3 44.9 71.4 48.2 76.5" fill="#005D33"/>
<path d="M33.3 127H116.7" stroke="#2D346A" stroke-width="2" stroke-miterlimit="10" stroke-linecap="round"/>
<path d="M144.4 13.1994C144.4 12.6994 144.2 10.3994 141.6 10.3994C141.1 10.3994 140.7 9.99941 140.7 9.49941C140.7 8.99941 141.1 8.59941 141.6 8.59941C142.1 8.59941 144.4 8.39941 144.4 5.79941C144.4 5.29941 144.8 4.89941 145.3 4.89941C145.8 4.89941 146.2 5.29941 146.2 5.79941C146.2 8.39941 148.5 8.59941 149 8.59941C149.5 8.59941 149.9 8.99941 149.9 9.49941C149.9 9.99941 149.5 10.3994 149 10.3994C146.4 10.3994 146.2 12.6994 146.2 13.1994C146.2 13.6994 145.8 14.0994 145.3 14.0994C144.8 14.0994 144.4 13.6994 144.4 13.1994Z" fill="#A92023"/>
<path d="M98.9 4.3C98.9 4.1 98.8 2.9 97.5 2.9C97.2 2.9 97 2.7 97 2.4C97 2.1 97.2 1.9 97.5 1.9C97.7 1.9 98.9 1.8 98.9 0.5C98.9 0.2 99.1 0 99.4 0C99.7 0 99.9 0.2 99.9 0.5C99.9 1.8 101.1 1.9 101.3 1.9C101.6 1.9 101.8 2.1 101.8 2.4C101.8 2.7 101.6 2.9 101.3 2.9C100 2.9 99.9 4.1 99.9 4.3C99.9 4.6 99.7 4.8 99.4 4.8C99.1 4.7 98.9 4.5 98.9 4.3Z" fill="#A92023"/>
<path d="M14.8 12.9992C14.8 12.7992 14.7 11.5992 13.4 11.5992C13.1 11.5992 12.9 11.3992 12.9 11.0992C12.9 10.7992 13.1 10.5992 13.4 10.5992C13.6 10.5992 14.8 10.4992 14.8 9.19922C14.8 8.89922 15 8.69922 15.3 8.69922C15.6 8.69922 15.8 8.89922 15.8 9.19922C15.8 10.4992 17 10.5992 17.2 10.5992C17.5 10.5992 17.7 10.7992 17.7 11.0992C17.7 11.3992 17.5 11.5992 17.2 11.5992C15.9 11.5992 15.8 12.7992 15.8 12.9992C15.8 13.2992 15.6 13.4992 15.3 13.4992C15 13.4992 14.8 13.1992 14.8 12.9992Z" fill="#A92023"/>
<path d="M3.8 86.5992C3.8 86.0992 3.6 83.7992 1 83.7992C0.4 83.7992 0 83.2992 0 82.7992C0 82.2992 0.4 81.8992 0.9 81.8992C1.4 81.8992 3.7 81.6992 3.7 79.0992C3.7 78.5992 4.1 78.1992 4.6 78.1992C5.1 78.1992 5.5 78.5992 5.5 79.0992C5.5 81.6992 7.8 81.8992 8.3 81.8992C8.8 81.8992 9.2 82.2992 9.2 82.7992C9.2 83.2992 8.8 83.6992 8.3 83.6992C5.7 83.6992 5.5 85.9992 5.5 86.4992C5.5 86.9992 5.1 87.3992 4.6 87.3992C4.2 87.4992 3.8 87.0992 3.8 86.5992Z" fill="#A92023"/>
<path d="M139 91.3996C139 91.1996 138.9 89.9996 137.6 89.9996C137.3 89.9996 137.1 89.7996 137.1 89.4996C137.1 89.1996 137.3 88.9996 137.6 88.9996C137.8 88.9996 139 88.8996 139 87.5996C139 87.2996 139.2 87.0996 139.5 87.0996C139.8 87.0996 140 87.2996 140 87.5996C140 88.8996 141.2 88.9996 141.4 88.9996C141.7 88.9996 141.9 89.1996 141.9 89.4996C141.9 89.7996 141.7 89.9996 141.4 89.9996C140.1 89.9996 140 91.1996 140 91.3996C140 91.6996 139.8 91.8996 139.5 91.8996C139.2 91.7996 139 91.5996 139 91.3996Z" fill="#A92023"/>
<path d="M97.9354 51.7011L94.2218 45.1479C93.8052 44.4131 93.0236 43.9622 92.1857 43.9622H60.0653C59.2273 43.9622 58.4458 44.4132 58.0293 45.1479L54.3157 51.7011C53.8304 52.5564 53.9331 53.6234 54.5711 54.3729L74.345 77.5562C75.276 78.6462 76.9662 78.6565 77.9061 77.5562L97.6799 54.3729C98.3173 53.624 98.4211 52.5572 97.9354 51.7011Z" fill="#DADADA"/>
<path d="M94.1889 46.8217H92.2625C91.7685 46.8217 91.5069 46.2376 91.8357 45.8691L93.2896 44.2395C93.6738 44.4444 93.9997 44.7561 94.2218 45.1479L94.6864 45.9678C94.9025 46.3491 94.627 46.8217 94.1889 46.8217Z" fill="#B9DCFF"/>
<path d="M63.0587 49.5769C62.2667 50.4817 61.678 51.5521 61.3334 52.6994C61.2601 52.9434 61.039 53.1127 60.7842 53.1127H54.026C53.9726 52.6342 54.067 52.1395 54.3158 51.701L58.0294 45.1479C58.2515 44.7561 58.5775 44.4444 58.9616 44.2395L63.0523 48.8232C63.2433 49.0373 63.2476 49.361 63.0587 49.5769Z" fill="#DADADA"/>
<path d="M85.3716 53.1128H98.2253C98.1748 53.5675 97.9908 54.0078 97.6801 54.3729L77.9063 77.5563C77.5488 77.9747 77.0808 78.234 76.5861 78.3322C76.5816 78.3085 76.1693 79.5043 85.3716 53.1128Z" fill="#DFE2E4"/>
<path d="M78.6782 43.9622L85.3714 53.1127H66.8796L73.5729 43.9622H78.6782Z" fill="#DADADA"/>
<path d="M66.8797 53.1128C76.0864 79.5168 75.6697 78.3084 75.6652 78.3322C75.1705 78.234 74.7025 77.9747 74.3451 77.5563L54.5712 54.3729C54.2605 54.0078 54.0765 53.5675 54.026 53.1128H66.8797Z" fill="#DADADA"/>
<path d="M67.7253 69.7955L54.5711 54.3729C54.2604 54.0078 54.0764 53.5675 54.0259 53.1128H60.5216C60.8764 53.1128 61.141 53.4318 61.085 53.7823C60.7308 55.9939 61.2678 58.3779 62.9583 60.3599L69.6242 68.176C70.6868 69.4221 68.7848 71.0379 67.7253 69.7955Z" fill="white"/>
<path d="M93.2895 44.2395L85.3714 53.1127L78.6781 43.9622H92.1857C92.5775 43.9622 92.9559 44.0603 93.2895 44.2395Z" fill="white"/>
<path d="M93.2895 44.2395L91.1562 46.6306C91.0477 46.7522 90.8924 46.8218 90.7294 46.8218H81.0596C80.8772 46.8218 80.7057 46.7348 80.598 46.5875L78.6781 43.9622H92.1857C92.5775 43.9622 92.9559 44.0603 93.2895 44.2395Z" fill="#DFE2E4"/>
<path d="M73.5729 43.9622L66.8797 53.1127L58.9615 44.2395C59.2952 44.0603 59.6736 43.9622 60.0653 43.9622H73.5729Z" fill="white"/>
<path d="M73.5729 43.9622L71.653 46.5874C71.5453 46.7347 71.3738 46.8217 71.1914 46.8217H69.2045C67.0533 46.8217 65.2073 47.595 63.8128 48.8207C63.5764 49.0285 63.2174 49.0084 63.0078 48.7736L58.9615 44.2395C59.2952 44.0603 59.6736 43.9622 60.0653 43.9622H73.5729Z" fill="white"/>
<path d="M79.6429 46.8217H72.6087C72.1406 46.8217 71.8707 46.29 72.1471 45.9122L73.5732 43.9622H78.6785L80.1046 45.9122C80.3809 46.2901 80.111 46.8217 79.6429 46.8217Z" fill="white"/>
<path d="M98.5988 51.3249L94.8853 44.7725C94.6244 44.312 94.2513 43.9292 93.8014 43.6548C93.4872 43.3792 93.0089 43.4077 92.7299 43.7202L85.4304 51.9015L81.4282 46.4303C81.1795 46.0904 80.7027 46.0164 80.3625 46.2651C80.0226 46.5137 79.9486 46.9908 80.1973 47.3307L84.5198 53.2398L76.0226 77.6095C75.5989 77.5818 75.2034 77.387 74.9258 77.0614C54.3567 52.946 55.1797 53.9116 55.1495 53.8754H60.761C61.1821 53.8754 61.5235 53.534 61.5235 53.1128C61.5235 52.6917 61.1821 52.3503 60.761 52.3503H54.8585C54.9317 52.1323 54.672 52.6182 58.6929 45.5243C58.7432 45.4356 58.8017 45.3532 58.8667 45.2773L66.2097 53.5074L72.8534 72.5612C72.9631 72.8757 73.2581 73.0728 73.5735 73.0728C74.0955 73.0728 74.4669 72.5562 74.2935 72.059L67.9531 53.8754H79.9598C80.3809 53.8754 80.7224 53.534 80.7224 53.1128C80.7224 52.6917 80.3809 52.3503 79.9598 52.3503H67.2214L60.4177 44.7248H72.0708L69.2712 48.5519C68.8985 49.0615 69.273 49.7648 69.886 49.7648C70.121 49.7648 70.3528 49.6565 70.5021 49.4524L73.9604 44.7248H87.0455C87.4666 44.7248 87.8081 44.3834 87.8081 43.9623C87.8081 43.5411 87.4666 43.1997 87.0455 43.1997H60.065C59.606 43.1997 59.1612 43.3033 58.7577 43.4912C58.6452 43.5208 58.5372 43.5764 58.4444 43.6592C58.004 43.9294 57.6291 44.3084 57.3661 44.7724L53.6525 51.3249C53.3334 51.888 53.2073 52.5237 53.265 53.1422C53.2668 53.1904 53.2728 53.2375 53.2832 53.283C53.363 53.8563 53.5999 54.4091 53.9911 54.8677L73.7653 78.0512C75.0042 79.5038 77.2485 79.5021 78.4859 78.0512L98.2601 54.8677C99.1033 53.8792 99.2394 52.4554 98.5988 51.3249ZM97.0997 53.8781L78.1765 76.0638L85.9132 53.8754H92.4682C92.8893 53.8754 93.2308 53.534 93.2308 53.1128C93.2308 52.6917 92.8893 52.3503 92.4682 52.3503H87.0739L93.3845 45.2775C93.5289 45.4465 93.1997 44.8909 97.272 52.0768C97.5977 52.6516 97.5285 53.3754 97.0997 53.8781Z" fill="#2D346A"/>
<path d="M65.6363 74.3461C65.2886 74.1084 64.8141 74.1973 64.5763 74.5451L63.2136 76.5374C62.8651 77.047 63.2376 77.7305 63.8425 77.7305C64.0857 77.7305 64.3249 77.6143 64.4725 77.3983L65.8352 75.406C66.0729 75.0585 65.9839 74.5839 65.6363 74.3461Z" fill="white"/>
<path d="M60.9171 69.614L58.6059 70.31C58.2027 70.4314 57.9741 70.8567 58.0956 71.26C58.2176 71.6652 58.6442 71.8912 59.0456 71.7704L61.3568 71.0743C61.76 70.9529 61.9886 70.5276 61.8671 70.1243C61.7457 69.7209 61.3203 69.4923 60.9171 69.614Z" fill="white"/>
<path d="M87.675 74.545C87.4373 74.1974 86.9627 74.1084 86.6151 74.3461C86.2675 74.5838 86.1784 75.0584 86.4161 75.4059L87.7788 77.3983C87.9265 77.6143 88.1657 77.7305 88.4089 77.7305C89.0117 77.7305 89.3871 77.0483 89.0377 76.5374L87.675 74.545Z" fill="white"/>
<path d="M93.6454 70.3099L91.3342 69.6139C90.9308 69.4924 90.5056 69.721 90.3842 70.1243C90.2627 70.5275 90.4912 70.9529 90.8945 71.0743L93.2057 71.7703C93.6104 71.8923 94.0349 71.6616 94.1557 71.26C94.2772 70.8568 94.0486 70.4314 93.6454 70.3099Z" fill="white"/>
<path d="M76.1258 40.2448C76.5469 40.2448 76.8884 39.9033 76.8884 39.4822V36.6227C76.8884 36.2015 76.5469 35.8601 76.1258 35.8601C75.7047 35.8601 75.3633 36.2015 75.3633 36.6227V39.4822C75.3633 39.9034 75.7047 40.2448 76.1258 40.2448Z" fill="white"/>
<path d="M66.0088 39.8308C66.2234 40.1923 66.6911 40.3126 67.0538 40.0973C67.416 39.8823 67.5353 39.4144 67.3204 39.0523L66.1919 37.1511C65.9769 36.7891 65.5091 36.6694 65.1469 36.8846C64.7847 37.0995 64.6654 37.5674 64.8804 37.9295L66.0088 39.8308Z" fill="white"/>
<path d="M85.1975 40.0974C85.5604 40.3129 86.0279 40.1922 86.2425 39.8309L87.3709 37.9297C87.5859 37.5676 87.4666 37.0997 87.1043 36.8847C86.7422 36.6698 86.2743 36.7891 86.0594 37.1513L84.9309 39.0524C84.7159 39.4145 84.8353 39.8823 85.1975 40.0974Z" fill="white"/>
</g>
<defs>
<clipPath id="clip0_1499_554">
<rect width="150" height="128" fill="white"/>
</clipPath>
</defs>
</svg>
