<svg width="150" height="128" viewBox="0 0 150 128" fill="none" xmlns="http://www.w3.org/2000/svg">
<g clip-path="url(#clip0_1722_1282)">
<path d="M33 127H117" stroke="#2D346A" stroke-width="2" stroke-miterlimit="10" stroke-linecap="round"/>
<g clip-path="url(#clip1_1722_1282)">
<path d="M37 18.7349V53.6886H49.7554C49.986 53.6886 50.0482 53.413 49.9294 53.2708C49.7446 53.0497 49.6649 52.9512 49.3442 52.5082C48.7029 51.6222 48.0553 50.2503 48.1605 48.4813C48.2698 46.6432 49.2379 45.167 50.4533 44.2472C51.6687 43.3275 53.1106 42.8812 54.4769 42.8812C55.8431 42.8812 57.285 43.3275 58.5004 44.2472C59.7158 45.167 60.6839 46.6432 60.7932 48.4813C60.8984 50.2503 60.2508 51.6222 59.6095 52.5082C59.2889 52.9512 59.2091 53.0497 59.0243 53.2708C58.9055 53.413 58.9677 53.6886 59.1984 53.6886H71.9537V41.0062C71.9537 39.6942 72.7258 38.7771 73.6828 39.03C74.4793 39.2406 75.5829 41.3417 78.4375 41.172C81.2921 41.0022 82.7611 38.3094 82.7611 36.2101C82.7611 34.1107 81.2921 31.4196 78.4375 31.2498C75.5829 31.0801 74.4793 33.1796 73.6828 33.3901C72.7258 33.6431 71.9537 32.7475 71.9537 31.4355V18.7349H37Z" fill="#005D33"/>
<path d="M54.4769 44.2388C52.3775 44.2388 49.6864 45.7078 49.5166 48.5624C49.3469 51.417 51.4464 52.5206 51.6569 53.3171C51.9099 54.2741 51.0143 55.0462 49.7023 55.0462H37.0016V89.9999H71.9554V77.2445C71.9554 77.0139 71.6798 76.9517 71.5376 77.0705C71.3165 77.2553 71.218 77.335 70.775 77.6557C69.889 78.297 68.517 78.9446 66.7481 78.8394C64.91 78.7301 63.4338 77.762 62.514 76.5466C61.5943 75.3312 61.148 73.8893 61.148 72.523C61.148 71.1568 61.5943 69.7149 62.514 68.4995C63.4338 67.2841 64.91 66.316 66.7481 66.2067C68.517 66.1015 69.889 66.7491 70.775 67.3904C71.218 67.711 71.3165 67.7908 71.5376 67.9756C71.6798 68.0944 71.9554 68.0322 71.9554 67.8015V55.0462H59.273C57.961 55.0462 57.0439 54.2741 57.2968 53.3171C57.5074 52.5206 59.6085 51.417 59.4387 48.5624C59.269 45.7078 56.5762 44.2388 54.4769 44.2388Z" fill="#005D33"/>
<path d="M73.3124 55.0439V67.7275C73.3124 69.0395 72.5404 69.9555 71.5833 69.7025C70.7868 69.492 69.6836 67.3907 66.8291 67.5605C63.9745 67.7303 62.5063 70.4242 62.5063 72.5235C62.5063 74.6228 63.9745 77.3137 66.8291 77.4834C69.6836 77.6532 70.7868 75.5535 71.5833 75.3429C72.5404 75.09 73.3124 75.9859 73.3124 77.2978V89.9984H108.267V55.0439H95.2214C94.004 55.0439 93.1725 55.7612 93.4072 56.6493C93.6026 57.3884 95.5506 58.4129 95.393 61.0617C95.2355 63.7105 92.7384 65.072 90.7904 65.072C88.8424 65.072 86.3437 63.7105 86.1862 61.0617C86.0287 58.4129 87.9782 57.3884 88.1736 56.6493C88.4083 55.7612 87.5567 55.0439 86.3393 55.0439H73.3124Z" fill="#005D33"/>
<path d="M96.4803 47.5603L107.555 41.3771C108.7 40.7375 109.876 40.9651 110.122 41.924C110.327 42.7221 109.03 44.7096 110.569 47.1193C112.109 49.5289 115.177 49.4975 117.01 48.4741C118.843 47.4507 120.477 44.8571 119.233 42.2819C117.99 39.7067 115.619 39.7671 115.047 39.1743C114.359 38.462 114.765 37.3512 115.911 36.7116L127 30.5201L109.96 0.000488281L79.4402 17.0407L85.7998 28.431C86.3933 29.4939 87.4249 29.8702 88.0859 29.2324C88.636 28.7015 88.5809 26.5012 90.9704 25.3475C93.3599 24.1937 95.766 25.7103 96.7157 27.4111C97.6653 29.112 97.6946 31.9574 95.4587 33.3862C93.2228 34.815 91.3778 33.6123 90.6373 33.802C89.7474 34.03 89.5363 35.1232 90.1298 36.1862L96.4803 47.5603Z" fill="#005D33"/>
</g>
<path d="M144.4 13.1994C144.4 12.6994 144.2 10.3994 141.6 10.3994C141.1 10.3994 140.7 9.99941 140.7 9.49941C140.7 8.99941 141.1 8.59941 141.6 8.59941C142.1 8.59941 144.4 8.39941 144.4 5.79941C144.4 5.29941 144.8 4.89941 145.3 4.89941C145.8 4.89941 146.2 5.29941 146.2 5.79941C146.2 8.39941 148.5 8.59941 149 8.59941C149.5 8.59941 149.9 8.99941 149.9 9.49941C149.9 9.99941 149.5 10.3994 149 10.3994C146.4 10.3994 146.2 12.6994 146.2 13.1994C146.2 13.6994 145.8 14.0994 145.3 14.0994C144.8 14.0994 144.4 13.6994 144.4 13.1994Z" fill="#A92023"/>
<path d="M14.8 12.9992C14.8 12.7992 14.7 11.5992 13.4 11.5992C13.1 11.5992 12.9 11.3992 12.9 11.0992C12.9 10.7992 13.1 10.5992 13.4 10.5992C13.6 10.5992 14.8 10.4992 14.8 9.19922C14.8 8.89922 15 8.69922 15.3 8.69922C15.6 8.69922 15.8 8.89922 15.8 9.19922C15.8 10.4992 17 10.5992 17.2 10.5992C17.5 10.5992 17.7 10.7992 17.7 11.0992C17.7 11.3992 17.5 11.5992 17.2 11.5992C15.9 11.5992 15.8 12.7992 15.8 12.9992C15.8 13.2992 15.6 13.4992 15.3 13.4992C15 13.4992 14.8 13.1992 14.8 12.9992Z" fill="#A92023"/>
<path d="M3.8 86.5992C3.8 86.0992 3.6 83.7992 1 83.7992C0.4 83.7992 0 83.2992 0 82.7992C0 82.2992 0.4 81.8992 0.9 81.8992C1.4 81.8992 3.7 81.6992 3.7 79.0992C3.7 78.5992 4.1 78.1992 4.6 78.1992C5.1 78.1992 5.5 78.5992 5.5 79.0992C5.5 81.6992 7.8 81.8992 8.3 81.8992C8.8 81.8992 9.2 82.2992 9.2 82.7992C9.2 83.2992 8.8 83.6992 8.3 83.6992C5.7 83.6992 5.5 85.9992 5.5 86.4992C5.5 86.9992 5.1 87.3992 4.6 87.3992C4.2 87.4992 3.8 87.0992 3.8 86.5992Z" fill="#A92023"/>
<path d="M139 91.3996C139 91.1996 138.9 89.9996 137.6 89.9996C137.3 89.9996 137.1 89.7996 137.1 89.4996C137.1 89.1996 137.3 88.9996 137.6 88.9996C137.8 88.9996 139 88.8996 139 87.5996C139 87.2996 139.2 87.0996 139.5 87.0996C139.8 87.0996 140 87.2996 140 87.5996C140 88.8996 141.2 88.9996 141.4 88.9996C141.7 88.9996 141.9 89.1996 141.9 89.4996C141.9 89.7996 141.7 89.9996 141.4 89.9996C140.1 89.9996 140 91.1996 140 91.3996C140 91.6996 139.8 91.8996 139.5 91.8996C139.2 91.7996 139 91.5996 139 91.3996Z" fill="#A92023"/>
<path d="M149.9 53.3C149.9 53.1 149.8 51.9 148.5 51.9C148.2 51.9 148 51.7 148 51.4C148 51.1 148.2 50.9 148.5 50.9C148.7 50.9 149.9 50.8 149.9 49.5C149.9 49.2 150.1 49 150.4 49C150.7 49 150.9 49.2 150.9 49.5C150.9 50.8 152.1 50.9 152.3 50.9C152.6 50.9 152.8 51.1 152.8 51.4C152.8 51.7 152.6 51.9 152.3 51.9C151 51.9 150.9 53.1 150.9 53.3C150.9 53.6 150.7 53.8 150.4 53.8C150.1 53.7 149.9 53.5 149.9 53.3Z" fill="#A92023"/>
</g>
<defs>
<clipPath id="clip0_1722_1282">
<rect width="150" height="128" fill="white"/>
</clipPath>
<clipPath id="clip1_1722_1282">
<rect width="90" height="90" fill="white" transform="translate(37)"/>
</clipPath>
</defs>
</svg>
