<svg width="150" height="128" viewBox="0 0 150 128" fill="none" xmlns="http://www.w3.org/2000/svg">
<g clip-path="url(#clip0_1499_436)">
<path d="M86.1374 17.0787C88.8711 10.9203 89.6958 9.1456 92.8257 2H88.4443L82.4915 15.3938C83.7662 15.8421 84.986 16.4078 86.1374 17.0787Z" fill="#005D33"/>
<path d="M75.4313 14.1919C76.8279 14.1919 78.1932 14.3276 79.5154 14.5851L85.1089 2H80.6339C79.0684 5.5446 77.0352 10.1478 75.4243 13.795L70.203 2H65.7538L71.3471 14.5851C72.6695 14.3276 74.0348 14.1919 75.4313 14.1919Z" fill="#005D33"/>
<path d="M68.3711 15.3938L62.4183 2H58L64.7181 17.083C65.8716 16.4103 67.0939 15.8431 68.3711 15.3938Z" fill="#005D33"/>
<path d="M75.5 101.9C99.5 101.9 119 82.4 119 58.4C119 34.4 99.5 15 75.5 15C51.5 15 32 34.5 32 58.5C32 82.5 51.5 101.9 75.5 101.9Z" fill="#DADADA"/>
<path d="M113.735 37.7849C123.335 55.5849 119.435 78.1849 103.435 91.6849C85.0349 107.085 57.6349 104.785 42.2349 86.3849C26.7349 67.9849 29.1349 40.5849 47.4349 25.1849C65.8349 9.78492 93.2348 12.0849 108.635 30.4849" stroke="#2D346A" stroke-width="1.5" stroke-miterlimit="10" stroke-linecap="round" stroke-linejoin="round"/>
<path d="M53.3 82.8C59.2 88.3 67.1 91.7 75.8 91.7C93.9 91.7 108.6 77 108.6 58.9C108.6 40.8 93.9 26 75.8 26C57.7 26 43 40.7 43 58.8C43 65.3 44.9 71.4 48.2 76.5" fill="#005D33"/>
<path d="M144.4 13.1994C144.4 12.6994 144.2 10.3994 141.6 10.3994C141.1 10.3994 140.7 9.99941 140.7 9.49941C140.7 8.99941 141.1 8.59941 141.6 8.59941C142.1 8.59941 144.4 8.39941 144.4 5.79941C144.4 5.29941 144.8 4.89941 145.3 4.89941C145.8 4.89941 146.2 5.29941 146.2 5.79941C146.2 8.39941 148.5 8.59941 149 8.59941C149.5 8.59941 149.9 8.99941 149.9 9.49941C149.9 9.99941 149.5 10.3994 149 10.3994C146.4 10.3994 146.2 12.6994 146.2 13.1994C146.2 13.6994 145.8 14.0994 145.3 14.0994C144.8 14.0994 144.4 13.6994 144.4 13.1994Z" fill="#A92023"/>
<path d="M98.9 4.3C98.9 4.1 98.8 2.9 97.5 2.9C97.2 2.9 97 2.7 97 2.4C97 2.1 97.2 1.9 97.5 1.9C97.7 1.9 98.9 1.8 98.9 0.5C98.9 0.2 99.1 0 99.4 0C99.7 0 99.9 0.2 99.9 0.5C99.9 1.8 101.1 1.9 101.3 1.9C101.6 1.9 101.8 2.1 101.8 2.4C101.8 2.7 101.6 2.9 101.3 2.9C100 2.9 99.9 4.1 99.9 4.3C99.9 4.6 99.7 4.8 99.4 4.8C99.1 4.7 98.9 4.5 98.9 4.3Z" fill="#A92023"/>
<path d="M14.8 12.9992C14.8 12.7992 14.7 11.5992 13.4 11.5992C13.1 11.5992 12.9 11.3992 12.9 11.0992C12.9 10.7992 13.1 10.5992 13.4 10.5992C13.6 10.5992 14.8 10.4992 14.8 9.19922C14.8 8.89922 15 8.69922 15.3 8.69922C15.6 8.69922 15.8 8.89922 15.8 9.19922C15.8 10.4992 17 10.5992 17.2 10.5992C17.5 10.5992 17.7 10.7992 17.7 11.0992C17.7 11.3992 17.5 11.5992 17.2 11.5992C15.9 11.5992 15.8 12.7992 15.8 12.9992C15.8 13.2992 15.6 13.4992 15.3 13.4992C15 13.4992 14.8 13.1992 14.8 12.9992Z" fill="#A92023"/>
<path d="M3.8 86.5992C3.8 86.0992 3.6 83.7992 1 83.7992C0.4 83.7992 0 83.2992 0 82.7992C0 82.2992 0.4 81.8992 0.9 81.8992C1.4 81.8992 3.7 81.6992 3.7 79.0992C3.7 78.5992 4.1 78.1992 4.6 78.1992C5.1 78.1992 5.5 78.5992 5.5 79.0992C5.5 81.6992 7.8 81.8992 8.3 81.8992C8.8 81.8992 9.2 82.2992 9.2 82.7992C9.2 83.2992 8.8 83.6992 8.3 83.6992C5.7 83.6992 5.5 85.9992 5.5 86.4992C5.5 86.9992 5.1 87.3992 4.6 87.3992C4.2 87.4992 3.8 87.0992 3.8 86.5992Z" fill="#A92023"/>
<path d="M139 91.3996C139 91.1996 138.9 89.9996 137.6 89.9996C137.3 89.9996 137.1 89.7996 137.1 89.4996C137.1 89.1996 137.3 88.9996 137.6 88.9996C137.8 88.9996 139 88.8996 139 87.5996C139 87.2996 139.2 87.0996 139.5 87.0996C139.8 87.0996 140 87.2996 140 87.5996C140 88.8996 141.2 88.9996 141.4 88.9996C141.7 88.9996 141.9 89.1996 141.9 89.4996C141.9 89.7996 141.7 89.9996 141.4 89.9996C140.1 89.9996 140 91.1996 140 91.3996C140 91.6996 139.8 91.8996 139.5 91.8996C139.2 91.7996 139 91.5996 139 91.3996Z" fill="#A92023"/>
<path d="M76.8825 71.0662L78.5186 48.6584H73.4897L75.4102 71.0662H76.8825Z" fill="white"/>
<path d="M69.1018 76.2383H82.8939V73.6523C82.8939 73.1762 82.5079 72.7903 82.0319 72.7903H69.9638C69.4882 72.7903 69.1018 73.1762 69.1018 73.6523V76.2383Z" fill="white"/>
<path d="M80.2468 48.6584L78.6108 71.0662H79.4837L82.7587 48.6584H80.2468Z" fill="white"/>
<path d="M69.2374 48.6584L72.5119 71.0662H73.6808L71.7594 48.6584H69.2374Z" fill="white"/>
<path d="M72.2637 43.0876C72.794 44.0195 71.2017 47.1914 72.1172 47.7301C73.0053 48.2525 74.8989 45.2805 75.9979 45.2805C77.0973 45.2805 78.9909 48.2537 79.8786 47.731C80.7941 47.1922 79.2022 44.0195 79.7321 43.0884C80.246 42.1852 83.7559 42.0151 83.7559 40.8964C83.7559 39.7785 80.246 39.6084 79.7321 38.7052C79.2022 37.7733 80.7941 34.601 79.8786 34.0622C78.9918 33.5399 77.0973 36.5123 75.9979 36.5123C74.8989 36.5123 73.0053 33.5399 72.1172 34.0614C71.2017 34.6001 72.794 37.7733 72.2637 38.7043C71.7502 39.6084 68.2399 39.7785 68.2399 40.8964C68.2399 42.0143 71.7502 42.1852 72.2637 43.0876ZM75.9979 39.1724C76.9504 39.1724 77.7219 39.9439 77.7219 40.8964C77.7219 41.8489 76.9504 42.6204 75.9979 42.6204C75.0454 42.6204 74.2739 41.8489 74.2739 40.8964C74.2739 39.9447 75.0454 39.1724 75.9979 39.1724Z" fill="white"/>
<path d="M60.6793 69.2784L59.8573 66.9185C59.1338 67.3461 58.5529 67.977 58.1796 68.7494C57.6787 69.7856 57.6126 70.9562 57.991 72.0421L59.0622 75.1142C59.1754 75.142 59.2849 75.1782 59.3951 75.2119C59.3046 74.7316 59.2651 74.2383 59.2933 73.7379C59.3737 72.338 59.9242 71.0395 60.8578 70.0201C60.8174 69.7709 60.7639 69.5217 60.6793 69.2784Z" fill="white"/>
<path d="M59.6132 64.4114L59.7563 61.915C57.7709 62.2029 56.1908 63.8562 56.0721 65.9346L55.8857 69.1861C55.9791 69.2551 56.0671 69.3309 56.1555 69.405C56.2557 68.9251 56.4084 68.4525 56.6273 68C57.2368 66.7381 58.2436 65.7494 59.4957 65.1631C59.5538 64.9148 59.5984 64.6648 59.6132 64.4114Z" fill="white"/>
<path d="M57.1711 56.0457C57.1884 56.1606 57.1981 56.276 57.2082 56.3917C57.6177 56.1244 58.0571 55.8984 58.5315 55.7339C59.8552 55.2709 61.2657 55.2848 62.5646 55.7562C62.7801 55.6227 62.9897 55.4779 63.1803 55.3071L65.0466 53.6437C64.3757 53.1403 63.5705 52.8435 62.714 52.7951C61.5717 52.729 60.4588 53.1142 59.6002 53.8806L57.1711 56.0457Z" fill="white"/>
<path d="M53.8595 68.2053C53.9773 68.2369 54.0931 68.2769 54.2084 68.3156L54.3515 65.8335C54.4172 64.6845 54.0316 63.5788 53.2656 62.7202C53.1827 62.6271 53.0905 62.5476 53.0009 62.4634C52.838 62.3418 52.681 62.2134 52.532 62.077C52.1119 61.779 51.6493 61.5505 51.151 61.4204L51.0071 63.9168C50.8959 65.8655 52.1094 67.5757 53.8595 68.2053Z" fill="white"/>
<path d="M57.1787 74.9521L56.3617 72.6102C55.9332 71.3808 54.998 70.4662 53.8738 70.0209C53.6385 69.9628 53.4074 69.8967 53.1843 69.8121C52.7087 69.7102 52.2121 69.6888 51.7154 69.7569L52.5387 72.1169C53.1721 73.9361 54.9126 75.0468 56.7409 74.9908C56.8857 74.9711 57.0322 74.9618 57.1787 74.9521Z" fill="white"/>
<path d="M57.8424 76.6641C57.6867 76.6536 57.5322 76.662 57.3782 76.6692C57.2692 76.6831 57.1597 76.6881 57.0512 76.6965C56.4787 76.7689 55.9265 76.9482 55.4282 77.2399L57.0928 79.107C58.4772 80.6593 60.7433 80.9721 62.4757 79.9636L60.8132 78.099C60.0475 77.2391 58.9923 76.7302 57.8424 76.6641Z" fill="white"/>
<path d="M59.0993 57.3613C58.0125 57.7406 57.1383 58.5205 56.6374 59.5568L55.2219 62.4883C55.2825 62.5894 55.3351 62.6946 55.3903 62.7985C56.435 61.2644 58.159 60.2395 60.0968 60.1523C60.2449 59.9474 60.383 59.7327 60.4941 59.5025L61.5805 57.2528C60.7673 57.0465 59.9116 57.0793 59.0993 57.3613Z" fill="white"/>
<path d="M54.0043 61.0438L55.0843 58.8067C55.6512 57.6328 55.6361 56.3251 55.1533 55.2139C55.0308 55.0131 54.9189 54.806 54.8212 54.5935C54.5556 54.1814 54.2189 53.8098 53.8161 53.5029L52.7293 55.7526C51.8817 57.5086 52.3463 59.5508 53.718 60.8022C53.817 60.88 53.91 60.9617 54.0043 61.0438Z" fill="white"/>
<path d="M56.6004 54.2452L58.4528 52.5945C59.3114 51.8284 59.8211 50.7732 59.8864 49.6242C59.9364 48.7672 59.734 47.9347 59.3106 47.2095L57.4443 48.8733C56.5848 49.6398 56.0755 50.6945 56.0099 51.8436C55.9703 52.5326 56.0995 53.2031 56.3693 53.8159C56.4531 53.9548 56.528 54.0988 56.6004 54.2452Z" fill="white"/>
<path d="M63.7645 78.8173C64.2679 78.1468 64.5646 77.3416 64.6126 76.4851C64.6791 75.3352 64.294 74.2291 63.5275 73.3696L61.8629 71.5042C61.3595 72.1751 61.0632 72.9798 61.0148 73.8368C60.9482 74.9867 61.3338 76.0928 62.0998 76.9523L63.7645 78.8173Z" fill="white"/>
<path d="M95.8402 69.4042C95.9291 69.3301 96.017 69.2544 96.11 69.1854L95.924 65.9339C95.8041 63.8555 94.224 62.2022 92.2399 61.9143L92.383 64.4107C92.3985 64.6666 92.4432 64.9166 92.5017 65.1632C93.7543 65.7487 94.7602 66.7382 95.3697 67.9993C95.5886 68.4517 95.7413 68.9244 95.8402 69.4042Z" fill="white"/>
<path d="M96.7746 62.4894L95.3583 59.5579C95.3575 59.5553 95.3566 59.5528 95.3549 59.5511C94.8532 58.5182 93.9811 57.7408 92.8964 57.3624C92.0854 57.0804 91.2276 57.0468 90.4165 57.2538L91.5037 59.5052C91.6156 59.7363 91.7529 59.9493 91.901 60.1543C93.8464 60.2431 95.5662 61.2654 96.6084 62.7979C96.6627 62.694 96.7153 62.5888 96.7746 62.4894Z" fill="white"/>
<path d="M98.9953 62.4646C98.9064 62.5492 98.8134 62.6284 98.7305 62.7214C97.9645 63.58 97.5789 64.6861 97.6446 65.8352L97.7877 68.3168C97.9013 68.2789 98.015 68.239 98.1307 68.2082C99.8829 67.5807 101.1 65.8684 100.989 63.918L100.845 61.4216C100.346 61.5517 99.8838 61.7802 99.4641 62.0782C99.3151 62.2146 99.1581 62.343 98.9953 62.4646Z" fill="white"/>
<path d="M92.9335 75.115L94.0051 72.0428C94.3835 70.956 94.317 69.7864 93.8165 68.7501C93.4424 67.9778 92.8619 67.3468 92.1388 66.9192L91.3164 69.28C91.2331 69.5216 91.1788 69.7699 91.1371 70.0216C92.0706 71.0411 92.6216 72.3404 92.702 73.7395C92.7302 74.2403 92.6915 74.7332 92.6001 75.2134C92.7113 75.1781 92.8215 75.1427 92.9335 75.115Z" fill="white"/>
<path d="M96.9118 58.8077L97.847 60.7455L97.9918 61.0448C98.0857 60.9627 98.18 60.8794 98.2789 60.8032C99.6485 59.5518 100.113 57.5105 99.2659 55.7553L98.1791 53.5056C97.7763 53.8125 97.44 54.1833 97.1749 54.5953C97.0772 54.8091 96.9644 55.0166 96.8411 55.2183C96.36 56.3278 96.3444 57.6321 96.9084 58.8043C96.9101 58.8043 96.911 58.806 96.9118 58.8077Z" fill="white"/>
<path d="M89.4312 55.7562C90.7314 55.2848 92.1405 55.2717 93.4647 55.7339C93.9395 55.8993 94.381 56.1253 94.7914 56.3942C94.8015 56.2785 94.8103 56.1623 94.8276 56.0478L92.3969 53.8806C91.5374 53.1142 90.4229 52.729 89.2822 52.7951C88.4253 52.8444 87.6205 53.1403 86.9496 53.6437L88.815 55.3071C89.0065 55.4779 89.2149 55.6227 89.4312 55.7562Z" fill="white"/>
<path d="M88.4686 73.3702C87.7021 74.2288 87.317 75.3349 87.3831 76.4848C87.4323 77.3414 87.7282 78.1466 88.2316 78.817L89.8959 76.9512C90.6623 76.0926 91.0474 74.9864 90.9814 73.8365C90.9321 72.9796 90.6366 72.1748 90.1328 71.5039L88.4686 73.3702Z" fill="white"/>
<path d="M94.6344 76.6712C94.4749 76.6623 94.3145 76.6548 94.1533 76.6644C93.0034 76.7297 91.9486 77.2394 91.183 78.0984L89.52 79.9639C91.2537 80.9732 93.5182 80.6588 94.905 79.1065L96.5688 77.2402C96.0654 76.9469 95.5077 76.7659 94.9286 76.696C94.8293 76.6884 94.732 76.6842 94.6344 76.6712Z" fill="white"/>
<path d="M98.7347 69.8361C98.5428 69.9059 98.3454 69.9657 98.1438 70.0154C97.0099 70.4577 96.0654 71.3732 95.6336 72.6094L94.8162 74.9521C94.9635 74.9618 95.1104 74.9719 95.256 74.9917C97.0844 75.0506 98.8227 73.9352 99.4566 72.1169L100.279 69.7569C99.7563 69.6854 99.2348 69.7199 98.7347 69.8361Z" fill="white"/>
<path d="M95.3983 54.2468C95.4643 54.1142 95.5317 53.9812 95.6074 53.8528C95.8886 53.2291 96.0258 52.5455 95.985 51.8426C95.9198 50.6936 95.41 49.6379 94.5506 48.8723L92.6847 47.2085C92.2613 47.9337 92.0588 48.7662 92.1089 49.6232C92.1742 50.7723 92.6839 51.8283 93.5429 52.5935L95.3983 54.2468Z" fill="white"/>
<path d="M87.0392 79.7429C85.0488 80.7194 81.0848 82.2721 75.9978 82.2721C70.9113 82.2721 66.9468 80.7186 64.9568 79.7429C64.5662 80.2198 64.11 80.6386 63.6074 80.9964C65.5179 82.0187 69.9891 83.9961 75.9986 83.9961C82.0086 83.9961 86.479 82.0179 88.3899 80.9964C87.8856 80.6386 87.4298 80.2198 87.0392 79.7429Z" fill="white"/>
<path d="M33 127H117" stroke="#2D346A" stroke-width="2" stroke-miterlimit="10" stroke-linecap="round"/>
</g>
<defs>
<clipPath id="clip0_1499_436">
<rect width="150" height="128" fill="white"/>
</clipPath>
</defs>
</svg>
