<svg width="150" height="134" viewBox="0 0 150 134" fill="none" xmlns="http://www.w3.org/2000/svg">
<path d="M33 127H117" stroke="#2D346A" stroke-width="2" stroke-miterlimit="10" stroke-linecap="round"/>
<circle cx="116.818" cy="20.1823" r="15.5764" fill="white"/>
<path d="M116.343 0.34623C116.246 0.367546 115.708 0.981812 115.147 1.71444C113.563 3.76144 113.208 3.83717 111.031 2.58731C108.93 1.37 108.758 1.43452 108.176 3.61109C107.766 5.1734 107.551 5.65808 107.142 5.92791C106.581 6.29423 106.258 6.31554 104.588 6.08947C103.123 5.88472 102.961 5.87406 102.724 6.03562C102.25 6.34808 102.217 6.53096 102.411 7.95359C102.659 9.73131 102.649 10.1947 102.368 10.658C102.034 11.1966 101.625 11.4013 100.063 11.8002C97.8002 12.3926 97.7351 12.5653 98.9311 14.623C99.6637 15.8728 99.7069 15.9806 99.7176 16.6161C99.7176 17.4671 99.5992 17.6287 98.0369 18.8252C96.184 20.2473 96.1947 20.3876 98.1126 21.8747C99.5673 22.9944 99.772 23.2749 99.772 24.1046C99.772 24.4922 99.6318 24.8159 98.9636 25.9575C98.0588 27.4985 97.9724 27.908 98.4139 28.2631C98.5541 28.3708 99.3619 28.6507 100.203 28.8773C102.638 29.5348 102.821 29.8254 102.455 32.4221C102.26 33.898 102.25 34.0383 102.411 34.2756C102.713 34.7389 102.939 34.7715 104.62 34.5561C106.215 34.3513 106.667 34.3726 107.152 34.6851C107.583 34.9656 107.734 35.2993 108.165 36.8942C108.391 37.7345 108.661 38.5104 108.768 38.6287C109.113 39.0164 109.555 38.9086 110.999 38.0683C112.108 37.4327 112.421 37.2925 112.917 37.2605C113.725 37.196 114.037 37.4221 115.201 38.9524C116.612 40.8059 116.763 40.8059 118.207 38.9311C118.768 38.2091 119.36 37.5303 119.544 37.4226C119.748 37.3043 120.071 37.2285 120.406 37.2285C120.88 37.2285 121.117 37.3256 122.345 38.0369C123.897 38.9311 124.284 39.0281 124.629 38.5861C124.748 38.4458 125.017 37.6594 125.244 36.8403C125.707 35.149 125.944 34.7502 126.634 34.4809C127.086 34.3087 127.194 34.3087 128.756 34.5347C130.265 34.7395 130.416 34.7502 130.664 34.5886C131.116 34.2868 131.148 34.0607 130.933 32.38C130.728 30.7852 130.75 30.3331 131.063 29.8478C131.353 29.4058 131.698 29.2442 133.282 28.824C134.112 28.6086 134.888 28.3394 135.006 28.2316C135.394 27.876 135.286 27.4452 134.446 26.0012C133.81 24.8916 133.67 24.5792 133.637 24.0833C133.573 23.2749 133.799 22.9624 135.275 21.8422C137.193 20.3876 137.193 20.2367 135.254 18.7501C133.81 17.6293 133.605 17.3493 133.605 16.5196C133.605 16.1427 133.756 15.7977 134.413 14.6555C135.275 13.1577 135.383 12.7376 135.006 12.3931C134.887 12.2854 134.133 12.0162 133.336 11.7895C131.536 11.2942 131.256 11.1321 130.922 10.4752L130.674 9.9686L130.9 8.28793C131.116 6.73627 131.126 6.58537 130.965 6.33742C130.652 5.87406 130.437 5.85274 128.767 6.06815C127.162 6.28357 126.709 6.26225 126.224 5.93857C125.793 5.65865 125.642 5.32431 125.211 3.73002C124.985 2.88968 124.716 2.11385 124.608 1.99549C124.263 1.6073 123.821 1.715 122.378 2.5559C121.268 3.19149 120.955 3.33173 120.46 3.36427C119.651 3.42878 119.339 3.20271 118.218 1.72678C117.162 0.335011 116.957 0.184669 116.343 0.34623ZM118.768 6.89727C122.776 7.50088 126.267 9.88165 128.411 13.4803C130.447 16.9067 130.813 21.1841 129.402 25.0633C128.723 26.9599 127.194 29.1791 125.706 30.4615C123.821 32.0883 121.773 33.1121 119.381 33.6293C118.034 33.9205 115.168 33.9098 113.832 33.5968C109.717 32.6381 106.377 30.0307 104.523 26.367C104.006 25.3325 103.457 23.5868 103.274 22.3908C102.39 16.5191 105.342 10.819 110.665 8.13646C111.624 7.65178 113.423 7.06949 114.501 6.90793C115.772 6.70318 117.485 6.70318 118.768 6.89727Z" fill="#005D33"/>
<path d="M115.23 15.1035L114.087 17.3778L112.917 17.5484C112.268 17.6223 111.072 17.7687 110.241 17.8668C109.304 17.9648 108.682 18.1609 108.578 18.38C108.499 18.5761 109.227 19.4076 110.449 20.4836L112.451 22.2689L111.931 24.7151C111.645 26.0599 111.463 27.2339 111.515 27.332C111.775 27.7229 112.529 27.5026 114.505 26.4266C115.622 25.8154 116.662 25.3264 116.819 25.3264C116.974 25.3264 118.041 25.8396 119.184 26.4508C120.328 27.062 121.471 27.5268 121.705 27.4784C122.199 27.3804 122.199 27.1601 121.575 24.2249L121.186 22.2677L123.187 20.4824C124.409 19.4063 125.137 18.5748 125.059 18.3787C124.954 18.1584 124.331 17.9623 123.395 17.8655C122.563 17.7675 121.368 17.621 120.719 17.5472L119.55 17.3765L118.406 15.1022C117.627 13.6098 117.107 12.8521 116.821 12.8521C116.531 12.8534 116.01 13.6111 115.23 15.1035Z" fill="#005D33"/>
<path d="M127.882 36.9478C127.85 37.0449 127.753 37.4325 127.667 37.8314C127.301 39.4475 126.762 40.3529 125.835 40.8915C124.672 41.5702 123.379 41.43 121.817 40.4606L121.353 40.1802L121.633 40.9666C121.795 41.3975 122.549 43.477 123.314 45.5784C124.079 47.6792 124.682 49.4788 124.661 49.5652C124.639 49.6516 124.381 50.0825 124.1 50.5245C123.745 51.0849 123.562 51.279 123.508 51.1707C123.465 51.0844 122.614 48.7894 121.622 46.0636C120.631 43.3379 119.812 41.0962 119.801 41.0749C119.78 41.0642 119.468 41.3335 119.112 41.6892L118.455 42.3248L120.718 48.5633C121.967 51.9898 123.023 54.8558 123.066 54.9422C123.153 55.0824 123.314 54.8451 126.126 50.5352C126.698 49.6729 127.225 48.9622 127.312 48.9403C127.398 48.919 129.004 49.3711 130.889 49.9422C132.764 50.5133 134.326 50.966 134.348 50.9335C134.391 50.8903 129.402 37.0987 129.305 37.0123C129.272 36.9798 128.96 36.9153 128.594 36.8721C128.033 36.7969 127.925 36.8076 127.882 36.9478Z" fill="#005D33"/>
<path d="M104.404 36.9478C104.102 37.0123 104.027 37.2064 101.57 43.9515C100.18 47.7656 99.0702 50.9121 99.0915 50.9334C99.1128 50.9547 100.664 50.5133 102.529 49.9528C104.403 49.3818 105.998 48.9184 106.084 48.9184C106.181 48.9184 107.086 50.2008 108.164 51.8601C109.209 53.4657 110.135 54.8557 110.2 54.9309C110.308 55.0493 110.351 55.028 110.448 54.7694C110.502 54.6078 111.557 51.7306 112.775 48.3799L114.995 42.2922L114.413 41.7856C114.101 41.5057 113.735 41.053 113.605 40.7944C113.325 40.1908 112.959 39.9215 112.549 40.0292C112.388 40.0618 111.946 40.2772 111.558 40.5032C110.653 41.0311 110.136 41.1927 109.392 41.1927C108.573 41.1927 107.776 40.9015 107.194 40.3955C106.925 40.1476 106.699 39.9754 106.688 39.9967C106.688 40.0073 106.041 41.7744 105.266 43.9078L103.843 47.7763L102.874 48.0781C102.346 48.2396 101.872 48.3799 101.839 48.3799C101.796 48.3799 102.658 45.934 103.746 42.9384C105.955 36.8721 105.966 36.8401 105.147 36.8614C104.91 36.8721 104.565 36.9046 104.404 36.9478Z" fill="#005D33"/>
<path d="M45.478 23.4822C45.4827 23.0111 45.6444 20.665 48.2905 20.665C48.2952 20.665 48.2952 20.665 48.2976 20.665C48.3022 20.665 48.3046 20.665 48.3093 20.665C48.3116 20.665 48.3116 20.665 48.3116 20.665H48.314C48.314 20.665 48.3163 20.665 48.3187 20.665C48.8226 20.651 49.228 20.2361 49.228 19.7275C49.228 19.2119 48.8108 18.7924 48.2952 18.79C47.8241 18.7854 45.478 18.6236 45.478 15.9775C45.478 15.4596 45.0585 15.04 44.5405 15.04C44.0226 15.04 43.603 15.4596 43.603 15.9775C43.603 18.6236 41.2569 18.7854 40.7858 18.79C40.2702 18.7924 39.853 19.2119 39.853 19.7275C39.853 20.2455 40.2726 20.665 40.7905 20.665C43.4366 20.665 43.5983 23.0135 43.603 23.4775C43.603 23.4822 43.603 23.4822 43.603 23.4822C43.603 23.4893 43.6054 23.4963 43.603 23.4963V23.4986V23.501V23.5057C43.6171 24.0096 44.0319 24.415 44.5405 24.415C45.0562 24.415 45.4757 23.9979 45.478 23.4822Z" fill="#A92023"/>
<path d="M136.875 8.44219C136.88 7.97109 137.041 5.625 139.687 5.625C139.692 5.625 139.692 5.625 139.695 5.625C139.699 5.625 139.702 5.625 139.706 5.625C139.709 5.625 139.709 5.625 139.709 5.625H139.711C139.711 5.625 139.713 5.625 139.716 5.625C140.22 5.61094 140.625 5.19844 140.625 4.6875C140.625 4.17188 140.208 3.75234 139.692 3.75C139.221 3.74531 136.875 3.58359 136.875 0.937499C136.875 0.41953 136.455 0 135.938 0C135.42 0 135 0.41953 135 0.937499C135 3.58359 132.654 3.74531 132.183 3.75C131.667 3.75469 131.25 4.17188 131.25 4.6875C131.25 5.20547 131.67 5.625 132.188 5.625C134.834 5.625 134.995 7.97344 135 8.4375C135 8.44219 135 8.44219 135 8.44219C135 8.44922 135.002 8.45625 135 8.45625V8.45859V8.46094C135 8.46094 135 8.46328 135 8.46562C135.014 8.96953 135.429 9.375 135.938 9.375C136.453 9.375 136.873 8.95781 136.875 8.44219Z" fill="#A92023"/>
<path d="M121.875 85.2211C121.873 84.9844 121.791 83.8125 120.469 83.8125H120.466H120.462H120.459H120.457C120.204 83.8055 120 83.5992 120 83.3438C120 83.0859 120.209 82.8773 120.466 82.875C120.703 82.8727 121.875 82.7906 121.875 81.4687C121.875 81.2086 122.084 81 122.344 81C122.604 81 122.813 81.2086 122.813 81.4687C122.813 82.7906 123.984 82.8727 124.221 82.875C124.479 82.8773 124.688 83.0859 124.688 83.3438C124.688 83.6039 124.479 83.8125 124.219 83.8125C122.895 83.8125 122.815 84.9867 122.813 85.2187V85.2211C122.813 85.2234 122.81 85.2281 122.81 85.2281C122.813 85.2281 122.813 85.2281 122.813 85.2281V85.2305V85.2328C122.805 85.4859 122.599 85.6875 122.344 85.6875C122.084 85.6875 121.875 85.4789 121.875 85.2211Z" fill="#A92023"/>
<path d="M147.187 81.122C147.185 80.8853 147.103 79.7134 145.781 79.7134H145.779H145.774H145.772H145.77C145.516 79.7063 145.312 79.5001 145.312 79.2446C145.312 78.9868 145.521 78.7782 145.779 78.7759C146.016 78.7735 147.187 78.6915 147.187 77.3696C147.187 77.1095 147.396 76.9009 147.656 76.9009C147.916 76.9009 148.125 77.1095 148.125 77.3696C148.125 78.6915 149.297 78.7735 149.534 78.7759C149.791 78.7782 150 78.9868 150 79.2446C150 79.5048 149.791 79.7134 149.531 79.7134C148.207 79.7134 148.127 80.8876 148.125 81.1196V81.122C148.125 81.1243 148.123 81.129 148.123 81.129C148.125 81.129 148.125 81.129 148.125 81.129V81.1313V81.1337C148.118 81.3868 147.912 81.5884 147.656 81.5884C147.398 81.5884 147.19 81.3798 147.187 81.122Z" fill="#A92023"/>
<path d="M1.875 39.4589C1.87266 39.2222 1.79062 38.0503 0.46875 38.0503H0.466406H0.459375H0.457031C0.203906 38.0433 0 37.837 0 37.5815C0 37.3237 0.208594 37.1151 0.466406 37.1128C0.703125 37.1105 1.875 37.0284 1.875 35.7065C1.875 35.4464 2.08359 35.2378 2.34375 35.2378C2.60391 35.2378 2.8125 35.4464 2.8125 35.7065C2.8125 37.0284 3.98438 37.1105 4.22109 37.1128C4.47891 37.1151 4.6875 37.3237 4.6875 37.5815C4.6875 37.8417 4.47891 38.0503 4.21875 38.0503C2.89453 38.0503 2.81484 39.2245 2.8125 39.4565V39.4589C2.8125 39.4612 2.81016 39.4659 2.81016 39.4659C2.8125 39.4659 2.8125 39.4659 2.8125 39.4659V39.4683V39.4706C2.80547 39.7237 2.59922 39.9253 2.34375 39.9253C2.08594 39.9253 1.87734 39.7167 1.875 39.4589Z" fill="#A92023"/>
<path d="M10.0757 105.535C10.0733 105.298 9.99131 104.126 8.66943 104.126H8.66709H8.66006H8.65771C8.40459 104.119 8.20068 103.913 8.20068 103.657C8.20068 103.399 8.40928 103.191 8.66709 103.188C8.90381 103.186 10.0757 103.104 10.0757 101.782C10.0757 101.522 10.2843 101.313 10.5444 101.313C10.8046 101.313 11.0132 101.522 11.0132 101.782C11.0132 103.104 12.1851 103.186 12.4218 103.188C12.6796 103.191 12.8882 103.399 12.8882 103.657C12.8882 103.917 12.6796 104.126 12.4194 104.126C11.0952 104.126 11.0155 105.3 11.0132 105.532V105.535C11.0132 105.537 11.0108 105.542 11.0108 105.542C11.0132 105.542 11.0132 105.542 11.0132 105.542V105.544V105.546C11.0062 105.799 10.7999 106.001 10.5444 106.001C10.2866 106.001 10.078 105.792 10.0757 105.535Z" fill="#A92023"/>
<path d="M60.8451 55.8026V58.2223C60.8451 61.5927 62.3142 64.7902 64.9932 66.8643L69.3142 70.4075C70.2648 71.1853 71.4747 71.6174 72.771 71.6174C74.3266 71.6174 75.8821 71.6174 77.5241 71.6174C78.734 71.6174 79.9439 71.2717 80.9809 70.4939L85.3019 66.9507C87.9809 64.8766 89.5364 61.6791 89.5364 58.3087V55.889L89.7957 55.6297C90.4871 54.852 90.8327 53.8149 90.8327 52.6915C90.8327 51.8273 90.5735 50.8766 90.055 50.0989C88.413 51.3952 86.771 52.6915 85.129 54.0742L84.6105 53.9013C78.6476 51.3087 71.8204 51.3087 65.771 53.9013L65.1661 53.9878C63.5241 52.605 61.9685 51.3087 60.3266 50.0125C59.1167 51.8273 59.2895 54.247 60.8451 55.8026Z" fill="#005D33"/>
<path d="M49.9748 94.0863V94.5863H50.4748H51.7032V96.1789H49.0056H48.6966L48.5584 96.4553L46.5361 100.5H37.7318L41.0872 92.1115C41.6418 90.7249 42.6347 89.7185 43.9675 88.8816C45.3112 88.0379 46.9709 87.3841 48.833 86.6912C48.8334 86.691 48.8339 86.6909 48.8343 86.6907L51.7032 85.6411V88.4011H50.4748H49.9748V88.9011V94.0863Z" fill="#DADADA" stroke="#2D346A"/>
<path d="M52.2031 92.3579H60.8451V90.6296H59.1167V82.4197L53.9315 84.3209V90.6296H52.2031V92.3579Z" fill="#005D33"/>
<path d="M65.5118 52C71.6476 49.4938 78.5611 49.4938 84.6969 52C85.5611 51.3086 88.5858 48.8889 89.3636 48.2839V47.1605C80.1167 44.2222 70.092 44.1358 60.8451 47.0741V48.1111L65.5118 52Z" fill="#005D33"/>
<path d="M84.1784 79.6544V69.9753L82.0179 71.7037C80.808 72.7408 79.2525 73.2593 77.6105 73.2593H72.5117C70.9562 73.2593 69.4006 72.7408 68.1043 71.7037L65.9438 69.9753V79.5679C71.6475 82.7655 78.5611 82.7655 84.1784 79.6544Z" fill="#005D33"/>
<path d="M100.234 88.9011V88.4011H99.734H98.5056V85.6411L101.374 86.6905C103.195 87.3841 104.855 88.0378 106.21 88.8826C107.556 89.7209 108.567 90.7271 109.121 92.1095C109.121 92.1102 109.121 92.1108 109.122 92.1115L112.397 100.5H103.586L101.564 96.4553L101.426 96.1789H101.117H98.5056V94.5863H99.734H100.234V94.0863V88.9011Z" fill="#DADADA" stroke="#2D346A"/>
<path d="M89.3635 92.3579H98.0055V90.6296H96.2771V84.3209L91.0919 82.4197V90.6296H91.0055H89.3635V92.3579Z" fill="#005D33"/>
<path d="M89.3636 45.3457V40.9383C89.3636 35.4938 84.8698 31 79.4253 31H70.7834C65.3389 31 60.8451 35.4938 60.8451 40.9383V45.3457C70.1784 42.4938 80.1167 42.4938 89.3636 45.3457Z" fill="#005D33"/>
<path d="M63.0735 88.901V88.401H62.5735H61.3451V82.158L64.1615 81.0748C70.8767 85.2353 79.339 85.2341 86.0532 81.0711L88.8636 82.0799V88.401H87.6352H87.1352V88.901V94.0862V94.5862H87.6352H88.8636V96.1788H61.3451V94.5862H62.5735H63.0735V94.0862V88.901Z" fill="#DADADA" stroke="#2D346A"/>
<path d="M96.2771 98.4074V94.0864H91.0919V98.4074H59.1166V94.0864H53.9314V98.4074H50.1289L48.8326 101H101.376L100.08 98.4074H96.2771Z" fill="#005D33"/>
<path d="M40.1907 77.6666C40.7957 77.9258 41.487 78.0987 42.092 78.1851L45.2031 85.7036C46.1537 85.2715 53.5858 82.5925 53.5858 82.5925L50.3883 74.7283C52.7216 71.4443 52.5487 67.0369 49.8697 64.0123L47.7092 70.4073L42.6969 70.8394L39.4994 66.9505L42.3512 61.1604C37.6846 61.8518 34.4006 66.0863 35.092 70.753C35.4376 73.9505 37.3389 76.4567 40.1907 77.6666Z" fill="#005D33"/>
<path d="M103.536 85.0987L108.117 73.9506C112.265 73.2592 115.03 69.2839 114.339 65.1358C114.08 63.7531 113.475 62.4568 112.61 61.4197L111.141 64.9629C110.623 66.1728 109.326 66.6913 108.117 66.2592L106.129 65.395C104.919 64.8765 104.401 63.5802 104.919 62.3704L106.388 58.8271C102.154 59.0864 99.0425 62.716 99.3018 66.8642C99.3882 68.2469 99.9067 69.6296 100.684 70.8395L95.9314 82.3333L103.536 85.0987Z" fill="#005D33"/>
</svg>
