<svg width="150" height="128" viewBox="0 0 150 128" fill="none" xmlns="http://www.w3.org/2000/svg">
<g clip-path="url(#clip0_1499_475)">
<path d="M66.4167 56.7778C65.4444 56.7778 64.4722 56 64.4722 54.8333V45.5C64.4722 44.5278 65.25 43.5556 66.4167 43.5556H70.5C70.6944 43.1667 70.8889 42.5833 71.0833 42.1944L68.1667 39.2778C67.7778 38.8889 67.5833 38.5 67.5833 37.9167C67.5833 37.3333 67.7778 36.9444 68.1667 36.5556L74.7778 29.9444C75.5556 29.1667 76.7222 29.1667 77.3055 29.9444L80.2222 32.8611C80.4167 32.6667 80.8056 32.6667 81 32.4722V28.5833H73.8056C73.0278 28.5833 72.25 28 72.0556 27.2222C71.4722 25.2778 70.6945 23.3333 69.7222 21.5833C69.3333 20.8056 69.5278 20.0278 70.1111 19.4444L75.1667 14.3889L66.4167 5.83333L61.3611 10.8889C60.7778 11.4722 59.8056 11.6667 59.2222 11.2778C57.4722 10.3056 55.5278 9.52777 53.5833 8.94444C52.8056 8.75 52.2222 7.97222 52.2222 7.19445V0H39.9722V7.19445C39.9722 7.97222 39.3889 8.75 38.6111 8.94444C36.6667 9.52777 34.7222 10.3056 32.9722 11.2778C32.1945 11.6667 31.2222 11.6667 30.6389 11.0833L25.5833 5.83333L16.8333 14.5833L21.8889 19.6389C22.4722 20.2222 22.6667 21.1944 22.2778 21.7778C21.3056 23.5278 20.5278 25.4722 19.9444 27.4167C19.75 28.1944 18.9722 28.7778 18.1944 28.7778H11V41.0278H18.1944C18.9722 41.0278 19.75 41.6111 19.9444 42.3889C19.9444 42.5833 20.1389 42.7778 20.1389 42.9722C20.1389 43.1667 20.3333 43.3611 20.3333 43.5556C20.9167 45.3056 21.5 46.8611 22.2778 48.0278C22.6667 48.8056 22.4722 49.5833 21.8889 50.1667L16.8333 55.2222L25.5833 63.9722L30.6389 58.9167C31.2222 58.3333 32.1944 58.1389 32.7778 58.5278C34.5278 59.5 36.4722 60.2778 38.4167 60.8611C39.1944 61.0556 39.7778 61.8333 39.7778 62.6111V70H52.0278V62.8056C52.0278 62.0278 52.6111 61.25 53.3889 61.0556C55.3333 60.4722 57.2778 59.6944 59.0278 58.7222C59.8056 58.3333 60.5833 58.5278 61.1667 59.1111L66.2222 64.1667L67.3889 63C67.3889 62.8056 67.1944 62.6111 67.1944 62.4167V62.2222C67.1944 62.0278 67.1944 61.8333 67.1944 61.8333V61.6389C67.1944 61.4444 67.3889 61.25 67.5833 61.0556L70.5 58.1389C70.3056 57.75 70.1111 57.3611 69.9167 56.7778H66.4167ZM46 49.3889C38.0278 49.3889 31.6111 42.9722 31.6111 35C31.6111 27.0278 38.0278 20.6111 46 20.6111C53.9722 20.6111 60.3889 27.0278 60.3889 35C60.3889 42.9722 53.9722 49.3889 46 49.3889Z" fill="#005D33"/>
<path d="M104.333 47.2494C103.555 47.2494 102.778 46.6661 102.583 45.8883C102.194 44.7217 101.805 43.7494 101.222 42.7772C100.833 41.9994 101.028 41.2217 101.611 40.6383L104.139 38.1105L100.055 34.0272L97.5277 36.555C96.9444 37.1383 95.9721 37.3328 95.3888 36.9439C94.4166 36.3605 93.4444 35.9717 92.2777 35.5828C91.4999 35.3883 90.9166 34.6105 90.9166 33.8328V30.3328H85.2777V33.8328C85.2777 34.6105 84.6944 35.3883 83.9166 35.5828L83.5277 35.7772C82.5555 36.1661 81.5832 36.555 80.8055 36.9439C80.0277 37.3328 79.2499 37.1383 78.6666 36.555L76.1388 34.0272L72.0555 38.1105L74.5833 40.6383C75.1666 41.2217 75.361 42.1939 74.9721 42.7772C74.3888 43.7494 73.9999 44.7217 73.611 45.8883C73.4166 46.6661 72.6388 47.2494 71.861 47.2494H68.361V52.8883H71.861C72.6388 52.8883 73.4166 53.4717 73.611 54.2494C73.611 54.4439 73.611 54.4439 73.8055 54.4439L73.9999 54.8328C74.3888 55.805 74.7777 56.5828 75.1666 57.3605C75.5555 58.1383 75.361 58.9161 74.7777 59.4994L72.0555 62.2217L76.1388 66.305L78.6666 63.7772C79.2499 63.1939 80.2221 62.9994 80.8055 63.3883C81.7777 63.9717 82.7499 64.3606 83.9166 64.7494C84.6944 64.9439 85.2777 65.7217 85.2777 66.4994V69.9994H90.9166V66.4994C90.9166 65.7217 91.4999 64.9439 92.2777 64.7494C93.4444 64.3606 94.4166 63.9717 95.3888 63.3883C96.1666 62.9994 96.9444 63.1939 97.5277 63.7772L100.055 66.305L104.139 62.2217L101.611 59.6939C101.028 59.1105 100.833 58.1383 101.222 57.555C101.805 56.5828 102.194 55.6105 102.583 54.4439C102.778 53.6661 103.555 53.0828 104.333 53.0828H107.833V47.4439L104.333 47.2494ZM87.9999 59.305C82.9444 59.305 78.861 55.2217 78.861 50.1661C78.861 45.1105 82.9444 41.0272 87.9999 41.0272C93.0555 41.0272 97.1388 45.1105 97.1388 50.1661C97.3333 55.2217 93.0555 59.305 87.9999 59.305Z" fill="#005D33"/>
<path d="M75.729 66.3503C78.6087 66.3503 81.8084 70.9191 81.8084 77.4999C81.8084 84.0806 78.6087 88.6495 75.729 88.6495C72.8492 88.6495 69.6495 84.0387 69.6495 77.4999C69.6495 70.9611 72.8492 66.3503 75.729 66.3503Z" fill="#82B09B" stroke="#2D346A" stroke-miterlimit="10"/>
<path d="M76.5977 77.4998C76.5977 81.1046 75.3635 82.9489 74.8607 83.0746C74.3579 82.9489 73.1237 81.1046 73.1237 77.4998C73.1237 73.8951 74.4036 72.0089 74.8607 71.925C75.3178 72.0089 76.5977 73.8532 76.5977 77.4998Z" fill="white" stroke="#2D346A" stroke-width="1.5" stroke-miterlimit="10"/>
<path d="M79.1574 66.3503L128.57 66.3503C131.45 66.3503 134.65 70.9191 134.65 77.4999C134.65 84.0807 131.45 88.6495 128.57 88.6495L79.1574 88.6495C81.7629 86.6794 83.4999 82.4879 83.4999 77.4999C83.4999 72.5119 81.7629 68.3204 79.1574 66.3503Z" fill="#82B09B" stroke="#2D346A" stroke-miterlimit="10"/>
<path d="M127.202 69.8234C127.659 69.8234 128.07 69.53 128.07 69.1947C128.07 68.8593 127.705 68.5659 127.202 68.5659L89.0794 68.5659C88.6223 68.5659 88.211 68.8593 88.211 69.1947C88.211 69.53 88.5766 69.8234 89.0794 69.8234L127.202 69.8234ZM85.6055 69.8234C86.0626 69.8234 86.474 69.53 86.474 69.1947C86.474 68.8593 86.1083 68.5659 85.6055 68.5659L83.8685 68.5659C83.4114 68.5659 83 68.8593 83 69.1947C83 69.53 83.3657 69.8234 83.8685 69.8234L85.6055 69.8234Z" fill="white"/>
<path d="M39.0794 80C41.9592 80 45.1589 84.5688 45.1589 91.1496C45.1589 97.7303 41.9592 102.299 39.0794 102.299C36.1997 102.299 33 97.6884 33 91.1496C33 84.6107 36.1997 80 39.0794 80Z" fill="#005D33"/>
<path d="M39.9481 91.1495C39.9481 94.7542 38.714 96.5985 38.2112 96.7243C37.7084 96.5985 36.4742 94.7542 36.4742 91.1495C36.4742 87.5447 37.7541 85.6585 38.2112 85.5747C38.6683 85.6585 39.9481 87.5028 39.9481 91.1495Z" fill="white"/>
<path d="M42.5079 80H91.9206C94.8003 80 98 84.5688 98 91.1496C98 97.7303 94.8003 102.299 91.9206 102.299H42.5079C45.1133 100.329 46.8503 96.1375 46.8503 91.1496C46.8503 86.1616 45.1133 81.97 42.5079 80Z" fill="#005D33"/>
<path d="M91.2017 83.2575C91.6588 83.2575 92.0702 82.9641 92.0702 82.6287C92.0702 82.2934 91.7046 82 91.2017 82L53.0794 82C52.6223 82 52.211 82.2934 52.211 82.6287C52.211 82.9641 52.5766 83.2575 53.0794 83.2575L91.2017 83.2575ZM49.6055 83.2575C50.0626 83.2575 50.474 82.9641 50.474 82.6287C50.474 82.2934 50.1083 82 49.6055 82L47.8685 82C47.4114 82 47 82.2934 47 82.6287C47 82.9641 47.3657 83.2575 47.8685 83.2575L49.6055 83.2575Z" fill="white"/>
<path d="M127.186 8.54175C127.186 8.02718 126.981 5.66019 124.305 5.66019C123.79 5.66019 123.379 5.24854 123.379 4.73398C123.379 4.21942 123.79 3.80777 124.305 3.80777C124.819 3.80777 127.186 3.60194 127.186 0.926213C127.186 0.41165 127.598 0 128.113 0C128.627 0 129.039 0.41165 129.039 0.926213C129.039 3.60194 131.406 3.80777 131.92 3.80777C132.435 3.80777 132.847 4.21942 132.847 4.73398C132.847 5.24854 132.435 5.66019 131.92 5.66019C129.245 5.66019 129.039 8.02718 129.039 8.54175C129.039 9.05631 128.627 9.46796 128.113 9.46796C127.598 9.46796 127.186 9.05631 127.186 8.54175Z" fill="#A92023"/>
<path d="M144.808 71.8665C144.808 71.3519 144.602 68.9849 141.926 68.9849C141.412 68.9849 141 68.5732 141 68.0587C141 67.5441 141.412 67.1325 141.926 67.1325C142.441 67.1325 144.808 66.9266 144.808 64.2509C144.808 63.7364 145.219 63.3247 145.734 63.3247C146.249 63.3247 146.66 63.7364 146.66 64.2509C146.66 66.9266 149.027 67.1325 149.542 67.1325C150.056 67.1325 150.468 67.5441 150.468 68.0587C150.468 68.5732 150.056 68.9849 149.542 68.9849C146.866 68.9849 146.66 71.3519 146.66 71.8665C146.66 72.381 146.249 72.7927 145.734 72.7927C145.219 72.7927 144.808 72.381 144.808 71.8665Z" fill="#A92023"/>
<path d="M116.955 62.4252C116.955 62.2194 116.852 60.9845 115.515 60.9845C115.309 60.9845 115 60.7786 115 60.4699C115 60.1612 115.206 59.9553 115.515 59.9553C115.72 59.9553 116.955 59.8524 116.955 58.5146C116.955 58.2058 117.161 58 117.47 58C117.779 58 117.984 58.2058 117.984 58.5146C117.984 59.8524 119.219 59.9553 119.425 59.9553C119.734 59.9553 119.94 60.1612 119.94 60.4699C119.94 60.7786 119.734 60.9845 119.425 60.9845C118.087 60.9845 117.984 62.2194 117.984 62.4252C117.984 62.6311 117.779 62.8369 117.47 62.8369C117.161 62.8369 116.955 62.6311 116.955 62.4252Z" fill="#A92023"/>
<path d="M12.3358 4.42524C12.3358 4.21942 12.2329 2.98447 10.8951 2.98447C10.6892 2.98447 10.3805 2.77864 10.3805 2.4699C10.3805 2.16117 10.5863 1.95534 10.8951 1.95534C11.1009 1.95534 12.3358 1.85243 12.3358 0.514563C12.3358 0.205825 12.5417 0 12.8504 0C13.1591 0 13.365 0.205825 13.365 0.514563C13.365 1.85243 14.5999 1.95534 14.8057 1.95534C15.1145 1.95534 15.3203 2.16117 15.3203 2.4699C15.3203 2.77864 15.1145 2.98447 14.8057 2.98447C13.4679 2.98447 13.365 4.21942 13.365 4.42524C13.365 4.63107 13.1591 4.83689 12.8504 4.83689C12.5417 4.93981 12.3358 4.73398 12.3358 4.42524Z" fill="#A92023"/>
<path d="M7.80777 114.266C7.80777 113.751 7.60194 111.384 4.92621 111.384C4.41165 111.384 4 110.972 4 110.458C4 109.943 4.41165 109.532 4.92621 109.532C5.44078 109.532 7.80777 109.326 7.80777 106.65C7.80777 106.136 8.21942 105.724 8.73398 105.724C9.24854 105.724 9.66019 106.136 9.66019 106.65C9.66019 109.326 12.0272 109.532 12.5417 109.532C13.0563 109.532 13.468 109.943 13.468 110.458C13.468 110.972 13.0563 111.384 12.5417 111.384C9.86602 111.384 9.66019 113.751 9.66019 114.266C9.66019 114.78 9.24854 115.192 8.73398 115.192C8.21942 115.192 7.80777 114.78 7.80777 114.266Z" fill="#A92023"/>
<path d="M138.404 110.425C138.404 110.219 138.301 108.984 136.963 108.984C136.757 108.984 136.448 108.779 136.448 108.47C136.448 108.161 136.654 107.955 136.963 107.955C137.169 107.955 138.404 107.852 138.404 106.515C138.404 106.206 138.61 106 138.918 106C139.227 106 139.433 106.206 139.433 106.515C139.433 107.852 140.668 107.955 140.874 107.955C141.182 107.955 141.388 108.161 141.388 108.47C141.388 108.779 141.182 108.984 140.874 108.984C139.536 108.984 139.433 110.219 139.433 110.425C139.433 110.631 139.227 110.837 138.918 110.837C138.61 110.837 138.404 110.631 138.404 110.425Z" fill="#A92023"/>
<path d="M33 127H117" stroke="#2D346A" stroke-width="2" stroke-miterlimit="10" stroke-linecap="round"/>
</g>
<defs>
<clipPath id="clip0_1499_475">
<rect width="150" height="128" fill="white"/>
</clipPath>
</defs>
</svg>
