<svg width="150" height="128" viewBox="0 0 150 128" fill="none" xmlns="http://www.w3.org/2000/svg">
<g clip-path="url(#clip0_1722_1358)">
<path d="M33 127H117" stroke="#2D346A" stroke-width="2" stroke-miterlimit="10" stroke-linecap="round"/>
<path d="M113.4 48.5002C115.8 37.9002 115.8 27.3002 115.8 18.5002C115.8 17.7002 115.2 17.1002 114.4 17.1002C104 16.8002 81.4 8.6002 76 3.2002C75.4 2.7002 74.5 2.7002 74 3.2002C72.1 5.1002 67.7 7.6002 61.9 10.1002L53.5 13.2002C46.3 15.6002 39.7 17.0002 35.5 17.1002C34.7 17.1002 34.1 17.7002 34.1 18.5002C34.1 48.9002 38.9 82.2002 74.3 98.7002C74.7 98.9002 75.1 98.9002 75.5 98.7002C81.6 96.0002 87.3 92.3002 92.2 87.9002C96.2 84.3002 99.7 80.1002 102.3 75.5002C102.5 75.4002 109.7 64.6002 113.4 48.5002Z" fill="#DADADA"/>
<path d="M106.2 48.8998C108.2 40.2998 108.2 31.6998 108.2 24.4998C108.2 23.8998 107.7 23.3998 107.1 23.3998C98.6 23.1998 80.2 16.4998 75.9 12.0998C75.4 11.6998 74.7 11.6998 74.3 12.0998C72.8 13.6998 69.2 15.6998 64.5 17.6998L57.7 20.1998C51.8 22.0998 46.5 23.2998 43.1 23.3998C42.5 23.3998 42 23.8998 42 24.4998C42 49.1998 45.9 76.2998 74.7 89.5998C75 89.6998 75.4 89.6998 75.7 89.5998C80.7 87.3998 85.3 84.3998 89.3 80.7998C92.6 77.8998 95.4 74.4998 97.5 70.6998C97.3 70.6998 103.2 61.9998 106.2 48.8998Z" fill="#005D33"/>
<path d="M103.3 20.8994C97.9001 19.4994 92.7001 17.7994 87.6001 15.7994C86.8001 15.3994 104 21.0994 103.3 20.8994Z" stroke="#333366" stroke-width="1.5" stroke-miterlimit="10"/>
<path d="M104.9 73.9998C105.8 72.4998 106.7 70.8998 107.5 69.2998" stroke="#333366" stroke-width="1.5" stroke-miterlimit="10"/>
<path d="M110.4 62.1994C116 47.0994 116.7 30.4994 116.7 17.7994C116.7 16.9994 116.1 16.3994 115.3 16.3994C104.6 16.0994 81.5 7.69941 76 2.09941C75.4 1.49941 74.5 1.49941 73.9 2.09941C72 4.09941 67.5 6.59941 61.6 9.09941" stroke="#333366" stroke-width="1.5" stroke-miterlimit="10"/>
<path d="M53.1 12.2998C45.7 14.6998 39.0001 16.1998 34.7001 16.2998C33.9001 16.2998 33.3 16.9998 33.3 17.6998C33.3 48.6998 38.2001 82.6998 74.4001 99.4998C74.8001 99.6998 75.2 99.6998 75.6 99.4998C85 95.2998 93.4001 88.8998 99.9001 80.8998" stroke="#333366" stroke-width="1.5" stroke-miterlimit="10"/>
<path d="M144.4 13.1994C144.4 12.6994 144.2 10.3994 141.6 10.3994C141.1 10.3994 140.7 9.99941 140.7 9.49941C140.7 8.99941 141.1 8.59941 141.6 8.59941C142.1 8.59941 144.4 8.39941 144.4 5.79941C144.4 5.29941 144.8 4.89941 145.3 4.89941C145.8 4.89941 146.2 5.29941 146.2 5.79941C146.2 8.39941 148.5 8.59941 149 8.59941C149.5 8.59941 149.9 8.99941 149.9 9.49941C149.9 9.99941 149.5 10.3994 149 10.3994C146.4 10.3994 146.2 12.6994 146.2 13.1994C146.2 13.6994 145.8 14.0994 145.3 14.0994C144.8 14.0994 144.4 13.6994 144.4 13.1994Z" fill="#A92023"/>
<path d="M98.9 4.3C98.9 4.1 98.8 2.9 97.5 2.9C97.2 2.9 97 2.7 97 2.4C97 2.1 97.2 1.9 97.5 1.9C97.7 1.9 98.9 1.8 98.9 0.5C98.9 0.2 99.1 0 99.4 0C99.7 0 99.9 0.2 99.9 0.5C99.9 1.8 101.1 1.9 101.3 1.9C101.6 1.9 101.8 2.1 101.8 2.4C101.8 2.7 101.6 2.9 101.3 2.9C100 2.9 99.9 4.1 99.9 4.3C99.9 4.6 99.7 4.8 99.4 4.8C99.1 4.7 98.9 4.5 98.9 4.3Z" fill="#A92023"/>
<path d="M14.8 12.9992C14.8 12.7992 14.7 11.5992 13.4 11.5992C13.1 11.5992 12.9 11.3992 12.9 11.0992C12.9 10.7992 13.1 10.5992 13.4 10.5992C13.6 10.5992 14.8 10.4992 14.8 9.19922C14.8 8.89922 15 8.69922 15.3 8.69922C15.6 8.69922 15.8 8.89922 15.8 9.19922C15.8 10.4992 17 10.5992 17.2 10.5992C17.5 10.5992 17.7 10.7992 17.7 11.0992C17.7 11.3992 17.5 11.5992 17.2 11.5992C15.9 11.5992 15.8 12.7992 15.8 12.9992C15.8 13.2992 15.6 13.4992 15.3 13.4992C15 13.4992 14.8 13.1992 14.8 12.9992Z" fill="#A92023"/>
<path d="M3.8 86.6002C3.8 86.1002 3.6 83.8002 1 83.8002C0.4 83.8002 0 83.3002 0 82.8002C0 82.3002 0.4 81.9002 0.9 81.9002C1.4 81.9002 3.7 81.7002 3.7 79.1002C3.7 78.6002 4.1 78.2002 4.6 78.2002C5.1 78.2002 5.5 78.6002 5.5 79.1002C5.5 81.7002 7.8 81.9002 8.3 81.9002C8.8 81.9002 9.2 82.3002 9.2 82.8002C9.2 83.3002 8.8 83.7002 8.3 83.7002C5.7 83.7002 5.5 86.0002 5.5 86.5002C5.5 87.0002 5.1 87.4002 4.6 87.4002C4.2 87.5002 3.8 87.1002 3.8 86.6002Z" fill="#A92023"/>
<path d="M139 91.3996C139 91.1996 138.9 89.9996 137.6 89.9996C137.3 89.9996 137.1 89.7996 137.1 89.4996C137.1 89.1996 137.3 88.9996 137.6 88.9996C137.8 88.9996 139 88.8996 139 87.5996C139 87.2996 139.2 87.0996 139.5 87.0996C139.8 87.0996 140 87.2996 140 87.5996C140 88.8996 141.2 88.9996 141.4 88.9996C141.7 88.9996 141.9 89.1996 141.9 89.4996C141.9 89.7996 141.7 89.9996 141.4 89.9996C140.1 89.9996 140 91.1996 140 91.3996C140 91.6996 139.8 91.8996 139.5 91.8996C139.2 91.7996 139 91.5996 139 91.3996Z" fill="#A92023"/>
<path d="M86.8001 49.0996H63.3V64.5996H86.8001V49.0996Z" fill="#005D33"/>
<path d="M68.9 38.1998C68.9 34.7998 71.6 32.0998 75 32.0998C78.4 32.0998 81.1 34.7998 81.1 38.1998C81.1 40.1998 81.1 47.2998 81.1 47.2998H82.4C82.4 47.2998 82.4 40.1998 82.4 38.1998C82.4 34.1998 79 30.7998 75 30.7998C71 30.7998 67.6 34.1998 67.6 38.1998V47.2998H68.9V38.1998Z" fill="white" stroke="white" stroke-width="0.75" stroke-miterlimit="10"/>
<path d="M87.0999 48.2998H68.9H67.5999H66.3H62.9C62.5 48.2998 62.2 48.5998 62.2 48.9998V65.1998C62.2 65.5998 62.5 65.8998 62.9 65.8998H87.0999C87.4999 65.8998 87.8 65.5998 87.8 65.1998V48.9998C87.8 48.5998 87.4999 48.2998 87.0999 48.2998ZM86.4 64.4998H63.5999V49.5998H86.5V64.4998H86.4Z" fill="white" stroke="white" stroke-width="0.75" stroke-miterlimit="10"/>
<path d="M71.8 54.7998H78.3" stroke="white" stroke-miterlimit="10"/>
<path d="M75 58.0996V51.5996" stroke="white" stroke-miterlimit="10"/>
</g>
<defs>
<clipPath id="clip0_1722_1358">
<rect width="150" height="128" fill="white"/>
</clipPath>
</defs>
</svg>
