<svg width="72" height="72" viewBox="0 0 72 72" fill="none" xmlns="http://www.w3.org/2000/svg">
<path d="M34.6688 39.5226C34.6688 42.1077 34.6688 44.7761 34.6688 47.3612C34.6057 48.612 34.5425 50.0297 34.4794 51.0303C34.4162 52.1144 33.911 53.0317 33.1532 53.4486C32.7743 53.6988 32.3323 53.7822 32.0165 53.949C30.943 54.3659 29.8063 54.5327 28.6696 54.6995C27.8487 54.7829 26.9646 54.7829 26.1437 54.6995C25.007 54.5327 23.8703 54.3659 22.7968 53.949C22.4179 53.7822 21.7864 53.6154 21.1549 53.3652C20.3971 53.0317 19.8919 52.031 19.8919 50.9469C19.8919 50.2798 19.8919 49.6127 19.8919 49.029C19.8919 47.8615 19.8919 46.7775 19.8919 45.61C19.8919 43.3585 19.8919 41.107 19.8919 38.8555C19.8919 34.3524 19.8919 29.8494 19.8919 25.263C19.8919 19.1755 19.8919 13.0881 19.8919 7.00067C19.8919 6.66712 19.8288 6.33356 19.9551 6C26.8383 6 33.6584 6 40.5417 6C43.9517 6 47.4249 6 50.835 6C52.54 6 54.245 6 55.95 6L60.0547 6.16678C60.8757 6.16678 61.6334 6.33356 62.3912 6.58373C66.8117 8.08474 70.9795 11.8373 71.8004 18.0915C72.5582 24.1789 71.1689 30.2663 67.4432 34.1857C63.0227 38.7721 57.0867 39.4392 51.6559 39.4392C46.2882 39.4392 40.8574 39.4392 35.4897 39.4392C35.2371 39.4392 34.9214 39.2724 34.6688 39.5226Z" fill="#A91F22"/>
<path d="M38.2052 18.1749C38.2052 18.1749 45.5936 18.0915 48.8774 18.1749C49.6351 18.1749 50.4561 18.1749 51.1507 18.5918C52.6663 19.5091 53.4241 21.9274 53.0452 24.1789C52.6032 26.764 51.7822 27.7647 49.7614 28.0982H38.2052C38.2052 28.0982 38.2052 26.5138 38.2052 25.6799C38.2052 23.5118 38.2052 19.2589 38.2052 19.2589V18.1749Z" fill="#005D33"/>
<path d="M36.7527 44.2758V53.1985C36.0581 55.7835 34.4794 59.2859 26.6489 59.3693C26.5226 59.3693 26.4594 59.3693 26.3331 59.3693C26.2068 59.3693 26.1437 59.3693 26.0174 59.3693C18.1869 59.3693 16.6713 55.8669 15.9136 53.1985V6H0V53.0317C0 54.8662 0.568341 56.4506 1.32613 58.1184C3.0943 62.2879 8.33567 64.2893 10.609 65.0398C12.8193 65.7903 15.2821 65.8737 17.9975 66.2072C20.5234 66.5408 23.2388 66.7076 26.2068 66.7076C26.27 66.7076 26.3963 66.7076 26.4594 66.7076C26.5226 66.7076 26.6489 66.7076 26.712 66.7076C29.68 66.7076 32.3955 66.5408 34.9214 66.2072C37.5737 65.8737 40.0365 65.7069 42.3099 65.0398C44.5201 64.2893 49.8246 62.2879 51.5928 58.1184C52.2874 56.4506 52.9189 54.9496 52.9189 53.0317V44.2758H36.7527Z" fill="#005D33"/>
</svg>
