<svg width="222" height="70" viewBox="0 0 222 70" fill="none" xmlns="http://www.w3.org/2000/svg">
<g clip-path="url(#clip0_3352_175)">
<path d="M108.919 30.3305H102.994L102.007 27.4419H94.0316L93.0442 30.3305H87.1198L94.7152 10.0342H101.247L108.919 30.3305ZM100.564 22.8049L97.9812 15.2033L95.3988 22.8049H100.564Z" fill="#A91F22"/>
<path d="M121.071 30.6348C117.957 30.6348 115.299 29.6466 113.248 27.6702C111.197 25.6937 110.134 23.1852 110.134 20.1445C110.134 17.0279 111.197 14.5193 113.248 12.5429C115.299 10.5665 117.957 9.6543 121.071 9.6543C125.173 9.6543 128.059 11.4787 129.882 15.1275L125.401 17.2559C125.021 16.4197 124.489 15.7356 123.654 15.1275C122.818 14.5954 121.983 14.2913 120.995 14.2913C119.324 14.2913 118.033 14.8234 116.97 15.9636C115.906 17.1039 115.375 18.4722 115.375 20.1445C115.375 21.8169 115.906 23.1852 116.97 24.3254C118.033 25.4657 119.4 25.9978 120.995 25.9978C121.983 25.9978 122.818 25.6937 123.654 25.1616C124.489 24.6295 125.021 23.8693 125.401 23.0332L129.882 25.1616C129.123 26.6819 127.983 27.9742 126.54 29.0384C125.173 30.1787 123.35 30.6348 121.071 30.6348Z" fill="#A91F22"/>
<path d="M151.225 30.3305H144.845L139.528 22.7289L138.161 24.4013V30.3305H132.92V10.0342H138.161V18.396L144.389 10.0342H150.845L142.946 19.5362L151.225 30.3305Z" fill="#A91F22"/>
<path d="M85.9804 54.8072H81.1953L73.0681 43.6328V54.8072H68.1311V35.499H73.2201L81.0434 46.0653V35.499H86.0563V54.8072H85.9804Z" fill="#005D33"/>
<path d="M96.9178 54.8072H91.9048V35.499H96.8419V54.8072H96.9178Z" fill="#005D33"/>
<path d="M114.235 54.8073H108.007L100.792 35.5752H106.412L111.121 49.4862L115.906 35.5752H121.527L114.235 54.8073Z" fill="#005D33"/>
<path d="M139.528 54.8072H125.401V35.499H139.528V39.832H130.414V42.8726H139.376V47.2055H130.414V50.4742H139.528V54.8072Z" fill="#005D33"/>
<path d="M161.251 54.8072H155.555L152.289 48.3458H149.782V54.8072H144.845V35.499H154.491C156.542 35.499 158.213 36.1072 159.428 37.3234C160.644 38.5397 161.251 40.06 161.251 41.8844C161.251 43.4047 160.871 44.697 160.112 45.6852C159.352 46.6734 158.441 47.3576 157.378 47.6616L161.251 54.8072ZM153.732 44.0128C154.415 44.0128 154.947 43.8608 155.403 43.4807C155.858 43.1006 156.086 42.5685 156.086 41.9604C156.086 41.3523 155.858 40.8202 155.403 40.4401C154.947 40.06 154.339 39.908 153.732 39.908H149.782V44.0128H153.732Z" fill="#005D33"/>
<path d="M173.556 55.1114C169.986 55.1114 167.176 54.1232 165.049 52.0708L167.707 48.346C169.378 50.0183 171.429 50.8545 173.86 50.8545C174.695 50.8545 175.379 50.7025 175.835 50.3984C176.29 50.0943 176.594 49.7143 176.594 49.2582C176.594 48.8781 176.29 48.498 175.759 48.27C175.227 48.0419 174.543 47.8139 173.708 47.6618C172.872 47.5098 172.037 47.3578 171.049 47.0537C170.062 46.7496 169.226 46.4456 168.391 46.0655C167.556 45.6854 166.872 45.0773 166.34 44.2411C165.809 43.4049 165.505 42.4167 165.505 41.2765C165.505 39.6041 166.188 38.1598 167.556 36.9435C168.923 35.7273 170.822 35.1191 173.176 35.1191C176.29 35.1191 178.949 36.0313 180.999 37.7797L178.265 41.3525C176.67 40.0602 174.771 39.3761 172.644 39.3761C171.277 39.3761 170.594 39.8321 170.594 40.7443C170.594 41.1244 170.897 41.4285 171.429 41.6565C171.961 41.8846 172.644 42.1126 173.48 42.2647C174.315 42.4167 175.151 42.6448 176.062 42.8728C176.974 43.1769 177.885 43.4809 178.645 43.861C179.48 44.2411 180.164 44.8492 180.696 45.6854C181.227 46.5216 181.531 47.4338 181.531 48.574C181.531 50.5504 180.848 52.0708 179.404 53.287C178.037 54.5793 176.062 55.1114 173.556 55.1114Z" fill="#005D33"/>
<path d="M205.001 54.8073H199.38L198.393 52.0707H190.797L189.81 54.8073H184.189L191.405 35.5752H197.633L205.001 54.8073ZM197.102 47.6618L194.671 40.4402L192.241 47.6618H197.102Z" fill="#005D33"/>
<path d="M221.559 54.8072H208.875V35.499H213.812V50.3982H221.559V54.8072Z" fill="#005D33"/>
<path d="M41.6989 30.5585C41.6989 32.915 41.6989 35.3476 41.6989 37.7041C41.623 38.8443 41.547 40.1366 41.4711 41.0488C41.3951 42.037 40.7875 42.8732 39.876 43.2533C39.4203 43.4813 38.8886 43.5573 38.5089 43.7094C37.2176 44.0894 35.8504 44.2415 34.4833 44.3935C33.4959 44.4695 32.4325 44.4695 31.4451 44.3935C30.0779 44.2415 28.7107 44.0894 27.4195 43.7094C26.9638 43.5573 26.2042 43.4053 25.4447 43.1772C24.5332 42.8732 23.9256 41.961 23.9256 40.9728C23.9256 40.3646 23.9256 39.7565 23.9256 39.2244C23.9256 38.1602 23.9256 37.172 23.9256 36.1077C23.9256 34.0553 23.9256 32.0028 23.9256 29.9504C23.9256 25.8455 23.9256 21.7407 23.9256 17.5598C23.9256 12.0106 23.9256 6.46138 23.9256 0.912195C23.9256 0.60813 23.8497 0.304065 24.0016 0C32.2806 0 40.4837 0 48.7627 0C52.8642 0 57.0417 0 61.1433 0C63.194 0 65.2448 0 67.2956 0L72.2326 0.152033C73.22 0.152033 74.1315 0.304065 75.0429 0.532114C80.3597 1.90041 85.3727 5.32114 86.3601 11.0224C87.2716 16.5715 85.6006 22.1207 81.1193 25.6935C75.8025 29.8744 68.6628 30.4825 62.1307 30.4825C55.6745 30.4825 49.1425 30.4825 42.6863 30.4825C42.3825 30.4825 42.0028 30.3305 41.6989 30.5585Z" fill="#A91F22"/>
<path d="M41.6989 23.2607C41.6989 23.2607 41.6989 21.7404 41.6989 20.9802C41.6989 19.4599 41.6989 17.9396 41.6989 16.4193C41.6989 13.4546 41.6989 10.414 41.6989 7.44935C41.6989 7.14529 41.6989 6.38513 41.6989 6.38513H42.3825C42.3825 6.38513 48.3829 6.38513 51.4211 6.38513C52.9402 6.38513 54.4593 6.38513 55.9784 6.38513C58.9406 6.38513 62.1307 6.15708 64.941 7.37334C67.3715 8.43757 68.6628 10.262 68.6628 12.8465C68.7387 14.8229 68.7387 16.7994 68.6628 18.6998C68.5868 21.1323 67.4475 22.9567 65.2448 24.0209C63.9536 24.705 62.4345 25.2372 59.852 25.2372C54.0036 25.2372 41.623 25.2372 41.623 25.2372V23.2607H41.6989Z" fill="#FEFEFF"/>
<path d="M45.9524 11.0982C45.9524 11.0982 54.8391 11.0222 58.7887 11.0982C59.7001 11.0982 60.6875 11.0982 61.523 11.4783C63.346 12.3145 64.2574 14.519 63.8017 16.5714C63.27 18.9279 62.2826 19.8401 59.8521 20.1442H45.9524C45.9524 20.1442 45.9524 18.6999 45.9524 17.9397C45.9524 15.9633 45.9524 12.0864 45.9524 12.0864V11.0982Z" fill="#005D33"/>
<path d="M44.2055 34.8915V43.0252C43.37 45.3817 41.4711 48.5744 32.0528 48.6504C31.9008 48.6504 31.8249 48.6504 31.673 48.6504C31.5211 48.6504 31.4451 48.6504 31.2932 48.6504C21.8749 48.6504 20.052 45.4577 19.1405 43.0252V0H0V42.8732C0 44.5455 0.683589 45.9898 1.59504 47.5102C3.72177 51.311 10.026 53.1354 12.7603 53.8195C15.4187 54.5037 18.381 54.5797 21.647 54.8837C24.6852 55.1878 27.9512 55.3398 31.5211 55.3398C31.597 55.3398 31.7489 55.3398 31.8249 55.3398C31.9008 55.3398 32.0528 55.3398 32.1287 55.3398C35.6986 55.3398 38.9646 55.1878 42.0028 54.8837C45.1929 54.5797 48.1551 54.4276 50.8894 53.8195C53.5478 53.1354 59.928 51.311 62.0547 47.5102C62.8902 45.9898 63.6498 44.6215 63.6498 42.8732V34.8915H44.2055Z" fill="#005D33"/>
<path d="M1.29126 61.6493H2.58248L3.64585 64.0818C3.64585 64.3098 3.79776 64.6899 4.02562 65.146C4.02562 65.07 4.10157 64.994 4.10157 64.8419C4.10157 64.7659 4.17753 64.6139 4.25348 64.3858C4.32944 64.2338 4.32944 64.0818 4.40539 63.9297L5.24089 61.5732H6.45616L5.24089 64.6899C4.70921 65.9062 4.25348 66.6663 3.94966 67.1224C3.49394 67.6545 3.03821 67.8826 2.43058 67.8826C2.20271 67.8826 1.97485 67.8826 1.82294 67.8066L1.89889 66.8944C1.97485 66.8944 2.12676 66.8944 2.27867 66.8944C2.50653 66.8944 2.73439 66.8184 2.8863 66.6663C3.03821 66.5143 3.19012 66.3623 3.26607 66.1342C3.26607 66.0582 3.26607 65.9062 3.26607 65.8302L1.29126 61.6493Z" fill="#A91F22"/>
<path d="M7.2157 61.6494H8.35501V64.0819H10.9375V61.6494H12.0768V67.8067H10.9375V65.0701H8.35501V67.8067H7.2157V61.6494Z" fill="#A91F22"/>
<path d="M13.5199 61.6494H14.5833V63.8539C14.5833 64.9181 14.5833 65.8303 14.5073 66.5905C14.8111 65.9063 15.1909 65.1462 15.6466 64.462L17.2417 61.7254H18.381V67.8827H17.3176V65.6783C17.3176 64.614 17.3176 63.7779 17.3936 63.0937C17.1657 63.7019 16.7859 64.386 16.3302 65.2222L14.7352 67.8067H13.5199V61.6494Z" fill="#A91F22"/>
<path d="M19.9001 67.7306V61.7253C20.3558 61.6493 20.8875 61.5732 21.5711 61.5732C22.3306 61.5732 22.9383 61.7253 23.318 61.9533C23.7738 62.1814 23.9257 62.5615 23.9257 63.0936C23.9257 63.3976 23.8497 63.6257 23.6978 63.8537C23.5459 64.0818 23.2421 64.2338 22.9383 64.3858C23.318 64.4619 23.6219 64.6899 23.8497 64.918C24.0776 65.146 24.2295 65.5261 24.2295 65.9062C24.2295 66.4383 24.0016 66.8184 23.6219 67.1984C23.1661 67.5785 22.4066 67.8066 21.3432 67.8066C20.8115 67.8066 20.3558 67.8066 19.9001 67.7306ZM21.0394 62.4854V64.1578H21.647C22.0268 64.1578 22.3306 64.0818 22.5585 63.9297C22.7864 63.7777 22.8623 63.5497 22.8623 63.3216C22.8623 62.7895 22.4825 62.4854 21.723 62.4854C21.4192 62.4094 21.1913 62.4094 21.0394 62.4854ZM21.0394 64.994V66.9704C21.1154 66.9704 21.3432 66.9704 21.647 66.9704C22.0268 66.9704 22.4066 66.8944 22.6344 66.7423C22.8623 66.5903 23.0142 66.2862 23.0142 65.9822C23.0142 65.6781 22.8623 65.3741 22.6344 65.222C22.4066 65.07 22.0268 64.994 21.647 64.994H21.0394Z" fill="#A91F22"/>
<path d="M28.8627 64.1579V65.0701H26.584V66.8945H29.1665V67.8067H25.4447V61.6494H29.0146V62.5616H26.584V64.1579H28.8627Z" fill="#A91F22"/>
<path d="M30.3058 67.8066V61.7253C30.7616 61.6493 31.3692 61.5732 32.0528 61.5732C32.8883 61.5732 33.42 61.7253 33.8757 62.1054C34.2555 62.4094 34.4833 62.8655 34.4833 63.4736C34.4833 64.0818 34.3314 64.5379 33.9517 64.8419C33.4959 65.298 32.8883 65.5261 31.9768 65.5261C31.749 65.5261 31.5211 65.5261 31.4452 65.4501V67.8066H30.3058ZM31.4452 62.4854V64.5379C31.5971 64.5379 31.749 64.6139 31.9768 64.6139C32.4326 64.6139 32.7364 64.5379 32.9643 64.3098C33.1921 64.0818 33.344 63.8537 33.344 63.4736C33.344 63.1696 33.2681 62.8655 33.0402 62.7135C32.8123 62.5615 32.5085 62.4094 32.1288 62.4094C31.8249 62.4854 31.5971 62.4854 31.4452 62.4854Z" fill="#A91F22"/>
<path d="M39.8001 66.7423L39.952 67.6545C39.5723 67.8066 39.0406 67.9586 38.357 67.9586C37.3696 67.9586 36.61 67.6545 36.0784 67.1224C35.5467 66.5903 35.2429 65.8301 35.2429 64.8419C35.2429 63.8537 35.5467 63.0936 36.1543 62.4854C36.7619 61.8773 37.5215 61.5732 38.5089 61.5732C39.1925 61.5732 39.6482 61.6493 40.028 61.8013L39.8001 62.7135C39.4204 62.5615 39.0406 62.4854 38.5849 62.4854C37.9772 62.4854 37.4455 62.7135 36.9898 63.0936C36.61 63.4736 36.3822 64.0818 36.3822 64.7659C36.3822 65.4501 36.5341 65.9822 36.9139 66.3623C37.2936 66.7423 37.8253 66.9704 38.5089 66.9704C39.0406 66.8944 39.4963 66.8944 39.8001 66.7423Z" fill="#A91F22"/>
<path d="M44.4333 66.0584H42.4585L41.9269 67.8067H40.7875L42.7623 61.6494H44.2055L46.1803 67.8067H44.965L44.4333 66.0584ZM42.6864 65.2222H44.2814L43.8257 63.7019C43.7498 63.5498 43.6738 63.1697 43.5219 62.5616C43.5219 62.5616 43.4459 62.7136 43.37 63.0177C43.294 63.3218 43.2181 63.5498 43.2181 63.7019L42.6864 65.2222Z" fill="#A91F22"/>
<path d="M48.0032 61.6494H51.8769V67.8067H50.7376V62.5616H49.0666V64.234C49.0666 65.0701 48.9906 65.8303 48.8387 66.3624C48.6868 66.8945 48.459 67.3506 48.0032 67.5787C47.6994 67.8067 47.3196 67.8827 46.9399 67.8827L46.788 66.9706C47.0918 66.9706 47.3196 66.8185 47.4716 66.6665C47.7754 66.3624 48.0032 65.5262 48.0032 64.31V61.6494Z" fill="#A91F22"/>
<path d="M53.396 61.6494H54.5353V63.8539C54.6872 63.8539 54.991 63.7779 55.2949 63.7779C55.9784 63.7779 56.5861 63.9299 57.0418 64.31C57.4975 64.614 57.7254 65.1462 57.7254 65.7543C57.7254 66.2864 57.5735 66.7425 57.2697 67.0466C56.8139 67.5787 55.9784 67.8067 54.8391 67.8067C54.3834 67.8067 53.9277 67.8067 53.4719 67.7307V61.6494H53.396ZM54.4594 64.6901V66.9706C54.6113 66.9706 54.7632 66.9706 55.067 66.9706C55.4468 66.9706 55.8265 66.8945 56.0544 66.6665C56.3582 66.4384 56.4342 66.1344 56.4342 65.7543C56.4342 65.3742 56.2823 65.0701 56.0544 64.9181C55.8265 64.7661 55.4468 64.614 55.067 64.614C54.9151 64.6901 54.7632 64.6901 54.4594 64.6901Z" fill="#A91F22"/>
<path d="M58.8647 61.6494H60.004V64.0819H62.5865V61.6494H63.7258V67.8067H62.5865V65.0701H60.004V67.8067H58.8647V61.6494Z" fill="#A91F22"/>
<path d="M68.435 66.0584H66.4602L65.9285 67.8067H64.7892L66.764 61.6494H68.2071L70.1819 67.8067H68.9667L68.435 66.0584ZM66.6121 65.2222H68.2071L67.7514 63.7019C67.6754 63.5498 67.5995 63.1697 67.4476 62.5616C67.4476 62.5616 67.3716 62.7136 67.2957 63.0177C67.2197 63.3218 67.1438 63.5498 67.1438 63.7019L66.6121 65.2222Z" fill="#A91F22"/>
<path d="M71.9288 67.8069H70.7136C70.7895 67.6549 70.9414 67.4268 71.0174 67.1988C71.0174 67.1227 71.0933 66.8947 71.1693 66.6666C71.2452 66.4386 71.3212 66.2105 71.3972 66.1345C71.4731 66.0585 71.5491 65.8305 71.625 65.6784C71.701 65.5264 71.8529 65.3744 71.9288 65.2223C72.0807 65.0703 72.2327 64.9943 72.4605 64.9183C72.0807 64.8423 71.7769 64.6902 71.5491 64.4622C71.3212 64.2341 71.1693 63.854 71.1693 63.474C71.1693 62.9418 71.3972 62.4857 71.7769 62.1817C72.1567 61.8776 72.8403 61.7256 73.6758 61.7256C74.2834 61.7256 74.8151 61.8016 75.2708 61.8776V67.9589H74.1315V65.4504H73.6758C73.372 65.4504 73.0681 65.5264 72.9162 65.6784C72.8403 65.7544 72.7643 65.9065 72.6124 66.0585C72.4605 66.2105 72.4605 66.3626 72.3846 66.5146C72.3086 66.6666 72.3086 66.8187 72.2327 67.0467C72.1567 67.2748 72.1567 67.4268 72.0807 67.5028C72.0048 67.5028 72.0048 67.6549 71.9288 67.8069ZM74.0556 64.3862V62.4857C73.9036 62.4097 73.6758 62.4097 73.372 62.4097C72.9922 62.4097 72.6884 62.4857 72.4605 62.6378C72.2327 62.7898 72.0807 63.0179 72.0807 63.3979C72.0807 63.702 72.2327 63.9301 72.4605 64.1581C72.6884 64.3101 72.9922 64.3862 73.4479 64.3862C73.8277 64.4622 73.9796 64.4622 74.0556 64.3862Z" fill="#A91F22"/>
<path d="M89.0945 61.7256H93.8037V67.8829H92.6644V62.6378H90.1579V67.8829H89.0186V61.7256H89.0945Z" fill="#A91F22"/>
<path d="M95.3228 67.8827V61.8014C95.7785 61.7254 96.3861 61.6494 97.0697 61.6494C97.9052 61.6494 98.4369 61.8014 98.8926 62.1815C99.2724 62.4856 99.5002 62.9417 99.5002 63.5498C99.5002 64.158 99.3483 64.614 98.9686 64.9181C98.5128 65.3742 97.9052 65.6023 96.9937 65.6023C96.7659 65.6023 96.538 65.6023 96.4621 65.5262V67.8827H95.3228ZM96.3861 62.5616V64.614C96.538 64.614 96.6899 64.6901 96.9178 64.6901C97.3735 64.6901 97.6773 64.614 97.9052 64.386C98.1331 64.1579 98.285 63.9299 98.285 63.5498C98.285 63.2458 98.209 62.9417 97.9812 62.7897C97.7533 62.6376 97.4495 62.4856 97.0697 62.4856C96.7659 62.5616 96.614 62.5616 96.3861 62.5616Z" fill="#A91F22"/>
<path d="M103.146 67.9586C102.311 67.9586 101.627 67.6545 101.095 67.0464C100.564 66.4383 100.336 65.6781 100.336 64.7659C100.336 63.8537 100.64 63.0176 101.171 62.4854C101.703 61.9533 102.387 61.5732 103.298 61.5732C104.133 61.5732 104.893 61.8773 105.349 62.4854C105.88 63.0936 106.108 63.8537 106.108 64.6899C106.108 65.6781 105.804 66.5143 105.273 67.0464C104.665 67.6545 103.982 67.9586 103.146 67.9586ZM103.146 67.0464C103.678 67.0464 104.133 66.8184 104.361 66.3623C104.665 65.9062 104.817 65.3741 104.817 64.6899C104.817 64.0818 104.665 63.5497 104.361 63.0936C104.058 62.6375 103.678 62.4094 103.146 62.4094C102.614 62.4094 102.159 62.6375 101.931 63.0936C101.703 63.5497 101.475 64.0818 101.475 64.6899C101.475 65.298 101.627 65.8302 101.931 66.2863C102.235 66.8184 102.614 67.0464 103.146 67.0464Z" fill="#A91F22"/>
<path d="M112.489 67.8829L112.337 65.3744C112.261 64.1581 112.261 63.3219 112.261 62.7898C112.033 63.55 111.805 64.3862 111.501 65.1463L110.59 67.8069H109.754L108.919 65.1463C108.691 64.3101 108.463 63.55 108.311 62.7898C108.311 63.854 108.235 64.7662 108.235 65.3744L108.083 67.8829H107.02L107.4 61.7256H108.843L109.678 64.2341C109.906 64.9183 110.058 65.6784 110.21 66.3626C110.362 65.6024 110.59 64.9183 110.817 64.2341L111.653 61.8016H113.096L113.476 67.9589H112.489V67.8829Z" fill="#A91F22"/>
<path d="M114.995 61.7256H116.134V63.9301C116.286 63.9301 116.59 63.854 116.818 63.854C117.501 63.854 118.033 64.0061 118.489 64.3862C118.945 64.6902 119.172 65.2223 119.172 65.8305C119.172 66.3626 119.021 66.8187 118.717 67.1227C118.261 67.6549 117.426 67.8829 116.362 67.8829C115.906 67.8829 115.451 67.8829 114.995 67.8069V61.7256ZM116.058 64.7662V67.0467C116.21 67.0467 116.362 67.0467 116.59 67.0467C116.97 67.0467 117.274 66.9707 117.577 66.7427C117.881 66.5146 117.957 66.2105 117.957 65.8305C117.957 65.4504 117.805 65.1463 117.577 64.9943C117.35 64.8422 116.97 64.6902 116.59 64.6902C116.438 64.7662 116.21 64.7662 116.058 64.7662ZM119.78 61.7256H120.919V67.8829H119.78V61.7256Z" fill="#A91F22"/>
<path d="M122.514 61.7256H123.654V66.9707H125.401V61.7256H126.54V66.9707H128.287V61.7256H129.426V67.8829H122.666V61.7256H122.514Z" fill="#A91F22"/>
<path d="M131.325 61.7256H135.199V67.8829H134.06V62.6378H132.389V64.3101C132.389 65.1463 132.313 65.9065 132.161 66.4386C132.009 66.9707 131.781 67.4268 131.325 67.6549C131.021 67.8829 130.642 67.9589 130.262 67.9589L130.11 67.0467C130.414 67.0467 130.642 66.8947 130.794 66.7427C131.097 66.4386 131.325 65.6024 131.325 64.3862V61.7256Z" fill="#A91F22"/>
<path d="M140.136 64.2341V65.1463H137.857V66.9707H140.44V67.8829H136.718V61.7256H140.288V62.6378H137.857V64.2341H140.136Z" fill="#A91F22"/>
<path d="M141.655 61.7256H142.794V64.1581H145.377V61.7256H146.516V67.8829H145.377V65.1463H142.794V67.8829H141.655V61.7256Z" fill="#A91F22"/>
<path d="M147.959 61.7256H149.098V64.1581H151.681V61.7256H152.82V67.8829H151.681V65.1463H149.098V67.8829H147.959V61.7256Z" fill="#A91F22"/>
<path d="M157.529 66.1345H155.555L155.023 67.8829H153.884L155.858 61.7256H157.302L159.276 67.8829H158.061L157.529 66.1345ZM155.782 65.2983H157.378L156.922 63.778C156.846 63.626 156.77 63.2459 156.618 62.6378C156.618 62.6378 156.542 62.7898 156.466 63.0939C156.39 63.3979 156.314 63.626 156.314 63.778L155.782 65.2983Z" fill="#A91F22"/>
<path d="M161.023 67.8831H159.808C159.884 67.731 160.036 67.503 160.112 67.2749C160.112 67.1989 160.188 66.9709 160.264 66.7428C160.34 66.5148 160.416 66.2867 160.492 66.2107C160.568 66.0587 160.644 65.9066 160.72 65.7546C160.795 65.6026 160.947 65.4505 161.023 65.2985C161.175 65.1465 161.327 65.0705 161.555 64.9944C161.175 64.9184 160.871 64.7664 160.644 64.5383C160.416 64.3103 160.264 63.9302 160.264 63.5501C160.264 63.018 160.492 62.5619 160.871 62.2579C161.251 61.9538 161.935 61.8018 162.77 61.8018C163.378 61.8018 163.91 61.8778 164.365 61.9538V68.0351H163.226V65.5266H162.77C162.466 65.5266 162.163 65.6026 162.011 65.7546C161.935 65.8306 161.859 65.9827 161.707 66.1347C161.631 66.2867 161.555 66.4388 161.479 66.5908C161.403 66.7428 161.403 66.8948 161.327 67.1229C161.251 67.3509 161.251 67.503 161.175 67.579C161.175 67.579 161.099 67.731 161.023 67.8831ZM163.226 64.4623V62.5619C163.074 62.4859 162.846 62.4859 162.542 62.4859C162.163 62.4859 161.859 62.5619 161.631 62.714C161.403 62.866 161.251 63.094 161.251 63.4741C161.251 63.7782 161.403 64.0062 161.631 64.2343C161.859 64.4623 162.163 64.4623 162.618 64.4623C162.922 64.5383 163.074 64.5383 163.226 64.4623Z" fill="#A91F22"/>
<path d="M176.898 61.7256H178.189L179.252 64.1581C179.328 64.4622 179.48 64.7662 179.708 65.2983C179.708 65.2223 179.784 65.1463 179.784 64.9943C179.784 64.8422 179.86 64.7662 179.936 64.5382C180.012 64.3862 180.012 64.2341 180.088 64.0821L180.923 61.7256H182.139L180.923 64.8423C180.468 65.9825 180.088 66.8187 179.708 67.2748C179.252 67.8069 178.797 68.0349 178.189 68.0349C177.961 68.0349 177.733 68.0349 177.581 67.9589L177.657 67.0467C177.733 67.0467 177.885 67.0467 178.037 67.0467C178.265 67.0467 178.493 66.9707 178.645 66.8187C178.797 66.6666 178.949 66.5146 179.025 66.2866C179.025 66.2105 179.025 66.0585 179.025 65.9825L176.898 61.7256Z" fill="#A91F22"/>
<path d="M182.822 61.7256H187.531V67.8829H186.392V62.6378H183.886V67.8829H182.746V61.7256H182.822Z" fill="#A91F22"/>
<path d="M192.241 66.1345H190.266L189.734 67.8829H188.595L190.57 61.7256H192.013L193.988 67.8829H192.772L192.241 66.1345ZM190.494 65.2983H192.089L191.633 63.778C191.557 63.626 191.481 63.2459 191.329 62.6378C191.329 62.6378 191.253 62.7898 191.177 63.0939C191.101 63.3979 191.025 63.626 191.025 63.778L190.494 65.2983Z" fill="#A91F22"/>
<path d="M195.051 61.7256H196.19V64.3862H196.342L198.241 61.7256H199.608L197.406 64.4622C197.785 64.5382 198.165 64.6902 198.393 64.9183C198.621 65.1463 198.849 65.5264 199.001 65.9825C199.38 67.0467 199.608 67.6549 199.684 67.8069H198.469C198.393 67.7309 198.393 67.5788 198.317 67.5028C198.241 67.3508 198.241 67.2748 198.165 67.1988C198.089 67.1227 198.089 66.9707 198.013 66.8187C197.937 66.6666 197.937 66.5146 197.861 66.4386C197.709 65.9825 197.557 65.6784 197.33 65.4504C197.102 65.2223 196.798 65.1463 196.418 65.1463H196.19V67.8069H195.051V61.7256Z" fill="#A91F22"/>
<path d="M202.95 67.9586C202.115 67.9586 201.431 67.6545 200.899 67.0464C200.368 66.4383 200.14 65.6781 200.14 64.7659C200.14 63.8537 200.444 63.0176 200.975 62.4854C201.507 61.9533 202.191 61.5732 203.102 61.5732C203.938 61.5732 204.697 61.8773 205.153 62.4854C205.685 63.0936 205.912 63.8537 205.912 64.6899C205.912 65.6781 205.609 66.5143 205.077 67.0464C204.545 67.5785 203.786 67.9586 202.95 67.9586ZM202.95 67.0464C203.482 67.0464 203.938 66.8184 204.165 66.3623C204.469 65.9062 204.621 65.3741 204.621 64.6899C204.621 64.0818 204.469 63.5497 204.165 63.0936C203.862 62.6375 203.482 62.4094 202.95 62.4094C202.418 62.4094 201.963 62.6375 201.659 63.0936C201.355 63.5497 201.203 64.0818 201.203 64.6899C201.203 65.298 201.355 65.8302 201.659 66.2863C202.039 66.8184 202.418 67.0464 202.95 67.0464Z" fill="#A91F22"/>
<path d="M207.052 67.8067V61.8014C207.507 61.7254 208.039 61.6494 208.723 61.6494C209.482 61.6494 210.09 61.8014 210.47 62.0295C210.925 62.2575 211.077 62.6376 211.077 63.1697C211.077 63.4738 211.001 63.7019 210.849 63.9299C210.698 64.158 210.394 64.31 210.09 64.462C210.47 64.538 210.773 64.7661 211.001 64.9941C211.229 65.2222 211.381 65.6023 211.381 65.9823C211.381 66.5145 211.153 66.8945 210.773 67.2746C210.318 67.6547 209.558 67.8827 208.495 67.8827C207.963 67.8827 207.507 67.8827 207.052 67.8067ZM208.191 62.5616V64.234H208.799C209.178 64.234 209.482 64.1579 209.71 64.0059C209.938 63.8539 210.014 63.6258 210.014 63.3978C210.014 62.8657 209.634 62.5616 208.875 62.5616C208.495 62.4856 208.267 62.4856 208.191 62.5616ZM208.191 65.0701V67.0466C208.267 67.0466 208.495 67.0466 208.799 67.0466C209.178 67.0466 209.558 66.9705 209.786 66.8185C210.014 66.6665 210.166 66.3624 210.166 66.0584C210.166 65.7543 210.014 65.4502 209.786 65.2982C209.558 65.1462 209.178 65.0701 208.799 65.0701H208.191Z" fill="#A91F22"/>
<path d="M212.52 61.7256H213.66V64.3862H213.812L215.711 61.7256H217.078L214.875 64.4622C215.255 64.5382 215.635 64.6902 215.862 64.9183C216.09 65.1463 216.318 65.5264 216.47 65.9825C216.85 67.0467 217.078 67.6549 217.154 67.8069H215.938C215.862 67.7309 215.862 67.5788 215.786 67.5028C215.711 67.4268 215.711 67.2748 215.635 67.1988C215.559 67.1227 215.559 66.9707 215.483 66.8187C215.407 66.6666 215.407 66.5146 215.407 66.4386C215.255 65.9825 215.103 65.6784 214.875 65.4504C214.647 65.2223 214.343 65.1463 213.964 65.1463H213.736V67.8069H212.596V61.7256H212.52Z" fill="#A91F22"/>
<path d="M221.255 66.1345H219.28L218.749 67.8829H217.609L219.584 61.7256H221.027L223.002 67.8829H221.787L221.255 66.1345ZM219.508 65.2983H221.103L220.648 63.778C220.572 63.626 220.496 63.2459 220.344 62.6378C220.344 62.6378 220.268 62.7898 220.192 63.0939C220.116 63.3979 220.04 63.626 220.04 63.778L219.508 65.2983Z" fill="#A91F22"/>
</g>
<defs>
<clipPath id="clip0_3352_175">
<rect width="221.944" height="70" fill="white"/>
</clipPath>
</defs>
</svg>
