<svg width="150" height="107" viewBox="0 0 150 107" fill="none" xmlns="http://www.w3.org/2000/svg">
<g clip-path="url(#clip0_1583_1570)">
<path d="M143.7 98.3745C143.7 97.8745 143.5 95.5745 140.9 95.5745C140.4 95.5745 140 95.1745 140 94.6745C140 94.1745 140.4 93.7745 140.9 93.7745C141.4 93.7745 143.7 93.5745 143.7 90.9745C143.7 90.4745 144.1 90.0745 144.6 90.0745C145.1 90.0745 145.5 90.4745 145.5 90.9745C145.5 93.5745 147.8 93.7745 148.3 93.7745C148.8 93.7745 149.2 94.1745 149.2 94.6745C149.2 95.1745 148.8 95.5745 148.3 95.5745C145.7 95.5745 145.5 97.8745 145.5 98.3745C145.5 98.8745 145.1 99.2745 144.6 99.2745C144.1 99.2745 143.7 98.8745 143.7 98.3745Z" fill="#A92023"/>
<path d="M146.9 4.44893C146.9 4.24893 146.8 3.04893 145.5 3.04893C145.2 3.04893 145 2.84893 145 2.54893C145 2.24893 145.2 2.04893 145.5 2.04893C145.7 2.04893 146.9 1.94893 146.9 0.648926C146.9 0.348926 147.1 0.148926 147.4 0.148926C147.7 0.148926 147.9 0.348926 147.9 0.648926C147.9 1.94893 149.1 2.04893 149.3 2.04893C149.6 2.04893 149.8 2.24893 149.8 2.54893C149.8 2.84893 149.6 3.04893 149.3 3.04893C148 3.04893 147.9 4.24893 147.9 4.44893C147.9 4.74893 147.7 4.94893 147.4 4.94893C147.1 4.84893 146.9 4.64893 146.9 4.44893Z" fill="#A92023"/>
<path d="M14.8004 13.1491C14.8004 12.9491 14.7004 11.7491 13.4004 11.7491C13.1004 11.7491 12.9004 11.5491 12.9004 11.2491C12.9004 10.9491 13.1004 10.7491 13.4004 10.7491C13.6004 10.7491 14.8004 10.6491 14.8004 9.34912C14.8004 9.04912 15.0004 8.84912 15.3004 8.84912C15.6004 8.84912 15.8004 9.04912 15.8004 9.34912C15.8004 10.6491 17.0004 10.7491 17.2004 10.7491C17.5004 10.7491 17.7004 10.9491 17.7004 11.2491C17.7004 11.5491 17.5004 11.7491 17.2004 11.7491C15.9004 11.7491 15.8004 12.9491 15.8004 13.1491C15.8004 13.4491 15.6004 13.6491 15.3004 13.6491C15.0004 13.6491 14.8004 13.3491 14.8004 13.1491Z" fill="#A92023"/>
<path d="M3.8 86.7491C3.8 86.2491 3.6 83.9491 1 83.9491C0.4 83.9491 0 83.4491 0 82.9491C0 82.4491 0.4 82.0491 0.9 82.0491C1.4 82.0491 3.7 81.8491 3.7 79.2491C3.7 78.7491 4.1 78.3491 4.6 78.3491C5.1 78.3491 5.5 78.7491 5.5 79.2491C5.5 81.8491 7.8 82.0491 8.3 82.0491C8.8 82.0491 9.2 82.4491 9.2 82.9491C9.2 83.4491 8.8 83.8491 8.3 83.8491C5.7 83.8491 5.5 86.1491 5.5 86.6491C5.5 87.1491 5.1 87.5491 4.6 87.5491C4.2 87.6491 3.8 87.2491 3.8 86.7491Z" fill="#A92023"/>
<path d="M129.9 80.4489C129.9 80.2489 129.8 79.0489 128.5 79.0489C128.2 79.0489 128 78.8489 128 78.5489C128 78.2489 128.2 78.0489 128.5 78.0489C128.7 78.0489 129.9 77.9489 129.9 76.6489C129.9 76.3489 130.1 76.1489 130.4 76.1489C130.7 76.1489 130.9 76.3489 130.9 76.6489C130.9 77.9489 132.1 78.0489 132.3 78.0489C132.6 78.0489 132.8 78.2489 132.8 78.5489C132.8 78.8489 132.6 79.0489 132.3 79.0489C131 79.0489 130.9 80.2489 130.9 80.4489C130.9 80.7489 130.7 80.9489 130.4 80.9489C130.1 80.8489 129.9 80.6489 129.9 80.4489Z" fill="#A92023"/>
<path d="M122.479 8.19029H121.446V7.06334C121.446 5.63725 120.32 4.47644 118.934 4.47644C117.548 4.47644 116.423 5.63725 116.423 7.06334V8.18935H113.845V7.06334C113.845 5.63725 112.719 4.47644 111.334 4.47644C109.948 4.47644 108.822 5.63725 108.822 7.06334V8.18935H106.244V7.06334C106.244 5.63725 105.118 4.47644 103.733 4.47644C102.347 4.47644 101.221 5.63725 101.221 7.06334V8.18935H99.9022C97.6982 8.18935 95.9043 9.98325 95.9043 12.1873V34.7639C95.9043 36.9679 97.6982 38.7618 99.9022 38.7618H122.479C124.684 38.7618 126.477 36.9679 126.477 34.7639V12.1873C126.477 9.98325 124.683 8.19029 122.479 8.19029ZM117.834 7.06334C117.834 6.41521 118.328 5.88748 118.934 5.88748C119.542 5.88748 120.035 6.41521 120.035 7.06334V11.668C120.035 12.3162 119.542 12.8439 118.934 12.8439C118.328 12.8439 117.834 12.3162 117.834 11.668V7.06334ZM110.233 7.06334C110.233 6.41521 110.727 5.88748 111.334 5.88748C111.94 5.88748 112.434 6.41521 112.434 7.06334V11.668C112.434 12.3162 111.94 12.8439 111.334 12.8439C110.727 12.8439 110.233 12.3162 110.233 11.668V7.06334ZM102.631 7.06334C102.631 6.41521 103.125 5.88748 103.732 5.88748C104.339 5.88748 104.832 6.41521 104.832 7.06334V11.668C104.832 12.3162 104.339 12.8439 103.732 12.8439C103.125 12.8439 102.631 12.3162 102.631 11.668V7.06334ZM124.125 34.7648C124.125 35.6726 123.387 36.411 122.479 36.411H99.9022C98.9945 36.411 98.256 35.6726 98.256 34.7648V14.0696H124.125V34.7648Z" fill="#005D33"/>
<path d="M106.137 32.0368L110.722 29.6273L115.306 32.0368L114.43 26.9309L118.14 23.316L113.014 22.5714L110.722 17.9264L108.429 22.5714L103.303 23.316L107.013 26.9309L106.137 32.0368Z" fill="#A92023"/>
<path d="M35.6999 17.8342L32.2193 21.2207L28.7388 24.5131L26.293 21.9732L33.2541 15.2943L35.6999 17.8342Z" fill="#DADADA" stroke="#2D346A" stroke-width="1.5" stroke-miterlimit="10" stroke-linecap="round" stroke-linejoin="round"/>
<path d="M33.7239 22.7256L32.2188 21.2205" stroke="#2D346A" stroke-width="1.5" stroke-miterlimit="10" stroke-linecap="round" stroke-linejoin="round"/>
<path d="M63.9201 92.1489C86.4967 92.1489 104.84 73.8054 104.84 51.2288C104.84 28.6522 86.4967 10.4028 63.9201 10.4028C41.3435 10.4028 23 28.7463 23 51.3229C23 73.8995 41.3435 92.1489 63.9201 92.1489Z" fill="#DADADA"/>
<path d="M23 51.2283H27.5153" stroke="#2D346A" stroke-width="1.5" stroke-miterlimit="10" stroke-linecap="round" stroke-linejoin="round"/>
<path d="M99.9488 31.8502C108.979 48.5945 105.311 69.8541 90.2597 82.5535C72.951 97.0401 47.176 94.8765 32.6894 77.5678C18.1086 60.2591 20.3663 34.4841 37.581 19.9975C54.8897 5.51085 80.6646 7.67444 95.1513 24.9832" stroke="#2D346A" stroke-width="1.5" stroke-miterlimit="10" stroke-linecap="round" stroke-linejoin="round"/>
<path d="M42.7546 73.8051C48.3046 78.9789 55.7361 82.1772 63.9201 82.1772C80.9466 82.1772 94.7748 68.349 94.7748 51.3225C94.7748 34.296 80.9466 20.3738 63.9201 20.3738C46.8936 20.3738 33.0654 34.2019 33.0654 51.2285C33.0654 57.343 34.8527 63.0812 37.957 67.8787" fill="#005D33"/>
<path d="M63.9202 56.7789C66.9304 56.7789 69.4703 54.3331 69.4703 51.2288C69.4703 48.2186 67.0245 45.6787 63.9202 45.6787C60.91 45.6787 58.3701 48.1245 58.3701 51.2288C58.3701 54.3331 60.91 56.7789 63.9202 56.7789Z" fill="#DADADA" stroke="#2D346A" stroke-width="1.5" stroke-miterlimit="10" stroke-linecap="round" stroke-linejoin="round"/>
<path d="M63.9199 45.7724V20.3738" stroke="white" stroke-width="1.5" stroke-miterlimit="10" stroke-linecap="round" stroke-linejoin="round"/>
<path d="M67.7764 55.1792L78.3121 65.7149" stroke="white" stroke-width="1.5" stroke-miterlimit="10" stroke-linecap="round" stroke-linejoin="round"/>
<path d="M100.325 51.2283H104.841" stroke="#2D346A" stroke-width="1.5" stroke-miterlimit="10" stroke-linecap="round" stroke-linejoin="round"/>
<path d="M63.9199 87.6333V92.1486" stroke="#2D346A" stroke-width="1.5" stroke-miterlimit="10" stroke-linecap="round" stroke-linejoin="round"/>
<path d="M35.041 22.3496L38.2394 25.548" stroke="#2D346A" stroke-width="1.5" stroke-miterlimit="10" stroke-linecap="round" stroke-linejoin="round"/>
<path d="M38.2394 77.0037L35.041 80.202" stroke="#2D346A" stroke-width="1.5" stroke-miterlimit="10" stroke-linecap="round" stroke-linejoin="round"/>
<path d="M92.7989 22.3496L89.6006 25.548" stroke="#2D346A" stroke-width="1.5" stroke-miterlimit="10" stroke-linecap="round" stroke-linejoin="round"/>
<path d="M73.4212 0.148926H54.3252V4.85238H73.4212V0.148926Z" fill="#DADADA" stroke="#2D346A" stroke-width="1.5" stroke-miterlimit="10" stroke-linecap="round" stroke-linejoin="round"/>
<path d="M67.8712 4.85217H60.0635V9.93191H67.8712V4.85217Z" fill="#DADADA" stroke="#2D346A" stroke-width="1.5" stroke-miterlimit="10" stroke-linecap="round" stroke-linejoin="round"/>
<path d="M92.1406 17.8343L95.6212 21.2208L99.1017 24.5132L101.548 21.9733L94.5864 15.2944L92.1406 17.8343Z" fill="#DADADA" stroke="#2D346A" stroke-width="1.5" stroke-miterlimit="10" stroke-linecap="round" stroke-linejoin="round"/>
<path d="M94.1162 22.7257L95.6213 21.2206" stroke="#2D346A" stroke-width="1.5" stroke-miterlimit="10" stroke-linecap="round" stroke-linejoin="round"/>
<path d="M33 105.149H117" stroke="#2D346A" stroke-width="2" stroke-miterlimit="10" stroke-linecap="round"/>
</g>
<defs>
<clipPath id="clip0_1583_1570">
<rect width="150" height="106" fill="white" transform="translate(0 0.148926)"/>
</clipPath>
</defs>
</svg>
