<svg width="150" height="107" viewBox="0 0 150 107" fill="none" xmlns="http://www.w3.org/2000/svg">
<g clip-path="url(#clip0_1583_664)">
<path d="M94.2486 1.14893C86.5042 1.14893 65.867 1.14893 56.0984 1.14893C54.8663 1.14893 53.8983 2.11368 53.8983 3.34155C53.9423 28.0744 53.8103 53.158 53.9423 77.8908C53.9423 79.1187 54.9103 80.0835 56.1424 80.0835C73.5234 80.0835 90.2004 80.0835 107.625 80.0835C108.857 80.0835 109.826 79.1187 109.826 77.8908C109.826 61.7531 109.826 32.9858 109.826 18.076" fill="#DADADA"/>
<path d="M94.2486 1.14893C86.5042 1.14893 65.867 1.14893 56.0984 1.14893C54.8663 1.14893 53.8983 2.11368 53.8983 3.34155C53.9423 28.0744 53.8103 53.158 53.9423 77.8908C53.9423 79.1187 54.9103 80.0835 56.1424 80.0835C73.5234 80.0835 90.2004 80.0835 107.625 80.0835C108.857 80.0835 109.826 79.1187 109.826 77.8908C109.826 61.7531 109.826 32.9859 109.826 18.076" stroke="#2D346A" stroke-width="1.5" stroke-miterlimit="10" stroke-linecap="round" stroke-linejoin="round"/>
<rect x="97.2363" y="30.8179" width="8.39338" height="1.67868" fill="#005D33"/>
<rect x="97.2363" y="33.3359" width="8.39338" height="1.67868" fill="#005D33"/>
<rect x="97.2363" y="35.8539" width="8.39338" height="1.67868" fill="#005D33"/>
<rect x="97.2363" y="45.0867" width="8.39338" height="1.67868" fill="#005D33"/>
<rect x="97.2363" y="47.6047" width="8.39338" height="1.67868" fill="#005D33"/>
<rect x="97.2363" y="50.1227" width="8.39338" height="1.67868" fill="#005D33"/>
<rect x="97.2363" y="59.3555" width="8.39338" height="1.67868" fill="#005D33"/>
<rect x="97.2363" y="61.8735" width="8.39338" height="1.67868" fill="#005D33"/>
<rect x="97.2363" y="64.3915" width="8.39338" height="1.67868" fill="#005D33"/>
<path d="M94.499 1.14893V12.5169C94.499 15.1471 96.6303 17.2424 99.3057 17.2424H109.826L94.499 1.14893Z" fill="#DADADA" stroke="#2D346A" stroke-width="1.5" stroke-miterlimit="10" stroke-linecap="round" stroke-linejoin="round"/>
<path d="M81.3668 4.21436C73.6223 4.21436 52.9851 4.21436 43.2166 4.21436C41.9845 4.21436 41.0165 5.17911 41.0165 6.40698C41.0605 31.1398 40.9284 56.2234 41.0605 80.9563C41.0605 82.1841 42.0285 83.1489 43.2606 83.1489C60.6416 83.1489 77.3186 83.1489 94.7436 83.1489C95.9756 83.1489 96.9437 82.1841 96.9437 80.9563C96.9437 64.8185 96.9437 36.0513 96.9437 21.1414" fill="#DADADA"/>
<path d="M81.3668 4.21436C73.6223 4.21436 52.9851 4.21436 43.2166 4.21436C41.9845 4.21436 41.0165 5.17911 41.0165 6.40698C41.0605 31.1398 40.9284 56.2234 41.0605 80.9563C41.0605 82.1841 42.0285 83.1489 43.2606 83.1489C60.6416 83.1489 77.3186 83.1489 94.7436 83.1489C95.9756 83.1489 96.9437 82.1841 96.9437 80.9563C96.9437 64.8185 96.9437 36.0513 96.9437 21.1414" stroke="#2D346A" stroke-width="1.5" stroke-miterlimit="10" stroke-linecap="round" stroke-linejoin="round"/>
<rect x="49.3936" y="9.83423" width="39.4489" height="40.2884" rx="4" fill="#005D33" stroke="white" stroke-width="1.5"/>
<path d="M81.6172 4.21436V15.5823C81.6172 18.2125 83.7485 20.3078 86.4239 20.3078H96.9442L81.6172 4.21436Z" fill="#DADADA" stroke="#2D346A" stroke-width="1.5" stroke-miterlimit="10" stroke-linecap="round" stroke-linejoin="round"/>
<line x1="70.1982" y1="11.6443" x2="70.1982" y2="45.6443" stroke="white" stroke-width="1.5"/>
<line x1="65.123" y1="15.9609" x2="65.123" y2="35.752" stroke="white" stroke-width="1.5"/>
<line y1="-0.75" x2="6.08953" y2="-0.75" transform="matrix(0.852143 0.52331 -0.651847 0.75835 64.373 17.8408)" stroke="white" stroke-width="1.5"/>
<line y1="-0.75" x2="6.08953" y2="-0.75" transform="matrix(0.852143 0.52331 -0.651847 0.75835 64.373 21.4329)" stroke="white" stroke-width="1.5"/>
<line y1="-0.75" x2="6.08953" y2="-0.75" transform="matrix(0.852143 0.52331 -0.651847 0.75835 64.373 25.0276)" stroke="white" stroke-width="1.5"/>
<line y1="-0.75" x2="6.08953" y2="-0.75" transform="matrix(0.852143 0.52331 -0.651847 0.75835 64.373 28.626)" stroke="white" stroke-width="1.5"/>
<line y1="-0.75" x2="6.08953" y2="-0.75" transform="matrix(0.852143 0.52331 -0.651847 0.75835 64.373 32.2181)" stroke="white" stroke-width="1.5"/>
<line y1="-0.75" x2="6.08953" y2="-0.75" transform="matrix(0.852143 0.52331 -0.651847 0.75835 64.373 35.8112)" stroke="white" stroke-width="1.5"/>
<line y1="-0.75" x2="5.83581" y2="-0.75" transform="matrix(-0.852143 0.52331 0.651847 0.75835 75.1816 35.7476)" stroke="white" stroke-width="1.5"/>
<path d="M73.4616 16.2183H72.7188V12.6128H73.4616V16.2183Z" fill="white"/>
<path d="M73.4616 20.026V21.2963H72.7188V17.6908H74.1253C74.396 17.6908 74.6338 17.7403 74.8385 17.8394C75.0448 17.9384 75.2033 18.0796 75.3139 18.2628C75.4245 18.4444 75.4798 18.6516 75.4798 18.8844C75.4798 19.2377 75.3585 19.5167 75.1158 19.7214C74.8748 19.9244 74.5405 20.026 74.1129 20.026H73.4616ZM73.4616 19.4242H74.1253C74.3217 19.4242 74.4712 19.378 74.5735 19.2855C74.6775 19.1931 74.7295 19.061 74.7295 18.8893C74.7295 18.7127 74.6775 18.5699 74.5735 18.4609C74.4695 18.352 74.3259 18.2958 74.1426 18.2925H73.4616V19.4242Z" fill="white"/>
<path d="M73.4616 25.6552V26.9256H72.7188V23.3201H74.1253C74.396 23.3201 74.6338 23.3696 74.8385 23.4686C75.0448 23.5677 75.2033 23.7089 75.3139 23.8921C75.4245 24.0737 75.4798 24.2809 75.4798 24.5137C75.4798 24.8669 75.3585 25.1459 75.1158 25.3507C74.8748 25.5537 74.5405 25.6552 74.1129 25.6552H73.4616ZM73.4616 25.0535H74.1253C74.3217 25.0535 74.4712 25.0073 74.5735 24.9148C74.6775 24.8224 74.7295 24.6903 74.7295 24.5186C74.7295 24.342 74.6775 24.1992 74.5735 24.0902C74.4695 23.9812 74.3259 23.9251 74.1426 23.9218H73.4616V25.0535Z" fill="white"/>
<path d="M75.6581 31.3622C75.6301 31.7502 75.4864 32.0556 75.2273 32.2785C74.9697 32.5013 74.6296 32.6128 74.207 32.6128C73.7448 32.6128 73.3808 32.4576 73.115 32.1472C72.8508 31.8352 72.7188 31.4076 72.7188 30.8645V30.6441C72.7188 30.2974 72.7798 29.992 72.902 29.7279C73.0242 29.4637 73.1983 29.2615 73.4245 29.1212C73.6523 28.9792 73.9165 28.9082 74.2169 28.9082C74.6329 28.9082 74.9681 29.0196 75.2223 29.2425C75.4765 29.4654 75.6235 29.7782 75.6631 30.181H74.9202C74.902 29.9483 74.8368 29.7799 74.7246 29.6759C74.614 29.5702 74.4447 29.5174 74.2169 29.5174C73.9693 29.5174 73.7836 29.6065 73.6597 29.7848C73.5376 29.9615 73.4749 30.2363 73.4715 30.6094V30.8818C73.4715 31.2714 73.5302 31.5562 73.6474 31.7362C73.7662 31.9161 73.9528 32.0061 74.207 32.0061C74.4365 32.0061 74.6074 31.9541 74.7196 31.8501C74.8335 31.7444 74.8987 31.5818 74.9152 31.3622H75.6581Z" fill="white"/>
<path d="M51.1335 66.6254H49.3936V57.6395H51.1335V66.6254Z" fill="#005D33"/>
<path d="M57.1307 64.2679C57.1307 63.9181 57.0147 63.6507 56.7827 63.4656C56.5507 63.2763 56.1331 63.0788 55.5299 62.8731C54.9267 62.6632 54.4492 62.4575 54.0973 62.2559C53.1384 61.7046 52.6589 60.9619 52.6589 60.028C52.6589 59.5425 52.7865 59.1104 53.0417 58.7319C53.3008 58.3493 53.6701 58.051 54.1495 57.837C54.6329 57.6231 55.1742 57.5161 55.7735 57.5161C56.3767 57.5161 56.9142 57.6334 57.3859 57.8679C57.8576 58.0983 58.223 58.4254 58.4821 58.8492C58.745 59.273 58.8765 59.7544 58.8765 60.2933H57.1365C57.1365 59.8819 57.0147 59.563 56.7711 59.3367C56.5275 59.1063 56.1853 58.9911 55.7445 58.9911C55.3192 58.9911 54.9886 59.0878 54.7527 59.2812C54.5169 59.4705 54.3989 59.7214 54.3989 60.0341C54.3989 60.3263 54.5362 60.5711 54.8107 60.7686C55.0891 60.9661 55.4971 61.1512 56.0345 61.324C57.0244 61.6408 57.7455 62.0337 58.1979 62.5028C58.6503 62.9718 58.8765 63.5561 58.8765 64.2555C58.8765 65.0332 58.6 65.6441 58.0471 66.0885C57.4942 66.5287 56.7498 66.7489 55.8141 66.7489C55.1645 66.7489 54.5729 66.6234 54.0393 66.3724C53.5057 66.1173 53.0978 65.7696 52.8155 65.3294C52.5371 64.8891 52.3979 64.379 52.3979 63.7988H54.1437C54.1437 64.7904 54.7005 65.2862 55.8141 65.2862C56.2278 65.2862 56.5507 65.1977 56.7827 65.0208C57.0147 64.8398 57.1307 64.5888 57.1307 64.2679Z" fill="#005D33"/>
<path d="M61.7997 63.4594V66.6254H60.0597V57.6395H63.3541C63.9882 57.6395 64.545 57.763 65.0245 58.0098C65.5078 58.2567 65.879 58.6085 66.1381 59.0652C66.3971 59.5178 66.5266 60.0341 66.5266 60.6143C66.5266 61.4948 66.2425 62.1901 65.6741 62.7003C65.1095 63.2063 64.3265 63.4594 63.3251 63.4594H61.7997ZM61.7997 61.9597H63.3541C63.8142 61.9597 64.1641 61.8445 64.4039 61.6141C64.6475 61.3837 64.7693 61.0545 64.7693 60.6266C64.7693 60.1864 64.6475 59.8305 64.4039 59.5589C64.1603 59.2874 63.8239 59.1475 63.3947 59.1393H61.7997V61.9597Z" fill="#005D33"/>
<path d="M70.0008 57.6395L72.17 64.1568L74.3276 57.6395H76.6128V66.6254H74.867V64.1691L75.041 59.9292L72.7616 66.6254H71.5668L69.2932 59.9354L69.4672 64.1691V66.6254H67.7272V57.6395H70.0008Z" fill="#005D33"/>
<path d="M82.0242 66.6254H80.348V59.7502L78.347 60.4106V58.9603L81.8444 57.6272H82.0242V66.6254Z" fill="#005D33"/>
<path d="M85.0227 62.2065L85.5099 57.6395H90.2427V59.1269H86.8845L86.6757 61.0586C87.074 60.8323 87.4974 60.7192 87.9459 60.7192C88.7502 60.7192 89.3804 60.9846 89.8367 61.5153C90.293 62.0461 90.5211 62.7887 90.5211 63.7433C90.5211 64.3234 90.4051 64.8439 90.1731 65.3047C89.945 65.7614 89.6163 66.1173 89.1871 66.3724C88.7579 66.6234 88.2514 66.7489 87.6675 66.7489C87.1571 66.7489 86.6835 66.6398 86.2465 66.4218C85.8096 66.1996 85.4635 65.8889 85.2083 65.4899C84.957 65.0908 84.8236 64.6361 84.8081 64.1259H86.4669C86.5017 64.5003 86.6235 64.7925 86.8323 65.0023C87.045 65.208 87.3215 65.3109 87.6617 65.3109C88.0406 65.3109 88.3326 65.1669 88.5375 64.8789C88.7424 64.5867 88.8449 64.1753 88.8449 63.6445C88.8449 63.1343 88.727 62.7435 88.4911 62.4719C88.2552 62.2004 87.9208 62.0646 87.4877 62.0646C87.0895 62.0646 86.7666 62.1757 86.5191 62.3979L86.3567 62.5583L85.0227 62.2065Z" fill="#005D33"/>
<path d="M55.4038 76.0806C55.3464 76.8311 55.0527 77.4218 54.5228 77.853C53.9962 78.2841 53.3008 78.4996 52.4367 78.4996C51.4915 78.4996 50.7472 78.1994 50.2037 77.5991C49.6636 76.9955 49.3936 76.1684 49.3936 75.1178V74.6915C49.3936 74.0208 49.5185 73.43 49.7682 72.9191C50.018 72.4081 50.3742 72.017 50.8366 71.7455C51.3025 71.4709 51.8425 71.3336 52.4569 71.3336C53.3076 71.3336 53.9928 71.5491 54.5126 71.9802C55.0325 72.4113 55.3329 73.0165 55.4139 73.7957H53.8949C53.8578 73.3454 53.7244 73.0197 53.4949 72.8185C53.2687 72.6141 52.9227 72.5119 52.4569 72.5119C51.9506 72.5119 51.5708 72.6844 51.3176 73.0293C51.0678 73.371 50.9396 73.9027 50.9328 74.6244V75.1513C50.9328 75.905 51.0527 76.4558 51.2923 76.8039C51.5354 77.152 51.9168 77.326 52.4367 77.326C52.9059 77.326 53.2552 77.2254 53.4848 77.0243C53.7177 76.8199 53.851 76.5053 53.8848 76.0806H55.4038Z" fill="#005D33"/>
<path d="M58.8267 78.4996C58.0233 78.4996 57.3684 78.2665 56.8621 77.8003C56.3591 77.334 56.1076 76.7129 56.1076 75.9369V75.8028C56.1076 75.2822 56.2139 74.8176 56.4266 74.4088C56.6393 73.9969 56.9397 73.6807 57.3279 73.4604C57.7195 73.2368 58.165 73.1251 58.6646 73.1251C59.414 73.1251 60.003 73.3486 60.4317 73.7957C60.8638 74.2428 61.0799 74.8767 61.0799 75.6974V76.2626H57.5912C57.6384 76.6011 57.7802 76.8726 58.0165 77.0769C58.2562 77.2813 58.5583 77.3835 58.9229 77.3835C59.4866 77.3835 59.9271 77.1903 60.2444 76.8039L60.9634 77.5655C60.744 77.8593 60.4469 78.0893 60.0722 78.2553C59.6976 78.4182 59.2824 78.4996 58.8267 78.4996ZM58.6596 74.246C58.3693 74.246 58.133 74.3386 57.9507 74.5238C57.7718 74.709 57.657 74.9741 57.6064 75.319H59.6419V75.2088C59.6351 74.9022 59.5473 74.6659 59.3786 74.4998C59.2098 74.3306 58.9701 74.246 58.6596 74.246Z" fill="#005D33"/>
<path d="M64.9939 74.519C64.7947 74.4935 64.6192 74.4807 64.4673 74.4807C63.9137 74.4807 63.5508 74.6579 63.3786 75.0124V78.4038H61.9153V73.2209H63.2976L63.3381 73.8388C63.6318 73.363 64.0386 73.1251 64.5584 73.1251C64.7204 73.1251 64.8723 73.1458 65.0141 73.1873L64.9939 74.519Z" fill="#005D33"/>
<path d="M67.7078 71.9467V73.2209H68.6446V74.2364H67.7078V76.8231C67.7078 77.0147 67.7467 77.152 67.8243 77.235C67.9019 77.3181 68.0505 77.3596 68.2699 77.3596C68.4319 77.3596 68.5754 77.3484 68.7003 77.326V78.3751C68.4133 78.4581 68.118 78.4996 67.8142 78.4996C66.788 78.4996 66.2648 78.0094 66.2445 77.029V74.2364H65.4445V73.2209H66.2445V71.9467H67.7078Z" fill="#005D33"/>
<path d="M71.0041 78.4038H69.5357V73.2209H71.0041V78.4038ZM69.4496 71.8796C69.4496 71.6721 69.5222 71.5012 69.6674 71.3671C69.8159 71.233 70.0167 71.1659 70.2699 71.1659C70.5197 71.1659 70.7189 71.233 70.8674 71.3671C71.0159 71.5012 71.0902 71.6721 71.0902 71.8796C71.0902 72.0904 71.0142 72.2628 70.8623 72.397C70.7138 72.5311 70.5163 72.5982 70.2699 72.5982C70.0235 72.5982 69.8243 72.5311 69.6724 72.397C69.5239 72.2628 69.4496 72.0904 69.4496 71.8796Z" fill="#005D33"/>
<path d="M72.5687 78.4038V74.2364H71.7535V73.2209H72.5687V72.9814C72.5754 72.3299 72.7864 71.8285 73.2016 71.4773C73.6202 71.1228 74.2092 70.9456 74.9687 70.9456C75.4244 70.9456 75.978 71.0398 76.6295 71.2282L76.4169 72.373C76.0861 72.2804 75.8295 72.2213 75.6472 72.1958C75.465 72.167 75.2692 72.1527 75.0599 72.1527C74.378 72.1527 74.0371 72.4385 74.0371 73.0101V73.2209H75.1156V74.2364H74.0371V78.4038H72.5687ZM77.3131 78.4038H75.8447V73.2209H77.3131V78.4038Z" fill="#005D33"/>
<path d="M81.0448 78.4996C80.2414 78.4996 79.5865 78.2665 79.0802 77.8003C78.5772 77.334 78.3258 76.7129 78.3258 75.9369V75.8028C78.3258 75.2822 78.4321 74.8176 78.6448 74.4088C78.8574 73.9969 79.1579 73.6807 79.546 73.4604C79.9376 73.2368 80.3832 73.1251 80.8828 73.1251C81.6322 73.1251 82.2212 73.3486 82.6499 73.7957C83.082 74.2428 83.298 74.8767 83.298 75.6974V76.2626H79.8093C79.8566 76.6011 79.9984 76.8726 80.2347 77.0769C80.4743 77.2813 80.7764 77.3835 81.141 77.3835C81.7047 77.3835 82.1452 77.1903 82.4626 76.8039L83.1816 77.5655C82.9621 77.8593 82.6651 78.0893 82.2904 78.2553C81.9157 78.4182 81.5005 78.4996 81.0448 78.4996ZM80.8777 74.246C80.5874 74.246 80.3511 74.3386 80.1688 74.5238C79.9899 74.709 79.8752 74.9741 79.8245 75.319H81.86V75.2088C81.8533 74.9022 81.7655 74.6659 81.5967 74.4998C81.4279 74.3306 81.1883 74.246 80.8777 74.246Z" fill="#005D33"/>
<path d="M83.9056 75.774C83.9056 74.9661 84.0963 74.3226 84.4778 73.8436C84.8626 73.3646 85.3875 73.1251 86.0525 73.1251C86.5858 73.1251 87.0264 73.3135 87.374 73.6903V71.0461H88.8424V78.4038H87.5209L87.45 77.853C87.0854 78.2841 86.6162 78.4996 86.0424 78.4996C85.3976 78.4996 84.8795 78.2601 84.4879 77.7811C84.0997 77.2989 83.9056 76.6299 83.9056 75.774ZM85.3689 75.8746C85.3689 76.36 85.4584 76.7321 85.6373 76.9907C85.8162 77.2494 86.0761 77.3787 86.4171 77.3787C86.8694 77.3787 87.1884 77.1983 87.374 76.8374V74.792C87.1918 74.4312 86.8761 74.2508 86.4272 74.2508C85.7217 74.2508 85.3689 74.792 85.3689 75.8746Z" fill="#005D33"/>
<path d="M33 105.149H117" stroke="#2D346A" stroke-width="2" stroke-miterlimit="10" stroke-linecap="round"/>
<path d="M144.4 8.69624C144.4 8.19624 144.2 5.89624 141.6 5.89624C141.1 5.89624 140.7 5.49624 140.7 4.99624C140.7 4.49624 141.1 4.09624 141.6 4.09624C142.1 4.09624 144.4 3.89624 144.4 1.29624C144.4 0.79624 144.8 0.39624 145.3 0.39624C145.8 0.39624 146.2 0.79624 146.2 1.29624C146.2 3.89624 148.5 4.09624 149 4.09624C149.5 4.09624 149.9 4.49624 149.9 4.99624C149.9 5.49624 149.5 5.89624 149 5.89624C146.4 5.89624 146.2 8.19624 146.2 8.69624C146.2 9.19624 145.8 9.59624 145.3 9.59624C144.8 9.59624 144.4 9.19624 144.4 8.69624Z" fill="#A92023"/>
<path d="M27.9 51.7968C27.9 51.5968 27.8 50.3968 26.5 50.3968C26.2 50.3968 26 50.1968 26 49.8968C26 49.5968 26.2 49.3968 26.5 49.3968C26.7 49.3968 27.9 49.2968 27.9 47.9968C27.9 47.6968 28.1 47.4968 28.4 47.4968C28.7 47.4968 28.9 47.6968 28.9 47.9968C28.9 49.2968 30.1 49.3968 30.3 49.3968C30.6 49.3968 30.8 49.5968 30.8 49.8968C30.8 50.1968 30.6 50.3968 30.3 50.3968C29 50.3968 28.9 51.5968 28.9 51.7968C28.9 52.0968 28.7 52.2968 28.4 52.2968C28.1 52.1968 27.9 51.9968 27.9 51.7968Z" fill="#A92023"/>
<path d="M14.8004 8.49605C14.8004 8.29605 14.7004 7.09605 13.4004 7.09605C13.1004 7.09605 12.9004 6.89605 12.9004 6.59605C12.9004 6.29605 13.1004 6.09605 13.4004 6.09605C13.6004 6.09605 14.8004 5.99604 14.8004 4.69604C14.8004 4.39604 15.0004 4.19604 15.3004 4.19604C15.6004 4.19604 15.8004 4.39604 15.8004 4.69604C15.8004 5.99604 17.0004 6.09605 17.2004 6.09605C17.5004 6.09605 17.7004 6.29605 17.7004 6.59605C17.7004 6.89605 17.5004 7.09605 17.2004 7.09605C15.9004 7.09605 15.8004 8.29605 15.8004 8.49605C15.8004 8.79605 15.6004 8.99605 15.3004 8.99605C15.0004 8.99605 14.8004 8.69604 14.8004 8.49605Z" fill="#A92023"/>
<path d="M3.8 82.097C3.8 81.597 3.6 79.297 1 79.297C0.4 79.297 0 78.797 0 78.297C0 77.797 0.4 77.397 0.9 77.397C1.4 77.397 3.7 77.197 3.7 74.597C3.7 74.097 4.1 73.697 4.6 73.697C5.1 73.697 5.5 74.097 5.5 74.597C5.5 77.197 7.8 77.397 8.3 77.397C8.8 77.397 9.2 77.797 9.2 78.297C9.2 78.797 8.8 79.197 8.3 79.197C5.7 79.197 5.5 81.497 5.5 81.997C5.5 82.497 5.1 82.897 4.6 82.897C4.2 82.997 3.8 82.597 3.8 82.097Z" fill="#A92023"/>
<path d="M139 86.8964C139 86.6964 138.9 85.4964 137.6 85.4964C137.3 85.4964 137.1 85.2964 137.1 84.9964C137.1 84.6964 137.3 84.4964 137.6 84.4964C137.8 84.4964 139 84.3964 139 83.0964C139 82.7964 139.2 82.5964 139.5 82.5964C139.8 82.5964 140 82.7964 140 83.0964C140 84.3964 141.2 84.4964 141.4 84.4964C141.7 84.4964 141.9 84.6964 141.9 84.9964C141.9 85.2964 141.7 85.4964 141.4 85.4964C140.1 85.4964 140 86.6964 140 86.8964C140 87.1964 139.8 87.3964 139.5 87.3964C139.2 87.2964 139 87.0964 139 86.8964Z" fill="#A92023"/>
</g>
<defs>
<clipPath id="clip0_1583_664">
<rect width="150" height="106" fill="white" transform="translate(0 0.148926)"/>
</clipPath>
</defs>
</svg>
