<svg width="150" height="107" viewBox="0 0 150 107" fill="none" xmlns="http://www.w3.org/2000/svg">
<g clip-path="url(#clip0_1583_1605)">
<path d="M111.457 44.1311C113.71 34.1801 113.71 24.2291 113.71 15.9679C113.71 15.2169 113.147 14.6537 112.396 14.6537C102.633 14.372 81.4166 6.67409 76.3472 1.60472C75.784 1.13534 74.9391 1.13534 74.4697 1.60472C72.686 3.38839 68.5554 5.73532 63.1106 8.08225L55.2249 10.9924C48.4657 13.2455 42.2698 14.5598 38.327 14.6537C37.576 14.6537 37.0127 15.2169 37.0127 15.9679C37.0127 44.5066 41.5188 75.7677 74.7513 91.2574C75.1268 91.4452 75.5023 91.4452 75.8778 91.2574C81.6044 88.7227 86.9554 85.2493 91.5553 81.1187C95.3104 77.7391 98.5961 73.7963 101.037 69.4779C101.225 69.384 107.984 59.2453 111.457 44.1311Z" fill="#DADADA"/>
<path d="M104.699 44.5063C106.576 36.4328 106.576 28.3594 106.576 21.6003C106.576 21.037 106.107 20.5676 105.544 20.5676C97.5642 20.3799 80.2908 14.0901 76.2541 9.95949C75.7847 9.58398 75.1275 9.58398 74.752 9.95949C73.3439 11.4615 69.9643 13.3391 65.5521 15.2166L59.1684 17.5635C53.6297 19.3472 48.6542 20.4737 45.4623 20.5676C44.8991 20.5676 44.4297 21.037 44.4297 21.6003C44.4297 44.7879 48.0909 70.2286 75.1275 82.7143C75.4092 82.8082 75.7847 82.8082 76.0663 82.7143C80.7602 80.649 85.0785 77.8327 88.8336 74.4531C91.9315 71.7307 94.5601 68.5388 96.5315 64.9715C96.3438 64.9715 101.883 56.8042 104.699 44.5063Z" fill="#005D33"/>
<mask id="path-3-inside-1_1583_1605" fill="white">
<path d="M101.975 18.2203C96.9057 16.906 92.0241 15.3101 87.2364 13.4326C86.4853 13.0571 102.632 18.4081 101.975 18.2203Z"/>
</mask>
<path d="M101.975 18.2203L102.387 16.778L102.369 16.773L102.352 16.7683L101.975 18.2203ZM87.2364 13.4326L86.5655 14.7742L86.6259 14.8044L86.6887 14.829L87.2364 13.4326ZM102.352 16.7683C97.3419 15.4695 92.5174 13.8924 87.784 12.0361L86.6887 14.829C91.5308 16.7279 96.4695 18.3425 101.599 19.6723L102.352 16.7683ZM87.9072 12.0909C87.9187 12.0967 87.9457 12.1104 87.9805 12.1308C88.0013 12.1431 88.0911 12.1953 88.1928 12.283C88.2397 12.3235 88.3534 12.4253 88.4605 12.5865C88.5501 12.7212 88.7956 13.1384 88.6821 13.7085C88.555 14.3463 88.0932 14.6556 87.8594 14.7675C87.6359 14.8744 87.4414 14.8982 87.3712 14.9056C87.213 14.9222 87.0899 14.9083 87.0661 14.9058C87.021 14.9011 86.9873 14.8952 86.973 14.8927C86.9435 14.8873 86.9271 14.8831 86.9339 14.8848C86.9665 14.8926 87.0653 14.9198 87.2517 14.9755C87.6058 15.0812 88.161 15.255 88.859 15.4777C90.2508 15.9217 92.1734 16.5479 94.1027 17.1812C96.0311 17.8143 97.9624 18.4531 99.3699 18.9218C100.074 19.1563 100.645 19.3475 101.019 19.474C101.207 19.5378 101.34 19.583 101.413 19.6087C101.465 19.627 101.452 19.6231 101.42 19.6103C101.413 19.6071 101.396 19.6003 101.375 19.5909C101.366 19.5866 101.307 19.5603 101.235 19.5185C101.19 19.491 101.062 19.4001 100.983 19.3328C100.804 19.1377 100.495 18.2007 100.685 17.4931C101.051 17.0588 101.737 16.7473 101.926 16.7267C102.008 16.7252 102.134 16.7317 102.179 16.7365C102.25 16.7455 102.305 16.7579 102.316 16.7603C102.337 16.7649 102.353 16.7689 102.361 16.7709C102.376 16.7749 102.387 16.7779 102.387 16.778L101.563 19.6626C101.574 19.6657 101.592 19.671 101.614 19.6765C101.625 19.6793 101.643 19.6839 101.666 19.689C101.679 19.6919 101.736 19.7046 101.809 19.7137C101.854 19.7186 101.98 19.7251 102.062 19.7236C102.252 19.7029 102.938 19.3914 103.304 18.9571C103.494 18.2494 103.185 17.3122 103.006 17.1169C102.926 17.0495 102.798 16.9584 102.753 16.9305C102.681 16.8883 102.62 16.8613 102.609 16.8562C102.586 16.8459 102.567 16.8381 102.557 16.8338C102.503 16.8117 102.436 16.7885 102.407 16.7781C102.316 16.7462 102.169 16.6961 101.98 16.6322C101.6 16.5034 101.023 16.3104 100.318 16.0755C98.9059 15.6054 96.9706 14.9652 95.0383 14.3309C93.1069 13.6968 91.1747 13.0675 89.7707 12.6196C89.0709 12.3964 88.4929 12.2152 88.1102 12.1009C87.9284 12.0466 87.7578 11.9975 87.6367 11.9683C87.6051 11.9607 87.5575 11.9497 87.5043 11.9401C87.4782 11.9354 87.4344 11.928 87.3813 11.9224C87.3494 11.9191 87.2201 11.905 87.0577 11.922C86.9853 11.9296 86.7892 11.9538 86.5645 12.0613C86.3296 12.1737 85.8671 12.4837 85.7399 13.1225C85.6261 13.6935 85.872 14.1116 85.9623 14.2476C86.0703 14.41 86.1853 14.5132 86.234 14.5552C86.3393 14.646 86.4347 14.7021 86.4632 14.7188C86.5056 14.7437 86.5423 14.7626 86.5655 14.7742L87.9072 12.0909Z" fill="#333366" mask="url(#path-3-inside-1_1583_1605)"/>
<mask id="path-5-inside-2_1583_1605" fill="white">
<path d="M103.478 68.0695C104.322 66.6613 105.167 65.1593 105.918 63.6572L103.478 68.0695Z"/>
</mask>
<path d="M104.764 68.8412C105.623 67.4094 106.488 65.8729 107.26 64.328L104.577 62.9864C103.847 64.4456 103.022 65.9132 102.191 67.2977L104.764 68.8412Z" fill="#333366" mask="url(#path-5-inside-2_1583_1605)"/>
<mask id="path-7-inside-3_1583_1605" fill="white">
<path d="M108.641 56.9916C113.898 42.8161 114.555 27.2325 114.555 15.3101C114.555 14.5591 113.992 13.9958 113.241 13.9958C103.196 13.7142 81.5107 5.8285 76.3474 0.571373C75.7842 0.00811 74.9393 0.00811 74.376 0.571373C72.5923 2.44892 68.3679 4.79585 62.8291 7.14278"/>
</mask>
<path d="M113.241 13.9958L113.199 15.4952L113.22 15.4958H113.241V13.9958ZM76.3474 0.571373L77.4176 -0.479732L77.4081 -0.489287L76.3474 0.571373ZM74.376 0.571373L73.3153 -0.489287L73.3017 -0.475691L73.2885 -0.461751L74.376 0.571373ZM110.048 57.5131C115.403 43.0715 116.055 27.2593 116.055 15.3101H113.055C113.055 27.2057 112.393 42.5607 107.235 56.47L110.048 57.5131ZM116.055 15.3101C116.055 13.7307 114.821 12.4958 113.241 12.4958V15.4958C113.241 15.4958 113.24 15.4958 113.238 15.4956C113.236 15.4954 113.233 15.495 113.229 15.4942C113.221 15.4927 113.21 15.4898 113.197 15.4847C113.172 15.4742 113.144 15.4568 113.119 15.432C113.094 15.4071 113.077 15.3795 113.067 15.3538C113.061 15.3414 113.059 15.3307 113.057 15.3226C113.056 15.3187 113.056 15.3155 113.056 15.3134C113.055 15.3112 113.055 15.31 113.055 15.3101H116.055ZM113.283 12.4964C108.508 12.3625 100.76 10.3895 93.4765 7.73978C89.8583 6.42355 86.4077 4.9595 83.5577 3.51015C80.6676 2.0404 78.5287 0.651625 77.4176 -0.479689L75.2772 1.62244C76.7478 3.11968 79.2557 4.68803 82.1978 6.18422C85.1799 7.7008 88.7466 9.21148 92.4509 10.559C99.812 13.2369 107.929 15.3475 113.199 15.4952L113.283 12.4964ZM77.4081 -0.489287C76.259 -1.63834 74.4644 -1.63834 73.3153 -0.489287L75.4367 1.63203C75.4439 1.62478 75.4408 1.63012 75.4245 1.63699C75.4086 1.64371 75.3868 1.64893 75.3617 1.64893C75.3366 1.64893 75.3148 1.64371 75.2989 1.63699C75.2826 1.63012 75.2795 1.62478 75.2868 1.63203L77.4081 -0.489287ZM73.2885 -0.461751C72.5525 0.312931 71.2067 1.28155 69.2724 2.37536C67.3647 3.4541 64.9783 4.60298 62.2439 5.76165L63.4143 8.5239C66.2186 7.33564 68.7139 6.13759 70.749 4.98675C72.7576 3.85097 74.4158 2.70736 75.4635 1.6045L73.2885 -0.461751Z" fill="#333366" mask="url(#path-7-inside-3_1583_1605)"/>
<mask id="path-9-inside-4_1583_1605" fill="white">
<path d="M54.8494 10.1472C47.9025 12.4003 41.6127 13.8084 37.576 13.9023C36.825 13.9023 36.2617 14.5594 36.2617 15.2166C36.2617 44.3185 40.8617 76.2368 74.8452 92.0081C75.2207 92.1959 75.5963 92.1959 75.9718 92.0081C84.7962 88.0653 92.6819 82.0571 98.7839 74.547"/>
</mask>
<path d="M37.576 13.9023V15.4023H37.5934L37.6109 15.4019L37.576 13.9023ZM74.8452 92.0081L75.5161 90.6665L75.4965 90.6567L75.4767 90.6475L74.8452 92.0081ZM75.9718 92.0081L75.3599 90.6386L75.3301 90.6519L75.3009 90.6665L75.9718 92.0081ZM54.3866 8.72038C47.4725 10.9628 41.3524 12.3141 37.5411 12.4027L37.6109 15.4019C41.8731 15.3028 48.3325 13.8377 55.3122 11.5741L54.3866 8.72038ZM37.576 12.4023C35.9284 12.4023 34.7617 13.8008 34.7617 15.2166H37.7617C37.7617 15.2659 37.7515 15.2981 37.7449 15.3137C37.7384 15.3293 37.7311 15.3394 37.7234 15.3475C37.7074 15.3644 37.6557 15.4023 37.576 15.4023V12.4023ZM34.7617 15.2166C34.7617 44.3874 39.3547 77.1911 74.2138 93.3687L75.4767 90.6475C42.3687 75.2824 37.7617 44.2496 37.7617 15.2166H34.7617ZM74.1744 93.3498C74.9722 93.7487 75.8448 93.7487 76.6426 93.3498L75.3009 90.6665C75.2966 90.6686 75.3371 90.6489 75.4085 90.6489C75.4799 90.6489 75.5204 90.6686 75.5161 90.6665L74.1744 93.3498ZM76.5837 93.3776C85.6199 89.3402 93.6957 83.1881 99.9481 75.4929L97.6198 73.6011C91.6681 80.9261 83.9726 86.7904 75.3599 90.6386L76.5837 93.3776Z" fill="#333366" mask="url(#path-9-inside-4_1583_1605)"/>
<path d="M89.3936 48.649C85.4573 48.649 82.2549 51.8638 82.2549 55.8153C82.6474 65.3225 96.1411 65.3197 96.5322 55.8153C96.5321 51.8638 93.3297 48.649 89.3936 48.649ZM89.3936 60.5868C86.7778 60.5868 84.6497 58.4463 84.6497 55.8153C84.9107 49.4853 93.8773 49.487 94.1373 55.8153C94.1372 58.4463 92.0092 60.5868 89.3936 60.5868Z" fill="white"/>
<path d="M74.251 51.0439C75.6346 51.0439 76.9462 51.6498 77.8494 52.7061C78.2793 53.2088 79.0352 53.2678 79.5377 52.838C80.0403 52.4083 80.0993 51.6524 79.6695 51.1498C75.3839 46.1289 67.1113 49.2113 67.1123 55.8155C67.0969 62.1472 74.8519 65.3842 79.3006 60.8807C79.7672 60.412 79.7653 59.6539 79.2967 59.1873C78.828 58.7208 78.0698 58.7227 77.6033 59.1913C74.6422 62.1866 69.4966 60.0266 69.5071 55.8153C69.5072 53.1843 71.6353 51.0439 74.251 51.0439Z" fill="white"/>
<path d="M64.1377 51.0439C65.7264 50.9806 65.7252 48.7117 64.1377 48.649H56.8918C56.2305 48.649 55.6943 49.1852 55.6943 49.8465V61.7842C55.6943 62.4455 56.2305 62.9816 56.8918 62.9816H64.1377C65.7264 62.9183 65.7252 60.6494 64.1377 60.5868H58.0892V57.0384H62.147C63.7358 56.9751 63.7346 54.7062 62.147 54.6435H58.0892V51.0439H64.1377Z" fill="white"/>
<path d="M75.2445 41.7105L84.6311 32.3241C85.1628 31.7922 86.025 31.7922 86.5567 32.3241C87.0886 32.8558 87.0886 33.7179 86.5567 34.2497L77.1697 43.6366H82.4796C87.8022 43.6366 92.117 39.3218 92.117 33.9991V28.1022C92.117 27.3629 91.5178 26.7637 90.7786 26.7637H84.8817C79.559 26.7637 75.2441 31.0786 75.2441 36.4012V39.4901C75.2441 39.5018 75.2446 39.5133 75.2446 39.5251V41.7105H75.2445Z" fill="white"/>
<path d="M63.9855 37.0262C62.7587 35.6979 64.5843 33.8745 65.9111 35.1006L72.5216 41.7111V39.4906C72.5027 35.0312 71.377 31.4091 64.4056 31.4091H61.6324C60.8932 31.4091 60.2939 32.0083 60.2939 32.7475V37.6324C60.2939 40.9487 62.9823 43.6371 66.2987 43.6371H70.5965L63.9855 37.0262Z" fill="white"/>
<path d="M144.662 13.3483C144.662 12.8483 144.462 10.5483 141.862 10.5483C141.362 10.5483 140.962 10.1483 140.962 9.64834C140.962 9.14834 141.362 8.74834 141.862 8.74834C142.362 8.74834 144.662 8.54834 144.662 5.94834C144.662 5.44834 145.062 5.04834 145.562 5.04834C146.062 5.04834 146.462 5.44834 146.462 5.94834C146.462 8.54834 148.762 8.74834 149.262 8.74834C149.762 8.74834 150.162 9.14834 150.162 9.64834C150.162 10.1483 149.762 10.5483 149.262 10.5483C146.662 10.5483 146.462 12.8483 146.462 13.3483C146.462 13.8483 146.062 14.2483 145.562 14.2483C145.062 14.2483 144.662 13.8483 144.662 13.3483Z" fill="#A92023"/>
<path d="M99.1617 4.44893C99.1617 4.24893 99.0617 3.04893 97.7617 3.04893C97.4617 3.04893 97.2617 2.84893 97.2617 2.54893C97.2617 2.24893 97.4617 2.04893 97.7617 2.04893C97.9617 2.04893 99.1617 1.94893 99.1617 0.648926C99.1617 0.348926 99.3617 0.148926 99.6617 0.148926C99.9617 0.148926 100.162 0.348926 100.162 0.648926C100.162 1.94893 101.362 2.04893 101.562 2.04893C101.862 2.04893 102.062 2.24893 102.062 2.54893C102.062 2.84893 101.862 3.04893 101.562 3.04893C100.262 3.04893 100.162 4.24893 100.162 4.44893C100.162 4.74893 99.9617 4.94893 99.6617 4.94893C99.3617 4.84893 99.1617 4.64893 99.1617 4.44893Z" fill="#A92023"/>
<path d="M15.0621 13.1481C15.0621 12.9481 14.9621 11.7481 13.6621 11.7481C13.3621 11.7481 13.1621 11.5481 13.1621 11.2481C13.1621 10.9481 13.3621 10.7481 13.6621 10.7481C13.8621 10.7481 15.0621 10.6481 15.0621 9.34814C15.0621 9.04814 15.2621 8.84814 15.5621 8.84814C15.8621 8.84814 16.0621 9.04814 16.0621 9.34814C16.0621 10.6481 17.2621 10.7481 17.4621 10.7481C17.7621 10.7481 17.9621 10.9481 17.9621 11.2481C17.9621 11.5481 17.7621 11.7481 17.4621 11.7481C16.1621 11.7481 16.0621 12.9481 16.0621 13.1481C16.0621 13.4481 15.8621 13.6481 15.5621 13.6481C15.2621 13.6481 15.0621 13.3481 15.0621 13.1481Z" fill="#A92023"/>
<path d="M4.06172 86.7491C4.06172 86.2491 3.86172 83.9491 1.26172 83.9491C0.661719 83.9491 0.261719 83.4491 0.261719 82.9491C0.261719 82.4491 0.661719 82.0491 1.16172 82.0491C1.66172 82.0491 3.96172 81.8491 3.96172 79.2491C3.96172 78.7491 4.36172 78.3491 4.86172 78.3491C5.36172 78.3491 5.76172 78.7491 5.76172 79.2491C5.76172 81.8491 8.06172 82.0491 8.56172 82.0491C9.06172 82.0491 9.46172 82.4491 9.46172 82.9491C9.46172 83.4491 9.06172 83.8491 8.56172 83.8491C5.96172 83.8491 5.76172 86.1491 5.76172 86.6491C5.76172 87.1491 5.36172 87.5491 4.86172 87.5491C4.46172 87.6491 4.06172 87.2491 4.06172 86.7491Z" fill="#A92023"/>
<path d="M139.261 91.5485C139.261 91.3485 139.161 90.1485 137.861 90.1485C137.561 90.1485 137.361 89.9485 137.361 89.6485C137.361 89.3485 137.561 89.1485 137.861 89.1485C138.061 89.1485 139.261 89.0485 139.261 87.7485C139.261 87.4485 139.461 87.2485 139.761 87.2485C140.061 87.2485 140.261 87.4485 140.261 87.7485C140.261 89.0485 141.461 89.1485 141.661 89.1485C141.961 89.1485 142.161 89.3485 142.161 89.6485C142.161 89.9485 141.961 90.1485 141.661 90.1485C140.361 90.1485 140.261 91.3485 140.261 91.5485C140.261 91.8485 140.061 92.0485 139.761 92.0485C139.461 91.9485 139.261 91.7485 139.261 91.5485Z" fill="#A92023"/>
<path d="M33.2617 105.149H117.262" stroke="#2D346A" stroke-width="2" stroke-miterlimit="10" stroke-linecap="round"/>
</g>
<defs>
<clipPath id="clip0_1583_1605">
<rect width="149.477" height="106" fill="white" transform="translate(0.261719 0.148926)"/>
</clipPath>
</defs>
</svg>
