<svg width="150" height="106" viewBox="0 0 150 106" fill="none" xmlns="http://www.w3.org/2000/svg">
<g clip-path="url(#clip0_1624_2271)">
<path d="M82.3613 17.0267C84.9042 11.298 85.6714 9.64707 88.5829 3H84.5072L78.9697 15.4593C80.1555 15.8764 81.2902 16.4026 82.3613 17.0267Z" fill="#005D33"/>
<path d="M72.4037 14.3413C73.7029 14.3413 74.9729 14.4675 76.2029 14.7071L81.4061 3H77.2434C75.7871 6.29731 73.8957 10.5793 72.3972 13.9721L67.5402 3H63.4014L68.6045 14.7071C69.8346 14.4675 71.1046 14.3413 72.4037 14.3413Z" fill="#005D33"/>
<path d="M65.835 15.4593L60.2975 3H56.1875L62.4369 17.0307C63.5099 16.4049 64.6469 15.8773 65.835 15.4593Z" fill="#005D33"/>
<path d="M72.4651 95.0001C94.7907 95.0001 112.93 76.8605 112.93 54.5349C112.93 32.2094 94.7907 14.1628 72.4651 14.1628C50.1395 14.1628 32 32.3024 32 54.628C32 76.9535 50.1395 95.0001 72.4651 95.0001Z" fill="#DADADA"/>
<path d="M108.032 35.3581C116.963 51.9163 113.335 72.9395 98.451 85.4977C81.3347 99.8232 55.8464 97.6837 41.5208 80.5674C27.1022 63.4511 29.3347 37.9628 46.358 23.6372C63.4743 9.31161 88.9627 11.4511 103.288 28.5674" stroke="#2D346A" stroke-width="1.5" stroke-miterlimit="10" stroke-linecap="round" stroke-linejoin="round"/>
<path d="M51.8138 77.2327C57.3022 82.349 64.651 85.5118 72.744 85.5118C89.5813 85.5118 103.256 71.8374 103.256 55.0002C103.256 38.163 89.5813 24.3955 72.744 24.3955C55.9068 24.3955 42.2324 38.0699 42.2324 54.9071C42.2324 60.9537 43.9999 66.6281 47.0696 71.3723" fill="#005D33"/>
<path d="M93.335 48.3032L89.8805 42.2073C89.493 41.5237 88.7659 41.1042 87.9865 41.1042H58.107C57.3276 41.1042 56.6006 41.5238 56.2131 42.2073L52.7586 48.3032C52.3071 49.0989 52.4026 50.0914 52.9962 50.7886L71.3905 72.3546C72.2566 73.3685 73.8288 73.3781 74.7031 72.3546L93.0974 50.7886C93.6903 50.092 93.7869 49.0997 93.335 48.3032Z" fill="#DADADA"/>
<path d="M89.8475 43.7643H88.0555C87.596 43.7643 87.3526 43.221 87.6585 42.8782L89.011 41.3623C89.3683 41.5529 89.6716 41.8429 89.8782 42.2073L90.3103 42.97C90.5113 43.3247 90.2551 43.7643 89.8475 43.7643Z" fill="#B9DCFF"/>
<path d="M60.8895 46.3273C60.1528 47.169 59.6052 48.1647 59.2846 49.232C59.2165 49.459 59.0107 49.6165 58.7737 49.6165H52.4871C52.4374 49.1713 52.5252 48.7111 52.7566 48.3033L56.2111 42.2073C56.4177 41.8429 56.721 41.5529 57.0783 41.3623L60.8836 45.6262C61.0613 45.8253 61.0653 46.1265 60.8895 46.3273Z" fill="#DADADA"/>
<path d="M81.6459 49.6167H93.6028C93.5558 50.0396 93.3847 50.4493 93.0956 50.7889L74.7013 72.3548C74.3688 72.7441 73.9335 72.9853 73.4733 73.0766C73.4691 73.0546 73.0855 74.1669 81.6459 49.6167Z" fill="#DFE2E4"/>
<path d="M75.4197 41.1042L81.646 49.6164H64.4443L70.6706 41.1042H75.4197Z" fill="#DADADA"/>
<path d="M64.4433 49.6167C73.0077 74.1786 72.62 73.0545 72.6158 73.0766C72.1557 72.9853 71.7203 72.7441 71.3878 72.3548L52.9935 50.7889C52.7045 50.4493 52.5333 50.0396 52.4863 49.6167H64.4433Z" fill="#DADADA"/>
<path d="M65.2319 65.1355L52.9955 50.7889C52.7064 50.4493 52.5353 50.0396 52.4883 49.6167H58.5308C58.8609 49.6167 59.107 49.9135 59.0549 50.2395C58.7254 52.2968 59.225 54.5145 60.7975 56.3582L66.9983 63.629C67.9868 64.7881 66.2175 66.2912 65.2319 65.1355Z" fill="white"/>
<path d="M89.0129 41.3623L81.6472 49.6164L75.4209 41.1042H87.9861C88.3505 41.1042 88.7025 41.1956 89.0129 41.3623Z" fill="white"/>
<path d="M89.0129 41.3623L87.0284 43.5865C86.9275 43.6997 86.783 43.7644 86.6314 43.7644H77.6363C77.4666 43.7644 77.3071 43.6834 77.2069 43.5464L75.4209 41.1042H87.9861C88.3505 41.1042 88.7025 41.1956 89.0129 41.3623Z" fill="#DFE2E4"/>
<path d="M70.6711 41.1042L64.4448 49.6164L57.0791 41.3623C57.3894 41.1956 57.7415 41.1042 58.1059 41.1042H70.6711Z" fill="white"/>
<path d="M70.6711 41.1042L68.8851 43.5464C68.7849 43.6833 68.6254 43.7643 68.4557 43.7643H66.6074C64.6063 43.7643 62.8891 44.4837 61.5919 45.6239C61.372 45.8172 61.0381 45.7984 60.8431 45.58L57.0791 41.3623C57.3894 41.1956 57.7415 41.1042 58.1059 41.1042H70.6711Z" fill="white"/>
<path d="M76.3176 43.7643H69.7742C69.3387 43.7643 69.0877 43.2697 69.3447 42.9182L70.6714 41.1042H75.4205L76.7471 42.9182C77.0041 43.2698 76.7531 43.7643 76.3176 43.7643Z" fill="white"/>
<path d="M93.9521 47.9534L90.4977 41.858C90.255 41.4297 89.908 41.0736 89.4894 40.8183C89.1971 40.562 88.7522 40.5885 88.4927 40.8792L81.7024 48.4897L77.9795 43.4003C77.7481 43.0841 77.3045 43.0152 76.9881 43.2465C76.672 43.4778 76.6031 43.9216 76.8344 44.2378L80.8554 49.7346L72.951 72.4042C72.5569 72.3783 72.189 72.1971 71.9307 71.8943C52.7967 49.4614 53.5622 50.3596 53.5342 50.3259H58.7541C59.1459 50.3259 59.4635 50.0083 59.4635 49.6165C59.4635 49.2248 59.1459 48.9072 58.7541 48.9072H53.2635C53.3316 48.7044 53.09 49.1564 56.8304 42.5575C56.8772 42.4749 56.9315 42.3983 56.992 42.3276L63.8228 49.9835L70.003 67.708C70.1049 68.0006 70.3794 68.184 70.6728 68.184C71.1583 68.184 71.5038 67.7034 71.3426 67.2409L65.4445 50.3259H76.6135C77.0053 50.3259 77.3229 50.0083 77.3229 49.6165C77.3229 49.2248 77.0053 48.9072 76.6135 48.9072H64.7638L58.4348 41.8137H69.2749L66.6706 45.3738C66.3239 45.8479 66.6723 46.5021 67.2425 46.5021C67.4611 46.5021 67.6767 46.4013 67.8157 46.2115L71.0327 41.8137H83.2049C83.5966 41.8137 83.9142 41.4961 83.9142 41.1044C83.9142 40.7126 83.5966 40.395 83.2049 40.395H58.1068C57.6797 40.395 57.266 40.4914 56.8907 40.6662C56.7859 40.6937 56.6855 40.7454 56.5992 40.8225C56.1895 41.0738 55.8407 41.4263 55.5961 41.858L52.1416 47.9534C51.8448 48.4771 51.7275 49.0685 51.7811 49.6438C51.7828 49.6887 51.7884 49.7325 51.7981 49.7748C51.8723 50.3082 52.0926 50.8223 52.4566 51.249L70.8512 72.815C72.0037 74.1663 74.0914 74.1647 75.2425 72.815L93.637 51.249C94.4215 50.3294 94.548 49.005 93.9521 47.9534ZM92.5576 50.3284L74.9546 70.9663L82.1516 50.3259H88.2492C88.641 50.3259 88.9586 50.0083 88.9586 49.6165C88.9586 49.2248 88.641 48.9072 88.2492 48.9072H83.2313L89.1016 42.3278C89.2359 42.485 88.9297 41.9683 92.7179 48.6528C93.0208 49.1875 92.9565 49.8608 92.5576 50.3284Z" fill="#2D346A"/>
<path d="M63.2897 69.3686C62.9663 69.1474 62.5249 69.2301 62.3037 69.5536L61.0361 71.407C60.7118 71.881 61.0583 72.5168 61.621 72.5168C61.8473 72.5168 62.0698 72.4088 62.2071 72.2078L63.4747 70.3545C63.6959 70.0312 63.613 69.5897 63.2897 69.3686Z" fill="white"/>
<path d="M58.9001 64.9664L56.7502 65.6139C56.3751 65.7268 56.1625 66.1225 56.2754 66.4976C56.3889 66.8746 56.7858 67.0848 57.1592 66.9724L59.3091 66.3249C59.6842 66.2119 59.8968 65.8163 59.7839 65.4412C59.6709 65.0659 59.2752 64.8533 58.9001 64.9664Z" fill="white"/>
<path d="M83.79 69.5536C83.5689 69.2302 83.1274 69.1474 82.8041 69.3685C82.4808 69.5897 82.3979 70.0312 82.619 70.3544L83.8866 72.2078C84.024 72.4087 84.2465 72.5168 84.4727 72.5168C85.0334 72.5168 85.3827 71.8822 85.0576 71.4069L83.79 69.5536Z" fill="white"/>
<path d="M89.3443 65.6138L87.1943 64.9664C86.8191 64.8533 86.4236 65.066 86.3106 65.4411C86.1976 65.8162 86.4102 66.2119 86.7853 66.3249L88.9353 66.9723C89.3118 67.0858 89.7066 66.8712 89.819 66.4976C89.932 66.1225 89.7194 65.7268 89.3443 65.6138Z" fill="white"/>
<path d="M73.0463 37.6464C73.438 37.6464 73.7556 37.3288 73.7556 36.937V34.277C73.7556 33.8852 73.438 33.5676 73.0463 33.5676C72.6545 33.5676 72.3369 33.8852 72.3369 34.277V36.937C72.3369 37.3289 72.6545 37.6464 73.0463 37.6464Z" fill="white"/>
<path d="M63.6365 37.2613C63.8361 37.5976 64.2712 37.7095 64.6086 37.5092C64.9455 37.3093 65.0565 36.874 64.8566 36.5372L63.8068 34.7686C63.6068 34.4318 63.1717 34.3205 62.8347 34.5207C62.4978 34.7206 62.3868 35.1559 62.5868 35.4927L63.6365 37.2613Z" fill="white"/>
<path d="M81.4852 37.5093C81.8227 37.7098 82.2576 37.5976 82.4572 37.2614L83.5069 35.4929C83.7069 35.1561 83.5959 34.7208 83.259 34.5208C82.9221 34.3209 82.4868 34.4319 82.2869 34.7688L81.2372 36.5373C81.0372 36.8741 81.1482 37.3093 81.4852 37.5093Z" fill="white"/>
<path d="M144.4 13.1994C144.4 12.6994 144.2 10.3994 141.6 10.3994C141.1 10.3994 140.7 9.99941 140.7 9.49941C140.7 8.99941 141.1 8.59941 141.6 8.59941C142.1 8.59941 144.4 8.39941 144.4 5.79941C144.4 5.29941 144.8 4.89941 145.3 4.89941C145.8 4.89941 146.2 5.29941 146.2 5.79941C146.2 8.39941 148.5 8.59941 149 8.59941C149.5 8.59941 149.9 8.99941 149.9 9.49941C149.9 9.99941 149.5 10.3994 149 10.3994C146.4 10.3994 146.2 12.6994 146.2 13.1994C146.2 13.6994 145.8 14.0994 145.3 14.0994C144.8 14.0994 144.4 13.6994 144.4 13.1994Z" fill="#A92023"/>
<path d="M98.9 4.3C98.9 4.1 98.8 2.9 97.5 2.9C97.2 2.9 97 2.7 97 2.4C97 2.1 97.2 1.9 97.5 1.9C97.7 1.9 98.9 1.8 98.9 0.5C98.9 0.2 99.1 0 99.4 0C99.7 0 99.9 0.2 99.9 0.5C99.9 1.8 101.1 1.9 101.3 1.9C101.6 1.9 101.8 2.1 101.8 2.4C101.8 2.7 101.6 2.9 101.3 2.9C100 2.9 99.9 4.1 99.9 4.3C99.9 4.6 99.7 4.8 99.4 4.8C99.1 4.7 98.9 4.5 98.9 4.3Z" fill="#A92023"/>
<path d="M14.8004 12.9992C14.8004 12.7992 14.7004 11.5992 13.4004 11.5992C13.1004 11.5992 12.9004 11.3992 12.9004 11.0992C12.9004 10.7992 13.1004 10.5992 13.4004 10.5992C13.6004 10.5992 14.8004 10.4992 14.8004 9.19922C14.8004 8.89922 15.0004 8.69922 15.3004 8.69922C15.6004 8.69922 15.8004 8.89922 15.8004 9.19922C15.8004 10.4992 17.0004 10.5992 17.2004 10.5992C17.5004 10.5992 17.7004 10.7992 17.7004 11.0992C17.7004 11.3992 17.5004 11.5992 17.2004 11.5992C15.9004 11.5992 15.8004 12.7992 15.8004 12.9992C15.8004 13.2992 15.6004 13.4992 15.3004 13.4992C15.0004 13.4992 14.8004 13.1992 14.8004 12.9992Z" fill="#A92023"/>
<path d="M3.8 86.5992C3.8 86.0992 3.6 83.7992 1 83.7992C0.4 83.7992 0 83.2992 0 82.7992C0 82.2992 0.4 81.8992 0.9 81.8992C1.4 81.8992 3.7 81.6992 3.7 79.0992C3.7 78.5992 4.1 78.1992 4.6 78.1992C5.1 78.1992 5.5 78.5992 5.5 79.0992C5.5 81.6992 7.8 81.8992 8.3 81.8992C8.8 81.8992 9.2 82.2992 9.2 82.7992C9.2 83.2992 8.8 83.6992 8.3 83.6992C5.7 83.6992 5.5 85.9992 5.5 86.4992C5.5 86.9992 5.1 87.3992 4.6 87.3992C4.2 87.4992 3.8 87.0992 3.8 86.5992Z" fill="#A92023"/>
<path d="M139 91.3996C139 91.1996 138.9 89.9996 137.6 89.9996C137.3 89.9996 137.1 89.7996 137.1 89.4996C137.1 89.1996 137.3 88.9996 137.6 88.9996C137.8 88.9996 139 88.8996 139 87.5996C139 87.2996 139.2 87.0996 139.5 87.0996C139.8 87.0996 140 87.2996 140 87.5996C140 88.8996 141.2 88.9996 141.4 88.9996C141.7 88.9996 141.9 89.1996 141.9 89.4996C141.9 89.7996 141.7 89.9996 141.4 89.9996C140.1 89.9996 140 91.1996 140 91.3996C140 91.6996 139.8 91.8996 139.5 91.8996C139.2 91.7996 139 91.5996 139 91.3996Z" fill="#A92023"/>
<path d="M33 105H117" stroke="#2D346A" stroke-width="2" stroke-miterlimit="10" stroke-linecap="round"/>
</g>
<defs>
<clipPath id="clip0_1624_2271">
<rect width="150" height="106" fill="white"/>
</clipPath>
</defs>
</svg>
