<svg width="150" height="106" viewBox="0 0 150 106" fill="none" xmlns="http://www.w3.org/2000/svg">
<g clip-path="url(#clip0_1624_2297)">
<path d="M144.496 13.4533C144.496 12.9437 144.296 10.5994 141.695 10.5994C141.194 10.5994 140.794 10.1917 140.794 9.68211C140.794 9.1725 141.194 8.76481 141.695 8.76481C142.195 8.76481 144.496 8.56096 144.496 5.91096C144.496 5.40134 144.897 4.99365 145.397 4.99365C145.897 4.99365 146.298 5.40134 146.298 5.91096C146.298 8.56096 148.599 8.76481 149.099 8.76481C149.6 8.76481 150 9.1725 150 9.68211C150 10.1917 149.6 10.5994 149.099 10.5994C146.498 10.5994 146.298 12.9437 146.298 13.4533C146.298 13.9629 145.897 14.3706 145.397 14.3706C144.897 14.3706 144.496 13.9629 144.496 13.4533Z" fill="#A92023"/>
<path d="M98.9657 4.38269C98.9657 4.17885 98.8657 2.95577 97.5648 2.95577C97.2646 2.95577 97.0645 2.75192 97.0645 2.44615C97.0645 2.14038 97.2646 1.93654 97.5648 1.93654C97.7649 1.93654 98.9657 1.83462 98.9657 0.509615C98.9657 0.203846 99.1659 0 99.4661 0C99.7663 0 99.9664 0.203846 99.9664 0.509615C99.9664 1.83462 101.167 1.93654 101.367 1.93654C101.668 1.93654 101.868 2.14038 101.868 2.44615C101.868 2.75192 101.668 2.95577 101.367 2.95577C100.066 2.95577 99.9664 4.17885 99.9664 4.38269C99.9664 4.68846 99.7663 4.89231 99.4661 4.89231C99.1659 4.79039 98.9657 4.58654 98.9657 4.38269Z" fill="#A92023"/>
<path d="M14.8104 13.2504C14.8104 13.0465 14.7104 11.8234 13.4095 11.8234C13.1093 11.8234 12.9092 11.6196 12.9092 11.3138C12.9092 11.0081 13.1093 10.8042 13.4095 10.8042C13.6096 10.8042 14.8104 10.7023 14.8104 9.37729C14.8104 9.07152 15.0106 8.86768 15.3108 8.86768C15.611 8.86768 15.8111 9.07152 15.8111 9.37729C15.8111 10.7023 17.0119 10.8042 17.212 10.8042C17.5122 10.8042 17.7124 11.0081 17.7124 11.3138C17.7124 11.6196 17.5122 11.8234 17.212 11.8234C15.9112 11.8234 15.8111 13.0465 15.8111 13.2504C15.8111 13.5561 15.611 13.76 15.3108 13.76C15.0106 13.76 14.8104 13.4542 14.8104 13.2504Z" fill="#A92023"/>
<path d="M3.80253 88.2656C3.80253 87.756 3.6024 85.4118 1.00067 85.4118C0.400267 85.4118 0 84.9022 0 84.3926C0 83.8829 0.400267 83.4753 0.9006 83.4753C1.40093 83.4753 3.70247 83.2714 3.70247 80.6214C3.70247 80.1118 4.10274 79.7041 4.60307 79.7041C5.1034 79.7041 5.50367 80.1118 5.50367 80.6214C5.50367 83.2714 7.8052 83.4753 8.30554 83.4753C8.80587 83.4753 9.20614 83.8829 9.20614 84.3926C9.20614 84.9022 8.80587 85.3099 8.30554 85.3099C5.7038 85.3099 5.50367 87.6541 5.50367 88.1637C5.50367 88.6733 5.1034 89.081 4.60307 89.081C4.2028 89.1829 3.80253 88.7753 3.80253 88.2656Z" fill="#A92023"/>
<path d="M139.093 93.1571C139.093 92.9533 138.993 91.7302 137.692 91.7302C137.392 91.7302 137.191 91.5263 137.191 91.2206C137.191 90.9148 137.392 90.7109 137.692 90.7109C137.892 90.7109 139.093 90.609 139.093 89.284C139.093 88.9783 139.293 88.7744 139.593 88.7744C139.893 88.7744 140.093 88.9783 140.093 89.284C140.093 90.609 141.294 90.7109 141.494 90.7109C141.794 90.7109 141.995 90.9148 141.995 91.2206C141.995 91.5263 141.794 91.7302 141.494 91.7302C140.193 91.7302 140.093 92.9533 140.093 93.1571C140.093 93.4629 139.893 93.6667 139.593 93.6667C139.293 93.5648 139.093 93.3609 139.093 93.1571Z" fill="#A92023"/>
<path d="M104.009 17.6197C87.772 2.77147 62.5622 3.73286 47.714 19.9697C33.7203 35.2452 33.7203 58.6391 47.714 73.9146L60.6394 60.9892C61.2803 60.3482 62.3485 60.3482 62.9894 60.9892C70.7874 68.6803 83.3924 68.5735 91.1903 60.7755C98.7747 52.9776 98.7747 40.5863 91.1903 32.7883C90.5494 32.1474 90.5494 31.0792 91.1903 30.4382L104.009 17.6197ZM92.1517 17.406L93.8609 14.5218C94.2882 13.7741 95.3564 13.4536 96.1041 13.8809C96.8519 14.3082 97.1723 15.3764 96.7451 16.1242L95.0359 19.0083C94.6086 19.7561 93.5404 20.0765 92.7927 19.6493C92.0449 19.222 91.7244 18.1538 92.1517 17.406ZM75.3807 10.4626C75.3807 9.50122 76.1285 8.75347 77.0899 8.75347C78.0513 8.75347 78.799 9.50122 78.799 10.4626V13.7741C78.799 14.7355 78.0513 15.4832 77.0899 15.4832C76.1285 15.4832 75.3807 14.7355 75.3807 13.7741V10.4626ZM57.9688 13.8809C58.7166 13.4536 59.7848 13.6673 60.2121 14.5218L61.9212 17.406C62.3485 18.1538 62.1349 19.222 61.2803 19.6493C60.5326 20.0765 59.4643 19.8629 59.0371 19.0083L57.3279 16.1242C56.9006 15.3764 57.1143 14.3082 57.9688 13.8809ZM38.8478 46.8887C38.8478 45.9273 39.5955 45.1796 40.5569 45.1796H43.8684C44.8298 45.1796 45.5775 45.9273 45.5775 46.8887C45.5775 47.8501 44.8298 48.5979 43.8684 48.5979H40.5569C39.5955 48.5979 38.8478 47.8501 38.8478 46.8887ZM49.1026 64.9415L46.2185 66.6507C45.4707 67.078 44.4025 66.8643 43.9752 66.0098C43.5479 65.262 43.7616 64.1938 44.6161 63.7665L47.5003 62.0574C48.2481 61.6301 49.3163 61.8437 49.7436 62.6983C50.1709 63.446 49.9572 64.5143 49.1026 64.9415ZM49.7436 31.186C49.3163 31.9337 48.2481 32.2542 47.5003 31.8269L44.6161 30.1178C43.8684 29.6905 43.5479 28.6223 43.9752 27.8745C44.4025 27.1268 45.4707 26.8063 46.2185 27.2336L49.1026 28.9427C49.9572 29.37 50.1709 30.3314 49.7436 31.186ZM58.8234 48.5979C57.862 48.5979 57.1143 47.8501 57.1143 46.8887C57.1143 45.9273 57.862 45.1796 58.8234 45.1796H70.6806C71.3215 42.8295 73.1375 41.0135 75.3807 40.4794V21.9993C75.3807 21.0379 76.1285 20.2902 77.0899 20.2902C78.0513 20.2902 78.799 21.0379 78.799 21.9993V40.4794C82.3241 41.4408 84.4606 44.9659 83.606 48.491C82.7514 52.0162 79.1195 54.1526 75.5944 53.298C73.2443 52.6571 71.4284 50.8411 70.7874 48.491H58.8234V48.5979ZM93.6472 46.8887C93.6472 56.0754 86.2765 63.446 77.0899 63.446C72.7102 63.446 68.4373 61.7369 65.3395 58.5323C64.6986 57.8913 64.6986 56.8231 65.3395 56.1822C65.9804 55.5413 67.0487 55.5413 67.6896 56.1822C72.817 61.4164 81.2559 61.5233 86.4902 56.3958C91.7244 51.2684 91.8313 42.8295 86.7038 37.5953C86.597 37.4884 86.597 37.4884 86.4902 37.3816C85.8493 36.7407 85.8493 35.6725 86.4902 35.0315C87.1311 34.3906 88.1993 34.3906 88.8403 35.0315C91.9381 38.343 93.6472 42.509 93.6472 46.8887Z" fill="#005D33"/>
<path d="M95.9977 77.6533L104.009 85.6649L115.76 73.9145L107.748 65.9029C107.214 65.3688 107.107 64.5142 107.428 63.8733C108.709 61.5232 109.778 58.9595 110.525 56.3958C110.739 55.648 111.38 55.2208 112.128 55.2208H123.451V38.6634H112.128C111.38 38.6634 110.739 38.1293 110.525 37.4884C109.778 34.9247 108.709 32.361 107.428 30.0109C107.107 29.37 107.214 28.5154 107.748 27.9813L115.76 19.9697L111.06 15.2695L94.609 31.72C103.048 41.4408 101.98 56.0753 92.2589 64.5142C83.4996 72.0985 70.5741 72.0985 61.8148 64.5142L45.3643 80.9647L50.0644 85.6649L58.076 77.6533C58.6101 77.1191 59.4647 77.0123 60.1056 77.3328C62.4557 78.6146 65.0194 79.6829 67.5831 80.4306C68.3309 80.6443 68.7582 81.2852 68.7582 82.0329V93.356H85.3155V82.0329C85.3155 81.2852 85.8496 80.6443 86.4906 80.4306C89.0543 79.6829 91.618 78.6146 93.9681 77.3328C94.7158 77.0123 95.4636 77.1191 95.9977 77.6533ZM116.828 45.2864H120.139V48.5978H116.828V45.2864ZM106.359 73.9145L108.709 76.2646L106.359 78.6147L104.009 76.2646L106.359 73.9145ZM78.6926 90.0445H75.3811V86.7331H78.6926V90.0445Z" fill="#DADADA" stroke="#2D346A" stroke-width="1.5" stroke-miterlimit="10"/>
<path d="M76.9833 50.1998C78.8122 50.1998 80.2948 48.7172 80.2948 46.8884C80.2948 45.0595 78.8122 43.5769 76.9833 43.5769C75.1545 43.5769 73.6719 45.0595 73.6719 46.8884C73.6719 48.7172 75.1545 50.1998 76.9833 50.1998Z" fill="#005D33"/>
<path d="M108.709 12.9194C89.9084 -4.59929 60.5324 -3.53107 43.0137 15.2695C26.4564 33.1087 26.4564 60.7754 43.0137 78.6146" stroke="#2D346A" stroke-width="1.5" stroke-miterlimit="10"/>
<path d="M33 105H117" stroke="#2D346A" stroke-width="2" stroke-miterlimit="10" stroke-linecap="round"/>
</g>
<defs>
<clipPath id="clip0_1624_2297">
<rect width="150" height="106" fill="white"/>
</clipPath>
</defs>
</svg>
