<svg width="150" height="106" viewBox="0 0 150 106" fill="none" xmlns="http://www.w3.org/2000/svg">
<g clip-path="url(#clip0_1565_936)">
<path d="M144.662 16.1994C144.662 15.6994 144.462 13.3994 141.862 13.3994C141.362 13.3994 140.962 12.9994 140.962 12.4994C140.962 11.9994 141.362 11.5994 141.862 11.5994C142.362 11.5994 144.662 11.3994 144.662 8.79941C144.662 8.29941 145.062 7.89941 145.562 7.89941C146.062 7.89941 146.462 8.29941 146.462 8.79941C146.462 11.3994 148.762 11.5994 149.262 11.5994C149.762 11.5994 150.162 11.9994 150.162 12.4994C150.162 12.9994 149.762 13.3994 149.262 13.3994C146.662 13.3994 146.462 15.6994 146.462 16.1994C146.462 16.6994 146.062 17.0994 145.562 17.0994C145.062 17.0994 144.662 16.6994 144.662 16.1994Z" fill="#A92023"/>
<path d="M114.273 56.5109C114.273 56.2391 114.164 54.9891 112.751 54.9891C112.479 54.9891 112.262 54.7717 112.262 54.5C112.262 54.2283 112.479 54.0109 112.751 54.0109C113.023 54.0109 114.273 53.9022 114.273 52.4891C114.273 52.2174 114.49 52 114.762 52C115.033 52 115.251 52.2174 115.251 52.4891C115.251 53.9022 116.501 54.0109 116.773 54.0109C117.044 54.0109 117.262 54.2283 117.262 54.5C117.262 54.7717 117.044 54.9891 116.773 54.9891C115.36 54.9891 115.251 56.2391 115.251 56.5109C115.251 56.7826 115.033 57 114.762 57C114.49 57 114.273 56.7826 114.273 56.5109Z" fill="#A92023"/>
<path d="M118.162 4.3C118.162 4.1 118.062 2.9 116.762 2.9C116.462 2.9 116.262 2.7 116.262 2.4C116.262 2.1 116.462 1.9 116.762 1.9C116.962 1.9 118.162 1.8 118.162 0.5C118.162 0.2 118.362 0 118.662 0C118.962 0 119.162 0.2 119.162 0.5C119.162 1.8 120.362 1.9 120.562 1.9C120.862 1.9 121.062 2.1 121.062 2.4C121.062 2.7 120.862 2.9 120.562 2.9C119.262 2.9 119.162 4.1 119.162 4.3C119.162 4.6 118.962 4.8 118.662 4.8C118.362 4.7 118.162 4.5 118.162 4.3Z" fill="#A92023"/>
<path d="M15.0616 15.9992C15.0616 15.7992 14.9616 14.5992 13.6616 14.5992C13.3616 14.5992 13.1616 14.3992 13.1616 14.0992C13.1616 13.7992 13.3616 13.5992 13.6616 13.5992C13.8616 13.5992 15.0616 13.4992 15.0616 12.1992C15.0616 11.8992 15.2616 11.6992 15.5616 11.6992C15.8616 11.6992 16.0616 11.8992 16.0616 12.1992C16.0616 13.4992 17.2616 13.5992 17.4616 13.5992C17.7616 13.5992 17.9616 13.7992 17.9616 14.0992C17.9616 14.3992 17.7616 14.5992 17.4616 14.5992C16.1616 14.5992 16.0616 15.7992 16.0616 15.9992C16.0616 16.2992 15.8616 16.4992 15.5616 16.4992C15.2616 16.4992 15.0616 16.1992 15.0616 15.9992Z" fill="#A92023"/>
<path d="M4.06172 89.6002C4.06172 89.1002 3.86172 86.8002 1.26172 86.8002C0.661719 86.8002 0.261719 86.3002 0.261719 85.8002C0.261719 85.3002 0.661719 84.9002 1.16172 84.9002C1.66172 84.9002 3.96172 84.7002 3.96172 82.1002C3.96172 81.6002 4.36172 81.2002 4.86172 81.2002C5.36172 81.2002 5.76172 81.6002 5.76172 82.1002C5.76172 84.7002 8.06172 84.9002 8.56172 84.9002C9.06172 84.9002 9.46172 85.3002 9.46172 85.8002C9.46172 86.3002 9.06172 86.7002 8.56172 86.7002C5.96172 86.7002 5.76172 89.0002 5.76172 89.5002C5.76172 90.0002 5.36172 90.4002 4.86172 90.4002C4.46172 90.5002 4.06172 90.1002 4.06172 89.6002Z" fill="#A92023"/>
<path d="M139.262 94.3996C139.262 94.1996 139.162 92.9996 137.862 92.9996C137.562 92.9996 137.362 92.7996 137.362 92.4996C137.362 92.1996 137.562 91.9996 137.862 91.9996C138.062 91.9996 139.262 91.8996 139.262 90.5996C139.262 90.2996 139.462 90.0996 139.762 90.0996C140.062 90.0996 140.262 90.2996 140.262 90.5996C140.262 91.8996 141.462 91.9996 141.662 91.9996C141.962 91.9996 142.162 92.1996 142.162 92.4996C142.162 92.7996 141.962 92.9996 141.662 92.9996C140.362 92.9996 140.262 94.1996 140.262 94.3996C140.262 94.6996 140.062 94.8996 139.762 94.8996C139.462 94.7996 139.262 94.5996 139.262 94.3996Z" fill="#A92023"/>
<rect x="32.9058" y="11.6442" width="73.5" height="73.5" fill="#DADADA" stroke="#2D346A" stroke-width="1.5"/>
<circle cx="36.6558" cy="17.3942" r="1.5" fill="#2D346A"/>
<circle cx="100.656" cy="17.3942" r="1.5" fill="#2D346A"/>
<circle cx="36.6558" cy="81.394" r="1.5" fill="#2D346A"/>
<circle cx="100.656" cy="81.394" r="1.5" fill="#2D346A"/>
<rect x="41.9058" y="20.6442" width="55.5" height="55.5" fill="#005D33" stroke="white" stroke-width="1.5"/>
<line x1="41.6861" y1="28.3637" x2="89.6861" y2="76.3637" stroke="white" stroke-width="1.5"/>
<line x1="48.6861" y1="20.3638" x2="97.6861" y2="69.3638" stroke="white" stroke-width="1.5"/>
<line x1="48.6254" y1="76.3637" x2="68.6254" y2="56.3637" stroke="white" stroke-width="1.5"/>
<line x1="41.6254" y1="68.3637" x2="61.6254" y2="48.3637" stroke="white" stroke-width="1.5"/>
<line x1="90.6861" y1="20.4245" x2="69.6861" y2="41.4245" stroke="white" stroke-width="1.5"/>
<line x1="97.6861" y1="28.4244" x2="76.6861" y2="49.4244" stroke="white" stroke-width="1.5"/>
<path d="M25.8882 16.9951H24.521V80.2961H25.8882V16.9951Z" fill="#2D346A"/>
<path d="M25.2088 11L21.2617 17.836H29.1559L25.2088 11Z" fill="#2D346A"/>
<path d="M25.2088 86L21.2617 79.1641H29.1559L25.2088 86Z" fill="#2D346A"/>
<path d="M38.2568 3.26757V4.63477L101.558 4.63477V3.26757L38.2568 3.26757Z" fill="#2D346A"/>
<path d="M32.2617 3.94709L39.0977 7.89417V5.24521e-06L32.2617 3.94709Z" fill="#2D346A"/>
<path d="M107.262 3.94709L100.426 7.89417V5.24521e-06L107.262 3.94709Z" fill="#2D346A"/>
<rect x="99.0117" y="63.75" width="28.5" height="28.5" fill="#DADADA" stroke="#2D346A" stroke-width="1.5"/>
<circle cx="100.062" cy="65.6" r="0.6" fill="#2D346A"/>
<circle cx="125.662" cy="65.6" r="0.6" fill="#2D346A"/>
<circle cx="100.062" cy="91.2001" r="0.6" fill="#2D346A"/>
<circle cx="125.662" cy="91.2001" r="0.6" fill="#2D346A"/>
<rect x="102.612" y="67.3501" width="21.3" height="21.3" fill="#005D33" stroke="white" stroke-width="1.5"/>
<line x1="102.392" y1="69.6696" x2="121.592" y2="88.8696" stroke="white" stroke-width="1.5"/>
<line x1="105.192" y1="66.4697" x2="124.792" y2="86.0697" stroke="white" stroke-width="1.5"/>
<line x1="104.531" y1="88.8696" x2="112.531" y2="80.8696" stroke="white" stroke-width="1.5"/>
<line x1="101.731" y1="85.6696" x2="109.731" y2="77.6696" stroke="white" stroke-width="1.5"/>
<line x1="121.992" y1="67.1304" x2="113.592" y2="75.5304" stroke="white" stroke-width="1.5"/>
<line x1="124.792" y1="70.3304" x2="116.392" y2="78.7304" stroke="white" stroke-width="1.5"/>
<path d="M33.2617 105H117.262" stroke="#2D346A" stroke-width="2" stroke-miterlimit="10" stroke-linecap="round"/>
</g>
<defs>
<clipPath id="clip0_1565_936">
<rect width="149.477" height="106" fill="white" transform="translate(0.261719)"/>
</clipPath>
</defs>
</svg>
