<svg width="150" height="106" viewBox="0 0 150 106" fill="none" xmlns="http://www.w3.org/2000/svg">
<g clip-path="url(#clip0_1565_880)">
<circle cx="90.5327" cy="49.8047" r="4.88281" fill="#005D33"/>
<path d="M64.001 23.0501C51.3801 35.6689 49.2238 55.3629 58.814 70.4146C59.0758 70.8125 59.5039 71.0708 59.9784 71.1172C60.4529 71.1635 60.9225 70.9922 61.2566 70.6525L64.4446 67.4638L66.7132 65.2113V65.1959L71.4398 60.4686C71.8406 60.0587 71.9915 59.4663 71.8364 58.9146L70.6312 54.6793C69.9988 52.4641 70.6116 50.0804 72.233 48.4457L89.3959 31.2827C91.0314 29.6606 93.415 29.0478 95.6295 29.6802L99.8648 30.8861C100.417 31.0412 101.009 30.8896 101.42 30.4895L111.603 20.3063C111.943 19.9722 112.114 19.5019 112.067 19.0274C112.021 18.5537 111.763 18.1255 111.365 17.863C103.068 12.5741 93.0458 10.7036 83.4003 12.6443L79.3391 8.17179C80.0529 8.05037 80.7737 7.97105 81.4967 7.93385C83.6866 7.85945 85.4014 6.02327 85.327 3.83333C85.2526 1.64338 83.4171 -0.0720704 81.2272 0.00233154C79.3826 0.0998963 77.5506 0.365216 75.7544 0.795483C58.7501 4.55488 46.0611 18.355 40.5406 34.4076C39.1389 38.4084 38.2489 42.5714 37.8916 46.7955H45.9495C46.2548 43.4509 46.9574 40.1548 48.0432 36.9772C53.4844 21.1311 63.3188 13.9295 70.9323 10.6622L75.136 15.3095V15.3256C70.9871 17.2046 67.2144 19.822 64.001 23.0501Z" fill="#DADADA" stroke="#333768" stroke-width="1.5"/>
<path d="M38.5263 59.4375C38.5263 58.5616 39.2366 57.8512 40.1126 57.8512C40.9886 57.8512 41.6989 58.5616 41.6989 59.4375V70.541H46.4571L46.4557 51.5067C46.4557 50.6307 45.7454 49.9204 44.8694 49.9204H43.2852C42.4092 49.9204 41.6989 50.6307 41.6989 51.5067V53.093C41.6989 53.969 40.9886 54.6793 40.1126 54.6793C39.2366 54.6793 38.5263 53.969 38.5263 53.093V51.5067C38.5263 50.6307 37.8159 49.9204 36.94 49.9204H32.1818C31.3058 49.9204 30.5955 50.6307 30.5955 51.5067V70.541H38.5263V59.4375Z" fill="#005D33"/>
<path d="M30.5953 91.1623H119.423C120.298 91.1595 121.006 90.4505 121.009 89.576V83.2307H105.147C104.272 83.2286 103.563 82.5197 103.561 81.6444C103.566 81.1187 103.826 80.6281 104.259 80.3284C104.52 80.1494 104.83 80.0553 105.147 80.0588H121.009V75.2999C121.006 74.4247 120.298 73.7164 119.423 73.7136H111.603C111.427 74.059 111.184 74.3664 110.889 74.6177C110.08 75.1673 109.099 75.4038 108.129 75.2838C107.848 75.2754 107.568 75.2859 107.288 75.3161C107.233 75.5526 107.147 75.7821 107.035 75.9976C106.753 76.9262 106.144 77.7208 105.321 78.2346C104.968 78.4164 104.577 78.5139 104.179 78.5203C103.596 78.5357 103.014 78.4662 102.451 78.3139C102.217 78.2451 101.978 78.1974 101.737 78.1707C101.61 78.3139 101.42 78.5834 101.276 78.7737C100.874 79.6805 100.083 80.3564 99.1251 80.6119C98.167 80.8681 97.1443 80.6758 96.3434 80.0904C96.0886 79.9627 95.8233 79.8567 95.5503 79.7732C95.5818 79.8047 95.2807 80.0904 95.0744 80.2806C94.4377 81.0226 93.5526 81.5076 92.584 81.6444H92.4415C91.5199 81.5679 90.6503 81.1889 89.9666 80.5663C89.7441 80.3852 89.5055 80.2259 89.2535 80.0904C89.2689 80.1382 88.9201 80.3438 88.6821 80.487C87.903 81.0822 86.9316 81.37 85.9538 81.2956C85.0034 81.0626 84.1703 80.4933 83.606 79.6938C83.4494 79.498 83.2796 79.3127 83.0985 79.1386C82.9244 79.1864 82.6071 79.2811 82.4008 79.3604C81.5101 79.7879 80.4916 79.8672 79.5454 79.5829C78.6709 79.1569 77.9781 78.4304 77.5948 77.5362C77.4769 77.3116 77.3443 77.094 77.1983 76.8862C76.9533 76.8848 76.709 76.9059 76.4683 76.9494C75.5137 77.1698 74.5121 77.0406 73.6452 76.5844C72.8682 75.985 72.3376 75.1216 72.1537 74.1579C72.1221 74.0309 72.0744 73.8568 72.0266 73.7136H29.009V89.576C29.0118 90.4505 29.7201 91.1595 30.5953 91.1623ZM54.3885 80.0588H76.5953C77.4713 80.0588 78.1816 80.7685 78.1816 81.6444C78.1816 82.5211 77.4713 83.2307 76.5953 83.2307H54.3885C53.5125 83.2307 52.8022 82.5211 52.8022 81.6444C52.8022 80.7685 53.5125 80.0588 54.3885 80.0588Z" fill="#005D33"/>
<path d="M118.915 51.951C119.072 51.7952 119.22 51.631 119.359 51.459C119.264 51.3004 119.09 51.0786 118.978 50.9199C118.376 50.2531 117.994 49.4164 117.884 48.525C117.916 47.6448 118.208 46.7948 118.725 46.0817C118.82 45.9231 118.963 45.6851 119.058 45.511C118.915 45.3679 118.709 45.1938 118.55 45.0506C117.843 44.5284 117.304 43.8117 116.996 42.9891C116.842 42.1145 116.953 41.2147 117.313 40.4033C117.377 40.2131 117.472 39.9435 117.519 39.7526C117.331 39.6291 117.135 39.5182 116.932 39.4199C116.122 39.0549 115.441 38.4513 114.982 37.6911C114.65 36.8825 114.567 35.9932 114.744 35.1369C114.775 34.9305 114.807 34.6456 114.823 34.4554C114.632 34.376 114.379 34.2967 114.189 34.2328C113.313 34.0602 112.514 33.6159 111.904 32.9638C111.408 32.2401 111.142 31.3831 111.143 30.505C111.127 30.2832 111.095 29.9976 111.064 29.8235C110.838 29.7807 110.61 29.754 110.381 29.7442C109.49 29.7407 108.62 29.4641 107.891 28.951C107.809 28.885 107.735 28.8106 107.669 28.7285C107.653 28.7447 107.653 28.7285 107.653 28.7285L103.656 32.7259C102.766 33.6215 101.556 34.1241 100.293 34.1219C99.8528 34.1212 99.4149 34.0567 98.9923 33.9317L94.757 32.7259C94.4727 32.6501 94.1793 32.6129 93.8845 32.615C93.0409 32.6065 92.2288 32.9378 91.6321 33.5352L74.4699 50.682C73.6683 51.5081 73.3665 52.6985 73.6767 53.8069L74.8819 58.0421C75.3543 59.6818 74.9128 61.4492 73.7245 62.6733L69.6948 66.7184C69.7734 66.7935 69.8471 66.8735 69.9173 66.9563C70.4206 67.6835 70.6915 68.5461 70.6943 69.4305C70.7042 69.6601 70.7308 69.8875 70.7737 70.1128C70.9484 70.1444 71.2341 70.1767 71.4559 70.1921C72.341 70.1921 73.2043 70.463 73.9301 70.9698C74.5752 71.5763 75.0132 72.3694 75.1837 73.2377C75.2307 73.3647 75.2946 73.5549 75.3423 73.7136C75.3578 73.7774 75.3894 73.8406 75.4055 73.8883C75.548 73.8722 75.8498 73.8245 76.0878 73.7929C76.4205 73.7613 76.7855 73.7136 77.1659 73.7136H77.3407C77.7927 73.7206 78.237 73.8294 78.6413 74.0308C79.4022 74.4913 80.0051 75.1714 80.3701 75.9821C80.4684 76.1843 80.58 76.3808 80.7035 76.5689C80.8937 76.5212 81.1632 76.4257 81.3535 76.3625C82.1487 76.0053 83.0331 75.8944 83.8915 76.0453C84.7359 76.3387 85.4715 76.8806 86.0015 77.6C86.1285 77.7586 86.3187 77.965 86.4612 78.1075C86.636 78.012 86.8739 77.8695 87.0326 77.7741C87.7499 77.2554 88.6062 76.962 89.4913 76.9339C90.3771 77.0462 91.2075 77.4287 91.8701 78.0282C92.0287 78.1391 92.2512 78.3138 92.4098 78.4086C92.5811 78.2696 92.7454 78.1215 92.9012 77.965C93.4978 77.308 94.2762 76.8441 95.1381 76.6321C96.024 76.5598 96.9112 76.7647 97.6755 77.2189C97.8665 77.2982 98.1198 77.4252 98.2946 77.4891C98.4217 77.3459 98.5641 77.1241 98.6912 76.9493C99.4801 75.2697 101.45 74.5081 103.164 75.2205C103.388 75.2767 103.616 75.3188 103.846 75.3476C103.948 75.1525 104.038 74.951 104.116 74.7447C104.259 74.3888 104.429 74.0442 104.624 73.7136C104.865 73.27 105.214 72.8937 105.639 72.6193C106.416 72.2045 107.299 72.0283 108.177 72.1118C108.409 72.1273 108.642 72.1273 108.874 72.1118C108.893 71.8921 108.931 71.6745 108.985 71.4611C109.037 69.5906 110.541 68.0864 112.412 68.0352C112.618 67.9874 112.903 67.9397 113.094 67.8765C113.078 67.7495 113.078 67.4484 113.062 67.2259C112.978 66.3415 113.16 65.4521 113.586 64.6723C114.118 63.9669 114.855 63.4412 115.695 63.1653C115.901 63.0881 116.103 62.9983 116.298 62.8958C116.27 62.6663 116.227 62.4382 116.171 62.2136C115.9 61.3811 115.883 60.4862 116.124 59.6439C116.516 58.8486 117.134 58.1867 117.9 57.7403C118.074 57.614 118.312 57.4554 118.455 57.3283C118.392 57.2174 118.264 56.9317 118.17 56.7254C117.715 55.961 117.51 55.0738 117.583 54.1873C117.795 53.326 118.259 52.5476 118.915 51.951ZM87.5562 46.6053C89.4127 44.7481 92.4239 44.7481 94.2811 46.6053C96.1384 48.4626 96.1384 51.4737 94.2811 53.331C92.4239 55.1882 89.4127 55.1882 87.5562 53.331C86.6577 52.4424 86.1524 51.2316 86.1524 49.9681C86.1524 48.7047 86.6577 47.4939 87.5562 46.6053Z" fill="#005D33"/>
<path d="M118.915 51.951C119.072 51.7952 119.22 51.6309 119.359 51.459C119.264 51.3004 119.09 51.0786 118.978 50.9199C118.376 50.2531 117.994 49.4164 117.884 48.525C117.916 47.6448 118.208 46.7948 118.725 46.0817C118.82 45.9231 118.963 45.6851 119.058 45.511C118.915 45.3679 118.709 45.1938 118.55 45.0506C117.843 44.5284 117.304 43.8117 116.996 42.9891C116.842 42.1145 116.953 41.2147 117.313 40.4033C117.377 40.2131 117.472 39.9435 117.519 39.7526C117.331 39.6291 117.135 39.5182 116.932 39.4199C116.122 39.0549 115.441 38.4513 114.982 37.6911C114.65 36.8825 114.567 35.9932 114.744 35.1369C114.775 34.9305 114.807 34.6456 114.823 34.4554C114.632 34.376 114.379 34.2967 114.189 34.2328C113.313 34.0602 112.514 33.6159 111.904 32.9638C111.408 32.2401 111.142 31.3831 111.143 30.505C111.127 30.2832 111.095 29.9976 111.064 29.8235C110.838 29.7807 110.61 29.754 110.381 29.7442C109.49 29.7407 108.62 29.4641 107.891 28.951C107.809 28.885 107.735 28.8106 107.669 28.7285C107.653 28.7447 107.653 28.7285 107.653 28.7285L103.656 32.7259C102.766 33.6215 101.556 34.1241 100.293 34.1219C99.8528 34.1212 99.4149 34.0567 98.9923 33.9317L94.757 32.7259C94.4727 32.6501 94.1793 32.6129 93.8846 32.615C93.0409 32.6065 92.2288 32.9378 91.6321 33.5352L74.4699 50.682C73.6683 51.5081 73.3665 52.6985 73.6767 53.8069L74.8819 58.0421C75.3543 59.6818 74.9128 61.4492 73.7245 62.6733L69.6948 66.7184C69.7734 66.7935 69.8471 66.8735 69.9173 66.9563C70.4206 67.6835 70.6915 68.5461 70.6943 69.4305C70.7042 69.6601 70.7308 69.8875 70.7737 70.1128C70.9484 70.1444 71.2341 70.1767 71.4559 70.1921C72.341 70.1921 73.2043 70.463 73.9301 70.9698C74.5752 71.5763 75.0132 72.3694 75.1837 73.2377C75.2307 73.3647 75.2946 73.5549 75.3423 73.7136C75.3578 73.7774 75.3894 73.8406 75.4055 73.8883C75.548 73.8722 75.8498 73.8245 76.0878 73.7929C76.4205 73.7613 76.7855 73.7136 77.1659 73.7136H77.3407C77.7927 73.7206 78.237 73.8294 78.6413 74.0308C79.4022 74.4913 80.0051 75.1714 80.3701 75.9821C80.4684 76.1843 80.58 76.3808 80.7035 76.5689C80.8937 76.5212 81.1632 76.4257 81.3535 76.3625C82.1487 76.0053 83.0331 75.8944 83.8915 76.0453C84.7359 76.3387 85.4715 76.8806 86.0015 77.6C86.1285 77.7586 86.3187 77.965 86.4612 78.1075C86.636 78.012 86.8739 77.8695 87.0326 77.7741C87.7499 77.2554 88.6062 76.962 89.4913 76.9339C90.3771 77.0462 91.2075 77.4287 91.8701 78.0282C92.0287 78.1391 92.2512 78.3138 92.4098 78.4086C92.5811 78.2696 92.7454 78.1215 92.9012 77.965C93.4978 77.308 94.2762 76.8441 95.1382 76.6321C96.024 76.5598 96.9112 76.7647 97.6755 77.2189C97.8665 77.2982 98.1198 77.4252 98.2946 77.4891C98.4217 77.3459 98.5641 77.1241 98.6912 76.9493C99.4801 75.2697 101.45 74.5081 103.164 75.2205C103.388 75.2767 103.616 75.3188 103.846 75.3476C103.948 75.1525 104.038 74.951 104.116 74.7447C104.259 74.3888 104.429 74.0442 104.624 73.7136C104.865 73.27 105.214 72.8937 105.639 72.6193C106.416 72.2045 107.299 72.0283 108.177 72.1118C108.409 72.1273 108.642 72.1273 108.874 72.1118C108.893 71.8921 108.931 71.6745 108.985 71.4611C109.037 69.5906 110.541 68.0864 112.412 68.0352C112.618 67.9874 112.903 67.9397 113.094 67.8765C113.078 67.7495 113.078 67.4484 113.062 67.2259C112.978 66.3415 113.16 65.4521 113.586 64.6723C114.118 63.9669 114.855 63.4412 115.695 63.1653C115.901 63.0881 116.103 62.9983 116.298 62.8958C116.27 62.6663 116.227 62.4382 116.171 62.2136C115.9 61.3811 115.883 60.4862 116.124 59.6439C116.516 58.8486 117.134 58.1867 117.9 57.7403C118.074 57.614 118.312 57.4554 118.455 57.3283C118.392 57.2174 118.264 56.9317 118.17 56.7254C117.715 55.961 117.51 55.0738 117.583 54.1873C117.795 53.326 118.259 52.5476 118.915 51.951ZM87.5562 46.6053C89.4127 44.7481 92.4239 44.7481 94.2811 46.6053C96.1384 48.4626 96.1384 51.4737 94.2811 53.331C92.4239 55.1882 89.4127 55.1882 87.5562 53.331C86.6577 52.4424 86.1524 51.2316 86.1524 49.9681C86.1524 48.7047 86.6577 47.4939 87.5562 46.6053ZM98.2946 69.3358C96.2514 70.1507 94.0699 70.5599 91.8701 70.541C88.0749 70.4841 84.352 69.4867 81.0362 67.6386C80.283 67.1873 80.0381 66.2109 80.4894 65.4578C80.9407 64.7039 81.9171 64.459 82.6702 64.9103C85.5087 66.4496 88.6736 67.2876 91.9024 67.3529C93.688 67.3719 95.4603 67.0434 97.1203 66.3857C97.9352 66.0642 98.8568 66.4608 99.1825 67.2736C99.3426 67.6645 99.339 68.1032 99.172 68.4914C99.0049 68.8795 98.6884 69.1835 98.2946 69.3358ZM111.872 57.3437C111.63 57.9467 111.047 58.3419 110.398 58.3433C110.196 58.3447 109.997 58.3075 109.81 58.2324C109 57.9039 108.604 56.9851 108.922 56.1702C111.761 49.0957 107.494 41.7832 107.447 41.7201C106.995 40.9662 107.24 39.9899 107.994 39.5385C108.747 39.0879 109.724 39.3329 110.175 40.086C110.381 40.4349 115.298 48.7946 111.872 57.3437Z" fill="#DADADA" stroke="#2D346A" stroke-width="1.5"/>
<path d="M144.4 13.1994C144.4 12.6994 144.2 10.3994 141.6 10.3994C141.1 10.3994 140.7 9.99941 140.7 9.49941C140.7 8.99941 141.1 8.59941 141.6 8.59941C142.1 8.59941 144.4 8.39941 144.4 5.79941C144.4 5.29941 144.8 4.89941 145.3 4.89941C145.8 4.89941 146.2 5.29941 146.2 5.79941C146.2 8.39941 148.5 8.59941 149 8.59941C149.5 8.59941 149.9 8.99941 149.9 9.49941C149.9 9.99941 149.5 10.3994 149 10.3994C146.4 10.3994 146.2 12.6994 146.2 13.1994C146.2 13.6994 145.8 14.0994 145.3 14.0994C144.8 14.0994 144.4 13.6994 144.4 13.1994Z" fill="#A92023"/>
<path d="M98.9 4.3C98.9 4.1 98.8 2.9 97.5 2.9C97.2 2.9 97 2.7 97 2.4C97 2.1 97.2 1.9 97.5 1.9C97.7 1.9 98.9 1.8 98.9 0.5C98.9 0.2 99.1 0 99.4 0C99.7 0 99.9 0.2 99.9 0.5C99.9 1.8 101.1 1.9 101.3 1.9C101.6 1.9 101.8 2.1 101.8 2.4C101.8 2.7 101.6 2.9 101.3 2.9C100 2.9 99.9 4.1 99.9 4.3C99.9 4.6 99.7 4.8 99.4 4.8C99.1 4.7 98.9 4.5 98.9 4.3Z" fill="#A92023"/>
<path d="M14.7999 12.9992C14.7999 12.7992 14.6999 11.5992 13.3999 11.5992C13.0999 11.5992 12.8999 11.3992 12.8999 11.0992C12.8999 10.7992 13.0999 10.5992 13.3999 10.5992C13.5999 10.5992 14.7999 10.4992 14.7999 9.19922C14.7999 8.89922 14.9999 8.69922 15.2999 8.69922C15.5999 8.69922 15.7999 8.89922 15.7999 9.19922C15.7999 10.4992 16.9999 10.5992 17.1999 10.5992C17.4999 10.5992 17.6999 10.7992 17.6999 11.0992C17.6999 11.3992 17.4999 11.5992 17.1999 11.5992C15.8999 11.5992 15.7999 12.7992 15.7999 12.9992C15.7999 13.2992 15.5999 13.4992 15.2999 13.4992C14.9999 13.4992 14.7999 13.1992 14.7999 12.9992Z" fill="#A92023"/>
<path d="M3.8 86.6002C3.8 86.1002 3.6 83.8002 1 83.8002C0.4 83.8002 0 83.3002 0 82.8002C0 82.3002 0.4 81.9002 0.9 81.9002C1.4 81.9002 3.7 81.7002 3.7 79.1002C3.7 78.6002 4.1 78.2002 4.6 78.2002C5.1 78.2002 5.5 78.6002 5.5 79.1002C5.5 81.7002 7.8 81.9002 8.3 81.9002C8.8 81.9002 9.2 82.3002 9.2 82.8002C9.2 83.3002 8.8 83.7002 8.3 83.7002C5.7 83.7002 5.5 86.0002 5.5 86.5002C5.5 87.0002 5.1 87.4002 4.6 87.4002C4.2 87.5002 3.8 87.1002 3.8 86.6002Z" fill="#A92023"/>
<path d="M139 91.3996C139 91.1996 138.9 89.9996 137.6 89.9996C137.3 89.9996 137.1 89.7996 137.1 89.4996C137.1 89.1996 137.3 88.9996 137.6 88.9996C137.8 88.9996 139 88.8996 139 87.5996C139 87.2996 139.2 87.0996 139.5 87.0996C139.8 87.0996 140 87.2996 140 87.5996C140 88.8996 141.2 88.9996 141.4 88.9996C141.7 88.9996 141.9 89.1996 141.9 89.4996C141.9 89.7996 141.7 89.9996 141.4 89.9996C140.1 89.9996 140 91.1996 140 91.3996C140 91.6996 139.8 91.8996 139.5 91.8996C139.2 91.7996 139 91.5996 139 91.3996Z" fill="#A92023"/>
<path d="M130.867 45.5005C130.867 46.1868 131.424 46.7432 132.11 46.7432H136.77C137.456 46.7432 138.013 46.1868 138.013 45.5005C138.013 44.8142 137.456 44.2578 136.77 44.2578H132.11C131.423 44.2578 130.867 44.8142 130.867 45.5005Z" fill="#2D346A"/>
<path d="M131.542 29.0132C130.953 29.3629 130.756 30.1251 131.107 30.7162C131.458 31.3064 132.22 31.5009 132.81 31.1506L135.909 29.3116C136.499 28.9612 136.694 28.1989 136.343 27.6087C135.993 27.0184 135.23 26.8239 134.64 27.1743L131.542 29.0132Z" fill="#2D346A"/>
<path d="M131.107 60.2838C130.756 60.8751 130.953 61.637 131.542 61.9867L134.64 63.8256C135.23 64.176 135.993 63.9815 136.343 63.3913C136.693 62.8011 136.499 62.0386 135.909 61.6883L132.81 59.8493C132.22 59.499 131.458 59.6935 131.107 60.2838Z" fill="#2D346A"/>
<path d="M33 105H117" stroke="#2D346A" stroke-width="2" stroke-miterlimit="10" stroke-linecap="round"/>
</g>
<defs>
<clipPath id="clip0_1565_880">
<rect width="150" height="106" fill="white"/>
</clipPath>
</defs>
</svg>
