<svg width="150" height="106" viewBox="0 0 150 106" fill="none" xmlns="http://www.w3.org/2000/svg">
<g clip-path="url(#clip0_1565_901)">
<path d="M137.25 12.948H136.152V11.75C136.152 10.234 134.955 9 133.482 9C132.008 9 130.812 10.234 130.812 11.75V12.947H128.072V11.75C128.072 10.234 126.875 9 125.402 9C123.929 9 122.732 10.234 122.732 11.75V12.947H119.992V11.75C119.992 10.234 118.795 9 117.322 9C115.849 9 114.652 10.234 114.652 11.75V12.947H113.25C110.907 12.947 109 14.854 109 17.197V41.197C109 43.54 110.907 45.447 113.25 45.447H137.25C139.594 45.447 141.5 43.54 141.5 41.197V17.197C141.5 14.854 139.593 12.948 137.25 12.948ZM132.312 11.75C132.312 11.061 132.837 10.5 133.482 10.5C134.128 10.5 134.652 11.061 134.652 11.75V16.645C134.652 17.334 134.128 17.895 133.482 17.895C132.837 17.895 132.312 17.334 132.312 16.645V11.75ZM124.232 11.75C124.232 11.061 124.757 10.5 125.402 10.5C126.047 10.5 126.572 11.061 126.572 11.75V16.645C126.572 17.334 126.047 17.895 125.402 17.895C124.757 17.895 124.232 17.334 124.232 16.645V11.75ZM116.151 11.75C116.151 11.061 116.676 10.5 117.321 10.5C117.966 10.5 118.491 11.061 118.491 11.75V16.645C118.491 17.334 117.966 17.895 117.321 17.895C116.676 17.895 116.151 17.334 116.151 16.645V11.75ZM139 41.198C139 42.163 138.215 42.948 137.25 42.948H113.25C112.285 42.948 111.5 42.163 111.5 41.198V19.198H139V41.198Z" fill="#005D33"/>
<path d="M119.878 38.298L124.752 35.7366L129.625 38.298L128.694 32.8702L132.637 29.0274L127.189 28.2358L124.752 23.298L122.315 28.2358L116.865 29.0274L120.809 32.8702L119.878 38.298Z" fill="#A92023"/>
<path d="M33 105H117" stroke="#2D346A" stroke-width="2" stroke-miterlimit="10" stroke-linecap="round"/>
<path d="M70.9201 92C93.4967 92 111.84 73.6565 111.84 51.0799C111.84 28.5033 93.4967 10.2539 70.9201 10.2539C48.3435 10.2539 30 28.5974 30 51.174C30 73.7506 48.3435 92 70.9201 92Z" fill="#DADADA"/>
<path d="M30 51.0793H34.5153" stroke="#2D346A" stroke-width="1.5" stroke-miterlimit="10" stroke-linecap="round" stroke-linejoin="round"/>
<path d="M106.949 31.7013C115.979 48.4456 112.311 69.7052 97.2594 82.4046C79.9507 96.8912 54.1758 94.7276 39.6891 77.4189C25.1084 60.1102 27.3661 34.3352 44.5807 19.8486C61.8894 5.36192 87.6644 7.52551 102.151 24.8342" stroke="#2D346A" stroke-width="1.5" stroke-miterlimit="10" stroke-linecap="round" stroke-linejoin="round"/>
<path d="M49.7546 73.6561C55.3046 78.8299 62.7361 82.0283 70.9201 82.0283C87.9466 82.0283 101.775 68.2001 101.775 51.1736C101.775 34.1471 87.9466 20.2249 70.9201 20.2249C53.8936 20.2249 40.0654 34.053 40.0654 51.0795C40.0654 57.194 41.8527 62.9323 44.957 67.7298" fill="#005D33"/>
<path d="M70.9202 56.6299C73.9304 56.6299 76.4703 54.1841 76.4703 51.0799C76.4703 48.0697 74.0245 45.5298 70.9202 45.5298C67.91 45.5298 65.3701 47.9756 65.3701 51.0799C65.3701 54.1841 67.91 56.6299 70.9202 56.6299Z" fill="#DADADA" stroke="#2D346A" stroke-width="1.5" stroke-miterlimit="10" stroke-linecap="round" stroke-linejoin="round"/>
<path d="M70.9202 45.6235V20.2249" stroke="white" stroke-width="1.5" stroke-miterlimit="10" stroke-linecap="round" stroke-linejoin="round"/>
<path d="M74.7771 55.0303L85.3128 65.566" stroke="white" stroke-width="1.5" stroke-miterlimit="10" stroke-linecap="round" stroke-linejoin="round"/>
<path d="M107.325 51.0793H111.84" stroke="#2D346A" stroke-width="1.5" stroke-miterlimit="10" stroke-linecap="round" stroke-linejoin="round"/>
<path d="M70.9202 87.4844V91.9997" stroke="#2D346A" stroke-width="1.5" stroke-miterlimit="10" stroke-linecap="round" stroke-linejoin="round"/>
<path d="M42.041 22.2007L45.2394 25.399" stroke="#2D346A" stroke-width="1.5" stroke-miterlimit="10" stroke-linecap="round" stroke-linejoin="round"/>
<path d="M45.2394 76.8547L42.041 80.0531" stroke="#2D346A" stroke-width="1.5" stroke-miterlimit="10" stroke-linecap="round" stroke-linejoin="round"/>
<path d="M99.7994 22.2007L96.6011 25.399" stroke="#2D346A" stroke-width="1.5" stroke-miterlimit="10" stroke-linecap="round" stroke-linejoin="round"/>
<path d="M80.4212 0H61.3252V4.70346H80.4212V0Z" fill="#DADADA" stroke="#2D346A" stroke-width="1.5" stroke-miterlimit="10" stroke-linecap="round" stroke-linejoin="round"/>
<path d="M74.871 4.70325H67.0632V9.78298H74.871V4.70325Z" fill="#DADADA" stroke="#2D346A" stroke-width="1.5" stroke-miterlimit="10" stroke-linecap="round" stroke-linejoin="round"/>
<path d="M136.7 105.3C136.7 104.8 136.5 102.5 133.9 102.5C133.4 102.5 133 102.1 133 101.6C133 101.1 133.4 100.7 133.9 100.7C134.4 100.7 136.7 100.5 136.7 97.9C136.7 97.4 137.1 97 137.6 97C138.1 97 138.5 97.4 138.5 97.9C138.5 100.5 140.8 100.7 141.3 100.7C141.8 100.7 142.2 101.1 142.2 101.6C142.2 102.1 141.8 102.5 141.3 102.5C138.7 102.5 138.5 104.8 138.5 105.3C138.5 105.8 138.1 106.2 137.6 106.2C137.1 106.2 136.7 105.8 136.7 105.3Z" fill="#A92023"/>
<path d="M98.9 4.3C98.9 4.1 98.8 2.9 97.5 2.9C97.2 2.9 97 2.7 97 2.4C97 2.1 97.2 1.9 97.5 1.9C97.7 1.9 98.9 1.8 98.9 0.5C98.9 0.2 99.1 0 99.4 0C99.7 0 99.9 0.2 99.9 0.5C99.9 1.8 101.1 1.9 101.3 1.9C101.6 1.9 101.8 2.1 101.8 2.4C101.8 2.7 101.6 2.9 101.3 2.9C100 2.9 99.9 4.1 99.9 4.3C99.9 4.6 99.7 4.8 99.4 4.8C99.1 4.7 98.9 4.5 98.9 4.3Z" fill="#A92023"/>
<path d="M14.7999 13.0002C14.7999 12.8002 14.6999 11.6002 13.3999 11.6002C13.0999 11.6002 12.8999 11.4002 12.8999 11.1002C12.8999 10.8002 13.0999 10.6002 13.3999 10.6002C13.5999 10.6002 14.7999 10.5002 14.7999 9.2002C14.7999 8.9002 14.9999 8.7002 15.2999 8.7002C15.5999 8.7002 15.7999 8.9002 15.7999 9.2002C15.7999 10.5002 16.9999 10.6002 17.1999 10.6002C17.4999 10.6002 17.6999 10.8002 17.6999 11.1002C17.6999 11.4002 17.4999 11.6002 17.1999 11.6002C15.8999 11.6002 15.7999 12.8002 15.7999 13.0002C15.7999 13.3002 15.5999 13.5002 15.2999 13.5002C14.9999 13.5002 14.7999 13.2002 14.7999 13.0002Z" fill="#A92023"/>
<path d="M3.8 86.6002C3.8 86.1002 3.6 83.8002 1 83.8002C0.4 83.8002 0 83.3002 0 82.8002C0 82.3002 0.4 81.9002 0.9 81.9002C1.4 81.9002 3.7 81.7002 3.7 79.1002C3.7 78.6002 4.1 78.2002 4.6 78.2002C5.1 78.2002 5.5 78.6002 5.5 79.1002C5.5 81.7002 7.8 81.9002 8.3 81.9002C8.8 81.9002 9.2 82.3002 9.2 82.8002C9.2 83.3002 8.8 83.7002 8.3 83.7002C5.7 83.7002 5.5 86.0002 5.5 86.5002C5.5 87.0002 5.1 87.4002 4.6 87.4002C4.2 87.5002 3.8 87.1002 3.8 86.6002Z" fill="#A92023"/>
<path d="M129.9 80.3C129.9 80.1 129.8 78.9 128.5 78.9C128.2 78.9 128 78.7 128 78.4C128 78.1 128.2 77.9 128.5 77.9C128.7 77.9 129.9 77.8 129.9 76.5C129.9 76.2 130.1 76 130.4 76C130.7 76 130.9 76.2 130.9 76.5C130.9 77.8 132.1 77.9 132.3 77.9C132.6 77.9 132.8 78.1 132.8 78.4C132.8 78.7 132.6 78.9 132.3 78.9C131 78.9 130.9 80.1 130.9 80.3C130.9 80.6 130.7 80.8 130.4 80.8C130.1 80.7 129.9 80.5 129.9 80.3Z" fill="#A92023"/>
<path d="M45 23.2L41.3 26.8L37.6 30.3L35 27.6L42.4 20.5L45 23.2Z" fill="#DADADA" stroke="#2D346A" stroke-width="1.5" stroke-miterlimit="10" stroke-linecap="round" stroke-linejoin="round"/>
<path d="M42.9001 28.3998L41.3 26.7998" stroke="#2D346A" stroke-width="1.5" stroke-miterlimit="10" stroke-linecap="round" stroke-linejoin="round"/>
<path d="M105 23.2L108.7 26.8L112.4 30.3L115 27.6L107.6 20.5L105 23.2Z" fill="#DADADA" stroke="#2D346A" stroke-width="1.5" stroke-miterlimit="10" stroke-linecap="round" stroke-linejoin="round"/>
<path d="M107.1 28.3998L108.7 26.7998" stroke="#2D346A" stroke-width="1.5" stroke-miterlimit="10" stroke-linecap="round" stroke-linejoin="round"/>
</g>
<defs>
<clipPath id="clip0_1565_901">
<rect width="150" height="106" fill="white"/>
</clipPath>
</defs>
</svg>
