<svg width="204" height="130" viewBox="0 0 204 130" fill="none" xmlns="http://www.w3.org/2000/svg">
<g clip-path="url(#clip0_1833_2026)">
<path opacity="0.5" fill-rule="evenodd" clip-rule="evenodd" d="M132.693 0.125149C131 0.290483 129.184 0.628181 127.184 1.14987L125.485 1.5932L125.579 2.97141C125.759 5.61143 126.041 11.5261 125.99 11.617C125.963 11.6672 125.696 11.7539 125.399 11.8096C123.528 12.1599 118.724 14.0294 115.375 15.7107L112.937 16.935L112.672 16.6091C112.527 16.4298 111.134 14.8961 109.576 13.2007C108.019 11.5053 106.66 9.99878 106.556 9.85311C106.453 9.7073 106.31 9.58804 106.238 9.58804C106.046 9.58804 103.462 11.0879 102.216 11.9227C100.137 13.3148 96.3214 16.7262 96.3214 17.1921C96.3214 17.3497 96.7444 18.0189 100.079 23.1363L101.66 25.5619L100.946 26.2937C99.0628 28.2252 95.315 32.8531 95.315 33.2471C95.315 33.3309 95.7841 33.6687 96.3573 33.9979C96.9305 34.3272 98.2879 35.1119 99.3734 35.742C100.459 36.372 101.438 36.8967 101.549 36.9079C101.66 36.9191 102.227 36.3069 102.81 35.5474C106.408 30.8566 111.067 26.7511 116.212 23.7377C117.56 22.948 121.217 21.0695 121.406 21.0695C121.456 21.0695 121.783 20.9386 122.135 20.7787C125.113 19.4245 129.817 18.1948 134.253 17.6109C136.879 17.2651 142.01 17.1948 144.482 17.4706C152.419 18.3562 159.643 20.9342 165.845 25.0941C168.468 26.8543 170.263 28.308 172.566 30.5383C180.639 38.3585 185.599 48.8297 186.571 60.1065C186.76 62.2988 186.671 67.2179 186.403 69.3635C185.392 77.4596 182.627 84.6076 177.994 91.1065C177.403 91.9353 176.879 92.6457 176.83 92.6852C176.781 92.7247 176.498 93.0799 176.201 93.4746C175.311 94.6557 173.122 96.9499 171.438 98.465C168.81 100.828 165.746 103.036 162.706 104.757L161.593 105.387L161.591 109.525C161.591 111.801 161.638 113.639 161.698 113.61C161.757 113.581 162.083 113.438 162.423 113.293C163.051 113.024 163.986 112.556 165.879 111.561C166.519 111.225 166.971 111.064 167.029 111.152C167.082 111.231 168.33 112.614 169.804 114.226C171.278 115.837 172.737 117.438 173.047 117.783L173.611 118.41L174.609 117.87C175.958 117.14 178.561 115.426 179.704 114.514C180.724 113.699 183.586 110.931 183.586 110.758C183.586 110.699 183.246 110.132 182.831 109.497C182.416 108.863 181.775 107.872 181.407 107.296C181.039 106.719 180.176 105.384 179.49 104.329L178.242 102.411L178.665 101.961C181.023 99.4537 181.601 98.7794 183.174 96.7037C184.402 95.0823 186.646 91.771 186.772 91.3948C186.802 91.3043 187.651 91.5095 188.906 91.9108C190.052 92.2772 191.475 92.7276 192.068 92.9115C192.661 93.0954 193.849 93.4741 194.708 93.7531C195.567 94.032 196.321 94.2289 196.383 94.1906C196.581 94.0687 198.067 91.5015 198.586 90.3863C199.686 88.0237 200.677 85.2481 200.99 83.6583C201.157 82.8087 201.15 82.7256 200.901 82.5436C200.753 82.4356 199.336 81.695 197.751 80.8979C195.437 79.7333 192.597 78.2605 192.389 78.1162C192.368 78.1017 192.511 77.4137 192.707 76.5872C193.457 73.4184 194.076 69.0497 194.079 66.9089C194.08 66.3481 194.121 65.4999 194.171 65.0239L194.262 64.1585L195.429 63.9113C196.071 63.7756 197.405 63.4865 198.393 63.2692C199.382 63.0518 201.048 62.6907 202.095 62.4668L204 62.0595V59.9293C204 56.6906 203.518 53.2202 202.702 50.5825L202.397 49.5978L200.287 49.6927C199.127 49.7448 197.11 49.8478 195.805 49.9217C192.154 50.1287 192.431 50.1651 192.226 49.4503C191.164 45.7435 189.587 41.8053 187.893 38.6294C187.058 37.0635 187.042 37.0123 187.319 36.8182C187.476 36.7083 188.046 36.2038 188.585 35.6971C189.124 35.1901 189.885 34.4895 190.277 34.1399C190.669 33.7903 191.629 32.9185 192.41 32.2025C193.192 31.4865 193.963 30.7864 194.125 30.6468L194.418 30.3928L193.998 29.5087C192.807 27.0047 189.404 22.5535 187.406 20.8861L186.768 20.3536L183.631 22.376C181.906 23.4882 180.057 24.6876 179.521 25.0412C178.986 25.3949 178.49 25.663 178.419 25.6373C178.348 25.6114 177.719 25.0679 177.02 24.4293C174.292 21.9346 171.876 20.0685 168.945 18.1917C167.589 17.3231 167.327 17.0978 167.38 16.8483C167.416 16.6836 168.072 14.5871 168.839 12.1895C169.606 9.79183 170.202 7.75071 170.165 7.6537C170.021 7.27969 166.619 5.44495 164.465 4.58039C162.5 3.79118 158.806 2.6904 158.666 2.85214C158.636 2.8863 157.915 4.27068 157.063 5.92832C156.211 7.58596 155.19 9.56062 154.793 10.3165L154.073 11.6909L152.692 11.3547C149.407 10.5549 144.799 9.9276 141.899 9.88498C140.993 9.87177 140.225 9.83532 140.194 9.80418C140.163 9.77303 139.76 8.01637 139.299 5.90047C138.838 3.78458 138.397 1.76269 138.319 1.40749C138.241 1.05228 138.14 0.590291 138.096 0.380754L138.014 0L135.965 0.00287098C134.838 0.00444968 133.366 0.059418 132.693 0.125149ZM138.668 27.6072C138.562 28.1707 138.522 28.1946 137.551 28.2876C136.888 28.3511 136.869 28.3417 136.713 27.8684C136.532 27.3206 136.308 27.2707 135.514 27.6015C134.96 27.8327 134.904 27.9904 135.146 28.6278C135.248 28.8936 135.25 29.045 135.155 29.077C135.075 29.1034 134.772 29.3135 134.482 29.5438L133.954 29.9625L133.592 29.678C133.126 29.3125 132.917 29.3195 132.55 29.7136C132.066 30.2323 132.039 30.6255 132.461 31.0162L132.832 31.3594L132.547 31.9482C132.39 32.2721 132.262 32.6133 132.262 32.7063C132.262 32.8214 132.059 32.8525 131.627 32.8039C130.917 32.7241 130.83 32.8392 130.827 33.8659C130.825 34.3676 130.851 34.3959 131.4 34.4885L131.975 34.5855V35.2905C131.975 35.6783 131.984 36.0438 131.995 36.1031C132.006 36.1623 131.78 36.3237 131.494 36.4619L130.973 36.7129L131.23 37.3947C131.497 38.1059 131.622 38.1663 132.412 37.9642C132.723 37.8846 132.817 37.944 133.045 38.3682C133.193 38.6419 133.368 38.8658 133.435 38.8658C133.647 38.8658 133.565 39.3108 133.279 39.7127C132.956 40.1654 133.006 40.2793 133.745 40.7775L134.293 41.1469L134.679 40.7191L135.066 40.2912L135.828 40.6147C136.587 40.9371 136.589 40.9401 136.5 41.4699C136.392 42.1029 136.653 42.3102 137.554 42.3102C138.103 42.3102 138.122 42.2932 138.212 41.7362C138.3 41.1832 138.325 41.1612 138.877 41.1381C139.192 41.1251 139.563 41.1088 139.702 41.1022C139.854 41.0951 140.035 41.2748 140.159 41.5568C140.394 42.0894 140.67 42.1399 141.416 41.7867C141.936 41.5404 141.93 41.5672 141.683 40.588C141.651 40.4612 141.893 40.1796 142.273 39.9023L142.917 39.4317L143.288 39.7229C143.787 40.1148 143.96 40.0913 144.397 39.5723C144.859 39.0251 144.86 38.9041 144.41 38.4357L144.051 38.0615L144.373 37.3012C144.693 36.5447 144.698 36.5414 145.244 36.6144C145.728 36.6793 145.809 36.6461 145.928 36.3324C146.002 36.1368 146.063 35.7606 146.063 35.4964C146.063 35.0478 146.025 35.0096 145.488 34.919C144.94 34.8266 144.913 34.7973 144.911 34.2965C144.91 34.0074 144.872 33.6318 144.826 33.462C144.758 33.2071 144.834 33.1205 145.26 32.9668C145.84 32.7574 145.887 32.5638 145.551 31.7629C145.322 31.2135 145.119 31.1643 144.335 31.4674C144.192 31.5228 144.029 31.4044 143.863 31.1238C143.723 30.8883 143.51 30.5966 143.389 30.4754C143.19 30.2775 143.198 30.2131 143.466 29.8382C143.848 29.3017 143.842 29.2327 143.368 28.7957C142.752 28.2276 142.528 28.2065 142.129 28.6794L141.775 29.0994L141.04 28.78C140.327 28.4703 140.306 28.4443 140.34 27.9143C140.382 27.2616 140.19 27.1026 139.358 27.0994C138.79 27.0974 138.759 27.1201 138.668 27.6072ZM159.576 30.1471C159.333 31.0936 159.319 31.1157 158.971 31.1171C158.79 31.1177 158.306 31.1586 157.895 31.2079L157.148 31.2975L156.824 30.6326C156.451 29.8649 156.289 29.8284 155.242 30.2781C154.454 30.6164 154.496 30.4804 154.772 31.7981C154.844 32.1443 154.769 32.2556 154.161 32.6951C153.779 32.9711 153.382 33.2509 153.278 33.3171C153.156 33.3942 152.895 33.3037 152.551 33.0659C152.256 32.8617 151.91 32.6945 151.782 32.6945C151.655 32.6945 151.312 33.019 151.021 33.4155C150.439 34.2063 150.446 34.2531 151.262 34.9536L151.645 35.2823L151.19 36.2914L150.736 37.3004L149.958 37.2666C149.06 37.2274 148.995 37.3098 148.915 38.5901L148.867 39.3602L149.622 39.4828C150.037 39.5501 150.38 39.6488 150.384 39.7019C150.443 40.5016 150.513 41.0919 150.59 41.4384C150.678 41.8406 150.644 41.8804 149.948 42.1792C149.243 42.482 149.216 42.5133 149.309 42.9409C149.362 43.186 149.504 43.6351 149.624 43.9386C149.828 44.4523 149.874 44.484 150.29 44.3957C151.359 44.1687 151.67 44.1443 151.67 44.2878C151.67 44.37 151.92 44.7526 152.225 45.138L152.78 45.8388L152.347 46.4632C151.841 47.192 151.881 47.3172 152.847 48.0111L153.491 48.4735L154.086 47.8846C154.648 47.3298 154.701 47.308 155.009 47.5066C155.189 47.6227 155.632 47.8294 155.994 47.966L156.652 48.2144L156.587 48.9907C156.526 49.7266 156.543 49.7746 156.909 49.9136C157.122 49.9942 157.6 50.0602 157.971 50.0602H158.647L158.823 49.3205C158.919 48.9137 159.016 48.5668 159.036 48.5497C159.057 48.5326 159.546 48.4864 160.123 48.4469L161.173 48.3753L161.52 49.0602C161.857 49.7233 161.883 49.7413 162.34 49.6282C163.765 49.2752 163.915 49.0799 163.544 48.0536L163.363 47.5538L164.275 46.8734L165.187 46.193L165.831 46.6462L166.475 47.0993L166.845 46.7524C167.048 46.5615 167.349 46.1883 167.513 45.9229L167.812 45.4404L167.239 44.8679L166.665 44.2954L167.07 43.4822C167.293 43.035 167.477 42.5851 167.48 42.4825C167.483 42.3401 167.683 42.3184 168.324 42.3909L169.165 42.4858L169.311 41.7502C169.533 40.6292 169.425 40.3158 168.781 40.213C168.485 40.1658 168.166 40.08 168.073 40.0223C167.979 39.9647 167.853 39.4499 167.792 38.8784L167.681 37.8394L168.386 37.4823C169.173 37.0844 169.185 36.9996 168.636 35.7545L168.372 35.1548L167.69 35.3598C167.314 35.4726 166.965 35.5649 166.915 35.5649C166.864 35.5649 166.541 35.1672 166.198 34.6811C165.694 33.9677 165.605 33.7534 165.736 33.5688C165.826 33.4432 166.006 33.1489 166.136 32.9148L166.373 32.4894L165.693 31.8743C165.319 31.536 164.928 31.2593 164.826 31.2593C164.723 31.2593 164.44 31.4854 164.197 31.7616C163.753 32.2665 163.489 32.3703 163.236 32.1392C163.161 32.0708 162.792 31.9006 162.416 31.7611L161.734 31.5073V30.6776V29.848L161.008 29.6925C159.827 29.4398 159.751 29.4642 159.576 30.1471ZM49.3963 29.8415C49.3612 29.9503 48.9958 31.5894 48.5841 33.4839C48.1723 35.3783 47.8194 36.9474 47.7997 36.9708C47.7801 36.9942 47.099 37.0395 46.2861 37.0715C43.7407 37.1718 40.3599 37.6528 38.2521 38.2145C37.5632 38.3982 37.4545 38.3972 37.3176 38.2062C37.2325 38.0874 36.4515 36.6049 35.5821 34.9117C34.2905 32.3966 33.9467 31.8334 33.7026 31.8334C32.2672 31.8334 25.3023 34.8506 25.3023 35.4723C25.3023 35.5703 25.563 36.4547 25.8817 37.4376C27.4859 42.3865 27.5166 42.5041 27.2405 42.6647C25.2235 43.8386 22.6 45.8043 20.3897 47.7982L19.1428 48.9229L18.3051 48.39C17.8442 48.0968 16.4337 47.1826 15.1706 46.3582L12.8741 44.8593L11.4243 46.3547C10.0299 47.7929 8.30664 50.1435 7.54153 51.6509C7.34716 52.0338 7.18816 52.3732 7.18816 52.405C7.18816 52.4369 8.41892 53.5807 9.92311 54.9467C11.4275 56.3129 12.6404 57.4697 12.6187 57.5175C12.597 57.5652 12.2081 58.3223 11.7542 59.1995C10.7841 61.0754 9.50332 64.2733 9.04055 65.9757L8.71306 67.1804L6.76449 67.0865C5.69288 67.0349 3.99849 66.9519 2.99919 66.9023C1.29948 66.8177 1.17699 66.8294 1.10036 67.083C0.377522 69.478 0 72.0141 0 74.4754C0 75.9571 0.0304778 76.1701 0.251586 76.235C0.39003 76.2756 0.988372 76.4078 1.5814 76.5286C2.72791 76.7624 3.69903 76.972 5.88754 77.4576C6.63496 77.6235 7.25702 77.7593 7.26982 77.7593C7.28261 77.7593 7.33811 78.5827 7.39331 79.5891C7.51925 81.8836 7.95399 85.0308 8.38528 86.7698C8.61444 87.6936 8.66892 88.1403 8.56297 88.2268C8.43488 88.3313 5.44144 89.8898 2.83932 91.2065C2.42414 91.4167 2.15645 91.6487 2.15645 91.7987C2.15645 92.4867 3.32625 96.0217 3.99331 97.3496C4.28558 97.9312 5.53 100.073 5.69044 100.27C5.73773 100.328 5.74679 100.325 9.61833 99.0814C11.2316 98.563 12.6226 98.1392 12.7092 98.1396C12.7959 98.1399 13.2512 98.7374 13.721 99.4672C14.1909 100.197 14.9327 101.278 15.3694 101.869C16.0733 102.821 16.5703 103.408 18.7233 105.827L19.2605 106.431L17.2292 109.563L15.1978 112.695L16.5272 113.966C17.2582 114.665 18.3187 115.578 18.8839 115.993C19.8681 116.718 22.1178 118.122 22.5721 118.296C22.7221 118.353 23.4928 117.605 25.0647 115.876C26.3163 114.5 27.454 113.271 27.593 113.145C27.827 112.934 27.9953 112.991 29.8447 113.909C31.73 114.845 35.1974 116.227 36.1645 116.428L36.6037 116.52L36.9204 114.039C37.3017 111.052 37.3093 110.769 37.0082 110.769C36.6165 110.769 33.8846 109.646 32.1831 108.785C30.3059 107.836 27.759 106.202 26.093 104.879C22.1795 101.77 18.5521 97.2068 16.4573 92.757C15.3444 90.3929 15.2984 90.2826 14.8134 88.8102C12.8218 82.7659 12.4411 76.9263 13.6384 70.7849C14.9515 64.0481 18.4087 57.6516 23.3827 52.7565C29.421 46.8138 36.8595 43.4274 45.4132 42.7269C52.2369 42.168 59.6389 43.8828 65.6508 47.4149C69.5401 49.7 73.1558 52.8603 75.6195 56.128C76.1334 56.8098 76.6104 57.3702 76.6796 57.3736C76.8373 57.3813 81.4992 54.7516 81.5076 54.6501C81.5235 54.4569 79.2134 51.5578 78.0383 50.2962L76.7207 48.8817L76.9967 48.3692C77.1485 48.0874 77.3376 47.7875 77.4168 47.7028C77.496 47.618 77.8166 47.1289 78.1293 46.6158C78.442 46.1027 78.7486 45.6183 78.8107 45.5394C79.0409 45.2465 80.2199 43.4181 80.2199 43.3539C80.2199 43.3173 80.3487 43.1069 80.506 42.8862L80.7922 42.485L79.4474 41.2017C78.7078 40.4957 77.5601 39.529 76.8969 39.0531C75.7008 38.1948 73.433 36.8475 73.2164 36.8664C73.1543 36.8719 72.3596 37.7092 71.4503 38.727C70.541 39.7448 69.4382 40.9724 68.9994 41.4549L68.202 42.3321L66.3398 41.4002C64.1319 40.2951 62.8263 39.7621 60.3087 38.9378L58.4397 38.326L58.4753 37.6272C58.4948 37.2427 58.5756 35.7335 58.655 34.2732C58.7342 32.8129 58.799 31.4505 58.799 31.2455C58.7992 30.9065 58.7054 30.8458 57.7569 30.5707C55.9482 30.0463 54.2006 29.7966 51.7933 29.7188C49.8873 29.6572 49.4482 29.6798 49.3963 29.8415ZM137.834 31.7075C136.417 32.026 135.407 33.231 135.394 34.6165C135.37 37.351 138.572 38.7428 140.564 36.8636C141.399 36.0759 141.703 34.5957 141.252 33.517C140.711 32.2238 139.169 31.4074 137.834 31.7075ZM157.958 35.8439C156.747 36.2334 155.546 37.4543 155.18 38.6675C154.901 39.5921 154.925 40.2957 155.265 41.204C156.141 43.539 158.73 44.6174 160.907 43.554C161.785 43.1251 162.415 42.4974 162.915 41.5527C163.373 40.6889 163.373 39.0574 162.915 38.13C162.503 37.294 161.75 36.5137 160.971 36.1151C160.304 35.774 158.641 35.6243 157.958 35.8439ZM167.981 52.1259C167.906 52.5239 167.809 52.6288 167.453 52.7C166.508 52.8887 166.211 52.8132 165.96 52.3207C165.829 52.064 165.704 51.8327 165.681 51.8063C165.658 51.78 165.335 51.8927 164.964 52.0567L164.288 52.355L164.384 52.9939C164.475 53.5944 164.455 53.6458 164.067 53.8464C163.84 53.9638 163.569 54.162 163.465 54.2869C163.295 54.4907 163.224 54.4743 162.768 54.1265L162.259 53.7393L161.781 54.2917C161.518 54.5956 161.302 54.8859 161.302 54.937C161.302 54.9879 161.491 55.2097 161.72 55.4295L162.138 55.8294L161.795 56.5687C161.461 57.2898 161.437 57.3079 160.838 57.3079H160.224V58.0881C160.224 58.8415 160.24 58.8724 160.673 58.9845C161.024 59.0752 161.142 59.1993 161.212 59.5498C161.403 60.5023 161.333 60.7567 160.807 61.0065C160.355 61.2218 160.323 61.2782 160.432 61.659C160.641 62.3866 160.872 62.7084 161.131 62.6319C162.029 62.3664 162.079 62.3819 162.5 63.0495L162.907 63.6952L162.606 64.1809L162.305 64.6665L162.815 65.1133C163.431 65.6534 163.552 65.6621 164.033 65.2017L164.408 64.8434L165.139 65.1515C165.863 65.457 165.869 65.4645 165.796 66.0089C165.729 66.5034 165.761 66.5726 166.109 66.7049C166.322 66.7857 166.684 66.8519 166.913 66.8519C167.277 66.8519 167.349 66.7798 167.484 66.2778C167.609 65.816 167.705 65.7037 167.975 65.7037C168.16 65.7037 168.51 65.6638 168.754 65.6152C169.157 65.5348 169.221 65.5747 169.446 66.0457C169.726 66.6326 169.833 66.658 170.648 66.3324C171.066 66.1655 171.211 66.0337 171.161 65.8659C170.889 64.9475 170.896 64.925 171.583 64.4415L172.246 63.9748L172.655 64.2651C173.218 64.6652 173.319 64.6387 173.758 63.9768L174.142 63.3978L173.735 62.9737L173.328 62.5496L173.669 61.8214C174.005 61.1067 174.022 61.0941 174.593 61.1353C175.17 61.1769 175.176 61.1719 175.302 60.5786C175.469 59.7863 175.371 59.5876 174.756 59.4723C174.309 59.3886 174.241 59.3221 174.241 58.9699C174.241 58.7464 174.204 58.378 174.159 58.1511C174.087 57.7887 174.141 57.7046 174.599 57.46C175.148 57.1671 175.164 57.0736 174.819 56.1661C174.675 55.7885 174.313 55.7088 173.747 55.9301C173.525 56.0167 173.369 55.91 172.986 55.4085L172.504 54.778L172.814 54.2764L173.125 53.7746L172.784 53.4112C172.175 52.7604 171.959 52.7163 171.504 53.1508L171.097 53.5403L170.369 53.2789C169.651 53.0212 169.641 53.0088 169.641 52.4152C169.641 51.7388 169.51 51.6389 168.629 51.6389C168.11 51.6389 168.066 51.6718 167.981 52.1259ZM48.8292 53.0741C48.7487 53.4761 48.6999 53.5047 48.0951 53.5047C47.5241 53.5047 47.4367 53.4622 47.3572 53.1459C47.2565 52.7458 47.1171 52.7149 46.4533 52.946C46.0359 53.0912 46.0045 53.1447 46.085 53.5731C46.1615 53.9803 46.1152 54.0825 45.7305 54.356C45.3008 54.6614 45.2756 54.6633 44.8599 54.418C44.6244 54.2792 44.4135 54.1944 44.3913 54.2299C44.3691 54.2652 44.1941 54.4716 44.0025 54.6887L43.6538 55.0834L43.9734 55.4229C44.2858 55.7549 44.2874 55.7738 44.0437 56.2841C43.8341 56.7228 43.7217 56.8056 43.336 56.8056C42.9373 56.8056 42.8656 56.8643 42.7875 57.2541C42.6528 57.9268 42.6643 57.957 43.1147 58.1138C43.4665 58.2362 43.5404 58.35 43.5874 58.8408C43.6363 59.3528 43.5991 59.4416 43.2782 59.5785C43.0775 59.6641 42.8929 59.7467 42.8679 59.7624C42.843 59.7779 42.8946 60.0577 42.9828 60.3842C43.1374 60.958 43.159 60.975 43.6203 60.8886C44.0361 60.8108 44.1376 60.8548 44.4041 61.2284C44.7735 61.7462 44.7774 61.8039 44.4673 62.1461C44.2368 62.4004 44.2477 62.4377 44.6787 62.868L45.1333 63.3218L45.473 63.0032C45.7966 62.6998 45.8378 62.695 46.3398 62.9044C46.7988 63.0959 46.8668 63.1867 46.8668 63.6079C46.8668 63.9881 46.936 64.1101 47.1903 64.1781C47.8871 64.3646 48.1211 64.2865 48.211 63.838C48.2911 63.4386 48.3425 63.4074 48.9246 63.4074C49.4545 63.4074 49.5776 63.4633 49.7159 63.7662C49.9018 64.1734 49.9558 64.1858 50.5868 63.9662C51.0003 63.8224 51.0352 63.7647 50.9582 63.3545C50.8854 62.9678 50.9367 62.8545 51.3081 62.5804C51.8209 62.2019 51.9467 62.1867 52.186 62.4746C52.4572 62.8007 52.7089 62.7356 53.0552 62.2501L53.3689 61.8102L53.0581 61.48C52.7561 61.1591 52.7543 61.1351 52.993 60.6354C53.1987 60.2047 53.3225 60.1141 53.7547 60.078C54.2456 60.0369 54.2726 60.0068 54.3132 59.4588C54.352 58.9325 54.3178 58.8685 53.9178 58.7177C53.5286 58.5712 53.4799 58.4878 53.4799 57.969C53.4799 57.4659 53.5297 57.3726 53.8393 57.2951C54.2378 57.1953 54.2969 56.8909 54.031 56.308C53.8871 55.9929 53.7981 55.9527 53.4057 56.0261C53.0022 56.1018 52.9125 56.0554 52.6454 55.6343C52.3731 55.2051 52.3637 55.1249 52.5519 54.8382C52.8419 54.3964 52.8221 54.3213 52.3174 53.9489L51.8738 53.6214L51.5574 53.9182C51.2522 54.2043 51.2218 54.2063 50.7072 53.9734C50.2537 53.7682 50.1734 53.6631 50.1734 53.2749C50.1734 52.7815 49.9862 52.6436 49.317 52.6436C48.9859 52.6436 48.9003 52.7191 48.8292 53.0741ZM47.6575 56.3132C46.0308 57.1561 45.7268 59.0479 47.0379 60.1684C48.0688 61.0493 49.3152 60.9717 50.2217 59.9702C51.0743 59.028 51.0922 57.9239 50.2697 56.9889C49.5123 56.1278 48.5139 55.8696 47.6575 56.3132ZM166.947 56.2277C166.025 56.4462 165.1 57.3772 164.758 58.431C164.418 59.4761 164.928 60.9099 165.903 61.6478C167.305 62.7098 169.302 62.3367 170.304 60.8256C171.389 59.1874 170.505 56.8713 168.576 56.2993C167.8 56.0692 167.644 56.0625 166.947 56.2277ZM34.0709 57.0235C33.9924 57.2297 33.9281 57.4823 33.9281 57.5848C33.9281 57.6977 33.6653 57.8072 33.2611 57.8625C32.2426 58.0018 32.2031 57.9892 31.9781 57.4514C31.7406 56.884 31.4808 56.8267 30.673 57.1637C30.1323 57.3893 30.1391 57.3586 30.403 58.3843C30.4373 58.5169 30.1887 58.7774 29.7561 59.0624L29.0537 59.5253L28.5945 59.1395L28.1352 58.7537L27.5745 59.3846L27.0137 60.0154L27.433 60.434L27.8524 60.8527L27.5478 61.6403L27.2431 62.4279L26.6222 62.3602C26.066 62.2993 25.9875 62.3289 25.8675 62.6439C25.7939 62.8374 25.7336 63.2061 25.7336 63.4633C25.7336 63.8844 25.7872 63.9442 26.2727 64.0639L26.8118 64.1968L26.8538 65.0628L26.8958 65.9288L26.3745 66.1169C25.8146 66.3192 25.7939 66.468 26.1873 67.4618C26.3581 67.8934 26.45 67.9195 27.1214 67.7273C27.5529 67.6036 27.5926 67.6288 28.0289 68.301L28.4852 69.004L28.1644 69.4537C27.8002 69.9642 27.858 70.1406 28.5685 70.6876L29.0156 71.0319L29.4923 70.6066L29.9689 70.1815L30.6546 70.5284C31.3154 70.8627 31.3404 70.8981 31.3404 71.5019C31.3404 72.187 31.4959 72.2996 32.4488 72.3036C32.8615 72.3055 32.9281 72.2463 33.0789 71.7437C33.2455 71.1884 33.2569 71.1813 34.0346 71.1338C34.8196 71.0858 34.8228 71.0873 35.1035 71.6371C35.3525 72.1246 35.4296 72.1773 35.7707 72.0928C36.4182 71.9324 36.8777 71.651 36.8303 71.4439C36.6195 70.5206 36.6182 70.5242 37.3047 70.0412L37.9715 69.572L38.38 69.8623C38.6047 70.0221 38.8467 70.1528 38.9179 70.1528C39.0838 70.1528 39.9662 69.2477 39.9662 69.0774C39.9662 69.0065 39.7973 68.7726 39.591 68.5576L39.2157 68.1667L39.5692 67.3958C39.9209 66.6289 39.9256 66.6251 40.5027 66.6801C41.1712 66.7437 41.1987 66.7158 41.3303 65.8378L41.4285 65.1825L40.8411 65.0068C40.385 64.8703 40.2534 64.7603 40.2521 64.514C40.2513 64.3395 40.2116 63.9614 40.1638 63.6738C40.0813 63.1754 40.1016 63.1419 40.5967 62.9633C41.169 62.7566 41.2385 62.5086 40.953 61.6907C40.7937 61.2347 40.7728 61.225 40.1263 61.305C39.4764 61.3854 39.4538 61.3747 39.0055 60.7659L38.5481 60.1444L38.9213 59.5962L39.2945 59.0478L38.7439 58.5725C38.2107 58.1125 37.8097 57.9629 37.8097 58.2243C37.8097 58.2942 37.6546 58.4528 37.4648 58.5769C37.1457 58.7856 37.0643 58.779 36.3718 58.4869L35.6237 58.1713L35.7065 57.5687C35.7969 56.9098 35.805 56.9168 34.7538 56.7397C34.2655 56.6575 34.1998 56.6848 34.0709 57.0235ZM32.3467 61.627C31.7458 61.8869 31.1449 62.4371 30.7282 63.1091C30.2658 63.8554 30.3038 65.167 30.8135 66.035C31.4051 67.0429 32.4751 67.713 33.4927 67.713C34.608 67.713 36.0187 66.7694 36.4523 65.7336C36.7048 65.1302 36.7216 63.9952 36.4862 63.4501C35.7643 61.7785 33.8975 60.9564 32.3467 61.627ZM165.613 71.7674C165.609 72.2947 165.417 72.4523 164.67 72.5384C163.985 72.6175 163.956 72.6057 163.77 72.1758C163.554 71.6755 163.382 71.6398 162.653 71.9439C162.279 72.0998 162.163 72.2239 162.215 72.4104C162.445 73.2329 162.445 73.234 161.871 73.6311C161.315 74.0166 161.295 74.0195 160.803 73.7853C160.303 73.5473 160.3 73.548 159.939 73.9665C159.502 74.474 159.491 74.6231 159.865 74.9607C160.215 75.277 160.218 75.3724 159.906 76.1255C159.669 76.6968 159.64 76.7165 159.123 76.6473C158.642 76.5829 158.576 76.6132 158.495 76.9346C158.445 77.1324 158.426 77.4757 158.452 77.6977C158.489 78.0168 158.597 78.1267 158.966 78.2216C159.349 78.3197 159.434 78.4124 159.435 78.7322C159.436 78.9469 159.476 79.2681 159.524 79.4459C159.596 79.7153 159.525 79.805 159.095 79.9841C158.556 80.2093 158.556 80.2076 158.895 81.109C159.039 81.4939 159.082 81.5113 159.672 81.4232C160.049 81.3666 160.296 81.3856 160.296 81.471C160.296 81.5488 160.463 81.8101 160.667 82.0519L161.037 82.4915L160.714 82.944L160.392 83.3966L160.883 83.8031C161.489 84.3047 161.639 84.3128 161.973 83.8617L162.237 83.5056L162.92 83.7529C163.585 83.9936 163.603 84.0157 163.603 84.5944C163.603 85.2314 163.774 85.3595 164.633 85.3638C164.95 85.3655 165.035 85.2847 165.119 84.8993C165.246 84.3155 165.389 84.2225 166.167 84.2198C166.728 84.2179 166.806 84.2604 166.953 84.6482C167.137 85.135 167.284 85.1661 167.995 84.8696C168.472 84.6706 168.492 84.6341 168.408 84.1093C168.324 83.5904 168.353 83.5349 168.887 83.1651C169.448 82.7776 169.461 82.7756 169.896 83.0247C170.322 83.2685 170.348 83.2675 170.649 82.9956C171.234 82.4673 171.279 82.226 170.869 81.8164C170.663 81.6113 170.513 81.4057 170.536 81.3595C170.558 81.3132 170.67 81.0334 170.784 80.7373C170.974 80.2452 171.039 80.1991 171.543 80.1991C172.124 80.1991 172.152 80.1667 172.294 79.309C172.381 78.7887 172.371 78.7747 171.816 78.6256C171.261 78.4763 171.248 78.4582 171.2 77.7444C171.151 77.0355 171.163 77.01 171.633 76.8141C172.061 76.6355 172.105 76.5678 172.019 76.2172C171.965 75.9998 171.828 75.6783 171.715 75.5027C171.541 75.2348 171.449 75.2059 171.14 75.3233C170.607 75.5257 170.576 75.5142 170.139 74.9412C169.74 74.4196 169.74 74.4193 170 73.9368C170.253 73.4688 170.252 73.4451 169.988 73.1536C169.466 72.578 169.216 72.5322 168.795 72.9355L168.409 73.304L167.718 72.9864C167.059 72.6842 167.03 72.646 167.103 72.1936C167.17 71.7839 167.131 71.6995 166.82 71.5814C166.621 71.5061 166.269 71.4445 166.037 71.4445C165.696 71.4445 165.615 71.5063 165.613 71.7674ZM29.5432 74.5186C29.5038 74.6434 29.4441 74.8347 29.4106 74.9437C29.3158 75.2526 28.2874 75.3351 28.0747 75.0508C27.632 74.4592 27.6155 74.4522 27.131 74.6514C26.7226 74.8192 26.6727 74.8993 26.7078 75.3317C26.7415 75.7499 26.6773 75.8664 26.2699 76.1268C25.7941 76.4306 25.7913 76.4307 25.4434 76.1496L25.0943 75.8673L24.6936 76.3149L24.2931 76.7624L24.5816 77.1532C24.8572 77.5268 24.8595 77.5673 24.6308 78.0693C24.4136 78.5462 24.3493 78.5877 23.9333 78.5204C23.5428 78.4571 23.4616 78.4961 23.3842 78.7844C23.1925 79.5 23.2694 79.7413 23.7209 79.8403C24.1212 79.9281 24.1522 79.9807 24.1522 80.5724C24.1522 81.1132 24.0977 81.2347 23.7928 81.3734C23.3906 81.5564 23.3542 81.7343 23.6066 82.2874C23.7554 82.6135 23.8457 82.6563 24.248 82.5911C24.6624 82.524 24.7513 82.572 25.0233 83.0113C25.3151 83.4828 25.3184 83.526 25.0894 83.8748C24.8636 84.2188 24.8638 84.259 25.0943 84.5131C25.4645 84.9214 25.8596 84.9958 26.1699 84.7153C26.4174 84.4919 26.4902 84.489 26.9783 84.6833C27.4458 84.8695 27.5158 84.959 27.5227 85.3794C27.5301 85.8255 27.5722 85.8687 28.0813 85.9519C28.579 86.0333 28.6454 86.0063 28.7731 85.6709C28.95 85.2062 29.1408 85.0838 29.6916 85.0809C30.0432 85.0792 30.1582 85.1607 30.2879 85.5034C30.4354 85.8936 30.4844 85.9179 30.8897 85.8019C31.582 85.6036 31.6607 85.5142 31.571 85.0264C31.4982 84.6315 31.5481 84.5377 31.9778 84.2597C32.4659 83.9441 32.4688 83.9439 32.8255 84.2241L33.1834 84.5051L33.5558 84.0633C34.0009 83.5353 34.0076 83.4729 33.6551 83.1544C33.3953 82.9196 33.3936 82.88 33.6192 82.3331C33.8374 81.8041 33.8922 81.764 34.3097 81.8286C34.6846 81.8866 34.7776 81.8448 34.8468 81.5872C35.0268 80.9171 34.9454 80.6615 34.5032 80.5077C34.1192 80.3741 34.0719 80.2935 34.0719 79.773C34.0719 79.2886 34.1336 79.1603 34.4313 79.0248C34.832 78.8426 34.8594 78.7166 34.6373 78.0805C34.4947 77.6722 34.4526 77.6504 34.0358 77.7696C33.7894 77.8402 33.5786 77.8829 33.5676 77.8645C33.5565 77.8461 33.4038 77.6232 33.2283 77.3694C32.9235 76.9287 32.9201 76.8909 33.1511 76.5388C33.3833 76.1849 33.3797 76.1555 33.0605 75.8165C32.6859 75.4184 32.2748 75.3559 32.1509 75.6783C32.0454 75.9528 31.7262 75.9517 31.1894 75.6745C30.867 75.5081 30.7653 75.3554 30.7653 75.0372C30.7653 74.564 30.7301 74.5307 30.0823 74.3921C29.7225 74.315 29.5985 74.3441 29.5432 74.5186ZM164.249 75.8786C162 76.9181 162.065 80.0263 164.355 80.9816C166.468 81.8632 168.707 79.78 167.984 77.6054C167.449 75.9973 165.721 75.1983 164.249 75.8786ZM28.2384 78.0416C27.717 78.2523 27.0398 79.0464 26.8817 79.6326C26.3202 81.7144 28.8872 83.3387 30.5789 81.972C32.281 80.5967 31.2768 77.8751 29.0807 77.9118C28.7817 77.9169 28.4026 77.9753 28.2384 78.0416Z" fill="#A7AAAF"/>
<path d="M37.7721 96.4474C37.7868 94.6069 39.2152 85.6247 39.5895 85.0168C39.8069 84.6642 45.1032 84.4737 54.668 84.4737H69.4115L69.0577 88.7263C68.8629 91.0648 68.5606 94.0253 68.3857 95.3053L68.0676 97.6316H37.7627L37.7721 96.4474Z" fill="#005D33"/>
<path d="M70.3103 96.1769C70.3103 94.8584 71.366 86.5084 71.64 85.6579C71.7565 85.2963 72.2437 85 72.7219 85C73.481 85 73.5624 85.5626 73.3608 89.4132C73.1597 93.249 72.945 94.0468 71.7198 95.5063C70.5628 96.8853 70.3103 97.0053 70.3103 96.1769Z" fill="#005D33"/>
<path d="M37.7627 111.842V102.368H66.1106V111.842H37.7627Z" fill="#005D33"/>
<path d="M40.125 119.211C37.9553 119.211 37.7627 119.103 37.7627 117.895C37.7627 116.686 37.9553 116.579 40.125 116.579C42.2946 116.579 42.4873 116.686 42.4873 117.895C42.4873 119.103 42.2946 119.211 40.125 119.211Z" fill="#005D33"/>
<path d="M63.4858 119.211C61.0358 119.211 60.861 119.123 60.861 117.895C60.861 116.667 61.0358 116.579 63.4858 116.579C65.9357 116.579 66.1106 116.667 66.1106 117.895C66.1106 119.123 65.9357 119.211 63.4858 119.211Z" fill="#005D33"/>
<path d="M49.8368 120.351C49.8368 119.82 50.0053 119.217 50.2116 119.01C50.4179 118.804 51.3035 118.705 52.1802 118.791C53.374 118.908 53.816 119.245 53.942 120.132C54.0921 121.193 53.8884 121.316 51.9734 121.316C50.2515 121.316 49.8368 121.128 49.8368 120.351Z" fill="#005D33"/>
<path fill-rule="evenodd" clip-rule="evenodd" d="M44.5383 76.8421L44.5872 65H83.3015L113.914 98.1558L113.62 111.251L99.1831 101.362C91.2431 95.9237 84.5902 91.5584 84.3992 91.6606C84.2081 91.7632 84.2081 92.4268 84.3992 93.1353C84.6464 94.0521 86.488 95.5158 90.7837 98.2111C94.1041 100.294 98.002 102.753 99.4456 103.675C100.889 104.596 104.725 106.989 107.969 108.991C113.935 112.673 116.205 114.744 111.126 111.871C109.61 111.014 103.055 107.36 96.5583 103.752L84.7467 97.1921L84.595 101.953C84.5115 104.571 84.5462 106.817 84.6727 106.943C84.9966 107.268 111.855 115.552 112.927 115.658C113.412 115.706 113.704 115.916 113.575 116.125C113.332 116.518 100.595 116.269 95.5273 115.772C93.9493 115.617 89.4608 114.912 85.553 114.203C81.6447 113.495 77.803 112.8 77.0151 112.658L75.5835 112.399L75.7667 118.831C75.8675 122.369 75.8643 123.842 75.7604 122.105C75.6559 120.368 75.4144 117.882 75.2234 116.579C74.9178 114.493 74.8297 114.367 74.4832 115.526C73.9923 117.167 73.8858 124.313 74.3273 125.966C74.5782 126.905 74.7693 127.029 75.1388 126.492C75.4575 126.028 75.562 126.551 75.4459 128.026L75.3111 129.737H69.5666C69.6306 129.65 69.6241 129.548 69.579 129.431C69.4036 128.973 69.2603 128.025 69.2603 127.325V126.053H46.162V127.325C46.162 128.025 46.0187 128.973 45.8434 129.431C45.7983 129.548 45.7918 129.65 45.8558 129.737H39.7794C39.7905 129.573 39.7432 129.359 39.6683 129.079C39.4945 128.428 39.3486 127.48 39.3449 126.974C39.3396 126.311 38.9128 126.053 37.8251 126.053C36.4629 126.053 36.2466 125.804 35.6528 123.553C34.5509 119.376 34.9079 99.9095 36.2434 91.3253C37.4624 83.4921 38.3832 81.5911 42.492 78.4211L44.5383 76.8421ZM45.7683 75.9221C45.2738 76.0869 45.1121 74.8969 45.1121 71.0963C45.1121 66.9095 45.2491 66.0526 45.9195 66.0526C46.5978 66.0526 46.7022 66.8216 46.5757 70.8784C46.4728 74.1584 46.2145 75.7742 45.7683 75.9221ZM82.6468 107.105C81.9602 107.105 81.8594 104.474 81.8594 86.579C81.8594 68.6842 81.9602 66.0526 82.6468 66.0526C83.3335 66.0526 83.4343 68.6842 83.4343 86.579C83.4343 104.474 83.3335 107.105 82.6468 107.105ZM39.157 83.5532C40.4967 81.2021 44.6801 77.6995 47.7553 76.3537C49.2394 75.7042 51.893 75.579 62.1734 75.6737L74.7724 75.7895L74.911 91.9358C75.0459 107.582 75.0181 108.092 74.0196 108.41C72.9729 108.743 72.7587 109.181 72.1434 112.244L71.7985 113.961L35.9253 113.684L35.762 107.632C35.5421 99.4742 37.3364 86.7479 39.157 83.5532ZM36.4508 122.896C36.2728 122.606 35.9883 120.712 35.8187 118.685L35.5106 115H71.8851V123.421H54.3299C43.2112 123.421 36.656 123.228 36.4508 122.896Z" fill="#005D33"/>
<path fill-rule="evenodd" clip-rule="evenodd" d="M110.755 129.737L110.339 128.838C109.557 127.152 109.458 121.842 110.207 121.842C110.496 121.842 110.767 123.323 110.811 125.132C110.854 126.941 110.986 127.792 111.103 127.023C111.249 126.074 111.729 125.522 112.6 125.303C114.283 124.879 114.292 123.421 112.611 123.421C111.626 123.421 111.263 123.066 110.995 121.842C110.757 120.756 110.334 120.263 109.641 120.263C109.086 120.263 108.625 120.559 108.616 120.921C108.606 121.323 108.327 121.221 107.902 120.658C107.098 119.596 105.491 119.423 105.467 120.395C105.457 120.785 105.245 120.699 104.945 120.184C104.562 119.527 103.658 119.316 101.224 119.316C98.5054 119.316 97.9673 119.471 97.7468 120.316C97.603 120.866 97.1589 121.316 96.7594 121.316C96.3027 121.316 96.0334 121.901 96.0334 122.895C96.0334 124.83 96.1756 125.303 96.7043 125.127C97.1909 124.964 97.4261 125.647 97.793 128.289L97.994 129.737L100.758 129.737C100.758 129.447 100.994 129.211 101.283 129.211C101.572 129.211 101.808 129.447 101.808 129.737L104.538 129.737C104.55 129.551 104.619 129.335 104.739 129.14C105.07 128.603 105.193 128.603 105.371 129.138C105.442 129.351 105.453 129.559 105.422 129.737H107.688C107.7 129.551 107.768 129.335 107.889 129.14C108.219 128.603 108.343 128.603 108.521 129.138C108.592 129.351 108.603 129.559 108.572 129.737H110.755ZM103.7 127.322C103.297 126.268 103.303 123.51 103.712 121.979C104.268 119.901 104.958 121.282 104.958 124.474C104.958 127.517 104.324 128.953 103.7 127.322ZM107.006 127.866C106.504 126.58 106.424 123.263 106.868 122.104C107.748 119.804 108.53 124.679 107.749 127.603C107.431 128.796 107.377 128.815 107.006 127.866Z" fill="#005D33"/>
<path fill-rule="evenodd" clip-rule="evenodd" d="M93.5334 129.737L93.6526 127.237C93.7324 125.572 93.6962 125.099 93.5729 126.184C93.1455 129.937 92.3586 128.145 92.3586 123.421C92.3586 120.614 92.5723 118.684 92.8836 118.684C93.1723 118.684 93.45 119.809 93.5004 121.184L93.5918 123.684L93.7975 121.358C94.1015 117.913 93.6311 116.579 92.1124 116.579C91.41 116.579 90.5953 116.994 90.3008 117.5C89.8231 118.323 89.7643 118.294 89.7496 117.237C89.737 116.283 89.4356 116.053 88.2025 116.053C87.3605 116.053 86.5336 116.349 86.3651 116.711C86.1205 117.237 85.9977 117.237 85.753 116.711C85.5845 116.349 84.7719 116.053 83.9477 116.053C82.566 116.053 82.4201 116.244 82.082 118.506C81.8799 119.855 81.8499 123.052 82.0153 125.611L82.2821 129.737H85.5692C85.5466 129.645 85.5341 129.546 85.5341 129.443C85.5341 128.992 85.7704 128.768 86.0591 128.947C86.337 129.12 86.5662 129.468 86.5831 129.737H89.5152C89.5087 129.581 89.5347 129.39 89.5931 129.166C89.811 128.332 89.9858 128.237 90.3233 128.771C90.5815 129.179 90.7228 129.5 90.746 129.737H93.5334ZM88.6188 127.544C88.1096 126.738 88.0009 120.236 88.4765 118.994C89.1506 117.232 89.7338 118.913 89.7338 122.619C89.7338 126.957 89.3417 128.688 88.6188 127.544Z" fill="#005D33"/>
<path d="M77.1347 125.585V121.552C77.1347 118.091 77.2523 117.564 77.9652 117.838C78.422 118.014 79.2593 118.158 79.8262 118.158C80.7638 118.158 80.8436 118.477 80.7024 121.678L80.547 125.197L77.1347 125.585Z" fill="#005D33"/>
<path d="M143.934 110.789C143.877 110.211 143.965 109.191 144.131 108.523C144.394 107.46 144.705 107.329 146.645 107.471L148.858 107.632L149.169 114.737H145.208C142.917 114.737 141.247 114.515 141.247 114.211C141.247 113.921 141.837 113.684 142.559 113.684C143.881 113.684 144.161 113.095 143.934 110.789Z" fill="#A92023"/>
<path fill-rule="evenodd" clip-rule="evenodd" d="M94 71.3879V40H117.236L133.34 49.7368L133.372 53.77L131.666 52.7368C125.154 48.7921 117.946 45.2558 117.443 45.7595C117.089 46.1147 112.944 46.3158 105.969 46.3158H95.0499V50.5263L117.886 50.7679L95.0499 51.0732V55.2632H106.043C112.806 55.2632 117.161 55.4658 117.361 55.7895C117.573 56.1342 113.779 56.3158 106.368 56.3158H95.0499V60.5263H117.623V58.6489C117.623 57.9494 117.554 57.4592 117.765 57.2357C118.224 56.7508 120.004 57.5216 126.679 60.1347C132.761 62.5158 133.372 62.8747 133.372 64.0653C133.372 64.8963 133.132 65.2842 132.716 65.1252C132.355 64.9879 128.91 63.8684 125.061 62.6379C119.9 60.9884 117.909 60.5558 117.476 60.99C117.08 61.3868 113.322 61.5789 105.969 61.5789H95.0499V65.2421L117.361 65.5263V67.7816C117.361 69.2131 117.648 70.2189 118.148 70.5363C119.425 71.3474 120.248 71.1279 120.248 69.9763C120.248 69.02 120.467 68.9395 122.217 69.2558C124.756 69.7153 124.973 69.859 124.973 71.0837C124.973 71.6458 125.071 72.1053 125.192 72.1053C125.313 72.1053 125.785 72.249 126.242 72.4247C126.841 72.6553 127.073 72.4279 127.073 71.6116C127.073 70.59 127.266 70.5137 129.041 70.8347C131.564 71.291 131.797 71.4411 131.797 72.6063C131.797 73.7911 133.305 74.4726 133.691 73.4621C133.845 73.0605 133.895 71.9531 133.803 71.001L133.635 69.27L125.858 67.3205C121.58 66.2484 117.961 65.251 117.815 65.1042C117.669 64.9579 117.625 64.1479 117.717 63.3047L117.886 61.771L125.76 64.2942C130.333 65.7595 133.711 66.5926 133.817 66.2816C133.934 65.9363 134.261 65.9637 134.735 66.3584C135.225 66.7658 135.472 68.0853 135.472 70.2963C135.472 72.1258 135.708 73.7684 135.997 73.9474C136.321 74.1484 136.522 78.6895 136.522 85.8205V97.3684H140.429C145.35 97.3684 151.61 99.4658 152.007 101.247C152.144 101.864 152.319 105.447 152.395 109.211L152.533 116.053L153.846 116.235C155.888 116.518 156.47 117.309 156.47 119.801C156.47 121.704 156.299 122.105 155.485 122.105C154.088 122.105 153.425 123.113 153.229 125.533L153.058 127.632L147.546 127.95V125.632C147.546 124.358 147.287 122.569 146.97 121.657C146.422 120.081 146.259 120 143.622 120C140.21 120 139.662 120.581 139.3 124.586L139.024 127.632L131.582 127.757C125.571 127.858 123.916 127.726 122.981 127.069L121.823 126.256V77.3884L120.642 77.1269C119.992 76.9826 115.988 76.2716 111.744 75.5463C107.5 74.8211 101.771 73.589 99.0139 72.8079L94 71.3879ZM95.0499 45.2632V41.0526H117.623V45.2632H95.0499ZM97.1498 69.5616C97.1498 69.0305 97.3178 68.4279 97.5235 68.2221C97.7288 68.0158 99.0869 67.9174 100.542 68.0026C102.829 68.1368 103.209 68.3179 103.355 69.3421C103.513 70.4584 103.34 70.5263 100.336 70.5263C97.5965 70.5263 97.1498 70.391 97.1498 69.5616ZM107.124 69.5616C107.124 69.0305 107.282 68.4384 107.474 68.2458C107.666 68.0526 109.084 67.8947 110.624 67.8947C113.26 67.8947 113.424 67.9716 113.424 69.2105C113.424 70.4679 113.283 70.5263 110.274 70.5263C107.569 70.5263 107.124 70.39 107.124 69.5616ZM126.071 107.368C125.9 107.368 125.76 100.356 125.76 91.7853V76.2021L128.587 76.5353C130.142 76.7184 131.619 76.9947 131.868 77.1495C132.118 77.3042 132.322 81.9163 132.322 87.3995V97.3684H131.11C128.899 97.3684 128.125 98.5005 127.234 103.033C126.765 105.417 126.242 107.368 126.071 107.368ZM127.66 107.537C128.503 103.536 129.298 99.9674 129.428 99.6053C129.558 99.2437 130.269 98.9474 131.007 98.9474H132.349L132.06 115L129.769 115.165C128.255 115.274 127.343 115.367 126.895 114.954C126.2 114.314 126.624 112.453 127.66 107.537ZM136.742 115.133C136.487 114.877 136.31 106.825 136.448 101.711L136.522 98.9474H138.605C140.036 98.9474 140.622 99.1537 140.475 99.6053C140.357 99.9674 139.654 103.105 138.911 106.579C137.304 114.099 137.065 115.22 136.858 115.214C136.821 115.213 136.785 115.176 136.742 115.133ZM142.337 105C142.962 102.105 143.576 99.5595 143.703 99.3421C144.042 98.76 144.394 98.83 147.827 100.162L150.958 101.377L151.106 108.115C151.204 112.634 151.054 115.094 150.648 115.585C150.21 116.114 148.681 116.316 145.12 116.316C142.146 116.316 140.831 116.354 140.396 115.753C140.029 115.247 140.285 114.287 140.7 112.47C140.976 111.256 141.713 107.895 142.337 105Z" fill="#A92023"/>
<path d="M125.307 53.7011C117.906 50.1684 117.623 49.9747 117.623 48.4379C117.623 47.56 117.756 46.8421 117.919 46.8421C118.082 46.8421 121.625 48.6384 125.793 50.8337C132.358 54.2916 133.372 54.9953 133.372 56.0968C133.372 56.7963 133.287 57.3684 133.182 57.3684C133.077 57.3684 129.534 55.7179 125.307 53.7011Z" fill="#A92023"/>
<path d="M117.623 55.1447V51.6368L120.379 52.8695C131.808 57.9795 133.372 58.8611 133.372 60.1889V61.4911L117.623 55.1447Z" fill="#A92023"/>
<path fill-rule="evenodd" clip-rule="evenodd" d="M157.612 130L157.859 128.195C158.351 124.597 157.808 123.158 155.959 123.158C154.614 123.158 154.374 123.392 154.073 125C153.884 126.013 153.884 127.671 154.073 128.684L154.32 130H157.612ZM156.733 128.684C156.058 128.684 155.762 126.593 156.193 124.871C156.697 122.858 157.625 124.192 157.425 126.641C157.333 127.765 157.022 128.684 156.733 128.684Z" fill="#A92023"/>
<path fill-rule="evenodd" clip-rule="evenodd" d="M145.684 130L146.061 128.916C146.737 126.972 146.379 121.63 145.537 121.109C145.206 120.904 144.089 120.835 143.054 120.956C141.612 121.125 141.049 121.499 140.639 122.562C140.095 123.973 140.285 127.938 140.977 129.605C141.042 129.762 141.074 129.892 141.031 130H145.684ZM144.866 128.124C144.319 127.785 144.226 123.504 144.754 122.975C145.287 122.441 145.954 123.752 145.963 125.352C145.974 127.185 145.457 128.49 144.866 128.124Z" fill="#A92023"/>
<path d="M123.02 130C122.948 129.892 122.95 129.762 122.981 129.605C123.082 129.099 122.627 128.253 121.969 127.725C120.986 126.936 120.773 126.252 120.773 123.874C120.773 121.039 120.745 120.986 119.348 121.149C118.199 121.284 117.844 121.672 117.514 123.158C117.133 124.868 117.305 127.406 117.949 129.605C117.995 129.762 117.987 129.892 117.807 130H123.02Z" fill="#A92023"/>
</g>
<defs>
<clipPath id="clip0_1833_2026">
<rect width="204" height="130" fill="white"/>
</clipPath>
</defs>
</svg>
