<svg width="150" height="106" viewBox="0 0 150 106" fill="none" xmlns="http://www.w3.org/2000/svg">
<g clip-path="url(#clip0_1640_1071)">
<path d="M144.662 13.1994C144.662 12.6994 144.462 10.3994 141.862 10.3994C141.362 10.3994 140.962 9.99941 140.962 9.49941C140.962 8.99941 141.362 8.59941 141.862 8.59941C142.362 8.59941 144.662 8.39941 144.662 5.79941C144.662 5.29941 145.062 4.89941 145.562 4.89941C146.062 4.89941 146.462 5.29941 146.462 5.79941C146.462 8.39941 148.762 8.59941 149.262 8.59941C149.762 8.59941 150.162 8.99941 150.162 9.49941C150.162 9.99941 149.762 10.3994 149.262 10.3994C146.662 10.3994 146.462 12.6994 146.462 13.1994C146.462 13.6994 146.062 14.0994 145.562 14.0994C145.062 14.0994 144.662 13.6994 144.662 13.1994Z" fill="#A92023"/>
<path d="M99.1617 4.3C99.1617 4.1 99.0617 2.9 97.7617 2.9C97.4617 2.9 97.2617 2.7 97.2617 2.4C97.2617 2.1 97.4617 1.9 97.7617 1.9C97.9617 1.9 99.1617 1.8 99.1617 0.5C99.1617 0.2 99.3617 0 99.6617 0C99.9617 0 100.162 0.2 100.162 0.5C100.162 1.8 101.362 1.9 101.562 1.9C101.862 1.9 102.062 2.1 102.062 2.4C102.062 2.7 101.862 2.9 101.562 2.9C100.262 2.9 100.162 4.1 100.162 4.3C100.162 4.6 99.9617 4.8 99.6617 4.8C99.3617 4.7 99.1617 4.5 99.1617 4.3Z" fill="#A92023"/>
<path d="M15.0621 13.0002C15.0621 12.8002 14.9621 11.6002 13.6621 11.6002C13.3621 11.6002 13.1621 11.4002 13.1621 11.1002C13.1621 10.8002 13.3621 10.6002 13.6621 10.6002C13.8621 10.6002 15.0621 10.5002 15.0621 9.2002C15.0621 8.9002 15.2621 8.7002 15.5621 8.7002C15.8621 8.7002 16.0621 8.9002 16.0621 9.2002C16.0621 10.5002 17.2621 10.6002 17.4621 10.6002C17.7621 10.6002 17.9621 10.8002 17.9621 11.1002C17.9621 11.4002 17.7621 11.6002 17.4621 11.6002C16.1621 11.6002 16.0621 12.8002 16.0621 13.0002C16.0621 13.3002 15.8621 13.5002 15.5621 13.5002C15.2621 13.5002 15.0621 13.2002 15.0621 13.0002Z" fill="#A92023"/>
<path d="M4.06172 86.6002C4.06172 86.1002 3.86172 83.8002 1.26172 83.8002C0.661719 83.8002 0.261719 83.3002 0.261719 82.8002C0.261719 82.3002 0.661719 81.9002 1.16172 81.9002C1.66172 81.9002 3.96172 81.7002 3.96172 79.1002C3.96172 78.6002 4.36172 78.2002 4.86172 78.2002C5.36172 78.2002 5.76172 78.6002 5.76172 79.1002C5.76172 81.7002 8.06172 81.9002 8.56172 81.9002C9.06172 81.9002 9.46172 82.3002 9.46172 82.8002C9.46172 83.3002 9.06172 83.7002 8.56172 83.7002C5.96172 83.7002 5.76172 86.0002 5.76172 86.5002C5.76172 87.0002 5.36172 87.4002 4.86172 87.4002C4.46172 87.5002 4.06172 87.1002 4.06172 86.6002Z" fill="#A92023"/>
<path d="M139.261 91.3996C139.261 91.1996 139.161 89.9996 137.861 89.9996C137.561 89.9996 137.361 89.7996 137.361 89.4996C137.361 89.1996 137.561 88.9996 137.861 88.9996C138.061 88.9996 139.261 88.8996 139.261 87.5996C139.261 87.2996 139.461 87.0996 139.761 87.0996C140.061 87.0996 140.261 87.2996 140.261 87.5996C140.261 88.8996 141.461 88.9996 141.661 88.9996C141.961 88.9996 142.161 89.1996 142.161 89.4996C142.161 89.7996 141.961 89.9996 141.661 89.9996C140.361 89.9996 140.261 91.1996 140.261 91.3996C140.261 91.6996 140.061 91.8996 139.761 91.8996C139.461 91.7996 139.261 91.5996 139.261 91.3996Z" fill="#A92023"/>
<path d="M75.1818 92C97.7584 92 116.102 73.6565 116.102 51.0799C116.102 28.5033 97.7584 10.2539 75.1818 10.2539C52.6052 10.2539 34.2617 28.5974 34.2617 51.174C34.2617 73.7506 52.6052 92 75.1818 92Z" fill="#DADADA"/>
<path d="M34.2617 51.0793H38.777" stroke="#2D346A" stroke-width="1.5" stroke-miterlimit="10" stroke-linecap="round" stroke-linejoin="round"/>
<path d="M111.211 31.7013C120.241 48.4456 116.572 69.7052 101.521 82.4046C84.2127 96.8912 58.4377 94.7276 43.9511 77.4189C29.3704 60.1102 31.628 34.3352 48.8427 19.8486C66.1514 5.36192 91.9263 7.52551 106.413 24.8342" stroke="#2D346A" stroke-width="1.5" stroke-miterlimit="10" stroke-linecap="round" stroke-linejoin="round"/>
<path d="M54.0163 73.6561C59.5664 78.8299 66.9978 82.0283 75.1818 82.0283C92.2083 82.0283 106.037 68.2001 106.037 51.1736C106.037 34.1471 92.2083 20.2249 75.1818 20.2249C58.1553 20.2249 44.3271 34.053 44.3271 51.0795C44.3271 57.194 46.1145 62.9323 49.2187 67.7298" fill="#005D33"/>
<path d="M75.1819 56.6299C78.1921 56.6299 80.732 54.1841 80.732 51.0799C80.732 48.0697 78.2862 45.5298 75.1819 45.5298C72.1717 45.5298 69.6318 47.9756 69.6318 51.0799C69.6318 54.1841 72.1717 56.6299 75.1819 56.6299Z" fill="#DADADA" stroke="#2D346A" stroke-width="1.5" stroke-miterlimit="10" stroke-linecap="round" stroke-linejoin="round"/>
<path d="M75.1816 45.6235V20.2249" stroke="white" stroke-width="1.5" stroke-miterlimit="10" stroke-linecap="round" stroke-linejoin="round"/>
<path d="M79.0381 55.0304L89.5738 65.5661" stroke="white" stroke-width="1.5" stroke-miterlimit="10" stroke-linecap="round" stroke-linejoin="round"/>
<path d="M111.587 51.0793H116.102" stroke="#2D346A" stroke-width="1.5" stroke-miterlimit="10" stroke-linecap="round" stroke-linejoin="round"/>
<path d="M75.1816 87.4844V91.9997" stroke="#2D346A" stroke-width="1.5" stroke-miterlimit="10" stroke-linecap="round" stroke-linejoin="round"/>
<path d="M46.3027 22.2009L49.5011 25.3993" stroke="#2D346A" stroke-width="1.5" stroke-miterlimit="10" stroke-linecap="round" stroke-linejoin="round"/>
<path d="M49.5011 76.8547L46.3027 80.0531" stroke="#2D346A" stroke-width="1.5" stroke-miterlimit="10" stroke-linecap="round" stroke-linejoin="round"/>
<path d="M104.061 22.2009L100.862 25.3993" stroke="#2D346A" stroke-width="1.5" stroke-miterlimit="10" stroke-linecap="round" stroke-linejoin="round"/>
<path d="M66.3369 3.95346V0.75H83.9329V3.95346H66.3369Z" fill="#DADADA" stroke="#2D346A" stroke-width="1.5" stroke-miterlimit="10" stroke-linecap="round" stroke-linejoin="round"/>
<path d="M79.1329 4.70349H71.3252V9.78323H79.1329V4.70349Z" fill="#DADADA" stroke="#2D346A" stroke-width="1.5" stroke-miterlimit="10" stroke-linecap="round" stroke-linejoin="round"/>
<path d="M46.9616 17.6856L43.481 21.0721L40.0005 24.3645L37.5547 21.8247L44.5158 15.1458L46.9616 17.6856Z" fill="#DADADA" stroke="#2D346A" stroke-width="1.5" stroke-miterlimit="10" stroke-linecap="round" stroke-linejoin="round"/>
<path d="M44.9856 22.577L43.4805 21.0719" stroke="#2D346A" stroke-width="1.5" stroke-miterlimit="10" stroke-linecap="round" stroke-linejoin="round"/>
<path d="M103.402 17.6855L106.883 21.072L110.363 24.3644L112.809 21.8245L105.848 15.1456L103.402 17.6855Z" fill="#DADADA" stroke="#2D346A" stroke-width="1.5" stroke-miterlimit="10" stroke-linecap="round" stroke-linejoin="round"/>
<path d="M105.378 22.577L106.883 21.0719" stroke="#2D346A" stroke-width="1.5" stroke-miterlimit="10" stroke-linecap="round" stroke-linejoin="round"/>
<path d="M33.2617 105H117.262" stroke="#2D346A" stroke-width="2" stroke-miterlimit="10" stroke-linecap="round"/>
</g>
<defs>
<clipPath id="clip0_1640_1071">
<rect width="149.477" height="106" fill="white" transform="translate(0.261719)"/>
</clipPath>
</defs>
</svg>
