<svg width="212" height="131" viewBox="0 0 212 131" fill="none" xmlns="http://www.w3.org/2000/svg">
<g clip-path="url(#clip0_1829_1933)">
<path opacity="0.5" fill-rule="evenodd" clip-rule="evenodd" d="M132.693 0.125149C131 0.290483 129.184 0.628181 127.184 1.14987L125.485 1.5932L125.579 2.97141C125.759 5.61143 126.041 11.5261 125.99 11.617C125.963 11.6672 125.696 11.7539 125.399 11.8096C123.528 12.1599 118.724 14.0294 115.375 15.7107L112.937 16.935L112.672 16.6091C112.527 16.4298 111.134 14.8961 109.576 13.2007C108.019 11.5053 106.66 9.99878 106.556 9.85311C106.453 9.7073 106.31 9.58804 106.238 9.58804C106.046 9.58804 103.462 11.0879 102.216 11.9227C100.137 13.3148 96.3214 16.7262 96.3214 17.1921C96.3214 17.3497 96.7444 18.0189 100.079 23.1363L101.66 25.5619L100.946 26.2937C99.0628 28.2252 95.315 32.8531 95.315 33.2471C95.315 33.3309 95.7841 33.6687 96.3573 33.9979C96.9305 34.3272 98.2879 35.1119 99.3734 35.742C100.459 36.372 101.438 36.8967 101.549 36.9079C101.66 36.9191 102.227 36.3069 102.81 35.5474C106.408 30.8566 111.067 26.7511 116.212 23.7377C117.56 22.948 121.217 21.0695 121.406 21.0695C121.456 21.0695 121.783 20.9386 122.135 20.7787C125.113 19.4245 129.817 18.1948 134.253 17.6109C136.879 17.2651 142.01 17.1948 144.482 17.4706C152.419 18.3562 159.643 20.9342 165.845 25.0941C168.468 26.8543 170.263 28.308 172.566 30.5383C180.639 38.3585 185.599 48.8297 186.571 60.1065C186.76 62.2988 186.671 67.2179 186.403 69.3635C185.392 77.4596 182.627 84.6076 177.994 91.1065C177.403 91.9353 176.879 92.6457 176.83 92.6852C176.781 92.7247 176.498 93.0799 176.201 93.4746C175.311 94.6557 173.122 96.9499 171.438 98.465C168.81 100.828 165.746 103.036 162.706 104.757L161.593 105.387L161.591 109.525C161.591 111.801 161.638 113.639 161.698 113.61C161.757 113.581 162.083 113.438 162.423 113.293C163.051 113.024 163.986 112.556 165.879 111.561C166.519 111.225 166.971 111.064 167.029 111.152C167.082 111.231 168.33 112.614 169.804 114.226C171.278 115.837 172.737 117.438 173.047 117.783L173.611 118.41L174.609 117.87C175.958 117.14 178.561 115.426 179.704 114.514C180.724 113.699 183.586 110.931 183.586 110.758C183.586 110.699 183.246 110.132 182.831 109.497C182.416 108.863 181.775 107.872 181.407 107.296C181.039 106.719 180.176 105.384 179.49 104.329L178.242 102.411L178.665 101.961C181.023 99.4537 181.601 98.7794 183.174 96.7037C184.402 95.0823 186.646 91.771 186.772 91.3948C186.802 91.3043 187.651 91.5095 188.906 91.9108C190.052 92.2772 191.475 92.7276 192.068 92.9115C192.661 93.0954 193.849 93.4741 194.708 93.7531C195.567 94.032 196.321 94.2289 196.383 94.1906C196.581 94.0687 198.067 91.5015 198.586 90.3863C199.686 88.0237 200.677 85.2481 200.99 83.6583C201.157 82.8087 201.15 82.7256 200.901 82.5436C200.753 82.4356 199.336 81.695 197.751 80.8979C195.437 79.7333 192.597 78.2605 192.389 78.1162C192.368 78.1017 192.511 77.4137 192.707 76.5872C193.457 73.4184 194.076 69.0497 194.079 66.9089C194.08 66.3481 194.121 65.4999 194.171 65.0239L194.262 64.1585L195.429 63.9113C196.071 63.7756 197.405 63.4865 198.393 63.2692C199.382 63.0518 201.048 62.6907 202.095 62.4668L204 62.0595V59.9293C204 56.6906 203.518 53.2202 202.702 50.5825L202.397 49.5978L200.287 49.6927C199.127 49.7448 197.11 49.8478 195.805 49.9217C192.154 50.1287 192.431 50.1651 192.226 49.4503C191.164 45.7435 189.587 41.8053 187.893 38.6294C187.058 37.0635 187.042 37.0123 187.319 36.8182C187.476 36.7083 188.046 36.2038 188.585 35.6971C189.124 35.1901 189.885 34.4895 190.277 34.1399C190.669 33.7903 191.629 32.9185 192.41 32.2025C193.192 31.4865 193.963 30.7864 194.125 30.6468L194.418 30.3928L193.998 29.5087C192.807 27.0047 189.404 22.5535 187.406 20.8861L186.768 20.3536L183.631 22.376C181.906 23.4882 180.057 24.6876 179.521 25.0412C178.986 25.3949 178.49 25.663 178.419 25.6373C178.348 25.6114 177.719 25.0679 177.02 24.4293C174.292 21.9346 171.876 20.0685 168.945 18.1917C167.589 17.3231 167.327 17.0978 167.38 16.8483C167.416 16.6836 168.072 14.5871 168.839 12.1895C169.606 9.79183 170.202 7.75071 170.165 7.6537C170.021 7.27969 166.619 5.44495 164.465 4.58039C162.5 3.79118 158.806 2.6904 158.666 2.85214C158.636 2.8863 157.915 4.27068 157.063 5.92832C156.211 7.58596 155.19 9.56062 154.793 10.3165L154.073 11.6909L152.692 11.3547C149.407 10.5549 144.799 9.9276 141.899 9.88498C140.993 9.87177 140.225 9.83532 140.194 9.80418C140.163 9.77303 139.76 8.01637 139.299 5.90047C138.838 3.78458 138.397 1.76269 138.319 1.40749C138.241 1.05228 138.14 0.590291 138.096 0.380754L138.014 0L135.965 0.00287098C134.838 0.00444968 133.366 0.059418 132.693 0.125149ZM49.3963 29.8415C49.3612 29.9503 48.9958 31.5894 48.5841 33.4839C48.1723 35.3783 47.8194 36.9474 47.7997 36.9708C47.7801 36.9942 47.099 37.0395 46.2861 37.0715C43.7407 37.1718 40.3599 37.6528 38.2521 38.2145C37.5632 38.3982 37.4545 38.3972 37.3176 38.2062C37.2325 38.0874 36.4515 36.6049 35.5821 34.9117C34.2905 32.3966 33.9467 31.8334 33.7026 31.8334C32.2672 31.8334 25.3023 34.8506 25.3023 35.4723C25.3023 35.5703 25.563 36.4547 25.8817 37.4376C27.4859 42.3865 27.5166 42.5041 27.2405 42.6647C25.2235 43.8386 22.6 45.8043 20.3897 47.7982L19.1428 48.9229L18.3051 48.39C17.8442 48.0968 16.4337 47.1826 15.1706 46.3582L12.8741 44.8593L11.4243 46.3547C10.0299 47.7929 8.30664 50.1435 7.54153 51.6509C7.34716 52.0338 7.18816 52.3732 7.18816 52.405C7.18816 52.4369 8.41892 53.5807 9.92311 54.9467C11.4275 56.3129 12.6404 57.4697 12.6187 57.5175C12.597 57.5652 12.2081 58.3223 11.7542 59.1995C10.7841 61.0754 9.50332 64.2733 9.04055 65.9757L8.71306 67.1804L6.76449 67.0865C5.69288 67.0349 3.99849 66.9519 2.99919 66.9023C1.29948 66.8177 1.17699 66.8294 1.10036 67.083C0.377522 69.478 0 72.0141 0 74.4754C0 75.9571 0.0304778 76.1701 0.251586 76.235C0.39003 76.2756 0.988372 76.4078 1.5814 76.5286C2.72791 76.7624 3.69903 76.972 5.88754 77.4576C6.63496 77.6235 7.25702 77.7593 7.26982 77.7593C7.28261 77.7593 7.33811 78.5827 7.39331 79.5891C7.51925 81.8836 7.95399 85.0308 8.38528 86.7698C8.61444 87.6936 8.66892 88.1403 8.56297 88.2268C8.43488 88.3313 5.44144 89.8898 2.83932 91.2065C2.42414 91.4167 2.15645 91.6487 2.15645 91.7987C2.15645 92.4867 3.32625 96.0217 3.99331 97.3496C4.28558 97.9312 5.53 100.073 5.69044 100.27C5.73773 100.328 5.74679 100.325 9.61833 99.0814C11.2316 98.563 12.6226 98.1392 12.7092 98.1396C12.7959 98.1399 13.2512 98.7374 13.721 99.4672C14.1909 100.197 14.9327 101.278 15.3694 101.869C16.0733 102.821 16.5703 103.408 18.7233 105.827L19.2605 106.431L17.2292 109.563L15.1978 112.695L16.5272 113.966C17.2582 114.665 18.3187 115.578 18.8839 115.993C19.8681 116.718 22.1178 118.122 22.5721 118.296C22.7221 118.353 23.4928 117.605 25.0647 115.876C26.3163 114.5 27.454 113.271 27.593 113.145C27.827 112.934 27.9953 112.991 29.8447 113.909C31.73 114.845 35.1974 116.227 36.1645 116.428L36.6037 116.52L36.9204 114.039C37.3017 111.052 37.3093 110.769 37.0082 110.769C36.6165 110.769 33.8846 109.646 32.1831 108.785C30.3059 107.836 27.759 106.202 26.093 104.879C22.1795 101.77 18.5521 97.2068 16.4573 92.757C15.3444 90.3929 15.2984 90.2826 14.8134 88.8102C12.8218 82.7659 12.4411 76.9263 13.6384 70.7849C14.9515 64.0481 18.4087 57.6516 23.3827 52.7565C29.421 46.8138 36.8595 43.4274 45.4132 42.7269C52.2369 42.168 59.6389 43.8828 65.6508 47.4149C69.5401 49.7 73.1558 52.8603 75.6195 56.128C76.1334 56.8098 76.6104 57.3702 76.6796 57.3736C76.8373 57.3813 81.4992 54.7516 81.5076 54.6501C81.5235 54.4569 79.2134 51.5578 78.0383 50.2962L76.7207 48.8817L76.9967 48.3692C77.1485 48.0874 77.3376 47.7875 77.4168 47.7028C77.496 47.618 77.8166 47.1289 78.1293 46.6158C78.442 46.1027 78.7486 45.6183 78.8107 45.5394C79.0409 45.2465 80.2199 43.4181 80.2199 43.3539C80.2199 43.3173 80.3487 43.1069 80.506 42.8862L80.7922 42.485L79.4474 41.2017C78.7078 40.4957 77.5601 39.529 76.8969 39.0531C75.7008 38.1948 73.433 36.8475 73.2164 36.8664C73.1543 36.8719 72.3596 37.7092 71.4503 38.727C70.541 39.7448 69.4382 40.9724 68.9994 41.4549L68.202 42.3321L66.3398 41.4002C64.1319 40.2951 62.8263 39.7621 60.3087 38.9378L58.4397 38.326L58.4753 37.6272C58.4948 37.2427 58.5756 35.7335 58.655 34.2732C58.7342 32.8129 58.799 31.4505 58.799 31.2455C58.7992 30.9065 58.7054 30.8458 57.7569 30.5707C55.9482 30.0463 54.2006 29.7966 51.7933 29.7188C49.8873 29.6572 49.4482 29.6798 49.3963 29.8415ZM48.8292 53.0741C48.7487 53.4761 48.6999 53.5047 48.0951 53.5047C47.5241 53.5047 47.4367 53.4622 47.3572 53.1459C47.2565 52.7458 47.1171 52.7149 46.4533 52.946C46.0359 53.0912 46.0045 53.1447 46.085 53.5731C46.1615 53.9803 46.1152 54.0825 45.7305 54.356C45.3008 54.6614 45.2756 54.6633 44.8599 54.418C44.6244 54.2792 44.4135 54.1944 44.3913 54.2299C44.3691 54.2652 44.1941 54.4716 44.0025 54.6887L43.6538 55.0834L43.9734 55.4229C44.2858 55.7549 44.2874 55.7738 44.0437 56.2841C43.8341 56.7228 43.7217 56.8056 43.336 56.8056C42.9373 56.8056 42.8656 56.8643 42.7875 57.2541C42.6528 57.9268 42.6643 57.957 43.1147 58.1138C43.4665 58.2362 43.5404 58.35 43.5874 58.8408C43.6363 59.3528 43.5991 59.4416 43.2782 59.5785C43.0775 59.6641 42.8929 59.7467 42.8679 59.7624C42.843 59.7779 42.8946 60.0577 42.9828 60.3842C43.1374 60.958 43.159 60.975 43.6203 60.8886C44.0361 60.8108 44.1376 60.8548 44.4041 61.2284C44.7735 61.7462 44.7774 61.8039 44.4673 62.1461C44.2368 62.4004 44.2477 62.4377 44.6787 62.868L45.1333 63.3218L45.473 63.0032C45.7966 62.6998 45.8378 62.695 46.3398 62.9044C46.7988 63.0959 46.8668 63.1867 46.8668 63.6079C46.8668 63.9881 46.936 64.1101 47.1903 64.1781C47.8871 64.3646 48.1211 64.2865 48.211 63.838C48.2911 63.4386 48.3425 63.4074 48.9246 63.4074C49.4545 63.4074 49.5776 63.4633 49.7159 63.7662C49.9018 64.1734 49.9558 64.1858 50.5868 63.9662C51.0003 63.8224 51.0352 63.7647 50.9582 63.3545C50.8854 62.9678 50.9367 62.8545 51.3081 62.5804C51.8209 62.2019 51.9467 62.1867 52.186 62.4746C52.4572 62.8007 52.7089 62.7356 53.0552 62.2501L53.3689 61.8102L53.0581 61.48C52.7561 61.1591 52.7543 61.1351 52.993 60.6354C53.1987 60.2047 53.3225 60.1141 53.7547 60.078C54.2456 60.0369 54.2726 60.0068 54.3132 59.4588C54.352 58.9325 54.3178 58.8685 53.9178 58.7177C53.5286 58.5712 53.4799 58.4878 53.4799 57.969C53.4799 57.4659 53.5297 57.3726 53.8393 57.2951C54.2378 57.1953 54.2969 56.8909 54.031 56.308C53.8871 55.9929 53.7981 55.9527 53.4057 56.0261C53.0022 56.1018 52.9125 56.0554 52.6454 55.6343C52.3731 55.2051 52.3637 55.1249 52.5519 54.8382C52.8419 54.3964 52.8221 54.3213 52.3174 53.9489L51.8738 53.6214L51.5574 53.9182C51.2522 54.2043 51.2218 54.2063 50.7072 53.9734C50.2537 53.7682 50.1734 53.6631 50.1734 53.2749C50.1734 52.7815 49.9862 52.6436 49.317 52.6436C48.9859 52.6436 48.9003 52.7191 48.8292 53.0741ZM47.6575 56.3132C46.0308 57.1561 45.7268 59.0479 47.0379 60.1684C48.0688 61.0493 49.3152 60.9717 50.2217 59.9702C51.0743 59.028 51.0922 57.9239 50.2697 56.9889C49.5123 56.1278 48.5139 55.8696 47.6575 56.3132ZM34.0709 57.0235C33.9924 57.2297 33.9281 57.4823 33.9281 57.5848C33.9281 57.6977 33.6653 57.8072 33.2611 57.8625C32.2426 58.0018 32.2031 57.9892 31.9781 57.4514C31.7406 56.884 31.4808 56.8267 30.673 57.1637C30.1323 57.3893 30.1391 57.3586 30.403 58.3843C30.4373 58.5169 30.1887 58.7774 29.7561 59.0624L29.0537 59.5253L28.5945 59.1395L28.1352 58.7537L27.5745 59.3846L27.0137 60.0154L27.433 60.434L27.8524 60.8527L27.5478 61.6403L27.2431 62.4279L26.6222 62.3602C26.066 62.2993 25.9875 62.3289 25.8675 62.6439C25.7939 62.8374 25.7336 63.2061 25.7336 63.4633C25.7336 63.8844 25.7872 63.9442 26.2727 64.0639L26.8118 64.1968L26.8538 65.0628L26.8958 65.9288L26.3745 66.1169C25.8146 66.3192 25.7939 66.468 26.1873 67.4618C26.3581 67.8934 26.45 67.9195 27.1214 67.7273C27.5529 67.6036 27.5926 67.6288 28.0289 68.301L28.4852 69.004L28.1644 69.4537C27.8002 69.9642 27.858 70.1406 28.5685 70.6876L29.0156 71.0319L29.4923 70.6066L29.9689 70.1815L30.6546 70.5284C31.3154 70.8627 31.3404 70.8981 31.3404 71.5019C31.3404 72.187 31.4959 72.2996 32.4488 72.3036C32.8615 72.3055 32.9281 72.2463 33.0789 71.7437C33.2455 71.1884 33.2569 71.1813 34.0346 71.1338C34.8196 71.0858 34.8228 71.0873 35.1035 71.6371C35.3525 72.1246 35.4296 72.1773 35.7707 72.0928C36.4182 71.9324 36.8777 71.651 36.8303 71.4439C36.6195 70.5206 36.6182 70.5242 37.3047 70.0412L37.9715 69.572L38.38 69.8623C38.6047 70.0221 38.8467 70.1528 38.9179 70.1528C39.0838 70.1528 39.9662 69.2477 39.9662 69.0774C39.9662 69.0065 39.7973 68.7726 39.591 68.5576L39.2157 68.1667L39.5692 67.3958C39.9209 66.6289 39.9256 66.6251 40.5027 66.6801C41.1712 66.7437 41.1987 66.7158 41.3303 65.8378L41.4285 65.1825L40.8411 65.0068C40.385 64.8703 40.2534 64.7603 40.2521 64.514C40.2513 64.3395 40.2116 63.9614 40.1638 63.6738C40.0813 63.1754 40.1016 63.1419 40.5967 62.9633C41.169 62.7566 41.2385 62.5086 40.953 61.6907C40.7937 61.2347 40.7728 61.225 40.1263 61.305C39.4764 61.3854 39.4538 61.3747 39.0055 60.7659L38.5481 60.1444L38.9213 59.5962L39.2945 59.0478L38.7439 58.5725C38.2107 58.1125 37.8097 57.9629 37.8097 58.2243C37.8097 58.2942 37.6546 58.4528 37.4648 58.5769C37.1457 58.7856 37.0643 58.779 36.3718 58.4869L35.6237 58.1713L35.7065 57.5687C35.7969 56.9098 35.805 56.9168 34.7538 56.7397C34.2655 56.6575 34.1998 56.6848 34.0709 57.0235ZM32.3467 61.627C31.7458 61.8869 31.1449 62.4371 30.7282 63.1091C30.2658 63.8554 30.3038 65.167 30.8135 66.035C31.4051 67.0429 32.4751 67.713 33.4927 67.713C34.608 67.713 36.0187 66.7694 36.4523 65.7336C36.7048 65.1302 36.7216 63.9952 36.4862 63.4501C35.7643 61.7785 33.8975 60.9564 32.3467 61.627ZM29.5432 74.5186C29.5038 74.6434 29.4441 74.8347 29.4106 74.9437C29.3158 75.2526 28.2874 75.3351 28.0747 75.0508C27.632 74.4592 27.6155 74.4522 27.131 74.6514C26.7226 74.8192 26.6727 74.8993 26.7078 75.3317C26.7415 75.7499 26.6773 75.8664 26.2699 76.1268C25.7941 76.4306 25.7913 76.4307 25.4434 76.1496L25.0943 75.8673L24.6936 76.3149L24.2931 76.7624L24.5816 77.1532C24.8572 77.5268 24.8595 77.5673 24.6308 78.0693C24.4136 78.5462 24.3493 78.5877 23.9333 78.5204C23.5428 78.4571 23.4616 78.4961 23.3842 78.7844C23.1925 79.5 23.2694 79.7413 23.7209 79.8403C24.1212 79.9281 24.1522 79.9807 24.1522 80.5724C24.1522 81.1132 24.0977 81.2347 23.7928 81.3734C23.3906 81.5564 23.3542 81.7343 23.6066 82.2874C23.7554 82.6135 23.8457 82.6563 24.248 82.5911C24.6624 82.524 24.7513 82.572 25.0233 83.0113C25.3151 83.4828 25.3184 83.526 25.0894 83.8748C24.8636 84.2188 24.8638 84.259 25.0943 84.5131C25.4645 84.9214 25.8596 84.9958 26.1699 84.7153C26.4174 84.4919 26.4902 84.489 26.9783 84.6833C27.4458 84.8695 27.5158 84.959 27.5227 85.3794C27.5301 85.8255 27.5722 85.8687 28.0813 85.9519C28.579 86.0333 28.6454 86.0063 28.7731 85.6709C28.95 85.2062 29.1408 85.0838 29.6916 85.0809C30.0432 85.0792 30.1582 85.1607 30.2879 85.5034C30.4354 85.8936 30.4844 85.9179 30.8897 85.8019C31.582 85.6036 31.6607 85.5142 31.571 85.0264C31.4982 84.6315 31.5481 84.5377 31.9778 84.2597C32.4659 83.9441 32.4688 83.9439 32.8255 84.2241L33.1834 84.5051L33.5558 84.0633C34.0009 83.5353 34.0076 83.4729 33.6551 83.1544C33.3953 82.9196 33.3936 82.88 33.6192 82.3331C33.8374 81.8041 33.8922 81.764 34.3097 81.8286C34.6846 81.8866 34.7776 81.8448 34.8468 81.5872C35.0268 80.9171 34.9454 80.6615 34.5032 80.5077C34.1192 80.3741 34.0719 80.2935 34.0719 79.773C34.0719 79.2886 34.1336 79.1603 34.4313 79.0248C34.832 78.8426 34.8594 78.7166 34.6373 78.0805C34.4947 77.6722 34.4526 77.6504 34.0358 77.7696C33.7894 77.8402 33.5786 77.8829 33.5676 77.8645C33.5565 77.8461 33.4038 77.6232 33.2283 77.3694C32.9235 76.9287 32.9201 76.8909 33.1511 76.5388C33.3833 76.1849 33.3797 76.1555 33.0605 75.8165C32.6859 75.4184 32.2748 75.3559 32.1509 75.6783C32.0454 75.9528 31.7262 75.9517 31.1894 75.6745C30.867 75.5081 30.7653 75.3554 30.7653 75.0372C30.7653 74.564 30.7301 74.5307 30.0823 74.3921C29.7225 74.315 29.5985 74.3441 29.5432 74.5186ZM28.2384 78.0416C27.717 78.2523 27.0398 79.0464 26.8817 79.6326C26.3202 81.7144 28.8872 83.3387 30.5789 81.972C32.281 80.5967 31.2768 77.8751 29.0807 77.9118C28.7817 77.9169 28.4026 77.9753 28.2384 78.0416Z" fill="#A7AAAF"/>
<path fill-rule="evenodd" clip-rule="evenodd" d="M7.4921 87.3544C7.43604 87.4451 7.71369 87.6772 8.12287 87.8816C8.7086 88.1745 8.94759 88.4237 9.32555 89.137L9.79731 90.0268L11.9246 90.0293C16.5659 90.0344 20.7528 90.954 24.327 92.7528C27.027 94.1117 28.7826 95.4867 33.323 99.7982C40.9576 107.048 44.1626 109.746 48.5752 112.635C52.4328 115.162 54.7925 116.532 56.6651 117.333C57.6202 117.742 58.751 118.252 59.178 118.465C59.6051 118.679 60.5135 119.04 61.1967 119.266C62.8151 119.803 63.0895 119.978 62.316 119.981C59.1802 119.994 53.0915 117.196 47.5743 113.208C43.5101 110.27 40.8887 108.061 35.2641 102.836C29.8234 97.7818 27.1635 95.7874 23.4624 93.9873C19.77 92.1915 17.5046 91.6812 13.5844 91.7625C12.1561 91.7921 10.9388 91.8651 10.8793 91.9247C10.8197 91.9843 11.5435 94.3238 12.4876 97.1236C14.9034 104.288 16.2468 109.66 17.0873 115.516C17.6929 119.735 17.9881 124.019 17.6734 124.019C17.6066 124.019 17.4696 123.338 17.369 122.506C16.8758 118.431 13.6934 106.688 10.6593 97.7458C9.69637 94.9081 8.54105 91.9301 8.30191 91.6689C8.22753 91.5878 8.16681 91.3582 8.16681 91.1587C8.16681 90.8535 7.17935 88.0619 7.01242 87.8951C6.88416 87.7669 5.76222 88.3643 4.93144 89.0032C3.34396 90.2241 1.66719 92.2296 1.06453 93.6284C0.843557 94.1413 1.08441 94.4993 3.48589 97.2267C6.71986 100.9 7.1955 101.558 10.1127 106.404C13.8616 112.632 16.9359 120.268 17.4074 124.523C17.5013 125.371 17.7945 125.792 17.7945 125.079C17.7945 124.894 17.8257 124.774 17.8639 124.812C17.902 124.85 18.0518 126.171 18.197 127.748C18.342 129.324 18.5051 130.665 18.5591 130.728C18.6807 130.867 30.8961 130.601 34.41 130.383C37.9752 130.161 41.8209 129.807 44.6589 129.439C48.6371 128.924 54.9078 127.905 56.15 127.572C58.2642 127.005 61.8058 125.845 62.5333 125.481C64.2813 124.605 64.997 123.461 65 121.536C65.0026 119.883 64.5854 117.773 64.1208 117.088C63.7277 116.51 63.7659 116.33 64.3024 116.233C64.5509 116.188 64.6029 116.076 64.5625 115.675C64.5312 115.363 64.5816 115.173 64.6958 115.173C64.9767 115.173 64.7334 114.367 64.3563 114.048C64.1667 113.887 63.7796 113.776 63.4114 113.776H62.7878L62.8659 112.963C62.9406 112.186 62.9179 112.123 62.3604 111.566C61.7951 111.001 61.7421 110.983 60.6716 110.983H59.5662V110.386C59.5662 109.873 59.4253 109.629 58.5569 108.643L57.5475 107.497L57.5441 100.665C57.5409 94.427 57.5174 93.8051 57.2724 93.5028C56.8332 92.9611 56.3927 92.8251 55.0763 92.8251H53.8271L53.5274 93.412C52.9925 94.4597 52.927 95.504 53.0073 101.71C53.0644 106.127 53.0384 107.724 52.9093 107.724C52.7832 107.724 52.7337 106.595 52.7337 103.72C52.7337 100.812 52.6826 99.6646 52.5473 99.5294C52.4236 99.4057 51.7479 99.3432 50.5341 99.3432C48.8868 99.3432 48.6915 99.3727 48.5464 99.6433C48.448 99.8274 48.3857 101.449 48.3857 103.834V107.724H47.9198C47.4712 107.724 47.454 107.749 47.454 108.422C47.454 108.806 47.4116 109.12 47.3599 109.12C46.9537 109.12 43.6641 106.14 39.0686 101.609C30.4141 93.0748 29.3572 92.143 26.8731 90.8576C24.5721 89.6668 21.4948 88.7976 16.8628 88.0297C13.1589 87.4156 7.69754 87.0222 7.4921 87.3544ZM19.8997 98.5745C18.6804 99.1824 17.9347 100.171 17.6456 101.563C17.4058 102.717 17.7057 103.807 18.5571 104.876C19.4337 105.976 20.4367 106.482 21.7414 106.482C23.3633 106.482 24.4056 105.884 25.0572 104.58C26.2124 102.269 25.5979 99.566 23.6991 98.606C22.7698 98.1363 20.8112 98.12 19.8997 98.5745ZM31.0892 105.469C30.4316 105.703 29.3865 106.629 29.0441 107.281C28.0634 109.147 28.7415 111.383 30.5635 112.29C32.9511 113.479 35.8731 111.648 35.8694 108.965C35.8674 107.417 34.7024 105.943 33.1075 105.47C32.1696 105.191 31.8688 105.191 31.0892 105.469ZM49.7833 109.819V110.362H50.715H51.6467V109.819V109.275H50.715H49.7833V109.819ZM52.7337 109.896V110.517H53.6654H54.5971V109.896V109.275H53.6654H52.7337V109.896ZM50.4423 111.487C50.5108 111.696 51.4512 112.379 51.6697 112.379C51.7425 112.379 51.802 112.135 51.802 111.836C51.802 111.294 51.8001 111.293 51.0903 111.293C50.5904 111.293 50.3976 111.351 50.4423 111.487ZM52.7337 112.069V112.845H53.6654H54.5971V112.069V111.293H53.6654H52.7337V112.069ZM40.8918 112.595C39.8413 112.981 39.467 113.505 39.2899 114.84C39.1541 115.862 39.5056 116.841 40.2391 117.485C40.7575 117.94 41.7075 118.312 42.0695 118.203C42.1698 118.172 42.4428 118.106 42.6762 118.055C43.2468 117.93 44.1432 117.12 44.5127 116.396C44.893 115.651 44.8986 114.628 44.5259 113.929C43.9351 112.82 42.1071 112.149 40.8918 112.595ZM48.2893 116.948C47.5177 117.283 46.9881 118.099 46.9881 118.953C46.9881 119.996 47.6573 120.696 48.9002 120.952C49.9657 121.172 50.41 121.001 50.9832 120.151C51.4215 119.501 51.4753 118.079 51.0829 117.519C50.5754 116.795 49.2595 116.526 48.2893 116.948ZM54.4491 119.304C53.4854 119.709 53.248 121.4 54.0491 122.152C54.2483 122.339 54.6962 122.53 55.0445 122.577C55.8607 122.687 56.3894 122.351 56.762 121.486C57.0837 120.739 56.9685 120.361 56.2026 119.654C55.6593 119.152 55.0846 119.037 54.4491 119.304Z" fill="#005D33"/>
<path fill-rule="evenodd" clip-rule="evenodd" d="M152.454 21.8724C152.454 22.3851 151.724 30.8184 151.665 30.9882C151.608 31.1523 150.796 31.207 148.408 31.207C145.548 31.207 142.992 31.4489 142.999 31.7186C143.003 31.8752 143.227 32.1444 143.592 32.4322C143.839 32.6263 144.57 32.7175 146.395 32.7823L148.864 32.8698L148.021 33.3949C144.341 35.688 143.574 36.3519 142.429 38.2374C141.579 39.6378 141.133 40.851 140.991 42.1497C140.928 42.7256 140.835 43.4922 140.783 43.8532L140.689 44.5095H135.374C132.384 44.5095 129.865 44.5834 129.615 44.6784C129.117 44.8673 128.837 45.628 129.102 46.0682C129.332 46.4505 130.682 47.1205 131.481 47.2492C131.842 47.3073 132.138 47.3811 132.138 47.4135C132.138 47.4457 131.98 47.8718 131.788 48.3603C131.097 50.1103 131.546 52.0265 132.929 53.2406C133.873 54.0688 134.567 54.3114 135.992 54.3114C137.426 54.3114 138.298 53.9533 139.061 53.0501C139.725 52.2642 140.365 50.8444 140.368 50.1544C140.369 49.5888 140.374 49.5855 141.243 49.5855C142.097 49.5855 142.15 49.6172 143.651 51.0379C147.07 54.2738 149.35 55.2648 153.33 55.2445C155.89 55.2314 157.159 54.9589 159.197 53.9838C160.712 53.2588 161.779 52.4746 163.647 50.7141C164.755 49.6688 164.902 49.5855 165.636 49.5855C166.439 49.5855 166.64 49.7544 166.64 50.4313C166.641 50.8123 167.577 52.7158 168.005 53.2036C168.733 54.0344 169.452 54.31 170.894 54.3107C172.5 54.3116 173.253 54.0002 174.212 52.9393C175.071 51.9893 175.21 51.688 175.327 50.5125C175.417 49.6125 175.326 48.9213 174.962 47.7475C174.868 47.4438 174.975 47.3684 175.766 47.1806C176.836 46.9266 177.381 46.6024 177.792 45.9747C178.06 45.5666 178.064 45.4717 177.832 45.0583L177.573 44.5971L171.8 44.5095L166.027 44.422L165.92 42.7592C165.852 41.705 165.675 40.7381 165.436 40.1176C164.636 38.0389 162.657 35.8898 159.874 34.0777L158.019 32.8698L160.097 32.7315C163.148 32.5285 163.313 32.4917 163.313 32.0093C163.313 31.6512 163.202 31.5866 162.393 31.473C161.887 31.4019 160.081 31.2933 158.379 31.2316C156.678 31.1699 155.224 31.058 155.149 30.9831C155.033 30.8672 154.232 23.3135 154.212 22.149C154.206 21.794 154.119 21.7551 153.33 21.7551C152.848 21.7551 152.454 21.8078 152.454 21.8724ZM150.471 34.6114C149.814 34.8431 148.676 35.3731 147.944 35.7892C146.401 36.665 144.398 38.4824 144.398 39.0065C144.398 39.3704 145.264 40.2744 146.704 41.4127C147.649 42.1601 147.764 42.18 148.424 41.7104C149.304 41.0843 151.128 40.3091 151.721 40.3089C152.957 40.3085 152.979 40.2546 152.979 37.2456C152.979 34.7547 152.953 34.5308 152.641 34.3637C152.15 34.1011 151.807 34.1402 150.471 34.6114ZM153.986 34.4596C153.914 34.5319 153.856 35.7396 153.858 37.1436L153.861 39.6961L156.569 40.8142L159.277 41.9323L160.2 41.2187C160.708 40.8263 161.43 40.1899 161.806 39.8046C162.458 39.1351 162.478 39.0802 162.264 38.5642C161.789 37.4177 159.301 35.7013 156.935 34.8879C155.834 34.5093 154.177 34.2687 153.986 34.4596ZM151.228 44.2916C148.661 45.9371 148.44 49.4066 150.772 51.4579C153.218 53.6104 157.029 52.2252 157.718 48.9328C158.072 47.2406 157.44 45.6817 155.897 44.4386C155.271 43.9347 155.112 43.8931 153.62 43.8416C152.105 43.7894 151.973 43.8143 151.228 44.2916ZM134.988 47.6741C133.99 48.1707 133.539 48.9379 133.539 50.1362C133.539 51.6052 134.332 52.3826 135.893 52.4429C137.294 52.497 138.585 51.0717 138.368 49.7122C138.221 48.7951 138.027 48.4604 137.346 47.949C136.502 47.3157 135.859 47.2406 134.988 47.6741ZM170.222 47.5634C168.58 48.2563 168.038 50.5962 169.25 51.7568C170.435 52.8919 172.529 52.6101 173.268 51.2161C173.557 50.6709 173.518 49.4763 173.189 48.7833C172.694 47.7403 171.229 47.1382 170.222 47.5634Z" fill="#005D33"/>
<path d="M137 126.94V117.936C137.011 117.87 137.022 117.8 137.032 117.729C137.135 116.968 137.285 116.282 137.365 116.204C137.971 115.612 149.883 109.454 150.014 109.665C150.106 109.814 150.13 110.688 150.068 111.608L149.954 113.28L145.066 115.527C142.377 116.762 139.54 118.056 138.761 118.402L137.343 119.031V123.016C137.343 125.988 137.32 126.75 137 126.94Z" fill="#005D33"/>
<path fill-rule="evenodd" clip-rule="evenodd" d="M137 127.342V130.001C141.398 130.009 142.313 130.101 142.466 130.5C142.627 130.919 141.887 130.995 137 131L144.846 131H148.357H151.892H161.35H176.541C174.6 131 174.432 130.869 175.155 129.917C175.79 129.081 177.086 129.209 177.791 130.177L178.39 131H180.725L181.498 130.167C182.212 129.396 182.495 129.334 185.234 129.344C187.994 129.354 188.237 129.411 188.796 130.177L189.395 131H191.667L192.266 130.177C192.627 129.681 193.196 129.354 193.699 129.354C194.201 129.354 194.77 129.681 195.131 130.177L195.73 131H198.003L199.201 129.354L205.489 129.344C211.347 129.334 211.76 129.293 211.529 128.75C211.393 128.429 210.988 127.399 210.629 126.461L209.976 124.754L210.883 122.627C211.381 121.457 211.86 119.948 211.947 119.274C212.611 114.11 206.982 105.626 198.867 99.5583C194.09 95.986 188.611 94 183.535 94C179.817 94 177.516 94.6533 172.908 97.0183C170.735 98.1333 168.868 98.957 168.759 98.8483C168.748 98.8367 168.731 98.7691 168.709 98.6521L168.689 98.6667L167.202 99.6127C167.111 100.16 166.886 100.297 166.472 100.077L165.175 100.902C165.185 101.011 165.133 101.097 165.021 101.166C164.812 101.296 164.685 101.353 164.581 101.28L163.266 102.116C163.273 102.151 163.274 102.17 163.271 102.172C163.225 102.207 161.686 103.033 159.852 104.007C153.874 107.182 152.997 107.928 152.331 110.402C152.283 110.581 152.229 110.751 152.179 110.906C152.049 111.313 151.95 111.624 152.064 111.771C152.425 112.242 154.949 111.054 165.529 106.072L165.532 106.071C166.792 105.477 168.168 104.829 169.667 104.124C180.42 99.0693 180.85 98.9623 183.466 100.695C186.033 102.394 189.558 107.402 191.442 112.024C191.847 113.019 192.207 113.882 192.241 113.941C192.275 114 193.554 113.635 195.084 113.128C197.627 112.288 198.315 112.206 203.066 112.187C206.922 112.172 208.405 112.281 208.801 112.609C210.496 114.013 211.061 119.791 209.747 122.292C209.156 123.418 209.011 124.141 209.115 125.459C209.188 126.398 209.367 127.429 209.512 127.75C209.761 128.3 209.05 128.333 197.095 128.333H184.415L184.191 127.315C184.068 126.756 183.404 125.706 182.716 124.982C181.493 123.697 181.41 123.667 179.152 123.667C177.194 123.667 162.563 124.938 138.677 127.184C138.11 127.237 137.55 127.29 137 127.342ZM161.35 131C154.094 131 154.016 130.992 154.427 130.333C154.822 129.701 155.205 129.667 161.767 129.667C168.466 129.667 168.689 129.688 168.689 130.333C168.689 130.98 168.466 131 161.35 131ZM151.892 131C151.242 131 151.113 130.866 151.252 130.333C151.348 129.967 151.554 129.667 151.709 129.667C151.865 129.667 152.153 129.967 152.349 130.333C152.661 130.915 152.603 131 151.892 131ZM148.357 131C147.092 131 147.034 130.959 147.425 130.333C147.654 129.967 148.1 129.667 148.416 129.667C148.733 129.667 149.152 129.967 149.348 130.333C149.678 130.949 149.602 131 148.357 131ZM144.846 131C144.093 131 144.032 130.92 144.346 130.333C144.543 129.967 144.768 129.667 144.846 129.667C144.925 129.667 145.15 129.967 145.347 130.333C145.66 130.92 145.6 131 144.846 131ZM195.612 98.658C196.206 98.799 197.557 99.5633 198.613 100.357C201.066 102.198 205.867 107.024 207.336 109.125L208.468 110.745L205.835 110.519C202.898 110.267 197.827 110.751 195.103 111.542C194.12 111.828 193.287 112.01 193.252 111.948C193.218 111.885 192.765 110.933 192.245 109.833C190.751 106.666 187.866 102.555 185.838 100.703C184.813 99.7663 183.799 98.9827 183.584 98.9617C183.37 98.9407 183.795 98.7993 184.528 98.6477C186.189 98.304 194.153 98.3117 195.612 98.658Z" fill="#005D33"/>
<path d="M177.025 108.377C177.025 106.581 176.924 105.009 176.799 104.885C176.539 104.625 175.385 104.926 174.775 105.415C174.492 105.641 174.358 106.807 174.358 109.041C174.358 112.146 174.397 112.333 175.047 112.333C175.425 112.333 176.026 112.178 176.381 111.988C176.951 111.683 177.025 111.265 177.025 108.377Z" fill="#005D33"/>
<path d="M155.619 116.204C155.674 115.125 155.639 114.031 155.54 113.773C155.401 113.412 155.206 113.387 154.688 113.664C154.12 113.968 154.017 114.359 154.017 116.202C154.017 118.27 154.055 118.374 154.767 118.273C155.434 118.178 155.528 117.949 155.619 116.204Z" fill="#005D33"/>
<path fill-rule="evenodd" clip-rule="evenodd" d="M191.198 112.761C189.322 107.76 185.1 102.021 182.194 100.521C181.644 100.237 180.796 100.003 180.309 100.002C179.822 100.001 176.821 101.245 173.639 102.767C170.458 104.289 164.292 107.176 159.937 109.184L152.019 112.833L152.016 125.524L154.6 125.292C156.021 125.164 162.378 124.58 168.727 123.994L180.269 122.928L181.784 123.598C183.038 124.153 183.432 124.56 184.078 125.967L184.858 127.667H208.384L208.127 126.75C207.702 125.231 207.92 123.535 208.74 121.976C209.786 119.988 209.785 116.856 208.738 114.459C208.027 112.831 207.92 112.741 206.467 112.542C202.889 112.052 197.404 112.676 194.064 113.953C193.072 114.332 192.157 114.577 192.029 114.499C191.901 114.42 191.527 113.638 191.198 112.761ZM177.615 112.661C177.663 107.628 177.631 103.32 177.542 103.088C177.324 102.522 177.011 102.553 175.219 103.321L173.691 103.976L173.691 113.335C173.69 119.841 173.69 121.765 174.48 122.178C174.812 122.351 175.283 122.257 175.952 122.124L176.088 122.097L177.526 121.813L177.615 112.661ZM170.617 110.635C170.696 110.424 170.694 110.183 170.691 109.863C170.69 109.797 170.69 109.728 170.69 109.655C170.69 108.928 170.62 108.333 170.536 108.333C170.22 108.333 158.502 113.444 158.101 113.756C157.872 113.935 157.685 114.448 157.685 114.897C157.685 114.956 157.683 115.013 157.681 115.066C157.676 115.238 157.671 115.371 157.735 115.45C157.946 115.712 158.912 115.367 163.111 113.869C163.497 113.731 163.911 113.583 164.354 113.426C164.659 113.317 164.95 113.213 165.227 113.115C169.361 111.644 170.374 111.284 170.617 110.635ZM156.085 119.051C156.139 116.181 156.136 113.496 156.077 113.083C155.956 112.23 155.727 112.176 154.532 112.72L153.683 113.107V118.7C153.683 121.89 153.82 124.378 154.001 124.491C154.176 124.599 154.695 124.593 155.153 124.478L155.986 124.269L156.085 119.051ZM206.037 118.667C207.339 118.667 207.37 118.639 207.37 117.5C207.37 116.361 207.339 116.333 206.037 116.333C204.734 116.333 204.703 116.361 204.703 117.5C204.703 118.639 204.734 118.667 206.037 118.667Z" fill="#005D33"/>
<path d="M56 102.5V124.5L100.5 126.5V114.5L98 106V81L56 102.5Z" fill="white"/>
<path d="M98 99.5V121.5L142.5 123.5V111.5L140 103V78L98 99.5Z" fill="white"/>
<path d="M139.874 93.4614C139.858 91.3859 138.247 81.2573 137.825 80.5718C137.58 80.1742 131.608 79.9594 120.824 79.9594H104.2L104.599 84.7548C104.818 87.3917 105.159 90.7301 105.356 92.1735L105.715 94.7968H139.885L139.874 93.4614Z" fill="#A92023"/>
<path d="M103.186 93.1563C103.186 91.6696 101.996 82.2538 101.687 81.2947C101.556 80.887 101.006 80.5529 100.467 80.5529C99.6112 80.5529 99.5194 81.1873 99.7467 85.5293C99.9734 89.8547 100.216 90.7544 101.597 92.4002C102.902 93.9552 103.186 94.0905 103.186 93.1563Z" fill="#A92023"/>
<path d="M139.885 110.821V100.138H107.922V110.821H139.885Z" fill="#A92023"/>
<path d="M137.221 119.13C139.668 119.13 139.885 119.009 139.885 117.646C139.885 116.284 139.668 116.163 137.221 116.163C134.775 116.163 134.558 116.284 134.558 117.646C134.558 119.009 134.775 119.13 137.221 119.13Z" fill="#A92023"/>
<path d="M110.881 119.13C113.644 119.13 113.841 119.031 113.841 117.646C113.841 116.262 113.644 116.163 110.881 116.163C108.119 116.163 107.922 116.262 107.922 117.646C107.922 119.031 108.119 119.13 110.881 119.13Z" fill="#A92023"/>
<path d="M126.271 120.416C126.271 119.817 126.081 119.137 125.848 118.904C125.616 118.671 124.617 118.56 123.629 118.657C122.283 118.789 121.784 119.169 121.642 120.169C121.473 121.366 121.703 121.504 123.862 121.504C125.803 121.504 126.271 121.293 126.271 120.416Z" fill="#A92023"/>
<path fill-rule="evenodd" clip-rule="evenodd" d="M132.245 71.3537L132.19 58H88.5382L54.0219 95.3879L54.3534 110.154L70.631 99.0035C79.5837 92.8709 87.0851 87.9484 87.3005 88.0636C87.516 88.1793 87.516 88.9277 87.3005 89.7265C87.0217 90.7604 84.9453 92.4109 80.1017 95.4502C76.3578 97.7993 71.9628 100.572 70.3351 101.611C68.7073 102.65 64.3828 105.349 60.7248 107.606C53.9977 111.758 51.4382 114.094 57.165 110.854C58.8744 109.887 66.2657 105.767 73.5906 101.699L86.9087 94.3012L87.0797 99.6694C87.1739 102.622 87.1348 105.154 86.9921 105.297C86.6269 105.663 56.3428 115.005 55.1341 115.124C54.5872 115.178 54.2587 115.415 54.4037 115.651C54.6772 116.094 69.0394 115.813 74.7531 115.253C76.5324 115.078 81.5933 114.282 85.9995 113.484C90.4063 112.685 94.7379 111.901 95.6264 111.741L97.2405 111.45L97.034 118.702C96.9203 122.692 96.9239 124.353 97.0411 122.394C97.1589 120.436 97.4311 117.632 97.6466 116.163C97.9911 113.81 98.0905 113.669 98.4812 114.976C99.0346 116.826 99.1548 124.883 98.657 126.748C98.3741 127.806 98.1586 127.946 97.7419 127.341C97.3826 126.818 97.2648 127.408 97.3956 129.071L97.5477 131H104.025C103.953 130.902 103.96 130.787 104.011 130.655C104.209 130.138 104.37 129.07 104.37 128.281V126.846H130.414V128.281C130.414 129.07 130.576 130.138 130.774 130.655C130.824 130.787 130.832 130.902 130.76 131H137.611C137.598 130.815 137.652 130.574 137.736 130.258C137.932 129.524 138.097 128.455 138.101 127.884C138.107 127.137 138.588 126.846 139.815 126.846C141.351 126.846 141.594 126.565 142.264 124.026C143.506 119.317 143.104 97.3654 141.598 87.6855C140.224 78.8525 139.185 76.7088 134.552 73.1342L132.245 71.3537ZM130.858 70.3163C131.416 70.502 131.598 69.1601 131.598 64.8745C131.598 60.1532 131.444 59.187 130.688 59.187C129.923 59.187 129.805 60.0541 129.948 64.6288C130.064 68.3274 130.355 70.1495 130.858 70.3163ZM89.2763 105.48C90.0506 105.48 90.1642 102.512 90.1642 82.3333C90.1642 62.1545 90.0506 59.187 89.2763 59.187C88.5021 59.187 88.3885 62.1545 88.3885 82.3333C88.3885 102.512 88.5021 105.48 89.2763 105.48ZM138.313 78.9213C136.802 76.2702 132.085 72.3205 128.618 70.8029C126.945 70.0705 123.952 69.9293 112.361 70.0361L98.155 70.1667L97.9988 88.3739C97.8467 106.017 97.878 106.592 99.0039 106.951C100.184 107.327 100.426 107.82 101.119 111.274L101.508 113.211L141.957 112.898L142.141 106.073C142.389 96.8746 140.366 82.5238 138.313 78.9213ZM141.364 123.286C141.565 122.959 141.886 120.823 142.077 118.538L142.424 114.382H101.411V123.878H121.205C133.742 123.878 141.133 123.661 141.364 123.286Z" fill="#A92023"/>
<path fill-rule="evenodd" clip-rule="evenodd" d="M57.5835 131L58.0529 129.987C58.9336 128.085 59.0461 122.098 58.2008 122.098C57.8753 122.098 57.5693 123.767 57.5201 125.807C57.4716 127.847 57.323 128.807 57.1904 127.94C57.0265 126.869 56.4855 126.247 55.5035 126C53.6052 125.522 53.5952 123.878 55.4905 123.878C56.6009 123.878 57.0105 123.478 57.313 122.098C57.5811 120.873 58.0582 120.317 58.8395 120.317C59.4652 120.317 59.9849 120.651 59.9955 121.059C60.0068 121.512 60.3205 121.397 60.8005 120.762C61.7068 119.565 63.5192 119.369 63.5458 120.465C63.5565 120.905 63.7962 120.808 64.1342 120.228C64.5657 119.487 65.5856 119.249 68.3303 119.249C71.3952 119.249 72.0019 119.423 72.2505 120.376C72.4127 120.997 72.9135 121.504 73.3639 121.504C73.8789 121.504 74.1825 122.164 74.1825 123.285C74.1825 125.467 74.0221 126 73.4261 125.802C72.8774 125.618 72.6122 126.388 72.1984 129.368L71.9718 131L68.8553 131C68.8553 130.674 68.5889 130.407 68.2634 130.407C67.9378 130.407 67.6715 130.674 67.6715 131L64.5929 131C64.5796 130.79 64.5023 130.547 64.3668 130.327C63.9939 129.722 63.8542 129.722 63.6541 130.325C63.5742 130.565 63.5615 130.799 63.5964 131H61.0414C61.0281 130.79 60.9509 130.547 60.8153 130.327C60.4424 129.722 60.3027 129.722 60.1027 130.325C60.0227 130.565 60.0101 130.799 60.0449 131H57.5835ZM65.5376 128.277C65.9928 127.089 65.9857 123.978 65.5246 122.252C64.8978 119.908 64.12 121.466 64.12 125.065C64.12 128.497 64.8344 130.116 65.5376 128.277ZM61.8103 128.891C62.3762 127.44 62.4662 123.7 61.966 122.393C60.9734 119.8 60.092 125.296 60.9722 128.594C61.3309 129.939 61.3924 129.961 61.8103 128.891Z" fill="#A92023"/>
<path fill-rule="evenodd" clip-rule="evenodd" d="M77.0013 131L76.8669 128.181C76.7769 126.304 76.8177 125.77 76.9568 126.994C77.4386 131.226 78.3259 129.205 78.3259 123.878C78.3259 120.713 78.085 118.537 77.734 118.537C77.4085 118.537 77.0953 119.805 77.0385 121.356L76.9355 124.175L76.7035 121.552C76.3608 117.667 76.8911 116.163 78.6035 116.163C79.3955 116.163 80.3142 116.63 80.6462 117.201C81.1849 118.129 81.2512 118.097 81.2677 116.904C81.2819 115.829 81.6217 115.569 83.0121 115.569C83.9615 115.569 84.8938 115.903 85.0838 116.311C85.3596 116.904 85.4981 116.904 85.774 116.311C85.964 115.903 86.8803 115.569 87.8096 115.569C89.3675 115.569 89.532 115.785 89.9132 118.335C90.1411 119.857 90.1749 123.462 89.9884 126.348L89.6876 131H85.9812C86.0068 130.897 86.0208 130.785 86.0208 130.668C86.0208 130.16 85.7544 129.908 85.4289 130.11C85.1156 130.304 84.8571 130.697 84.8381 131H81.532C81.5393 130.824 81.5101 130.609 81.4441 130.356C81.1985 129.416 81.0014 129.309 80.6208 129.911C80.3297 130.371 80.1704 130.732 80.1442 131H77.0013ZM82.5427 128.527C83.1169 127.619 83.2394 120.286 82.7031 118.886C81.9431 116.899 81.2855 118.795 81.2855 122.974C81.2855 127.865 81.7277 129.817 82.5427 128.527Z" fill="#A92023"/>
<path d="M95.4914 126.318V121.771C95.4914 117.867 95.3588 117.274 94.555 117.583C94.0401 117.781 93.096 117.943 92.4567 117.943C91.3995 117.943 91.3096 118.303 91.4688 121.912L91.644 125.881L95.4914 126.318Z" fill="#A92023"/>
<path fill-rule="evenodd" clip-rule="evenodd" d="M182.754 59.043C182.336 59.2108 182.304 59.1949 181.833 58.5919C181.511 58.1807 181.51 58.1645 181.757 57.8613C182.043 57.5104 181.982 57.3413 181.429 56.9567C181.042 56.688 180.914 56.7172 180.595 57.1465C180.461 57.3256 180.362 57.3913 180.301 57.3415C180.25 57.3 179.983 57.1886 179.708 57.094L179.209 56.9219L179.245 56.5624C179.29 56.1006 179.198 55.9654 178.782 55.8887C178.235 55.7876 177.963 55.936 177.882 56.3798L177.812 56.7698L177.302 56.8298C177.021 56.8629 176.741 56.9221 176.68 56.9614C176.604 57.01 176.498 56.8889 176.348 56.5828C176.101 56.08 175.989 56.0712 175.307 56.5019C174.975 56.7124 174.967 56.7414 175.137 57.1433L175.315 57.5643L174.848 57.8618C174.591 58.0254 174.353 58.1855 174.319 58.2178C174.284 58.2501 174.082 58.1693 173.87 58.0383L173.485 57.8002L173.141 58.2573C172.783 58.7341 172.796 58.8424 173.262 59.2789C173.446 59.4512 173.446 59.5378 173.262 59.8681C173.143 60.0811 173.069 60.2914 173.097 60.3354C173.186 60.4758 172.857 60.6093 172.47 60.5896C172.035 60.5672 171.98 60.6482 171.962 61.3467L171.948 61.8647L172.394 61.9396L172.84 62.0145L172.947 62.6547C173.053 63.2925 173.052 63.2953 172.664 63.4597C172.2 63.6559 172.172 63.9153 172.552 64.5107C172.783 64.8737 172.803 64.8794 173.209 64.7034C173.612 64.5286 173.637 64.5354 173.885 64.8907C174.026 65.0936 174.194 65.332 174.256 65.4207C174.325 65.5182 174.282 65.7136 174.148 65.9147C173.894 66.2946 173.977 66.4985 174.525 66.842C174.907 67.0818 174.887 67.0891 175.431 66.5127C175.502 66.4381 175.79 66.4793 176.133 66.6133L176.716 66.8404L176.68 67.2083C176.631 67.7036 176.719 67.8082 177.247 67.8782C177.804 67.9522 177.884 67.9021 178.005 67.4073L178.101 67.0122L178.74 66.904C179.376 66.7964 179.38 66.7978 179.561 67.1895C179.723 67.5369 179.778 67.5761 180.036 67.5227C180.197 67.4894 180.472 67.3709 180.647 67.2595C180.944 67.0702 180.953 67.0289 180.787 66.6358C180.617 66.2346 180.625 66.2043 180.956 65.9917C181.147 65.8691 181.379 65.6854 181.472 65.5835C181.612 65.4307 181.702 65.4442 181.983 65.6609C182.366 65.9559 182.514 65.9053 182.903 65.3458C183.169 64.9621 183.117 64.8073 182.586 64.4172C182.489 64.3458 182.498 64.1882 182.614 63.9601C182.711 63.7686 182.815 63.5045 182.844 63.3732C182.891 63.1587 182.937 63.1366 183.298 63.1553C183.814 63.1817 183.857 63.1483 183.947 62.6507C184.063 62.004 183.983 61.8469 183.502 61.783L183.075 61.7262L182.977 61.1058C182.881 60.5041 182.89 60.4792 183.255 60.2779C183.704 60.0301 183.729 59.8363 183.381 59.2853C183.143 58.9088 183.115 58.898 182.754 59.043ZM178.88 74.932C178.151 75.171 178.131 75.1712 177.983 74.9415C177.907 74.8226 177.676 74.5201 177.47 74.2693L177.096 73.8131L177.4 73.3187C177.75 72.7479 177.706 72.6253 176.968 72.1232C176.412 71.7454 176.52 71.7158 175.764 72.4542C175.565 72.6481 175.459 72.645 174.912 72.4289C174.569 72.2932 174.216 72.1485 174.129 72.1075C174.026 72.0598 173.976 71.849 173.989 71.5213C174 71.24 173.965 70.941 173.911 70.8567C173.857 70.7725 173.498 70.683 173.113 70.6576C172.344 70.6069 172.316 70.6315 172.196 71.4662L172.14 71.8579L171.28 71.9832L170.421 72.1084L170.116 71.5803C169.763 70.9702 169.682 70.9621 168.8 71.4493L168.27 71.7425L168.507 72.293C168.637 72.5957 168.716 72.864 168.683 72.889C168.179 73.2659 167.818 73.5613 167.62 73.7578C167.391 73.9861 167.35 73.9801 166.86 73.6463C166.362 73.3082 166.33 73.304 166.086 73.5454C165.946 73.6838 165.709 73.9671 165.559 74.1749C165.305 74.5265 165.303 74.5702 165.536 74.8075C166.137 75.4183 166.284 75.6137 166.189 75.6743C166.135 75.709 165.987 76.0355 165.86 76.3998L165.63 77.0621L165.034 77.0392C164.339 77.0125 164.273 77.0921 164.22 78.023L164.185 78.6434L164.826 78.7887C165.43 78.9255 165.467 78.9516 165.465 79.239C165.464 79.4069 165.514 79.787 165.576 80.0839L165.689 80.6235L165.148 80.9084C164.635 81.1785 164.61 81.2099 164.672 81.5105C164.709 81.6849 164.866 82.0285 165.023 82.274L165.307 82.7204L165.871 82.5246C166.181 82.417 166.451 82.3342 166.471 82.3406C166.491 82.3471 166.728 82.6509 166.997 83.0156L167.487 83.6789L167.18 84.1976C166.883 84.6999 166.882 84.7247 167.149 84.9789C167.983 85.772 168.175 85.7883 168.698 85.1101L168.953 84.7798L169.788 85.0952L170.622 85.4108L170.593 86.0275L170.565 86.6444L170.95 86.7424C171.162 86.7964 171.536 86.8378 171.781 86.8344L172.226 86.8282L172.364 86.2077L172.501 85.5871L173.21 85.5116C173.6 85.4701 173.975 85.4021 174.044 85.3605C174.14 85.3027 174.239 85.4257 174.461 85.8801L174.752 86.4756L175.3 86.2614C176.136 85.9352 176.298 85.7316 176.095 85.2628C176.001 85.0473 175.924 84.8004 175.923 84.7144C175.921 84.6284 176.209 84.3275 176.561 84.046L177.202 83.534L177.736 83.8498C178.331 84.2018 178.392 84.1742 178.985 83.286L179.271 82.8583L178.848 82.4938C178.615 82.2933 178.407 82.1017 178.385 82.0681C178.364 82.0345 178.491 81.6535 178.668 81.2214C178.928 80.5874 179.033 80.4381 179.21 80.4472C179.331 80.4534 179.602 80.4481 179.812 80.4355L180.193 80.4127L180.314 79.7035C180.38 79.3135 180.399 78.9388 180.355 78.8708C180.312 78.8029 180.043 78.7113 179.758 78.6673C179.237 78.5869 179.057 78.4563 179.103 78.1916C179.117 78.1131 179.074 77.7975 179.008 77.4905L178.889 76.9321L179.438 76.5821L179.987 76.232L179.784 75.6867C179.454 74.8 179.406 74.7596 178.88 74.932ZM179.688 60.2222C178.881 59.4205 177.657 59.261 176.735 59.8373C174.914 60.9749 175.342 63.6785 177.425 64.2022C178.298 64.4216 179.406 63.998 179.93 63.2445C180.558 62.3411 180.449 60.9777 179.688 60.2222ZM174.427 76.2666C173.66 75.6307 172.345 75.3521 171.388 75.6223C170.659 75.8283 170.203 76.1408 169.745 76.7491C168.568 78.3127 168.945 80.4787 170.566 81.469C171.22 81.8683 171.901 82.0197 172.737 81.9519C173.502 81.8898 174.582 81.2014 175.003 80.5075C175.382 79.8822 175.582 79.0552 175.517 78.3723C175.462 77.7878 174.86 76.6252 174.427 76.2666ZM167.872 89.7606C167.577 89.8792 167.467 89.8597 167.27 89.6542C166.747 89.1091 166.671 88.8811 166.892 88.5075C167.007 88.3127 167.107 88.1321 167.115 88.1058C167.122 88.0797 166.912 87.9139 166.647 87.7377L166.165 87.4172L165.782 87.7503C165.423 88.0632 165.381 88.0722 165.084 87.9001C164.911 87.7994 164.666 87.704 164.539 87.6881C164.333 87.662 164.314 87.6081 164.352 87.1596L164.394 86.6602L163.826 86.5771C163.514 86.5314 163.232 86.5117 163.198 86.5333C163.164 86.5548 163.097 86.7727 163.048 87.0174L162.959 87.4624L162.325 87.5475C161.707 87.6306 161.685 87.6228 161.433 87.2269L161.174 86.8211L160.658 87.1503C160.159 87.4682 160.145 87.4915 160.254 87.8254C160.341 88.0953 160.309 88.2259 160.106 88.4202C159.556 88.9483 159.358 89.0088 158.972 88.7672C158.639 88.5592 158.588 88.5617 158.382 88.7946C157.988 89.2398 157.872 89.5283 158.032 89.6672C158.586 90.1481 158.597 90.188 158.332 90.7478L158.076 91.2891L157.628 91.2954L157.18 91.3015L157.099 91.8269C157.001 92.462 157.046 92.5455 157.554 92.6693L157.949 92.7658L158.053 93.3788C158.155 93.9863 158.153 93.9933 157.762 94.1746C157.406 94.3394 157.374 94.3892 157.433 94.6755C157.469 94.8503 157.578 95.1173 157.674 95.2686C157.828 95.5092 157.906 95.5262 158.295 95.4039C158.653 95.2914 158.768 95.3074 158.882 95.486C158.96 95.6081 159.134 95.823 159.269 95.9637C159.491 96.1958 159.492 96.2549 159.275 96.6024C159.005 97.0353 159.033 97.1164 159.592 97.5179C159.878 97.7235 160.026 97.7637 160.117 97.6601C160.61 97.0928 160.628 97.0877 161.237 97.3379L161.826 97.5793L161.805 97.9718C161.778 98.5126 161.838 98.5684 162.461 98.5792L163.006 98.5885L163.115 98.1406L163.225 97.6927L163.85 97.6111C164.465 97.5311 164.48 97.5371 164.694 97.9321C164.909 98.331 164.915 98.333 165.361 98.1655C165.956 97.9419 166.046 97.7932 165.863 97.3378C165.73 97.0075 165.746 96.9343 165.979 96.7857C166.127 96.6914 166.355 96.5116 166.486 96.3861C166.696 96.1858 166.774 96.1857 167.129 96.3854C167.554 96.6245 167.623 96.5956 168.078 95.9843C168.267 95.7298 168.168 95.4572 167.783 95.1763C167.632 95.0663 167.637 94.9185 167.808 94.4534L168.022 93.8688L168.485 93.8624L168.948 93.856L169.045 93.4776C169.219 92.8 169.157 92.6386 168.678 92.5217L168.249 92.417L168.115 91.8254C167.983 91.2422 167.987 91.2301 168.38 90.9797C168.827 90.6943 168.839 90.5661 168.467 89.9836C168.249 89.6405 168.208 89.6255 167.872 89.7606ZM164.721 90.8083C164.188 90.2914 163.182 90.073 162.341 90.2913C161.506 90.5077 160.772 91.45 160.694 92.4052C160.581 93.7801 161.67 94.9422 163.092 94.9666C164.634 94.993 165.794 93.4314 165.36 91.9147C165.186 91.3051 165.124 91.1993 164.721 90.8083ZM153.873 96.4837C153.522 96.7038 153.337 96.643 152.965 96.1858C152.624 95.7664 152.62 95.7421 152.826 95.4381C153.066 95.0844 153.017 94.9553 152.509 94.6019C152.249 94.4208 152.117 94.396 152.016 94.5092C151.568 95.0083 151.567 95.0086 151.063 94.7971C150.573 94.592 150.563 94.58 150.511 94.1561C150.458 93.7254 150.456 93.7238 150.027 93.662C149.507 93.5873 149.404 93.6428 149.338 94.0322C149.276 94.3971 149.214 94.4395 148.584 94.5511C148.106 94.6357 148.081 94.6246 147.909 94.2535C147.749 93.9086 147.701 93.8777 147.454 93.9599C147.302 94.0105 147.067 94.1425 146.931 94.2533C146.735 94.4126 146.708 94.5304 146.801 94.8143C146.897 95.1085 146.871 95.2038 146.66 95.3399C146.518 95.4312 146.323 95.5931 146.225 95.6997C146.077 95.8611 145.988 95.8518 145.688 95.6434C145.312 95.3818 145.313 95.3813 144.859 95.9854C144.665 96.2434 144.672 96.2792 144.979 96.6316C145.175 96.857 145.266 97.0282 145.21 97.0642C145.158 97.0971 145.056 97.3175 144.981 97.5543L144.846 97.9846L144.411 97.9623L143.975 97.9399L143.913 98.4362C143.836 99.0482 143.895 99.151 144.334 99.1815L144.681 99.2054L144.805 99.761C144.925 100.302 144.918 100.323 144.535 100.567C144.113 100.836 144.101 101.004 144.46 101.573C144.593 101.784 144.682 101.805 144.972 101.698C145.412 101.536 145.534 101.591 145.863 102.104C146.101 102.474 146.106 102.544 145.911 102.804C145.666 103.131 145.708 103.241 146.203 103.586C146.536 103.817 146.568 103.815 146.88 103.538C147.189 103.264 147.238 103.259 147.708 103.457C148.2 103.663 148.207 103.672 148.226 104.064C148.243 104.448 148.255 104.466 148.562 104.55C149.158 104.713 149.337 104.641 149.435 104.197C149.484 103.975 149.557 103.789 149.597 103.784C149.637 103.78 149.87 103.735 150.114 103.686C150.52 103.604 150.577 103.628 150.79 103.96C151.035 104.345 151.068 104.349 151.695 104.081C152.076 103.919 152.081 103.906 151.946 103.477C151.811 103.047 151.818 103.031 152.27 102.698C152.719 102.367 152.741 102.364 153.068 102.592C153.367 102.799 153.43 102.8 153.626 102.595C153.747 102.467 153.902 102.241 153.971 102.092C154.075 101.864 154.055 101.791 153.847 101.637C153.489 101.37 153.484 101.345 153.678 100.814C153.856 100.33 153.856 100.33 154.285 100.298C154.701 100.268 154.717 100.258 154.798 99.96C154.96 99.3721 154.885 99.1877 154.44 99.0792L154.034 98.98L153.953 98.389C153.875 97.8264 153.888 97.7907 154.219 97.6485C154.518 97.5196 154.557 97.4581 154.504 97.2027C154.471 97.0398 154.363 96.781 154.265 96.6277C154.122 96.4023 154.046 96.3747 153.873 96.4837ZM150.577 97.3173C148.942 96.2696 146.911 97.6235 147.244 99.54C147.55 101.309 149.873 101.91 151.007 100.514C151.846 99.4816 151.647 98.0028 150.577 97.3173Z" fill="#C2C4C8"/>
</g>
<defs>
<clipPath id="clip0_1829_1933">
<rect width="212" height="131" fill="white"/>
</clipPath>
</defs>
</svg>
