<svg width="204" height="129" viewBox="0 0 204 129" fill="none" xmlns="http://www.w3.org/2000/svg">
<g clip-path="url(#clip0_1832_2015)">
<path opacity="0.5" fill-rule="evenodd" clip-rule="evenodd" d="M132.693 0.125149C131 0.290483 129.184 0.628181 127.184 1.14987L125.485 1.5932L125.579 2.97141C125.759 5.61143 126.041 11.5261 125.99 11.617C125.963 11.6672 125.696 11.7539 125.399 11.8096C123.528 12.1599 118.724 14.0294 115.375 15.7107L112.937 16.935L112.672 16.6091C112.527 16.4298 111.134 14.8961 109.576 13.2007C108.019 11.5053 106.66 9.99878 106.556 9.85311C106.453 9.7073 106.31 9.58804 106.238 9.58804C106.046 9.58804 103.462 11.0879 102.216 11.9227C100.137 13.3148 96.3214 16.7262 96.3214 17.1921C96.3214 17.3497 96.7444 18.0189 100.079 23.1363L101.66 25.5619L100.946 26.2937C99.0628 28.2252 95.315 32.8531 95.315 33.2471C95.315 33.3309 95.7841 33.6687 96.3573 33.9979C96.9305 34.3272 98.2879 35.1119 99.3734 35.742C100.459 36.372 101.438 36.8967 101.549 36.9079C101.66 36.9191 102.227 36.3069 102.81 35.5474C106.408 30.8566 111.067 26.7511 116.212 23.7377C117.56 22.948 121.217 21.0695 121.406 21.0695C121.456 21.0695 121.783 20.9386 122.135 20.7787C125.113 19.4245 129.817 18.1948 134.253 17.6109C136.879 17.2651 142.01 17.1948 144.482 17.4706C152.419 18.3562 159.643 20.9342 165.845 25.0941C168.468 26.8543 170.263 28.308 172.566 30.5383C180.639 38.3585 185.599 48.8297 186.571 60.1065C186.76 62.2988 186.671 67.2179 186.403 69.3635C185.392 77.4596 182.627 84.6076 177.994 91.1065C177.403 91.9353 176.879 92.6457 176.83 92.6852C176.781 92.7247 176.498 93.0799 176.201 93.4746C175.311 94.6557 173.122 96.9499 171.438 98.465C168.81 100.828 165.746 103.036 162.706 104.757L161.593 105.387L161.591 109.525C161.591 111.801 161.638 113.639 161.698 113.61C161.757 113.581 162.083 113.438 162.423 113.293C163.051 113.024 163.986 112.556 165.879 111.561C166.519 111.225 166.971 111.064 167.029 111.152C167.082 111.231 168.33 112.614 169.804 114.226C171.278 115.837 172.737 117.438 173.047 117.783L173.611 118.41L174.609 117.87C175.958 117.14 178.561 115.426 179.704 114.514C180.724 113.699 183.586 110.931 183.586 110.758C183.586 110.699 183.246 110.132 182.831 109.497C182.416 108.863 181.775 107.872 181.407 107.296C181.039 106.719 180.176 105.384 179.49 104.329L178.242 102.411L178.665 101.961C181.023 99.4537 181.601 98.7794 183.174 96.7037C184.402 95.0823 186.646 91.771 186.772 91.3948C186.802 91.3043 187.651 91.5095 188.906 91.9108C190.052 92.2772 191.475 92.7276 192.068 92.9115C192.661 93.0954 193.849 93.4741 194.708 93.7531C195.567 94.032 196.321 94.2289 196.383 94.1906C196.581 94.0687 198.067 91.5015 198.586 90.3863C199.686 88.0237 200.677 85.2481 200.99 83.6583C201.157 82.8087 201.15 82.7256 200.901 82.5436C200.753 82.4356 199.336 81.695 197.751 80.8979C195.437 79.7333 192.597 78.2605 192.389 78.1162C192.368 78.1017 192.511 77.4137 192.707 76.5872C193.457 73.4184 194.076 69.0497 194.079 66.9089C194.08 66.3481 194.121 65.4999 194.171 65.0239L194.262 64.1585L195.429 63.9113C196.071 63.7756 197.405 63.4865 198.393 63.2692C199.382 63.0518 201.048 62.6907 202.095 62.4668L204 62.0595V59.9293C204 56.6906 203.518 53.2202 202.702 50.5825L202.397 49.5978L200.287 49.6927C199.127 49.7448 197.11 49.8478 195.805 49.9217C192.154 50.1287 192.431 50.1651 192.226 49.4503C191.164 45.7435 189.587 41.8053 187.893 38.6294C187.058 37.0635 187.042 37.0123 187.319 36.8182C187.476 36.7083 188.046 36.2038 188.585 35.6971C189.124 35.1901 189.885 34.4895 190.277 34.1399C190.669 33.7903 191.629 32.9185 192.41 32.2025C193.192 31.4865 193.963 30.7864 194.125 30.6468L194.418 30.3928L193.998 29.5087C192.807 27.0047 189.404 22.5535 187.406 20.8861L186.768 20.3536L183.631 22.376C181.906 23.4882 180.057 24.6876 179.521 25.0412C178.986 25.3949 178.49 25.663 178.419 25.6373C178.348 25.6114 177.719 25.0679 177.02 24.4293C174.292 21.9346 171.876 20.0685 168.945 18.1917C167.589 17.3231 167.327 17.0978 167.38 16.8483C167.416 16.6836 168.072 14.5871 168.839 12.1895C169.606 9.79183 170.202 7.75071 170.165 7.6537C170.021 7.27969 166.619 5.44495 164.465 4.58039C162.5 3.79118 158.806 2.6904 158.666 2.85214C158.636 2.8863 157.915 4.27068 157.063 5.92832C156.211 7.58596 155.19 9.56062 154.793 10.3165L154.073 11.6909L152.692 11.3547C149.407 10.5549 144.799 9.9276 141.899 9.88498C140.993 9.87177 140.225 9.83532 140.194 9.80418C140.163 9.77303 139.76 8.01637 139.299 5.90047C138.838 3.78458 138.397 1.76269 138.319 1.40749C138.241 1.05228 138.14 0.590291 138.096 0.380754L138.014 0L135.965 0.00287098C134.838 0.00444968 133.366 0.059418 132.693 0.125149ZM138.668 27.6072C138.562 28.1707 138.522 28.1946 137.551 28.2876C136.888 28.3511 136.869 28.3417 136.713 27.8684C136.532 27.3206 136.308 27.2707 135.514 27.6015C134.96 27.8327 134.904 27.9904 135.146 28.6278C135.248 28.8936 135.25 29.045 135.155 29.077C135.075 29.1034 134.772 29.3135 134.482 29.5438L133.954 29.9625L133.592 29.678C133.126 29.3125 132.917 29.3195 132.55 29.7136C132.066 30.2323 132.039 30.6255 132.461 31.0162L132.832 31.3594L132.547 31.9482C132.39 32.2721 132.262 32.6133 132.262 32.7063C132.262 32.8214 132.059 32.8525 131.627 32.8039C130.917 32.7241 130.83 32.8392 130.827 33.8659C130.825 34.3676 130.851 34.3959 131.4 34.4885L131.975 34.5855V35.2905C131.975 35.6783 131.984 36.0438 131.995 36.1031C132.006 36.1623 131.78 36.3237 131.494 36.4619L130.973 36.7129L131.23 37.3947C131.497 38.1059 131.622 38.1663 132.412 37.9642C132.723 37.8846 132.817 37.944 133.045 38.3682C133.193 38.6419 133.368 38.8658 133.435 38.8658C133.647 38.8658 133.565 39.3108 133.279 39.7127C132.956 40.1654 133.006 40.2793 133.745 40.7775L134.293 41.1469L134.679 40.7191L135.066 40.2912L135.828 40.6147C136.587 40.9371 136.589 40.9401 136.5 41.4699C136.392 42.1029 136.653 42.3102 137.554 42.3102C138.103 42.3102 138.122 42.2932 138.212 41.7362C138.3 41.1832 138.325 41.1612 138.877 41.1381C139.192 41.1251 139.563 41.1088 139.702 41.1022C139.854 41.0951 140.035 41.2748 140.159 41.5568C140.394 42.0894 140.67 42.1399 141.416 41.7867C141.936 41.5404 141.93 41.5672 141.683 40.588C141.651 40.4612 141.893 40.1796 142.273 39.9023L142.917 39.4317L143.288 39.7229C143.787 40.1148 143.96 40.0913 144.397 39.5723C144.859 39.0251 144.86 38.9041 144.41 38.4357L144.051 38.0615L144.373 37.3012C144.693 36.5447 144.698 36.5414 145.244 36.6144C145.728 36.6793 145.809 36.6461 145.928 36.3324C146.002 36.1368 146.063 35.7606 146.063 35.4964C146.063 35.0478 146.025 35.0096 145.488 34.919C144.94 34.8266 144.913 34.7973 144.911 34.2965C144.91 34.0074 144.872 33.6318 144.826 33.462C144.758 33.2071 144.834 33.1205 145.26 32.9668C145.84 32.7574 145.887 32.5638 145.551 31.7629C145.322 31.2135 145.119 31.1643 144.335 31.4674C144.192 31.5228 144.029 31.4044 143.863 31.1238C143.723 30.8883 143.51 30.5966 143.389 30.4754C143.19 30.2775 143.198 30.2131 143.466 29.8382C143.848 29.3017 143.842 29.2327 143.368 28.7957C142.752 28.2276 142.528 28.2065 142.129 28.6794L141.775 29.0994L141.04 28.78C140.327 28.4703 140.306 28.4443 140.34 27.9143C140.382 27.2616 140.19 27.1026 139.358 27.0994C138.79 27.0974 138.759 27.1201 138.668 27.6072ZM159.576 30.1471C159.333 31.0936 159.319 31.1157 158.971 31.1171C158.79 31.1177 158.306 31.1586 157.895 31.2079L157.148 31.2975L156.824 30.6326C156.451 29.8649 156.289 29.8284 155.242 30.2781C154.454 30.6164 154.496 30.4804 154.772 31.7981C154.844 32.1443 154.769 32.2556 154.161 32.6951C153.779 32.9711 153.382 33.2509 153.278 33.3171C153.156 33.3942 152.895 33.3037 152.551 33.0659C152.256 32.8617 151.91 32.6945 151.782 32.6945C151.655 32.6945 151.312 33.019 151.021 33.4155C150.439 34.2063 150.446 34.2531 151.262 34.9536L151.645 35.2823L151.19 36.2914L150.736 37.3004L149.958 37.2666C149.06 37.2274 148.995 37.3098 148.915 38.5901L148.867 39.3602L149.622 39.4828C150.037 39.5501 150.38 39.6488 150.384 39.7019C150.443 40.5016 150.513 41.0919 150.59 41.4384C150.678 41.8406 150.644 41.8804 149.948 42.1792C149.243 42.482 149.216 42.5133 149.309 42.9409C149.362 43.186 149.504 43.6351 149.624 43.9386C149.828 44.4523 149.874 44.484 150.29 44.3957C151.359 44.1687 151.67 44.1443 151.67 44.2878C151.67 44.37 151.92 44.7526 152.225 45.138L152.78 45.8388L152.347 46.4632C151.841 47.192 151.881 47.3172 152.847 48.0111L153.491 48.4735L154.086 47.8846C154.648 47.3298 154.701 47.308 155.009 47.5066C155.189 47.6227 155.632 47.8294 155.994 47.966L156.652 48.2144L156.587 48.9907C156.526 49.7266 156.543 49.7746 156.909 49.9136C157.122 49.9942 157.6 50.0602 157.971 50.0602H158.647L158.823 49.3205C158.919 48.9137 159.016 48.5668 159.036 48.5497C159.057 48.5326 159.546 48.4864 160.123 48.4469L161.173 48.3753L161.52 49.0602C161.857 49.7233 161.883 49.7413 162.34 49.6282C163.765 49.2752 163.915 49.0799 163.544 48.0536L163.363 47.5538L164.275 46.8734L165.187 46.193L165.831 46.6462L166.475 47.0993L166.845 46.7524C167.048 46.5615 167.349 46.1883 167.513 45.9229L167.812 45.4404L167.239 44.8679L166.665 44.2954L167.07 43.4822C167.293 43.035 167.477 42.5851 167.48 42.4825C167.483 42.3401 167.683 42.3184 168.324 42.3909L169.165 42.4858L169.311 41.7502C169.533 40.6292 169.425 40.3158 168.781 40.213C168.485 40.1658 168.166 40.08 168.073 40.0223C167.979 39.9647 167.853 39.4499 167.792 38.8784L167.681 37.8394L168.386 37.4823C169.173 37.0844 169.185 36.9996 168.636 35.7545L168.372 35.1548L167.69 35.3598C167.314 35.4726 166.965 35.5649 166.915 35.5649C166.864 35.5649 166.541 35.1672 166.198 34.6811C165.694 33.9677 165.605 33.7534 165.736 33.5688C165.826 33.4432 166.006 33.1489 166.136 32.9148L166.373 32.4894L165.693 31.8743C165.319 31.536 164.928 31.2593 164.826 31.2593C164.723 31.2593 164.44 31.4854 164.197 31.7616C163.753 32.2665 163.489 32.3703 163.236 32.1392C163.161 32.0708 162.792 31.9006 162.416 31.7611L161.734 31.5073V30.6776V29.848L161.008 29.6925C159.827 29.4398 159.751 29.4642 159.576 30.1471ZM49.3963 29.8415C49.3612 29.9503 48.9958 31.5894 48.5841 33.4839C48.1723 35.3783 47.8194 36.9474 47.7997 36.9708C47.7801 36.9942 47.099 37.0395 46.2861 37.0715C43.7407 37.1718 40.3599 37.6528 38.2521 38.2145C37.5632 38.3982 37.4545 38.3972 37.3176 38.2062C37.2325 38.0874 36.4515 36.6049 35.5821 34.9117C34.2905 32.3966 33.9467 31.8334 33.7026 31.8334C32.2672 31.8334 25.3023 34.8506 25.3023 35.4723C25.3023 35.5703 25.563 36.4547 25.8817 37.4376C27.4859 42.3865 27.5166 42.5041 27.2405 42.6647C25.2235 43.8386 22.6 45.8043 20.3897 47.7982L19.1428 48.9229L18.3051 48.39C17.8442 48.0968 16.4337 47.1826 15.1706 46.3582L12.8741 44.8593L11.4243 46.3547C10.0299 47.7929 8.30664 50.1435 7.54153 51.6509C7.34716 52.0338 7.18816 52.3732 7.18816 52.405C7.18816 52.4369 8.41892 53.5807 9.92311 54.9467C11.4275 56.3129 12.6404 57.4697 12.6187 57.5175C12.597 57.5652 12.2081 58.3223 11.7542 59.1995C10.7841 61.0754 9.50332 64.2733 9.04055 65.9757L8.71306 67.1804L6.76449 67.0865C5.69288 67.0349 3.99849 66.9519 2.99919 66.9023C1.29948 66.8177 1.17699 66.8294 1.10036 67.083C0.377522 69.478 0 72.0141 0 74.4754C0 75.9571 0.0304778 76.1701 0.251586 76.235C0.39003 76.2756 0.988372 76.4078 1.5814 76.5286C2.72791 76.7624 3.69903 76.972 5.88754 77.4576C6.63496 77.6235 7.25702 77.7593 7.26982 77.7593C7.28261 77.7593 7.33811 78.5827 7.39331 79.5891C7.51925 81.8836 7.95399 85.0308 8.38528 86.7698C8.61444 87.6936 8.66892 88.1403 8.56297 88.2268C8.43488 88.3313 5.44144 89.8898 2.83932 91.2065C2.42414 91.4167 2.15645 91.6487 2.15645 91.7987C2.15645 92.4867 3.32625 96.0217 3.99331 97.3496C4.28558 97.9312 5.53 100.073 5.69044 100.27C5.73773 100.328 5.74679 100.325 9.61833 99.0814C11.2316 98.563 12.6226 98.1392 12.7092 98.1396C12.7959 98.1399 13.2512 98.7374 13.721 99.4672C14.1909 100.197 14.9327 101.278 15.3694 101.869C16.0733 102.821 16.5703 103.408 18.7233 105.827L19.2605 106.431L17.2292 109.563L15.1978 112.695L16.5272 113.966C17.2582 114.665 18.3187 115.578 18.8839 115.993C19.8681 116.718 22.1178 118.122 22.5721 118.296C22.7221 118.353 23.4928 117.605 25.0647 115.876C26.3163 114.5 27.454 113.271 27.593 113.145C27.827 112.934 27.9953 112.991 29.8447 113.909C31.73 114.845 35.1974 116.227 36.1645 116.428L36.6037 116.52L36.9204 114.039C37.3017 111.052 37.3093 110.769 37.0082 110.769C36.6165 110.769 33.8846 109.646 32.1831 108.785C30.3059 107.836 27.759 106.202 26.093 104.879C22.1795 101.77 18.5521 97.2068 16.4573 92.757C15.3444 90.3929 15.2984 90.2826 14.8134 88.8102C12.8218 82.7659 12.4411 76.9263 13.6384 70.7849C14.9515 64.0481 18.4087 57.6516 23.3827 52.7565C29.421 46.8138 36.8595 43.4274 45.4132 42.7269C52.2369 42.168 59.6389 43.8828 65.6508 47.4149C69.5401 49.7 73.1558 52.8603 75.6195 56.128C76.1334 56.8098 76.6104 57.3702 76.6796 57.3736C76.8373 57.3813 81.4992 54.7516 81.5076 54.6501C81.5235 54.4569 79.2134 51.5578 78.0383 50.2962L76.7207 48.8817L76.9967 48.3692C77.1485 48.0874 77.3376 47.7875 77.4168 47.7028C77.496 47.618 77.8166 47.1289 78.1293 46.6158C78.442 46.1027 78.7486 45.6183 78.8107 45.5394C79.0409 45.2465 80.2199 43.4181 80.2199 43.3539C80.2199 43.3173 80.3487 43.1069 80.506 42.8862L80.7922 42.485L79.4474 41.2017C78.7078 40.4957 77.5601 39.529 76.8969 39.0531C75.7008 38.1948 73.433 36.8475 73.2164 36.8664C73.1543 36.8719 72.3596 37.7092 71.4503 38.727C70.541 39.7448 69.4382 40.9724 68.9994 41.4549L68.202 42.3321L66.3398 41.4002C64.1319 40.2951 62.8263 39.7621 60.3087 38.9378L58.4397 38.326L58.4753 37.6272C58.4948 37.2427 58.5756 35.7335 58.655 34.2732C58.7342 32.8129 58.799 31.4505 58.799 31.2455C58.7992 30.9065 58.7054 30.8458 57.7569 30.5707C55.9482 30.0463 54.2006 29.7966 51.7933 29.7188C49.8873 29.6572 49.4482 29.6798 49.3963 29.8415ZM137.834 31.7075C136.417 32.026 135.407 33.231 135.394 34.6165C135.37 37.351 138.572 38.7428 140.564 36.8636C141.399 36.0759 141.703 34.5957 141.252 33.517C140.711 32.2238 139.169 31.4074 137.834 31.7075ZM157.958 35.8439C156.747 36.2334 155.546 37.4543 155.18 38.6675C154.901 39.5921 154.925 40.2957 155.265 41.204C156.141 43.539 158.73 44.6174 160.907 43.554C161.785 43.1251 162.415 42.4974 162.915 41.5527C163.373 40.6889 163.373 39.0574 162.915 38.13C162.503 37.294 161.75 36.5137 160.971 36.1151C160.304 35.774 158.641 35.6243 157.958 35.8439ZM167.981 52.1259C167.906 52.5239 167.809 52.6288 167.453 52.7C166.508 52.8887 166.211 52.8132 165.96 52.3207C165.829 52.064 165.704 51.8327 165.681 51.8063C165.658 51.78 165.335 51.8927 164.964 52.0567L164.288 52.355L164.384 52.9939C164.475 53.5944 164.455 53.6458 164.067 53.8464C163.84 53.9638 163.569 54.162 163.465 54.2869C163.295 54.4907 163.224 54.4743 162.768 54.1265L162.259 53.7393L161.781 54.2917C161.518 54.5956 161.302 54.8859 161.302 54.937C161.302 54.9879 161.491 55.2097 161.72 55.4295L162.138 55.8294L161.795 56.5687C161.461 57.2898 161.437 57.3079 160.838 57.3079H160.224V58.0881C160.224 58.8415 160.24 58.8724 160.673 58.9845C161.024 59.0752 161.142 59.1993 161.212 59.5498C161.403 60.5023 161.333 60.7567 160.807 61.0065C160.355 61.2218 160.323 61.2782 160.432 61.659C160.641 62.3866 160.872 62.7084 161.131 62.6319C162.029 62.3664 162.079 62.3819 162.5 63.0495L162.907 63.6952L162.606 64.1809L162.305 64.6665L162.815 65.1133C163.431 65.6534 163.552 65.6621 164.033 65.2017L164.408 64.8434L165.139 65.1515C165.863 65.457 165.869 65.4645 165.796 66.0089C165.729 66.5034 165.761 66.5726 166.109 66.7049C166.322 66.7857 166.684 66.8519 166.913 66.8519C167.277 66.8519 167.349 66.7798 167.484 66.2778C167.609 65.816 167.705 65.7037 167.975 65.7037C168.16 65.7037 168.51 65.6638 168.754 65.6152C169.157 65.5348 169.221 65.5747 169.446 66.0457C169.726 66.6326 169.833 66.658 170.648 66.3324C171.066 66.1655 171.211 66.0337 171.161 65.8659C170.889 64.9475 170.896 64.925 171.583 64.4415L172.246 63.9748L172.655 64.2651C173.218 64.6652 173.319 64.6387 173.758 63.9768L174.142 63.3978L173.735 62.9737L173.328 62.5496L173.669 61.8214C174.005 61.1067 174.022 61.0941 174.593 61.1353C175.17 61.1769 175.176 61.1719 175.302 60.5786C175.469 59.7863 175.371 59.5876 174.756 59.4723C174.309 59.3886 174.241 59.3221 174.241 58.9699C174.241 58.7464 174.204 58.378 174.159 58.1511C174.087 57.7887 174.141 57.7046 174.599 57.46C175.148 57.1671 175.164 57.0736 174.819 56.1661C174.675 55.7885 174.313 55.7088 173.747 55.9301C173.525 56.0167 173.369 55.91 172.986 55.4085L172.504 54.778L172.814 54.2764L173.125 53.7746L172.784 53.4112C172.175 52.7604 171.959 52.7163 171.504 53.1508L171.097 53.5403L170.369 53.2789C169.651 53.0212 169.641 53.0088 169.641 52.4152C169.641 51.7388 169.51 51.6389 168.629 51.6389C168.11 51.6389 168.066 51.6718 167.981 52.1259ZM48.8292 53.0741C48.7487 53.4761 48.6999 53.5047 48.0951 53.5047C47.5241 53.5047 47.4367 53.4622 47.3572 53.1459C47.2565 52.7458 47.1171 52.7149 46.4533 52.946C46.0359 53.0912 46.0045 53.1447 46.085 53.5731C46.1615 53.9803 46.1152 54.0825 45.7305 54.356C45.3008 54.6614 45.2756 54.6633 44.8599 54.418C44.6244 54.2792 44.4135 54.1944 44.3913 54.2299C44.3691 54.2652 44.1941 54.4716 44.0025 54.6887L43.6538 55.0834L43.9734 55.4229C44.2858 55.7549 44.2874 55.7738 44.0437 56.2841C43.8341 56.7228 43.7217 56.8056 43.336 56.8056C42.9373 56.8056 42.8656 56.8643 42.7875 57.2541C42.6528 57.9268 42.6643 57.957 43.1147 58.1138C43.4665 58.2362 43.5404 58.35 43.5874 58.8408C43.6363 59.3528 43.5991 59.4416 43.2782 59.5785C43.0775 59.6641 42.8929 59.7467 42.8679 59.7624C42.843 59.7779 42.8946 60.0577 42.9828 60.3842C43.1374 60.958 43.159 60.975 43.6203 60.8886C44.0361 60.8108 44.1376 60.8548 44.4041 61.2284C44.7735 61.7462 44.7774 61.8039 44.4673 62.1461C44.2368 62.4004 44.2477 62.4377 44.6787 62.868L45.1333 63.3218L45.473 63.0032C45.7966 62.6998 45.8378 62.695 46.3398 62.9044C46.7988 63.0959 46.8668 63.1867 46.8668 63.6079C46.8668 63.9881 46.936 64.1101 47.1903 64.1781C47.8871 64.3646 48.1211 64.2865 48.211 63.838C48.2911 63.4386 48.3425 63.4074 48.9246 63.4074C49.4545 63.4074 49.5776 63.4633 49.7159 63.7662C49.9018 64.1734 49.9558 64.1858 50.5868 63.9662C51.0003 63.8224 51.0352 63.7647 50.9582 63.3545C50.8854 62.9678 50.9367 62.8545 51.3081 62.5804C51.8209 62.2019 51.9467 62.1867 52.186 62.4746C52.4572 62.8007 52.7089 62.7356 53.0552 62.2501L53.3689 61.8102L53.0581 61.48C52.7561 61.1591 52.7543 61.1351 52.993 60.6354C53.1987 60.2047 53.3225 60.1141 53.7547 60.078C54.2456 60.0369 54.2726 60.0068 54.3132 59.4588C54.352 58.9325 54.3178 58.8685 53.9178 58.7177C53.5286 58.5712 53.4799 58.4878 53.4799 57.969C53.4799 57.4659 53.5297 57.3726 53.8393 57.2951C54.2378 57.1953 54.2969 56.8909 54.031 56.308C53.8871 55.9929 53.7981 55.9527 53.4057 56.0261C53.0022 56.1018 52.9125 56.0554 52.6454 55.6343C52.3731 55.2051 52.3637 55.1249 52.5519 54.8382C52.8419 54.3964 52.8221 54.3213 52.3174 53.9489L51.8738 53.6214L51.5574 53.9182C51.2522 54.2043 51.2218 54.2063 50.7072 53.9734C50.2537 53.7682 50.1734 53.6631 50.1734 53.2749C50.1734 52.7815 49.9862 52.6436 49.317 52.6436C48.9859 52.6436 48.9003 52.7191 48.8292 53.0741ZM47.6575 56.3132C46.0308 57.1561 45.7268 59.0479 47.0379 60.1684C48.0688 61.0493 49.3152 60.9717 50.2217 59.9702C51.0743 59.028 51.0922 57.9239 50.2697 56.9889C49.5123 56.1278 48.5139 55.8696 47.6575 56.3132ZM166.947 56.2277C166.025 56.4462 165.1 57.3772 164.758 58.431C164.418 59.4761 164.928 60.9099 165.903 61.6478C167.305 62.7098 169.302 62.3367 170.304 60.8256C171.389 59.1874 170.505 56.8713 168.576 56.2993C167.8 56.0692 167.644 56.0625 166.947 56.2277ZM34.0709 57.0235C33.9924 57.2297 33.9281 57.4823 33.9281 57.5848C33.9281 57.6977 33.6653 57.8072 33.2611 57.8625C32.2426 58.0018 32.2031 57.9892 31.9781 57.4514C31.7406 56.884 31.4808 56.8267 30.673 57.1637C30.1323 57.3893 30.1391 57.3586 30.403 58.3843C30.4373 58.5169 30.1887 58.7774 29.7561 59.0624L29.0537 59.5253L28.5945 59.1395L28.1352 58.7537L27.5745 59.3846L27.0137 60.0154L27.433 60.434L27.8524 60.8527L27.5478 61.6403L27.2431 62.4279L26.6222 62.3602C26.066 62.2993 25.9875 62.3289 25.8675 62.6439C25.7939 62.8374 25.7336 63.2061 25.7336 63.4633C25.7336 63.8844 25.7872 63.9442 26.2727 64.0639L26.8118 64.1968L26.8538 65.0628L26.8958 65.9288L26.3745 66.1169C25.8146 66.3192 25.7939 66.468 26.1873 67.4618C26.3581 67.8934 26.45 67.9195 27.1214 67.7273C27.5529 67.6036 27.5926 67.6288 28.0289 68.301L28.4852 69.004L28.1644 69.4537C27.8002 69.9642 27.858 70.1406 28.5685 70.6876L29.0156 71.0319L29.4923 70.6066L29.9689 70.1815L30.6546 70.5284C31.3154 70.8627 31.3404 70.8981 31.3404 71.5019C31.3404 72.187 31.4959 72.2996 32.4488 72.3036C32.8615 72.3055 32.9281 72.2463 33.0789 71.7437C33.2455 71.1884 33.2569 71.1813 34.0346 71.1338C34.8196 71.0858 34.8228 71.0873 35.1035 71.6371C35.3525 72.1246 35.4296 72.1773 35.7707 72.0928C36.4182 71.9324 36.8777 71.651 36.8303 71.4439C36.6195 70.5206 36.6182 70.5242 37.3047 70.0412L37.9715 69.572L38.38 69.8623C38.6047 70.0221 38.8467 70.1528 38.9179 70.1528C39.0838 70.1528 39.9662 69.2477 39.9662 69.0774C39.9662 69.0065 39.7973 68.7726 39.591 68.5576L39.2157 68.1667L39.5692 67.3958C39.9209 66.6289 39.9256 66.6251 40.5027 66.6801C41.1712 66.7437 41.1987 66.7158 41.3303 65.8378L41.4285 65.1825L40.8411 65.0068C40.385 64.8703 40.2534 64.7603 40.2521 64.514C40.2513 64.3395 40.2116 63.9614 40.1638 63.6738C40.0813 63.1754 40.1016 63.1419 40.5967 62.9633C41.169 62.7566 41.2385 62.5086 40.953 61.6907C40.7937 61.2347 40.7728 61.225 40.1263 61.305C39.4764 61.3854 39.4538 61.3747 39.0055 60.7659L38.5481 60.1444L38.9213 59.5962L39.2945 59.0478L38.7439 58.5725C38.2107 58.1125 37.8097 57.9629 37.8097 58.2243C37.8097 58.2942 37.6546 58.4528 37.4648 58.5769C37.1457 58.7856 37.0643 58.779 36.3718 58.4869L35.6237 58.1713L35.7065 57.5687C35.7969 56.9098 35.805 56.9168 34.7538 56.7397C34.2655 56.6575 34.1998 56.6848 34.0709 57.0235ZM32.3467 61.627C31.7458 61.8869 31.1449 62.4371 30.7282 63.1091C30.2658 63.8554 30.3038 65.167 30.8135 66.035C31.4051 67.0429 32.4751 67.713 33.4927 67.713C34.608 67.713 36.0187 66.7694 36.4523 65.7336C36.7048 65.1302 36.7216 63.9952 36.4862 63.4501C35.7643 61.7785 33.8975 60.9564 32.3467 61.627ZM165.613 71.7674C165.609 72.2947 165.417 72.4523 164.67 72.5384C163.985 72.6175 163.956 72.6057 163.77 72.1758C163.554 71.6755 163.382 71.6398 162.653 71.9439C162.279 72.0998 162.163 72.2239 162.215 72.4104C162.445 73.2329 162.445 73.234 161.871 73.6311C161.315 74.0166 161.295 74.0195 160.803 73.7853C160.303 73.5473 160.3 73.548 159.939 73.9665C159.502 74.474 159.491 74.6231 159.865 74.9607C160.215 75.277 160.218 75.3724 159.906 76.1255C159.669 76.6968 159.64 76.7165 159.123 76.6473C158.642 76.5829 158.576 76.6132 158.495 76.9346C158.445 77.1324 158.426 77.4757 158.452 77.6977C158.489 78.0168 158.597 78.1267 158.966 78.2216C159.349 78.3197 159.434 78.4124 159.435 78.7322C159.436 78.9469 159.476 79.2681 159.524 79.4459C159.596 79.7153 159.525 79.805 159.095 79.9841C158.556 80.2093 158.556 80.2076 158.895 81.109C159.039 81.4939 159.082 81.5113 159.672 81.4232C160.049 81.3666 160.296 81.3856 160.296 81.471C160.296 81.5488 160.463 81.8101 160.667 82.0519L161.037 82.4915L160.714 82.944L160.392 83.3966L160.883 83.8031C161.489 84.3047 161.639 84.3128 161.973 83.8617L162.237 83.5056L162.92 83.7529C163.585 83.9936 163.603 84.0157 163.603 84.5944C163.603 85.2314 163.774 85.3595 164.633 85.3638C164.95 85.3655 165.035 85.2847 165.119 84.8993C165.246 84.3155 165.389 84.2225 166.167 84.2198C166.728 84.2179 166.806 84.2604 166.953 84.6482C167.137 85.135 167.284 85.1661 167.995 84.8696C168.472 84.6706 168.492 84.6341 168.408 84.1093C168.324 83.5904 168.353 83.5349 168.887 83.1651C169.448 82.7776 169.461 82.7756 169.896 83.0247C170.322 83.2685 170.348 83.2675 170.649 82.9956C171.234 82.4673 171.279 82.226 170.869 81.8164C170.663 81.6113 170.513 81.4057 170.536 81.3595C170.558 81.3132 170.67 81.0334 170.784 80.7373C170.974 80.2452 171.039 80.1991 171.543 80.1991C172.124 80.1991 172.152 80.1667 172.294 79.309C172.381 78.7887 172.371 78.7747 171.816 78.6256C171.261 78.4763 171.248 78.4582 171.2 77.7444C171.151 77.0355 171.163 77.01 171.633 76.8141C172.061 76.6355 172.105 76.5678 172.019 76.2172C171.965 75.9998 171.828 75.6783 171.715 75.5027C171.541 75.2348 171.449 75.2059 171.14 75.3233C170.607 75.5257 170.576 75.5142 170.139 74.9412C169.74 74.4196 169.74 74.4193 170 73.9368C170.253 73.4688 170.252 73.4451 169.988 73.1536C169.466 72.578 169.216 72.5322 168.795 72.9355L168.409 73.304L167.718 72.9864C167.059 72.6842 167.03 72.646 167.103 72.1936C167.17 71.7839 167.131 71.6995 166.82 71.5814C166.621 71.5061 166.269 71.4445 166.037 71.4445C165.696 71.4445 165.615 71.5063 165.613 71.7674ZM29.5432 74.5186C29.5038 74.6434 29.4441 74.8347 29.4106 74.9437C29.3158 75.2526 28.2874 75.3351 28.0747 75.0508C27.632 74.4592 27.6155 74.4522 27.131 74.6514C26.7226 74.8192 26.6727 74.8993 26.7078 75.3317C26.7415 75.7499 26.6773 75.8664 26.2699 76.1268C25.7941 76.4306 25.7913 76.4307 25.4434 76.1496L25.0943 75.8673L24.6936 76.3149L24.2931 76.7624L24.5816 77.1532C24.8572 77.5268 24.8595 77.5673 24.6308 78.0693C24.4136 78.5462 24.3493 78.5877 23.9333 78.5204C23.5428 78.4571 23.4616 78.4961 23.3842 78.7844C23.1925 79.5 23.2694 79.7413 23.7209 79.8403C24.1212 79.9281 24.1522 79.9807 24.1522 80.5724C24.1522 81.1132 24.0977 81.2347 23.7928 81.3734C23.3906 81.5564 23.3542 81.7343 23.6066 82.2874C23.7554 82.6135 23.8457 82.6563 24.248 82.5911C24.6624 82.524 24.7513 82.572 25.0233 83.0113C25.3151 83.4828 25.3184 83.526 25.0894 83.8748C24.8636 84.2188 24.8638 84.259 25.0943 84.5131C25.4645 84.9214 25.8596 84.9958 26.1699 84.7153C26.4174 84.4919 26.4902 84.489 26.9783 84.6833C27.4458 84.8695 27.5158 84.959 27.5227 85.3794C27.5301 85.8255 27.5722 85.8687 28.0813 85.9519C28.579 86.0333 28.6454 86.0063 28.7731 85.6709C28.95 85.2062 29.1408 85.0838 29.6916 85.0809C30.0432 85.0792 30.1582 85.1607 30.2879 85.5034C30.4354 85.8936 30.4844 85.9179 30.8897 85.8019C31.582 85.6036 31.6607 85.5142 31.571 85.0264C31.4982 84.6315 31.5481 84.5377 31.9778 84.2597C32.4659 83.9441 32.4688 83.9439 32.8255 84.2241L33.1834 84.5051L33.5558 84.0633C34.0009 83.5353 34.0076 83.4729 33.6551 83.1544C33.3953 82.9196 33.3936 82.88 33.6192 82.3331C33.8374 81.8041 33.8922 81.764 34.3097 81.8286C34.6846 81.8866 34.7776 81.8448 34.8468 81.5872C35.0268 80.9171 34.9454 80.6615 34.5032 80.5077C34.1192 80.3741 34.0719 80.2935 34.0719 79.773C34.0719 79.2886 34.1336 79.1603 34.4313 79.0248C34.832 78.8426 34.8594 78.7166 34.6373 78.0805C34.4947 77.6722 34.4526 77.6504 34.0358 77.7696C33.7894 77.8402 33.5786 77.8829 33.5676 77.8645C33.5565 77.8461 33.4038 77.6232 33.2283 77.3694C32.9235 76.9287 32.9201 76.8909 33.1511 76.5388C33.3833 76.1849 33.3797 76.1555 33.0605 75.8165C32.6859 75.4184 32.2748 75.3559 32.1509 75.6783C32.0454 75.9528 31.7262 75.9517 31.1894 75.6745C30.867 75.5081 30.7653 75.3554 30.7653 75.0372C30.7653 74.564 30.7301 74.5307 30.0823 74.3921C29.7225 74.315 29.5985 74.3441 29.5432 74.5186ZM164.249 75.8786C162 76.9181 162.065 80.0263 164.355 80.9816C166.468 81.8632 168.707 79.78 167.984 77.6054C167.449 75.9973 165.721 75.1983 164.249 75.8786ZM28.2384 78.0416C27.717 78.2523 27.0398 79.0464 26.8817 79.6326C26.3202 81.7144 28.8872 83.3387 30.5789 81.972C32.281 80.5967 31.2768 77.8751 29.0807 77.9118C28.7817 77.9169 28.4026 77.9753 28.2384 78.0416Z" fill="#A7AAAF"/>
<path fill-rule="evenodd" clip-rule="evenodd" d="M99.6339 58.0052V59.7052H119.817H140V58.0052V56.3052H119.817H99.6339V58.0052ZM100.881 57.2182C100.752 57.3475 100.898 57.6004 101.102 57.6004C101.186 57.6004 101.255 57.4911 101.255 57.3575C101.255 57.1072 101.064 57.0358 100.881 57.2182ZM138.455 57.2847C138.301 57.5337 138.512 57.6943 138.72 57.4864C138.836 57.3702 138.839 57.2797 138.728 57.2113C138.638 57.1553 138.515 57.1884 138.455 57.2847ZM102.738 58.5637C102.808 58.7724 103.03 58.81 103.05 58.6163C103.057 58.5517 102.975 58.4698 102.868 58.4342C102.761 58.3986 102.703 58.4569 102.738 58.5637ZM136.596 58.6623C136.596 58.8011 136.669 58.8697 136.758 58.8147C136.847 58.7596 136.92 58.6461 136.92 58.5623C136.92 58.4784 136.847 58.4099 136.758 58.4099C136.669 58.4099 136.596 58.5236 136.596 58.6623ZM100.12 61.1623V62.1337H101.985H103.849V61.1623V60.1909H101.985H100.12V61.1623ZM135.785 61.1623V62.1337H137.649H139.514V61.1623V60.1909H137.649H135.785V61.1623ZM99.6339 64.3194V66.0194H119.817H140V64.3194V62.6194H119.817H99.6339V64.3194ZM100.881 63.5324C100.752 63.6618 100.898 63.9146 101.102 63.9146C101.186 63.9146 101.255 63.8054 101.255 63.6718C101.255 63.4215 101.064 63.3501 100.881 63.5324ZM138.379 63.6718C138.379 63.8203 138.457 63.9155 138.553 63.8836C138.649 63.8517 138.727 63.7563 138.727 63.6718C138.727 63.5873 138.649 63.4919 138.553 63.46C138.457 63.4281 138.379 63.5233 138.379 63.6718ZM102.738 64.878C102.808 65.0867 103.03 65.1242 103.05 64.9306C103.057 64.866 102.975 64.7841 102.868 64.7484C102.761 64.7128 102.703 64.7711 102.738 64.878ZM136.596 64.8861C136.596 64.9751 136.669 65.048 136.758 65.048C136.847 65.048 136.92 64.9751 136.92 64.8861C136.92 64.797 136.847 64.7242 136.758 64.7242C136.669 64.7242 136.596 64.797 136.596 64.8861ZM100.12 67.4765V68.4479H101.985H103.849V67.4765V66.5051H101.985H100.12V67.4765ZM135.785 67.4765V68.4479H137.649H139.514V67.4765V66.5051H137.649H135.785V67.4765ZM99.6339 70.5856V72.3336H119.817H140V70.6511C140 68.9796 139.997 68.9681 139.584 68.8644C139.355 68.807 130.272 68.7774 119.401 68.7986L99.6339 68.8373V70.5856ZM100.881 69.8466C100.752 69.976 100.898 70.2289 101.102 70.2289C101.186 70.2289 101.255 70.1196 101.255 69.986C101.255 69.7357 101.064 69.6643 100.881 69.8466ZM138.379 69.986C138.379 70.1345 138.457 70.2297 138.553 70.1978C138.649 70.1659 138.727 70.0705 138.727 69.986C138.727 69.9015 138.649 69.8062 138.553 69.7743C138.457 69.7424 138.379 69.8376 138.379 69.986ZM102.714 71.2003C102.714 71.2894 102.823 71.3622 102.957 71.3622C103.091 71.3622 103.2 71.2894 103.2 71.2003C103.2 71.1113 103.091 71.0384 102.957 71.0384C102.823 71.0384 102.714 71.1113 102.714 71.2003ZM136.596 71.2003C136.596 71.2894 136.669 71.3622 136.758 71.3622C136.847 71.3622 136.92 71.2894 136.92 71.2003C136.92 71.1113 136.847 71.0384 136.758 71.0384C136.669 71.0384 136.596 71.1113 136.596 71.2003ZM100.12 73.371C100.12 73.7707 100.123 73.7712 101.992 73.8214L103.863 73.8717L103.815 73.467C103.768 73.0651 103.754 73.0619 101.944 73.0164L100.12 72.9706V73.371ZM107.618 73.0956C107.39 73.1394 107.253 73.2829 107.253 73.4783C107.253 73.7689 107.384 73.7908 109.117 73.7908H110.982V73.386C110.982 72.9819 110.98 72.9812 109.482 73.0033C108.658 73.0154 107.819 73.0569 107.618 73.0956ZM114.386 73.3761C114.386 73.7691 114.396 73.7715 116.251 73.8214L118.115 73.8717L118.115 73.4265L118.115 72.9812H116.25H114.386V73.3761ZM121.519 73.386V73.7908H123.383H125.248V73.386V72.9812H123.383H121.519V73.386ZM128.652 73.386V73.7908H130.516H132.381V73.386V72.9812H130.516H128.652V73.386ZM135.785 73.4265L135.784 73.8717L137.649 73.8214C139.504 73.7715 139.514 73.7691 139.514 73.3761V72.9812H137.649H135.785L135.785 73.4265ZM53.7559 76.6241V78.3241H74.02H94.2842V76.6241V74.9241H74.02H53.7559V76.6241ZM97.2022 76.6241V78.3241H117.466H137.73V76.6241V74.9241H117.466H97.2022V76.6241ZM55.1564 75.846C54.9739 76.0283 55.0454 76.2193 55.296 76.2193C55.4297 76.2193 55.5392 76.1508 55.5392 76.067C55.5392 75.8628 55.2859 75.7166 55.1564 75.846ZM92.6045 75.846C92.422 76.0283 92.4935 76.2193 92.7441 76.2193C92.8778 76.2193 92.9873 76.1508 92.9873 76.067C92.9873 75.8628 92.734 75.7166 92.6045 75.846ZM98.6027 75.846C98.4201 76.0283 98.4916 76.2193 98.7423 76.2193C98.876 76.2193 98.9854 76.1508 98.9854 76.067C98.9854 75.8628 98.7322 75.7166 98.6027 75.846ZM136.051 75.846C135.868 76.0283 135.94 76.2193 136.19 76.2193C136.324 76.2193 136.434 76.1508 136.434 76.067C136.434 75.8628 136.18 75.7166 136.051 75.846ZM56.8732 77.2212C56.9734 77.5213 57.3224 77.5711 57.3224 77.2851C57.3224 77.1441 57.2068 77.0288 57.0658 77.0288C56.9246 77.0288 56.8378 77.1153 56.8732 77.2212ZM90.7177 77.2851C90.7177 77.4262 90.8042 77.5128 90.9103 77.4775C91.2108 77.3774 91.2606 77.0288 90.9743 77.0288C90.8331 77.0288 90.7177 77.1441 90.7177 77.2851ZM100.313 77.2029C100.345 77.2986 100.441 77.3769 100.526 77.3769C100.61 77.3769 100.706 77.2986 100.738 77.2029C100.769 77.1072 100.674 77.0288 100.526 77.0288C100.377 77.0288 100.282 77.1072 100.313 77.2029ZM134.164 77.2717C134.164 77.4202 134.242 77.5154 134.338 77.4835C134.434 77.4516 134.512 77.3562 134.512 77.2717C134.512 77.1872 134.434 77.0918 134.338 77.0599C134.242 77.028 134.164 77.1232 134.164 77.2717ZM54.2423 79.7812V80.7526H56.1876H58.133V79.7812V78.8098H56.1876H54.2423V79.7812ZM90.0152 78.9178C89.9557 78.977 89.9071 79.4142 89.9071 79.8892V80.7526H91.8525H93.7978V79.7812V78.8098H91.9606C90.95 78.8098 90.0746 78.8583 90.0152 78.9178ZM97.6885 79.7812V80.7526H99.6339H101.579V79.7812V78.8098H99.6339H97.6885V79.7812ZM133.353 79.7812V80.7526H135.299H137.244V79.7812V78.8098H135.299H133.353V79.7812ZM53.7559 82.9383V84.6383H74.02H94.2842V82.9383V81.2383H74.02H53.7559V82.9383ZM97.2022 82.9383V84.6383H117.466H137.73V82.9383V81.2383H117.466H97.2022V82.9383ZM55.1564 82.1602C54.9739 82.3425 55.0454 82.5336 55.296 82.5336C55.4297 82.5336 55.5392 82.4651 55.5392 82.3812C55.5392 82.177 55.2859 82.0309 55.1564 82.1602ZM92.6045 82.1602C92.422 82.3425 92.4935 82.5336 92.7441 82.5336C92.8778 82.5336 92.9873 82.4651 92.9873 82.3812C92.9873 82.177 92.734 82.0309 92.6045 82.1602ZM98.6027 82.1602C98.4201 82.3425 98.4916 82.5336 98.7423 82.5336C98.876 82.5336 98.9854 82.4651 98.9854 82.3812C98.9854 82.177 98.7322 82.0309 98.6027 82.1602ZM136.051 82.1602C135.868 82.3425 135.94 82.5336 136.19 82.5336C136.324 82.5336 136.434 82.4651 136.434 82.3812C136.434 82.177 136.18 82.0309 136.051 82.1602ZM56.8732 83.5354C56.9734 83.8356 57.3224 83.8853 57.3224 83.5994C57.3224 83.4584 57.2068 83.3431 57.0658 83.3431C56.9246 83.3431 56.8378 83.4295 56.8732 83.5354ZM90.7488 83.5171C90.7807 83.6128 90.8762 83.6912 90.9608 83.6912C91.0455 83.6912 91.1409 83.6128 91.1729 83.5171C91.2048 83.4214 91.1095 83.3431 90.9608 83.3431C90.8122 83.3431 90.7169 83.4214 90.7488 83.5171ZM100.313 83.5171C100.345 83.6128 100.441 83.6912 100.526 83.6912C100.61 83.6912 100.706 83.6128 100.738 83.5171C100.769 83.4214 100.674 83.3431 100.526 83.3431C100.377 83.3431 100.282 83.4214 100.313 83.5171ZM134.164 83.5994C134.164 83.8853 134.513 83.8356 134.613 83.5354C134.648 83.4295 134.562 83.3431 134.421 83.3431C134.279 83.3431 134.164 83.4584 134.164 83.5994ZM54.2423 86.0954V87.0669H56.1876H58.133V86.0954V85.124H56.1876H54.2423V86.0954ZM90.0152 85.232C89.9557 85.2913 89.9071 85.7284 89.9071 86.2034V87.0669H91.8525H93.7978V86.0954V85.124H91.9606C90.95 85.124 90.0746 85.1726 90.0152 85.232ZM97.6885 86.0954V87.0669H99.6339H101.579V86.0954V85.124H99.6339H97.6885V86.0954ZM133.353 86.0954V87.0669H135.299H137.244V86.0954V85.124H135.299H133.353V86.0954ZM53.7559 89.2526V90.9526H74.02H94.2842V89.2526V87.5526H74.02H53.7559V89.2526ZM97.2022 89.2526V90.9526H117.466H137.73V89.2526V87.5526H117.466H97.2022V89.2526ZM55.1564 88.4744C54.9739 88.6568 55.0454 88.8478 55.296 88.8478C55.4297 88.8478 55.5392 88.7793 55.5392 88.6954C55.5392 88.4913 55.2859 88.3451 55.1564 88.4744ZM92.6045 88.4744C92.422 88.6568 92.4935 88.8478 92.7441 88.8478C92.8778 88.8478 92.9873 88.7793 92.9873 88.6954C92.9873 88.4913 92.734 88.3451 92.6045 88.4744ZM98.6027 88.4744C98.4201 88.6568 98.4916 88.8478 98.7423 88.8478C98.876 88.8478 98.9854 88.7793 98.9854 88.6954C98.9854 88.4913 98.7322 88.3451 98.6027 88.4744ZM136.051 88.4744C135.868 88.6568 135.94 88.8478 136.19 88.8478C136.324 88.8478 136.434 88.7793 136.434 88.6954C136.434 88.4913 136.18 88.3451 136.051 88.4744ZM56.8672 89.8314C56.8991 89.9271 56.9945 90.0054 57.0792 90.0054C57.164 90.0054 57.2593 89.9271 57.2913 89.8314C57.3232 89.7357 57.2279 89.6573 57.0792 89.6573C56.9306 89.6573 56.8353 89.7357 56.8672 89.8314ZM90.7488 89.8314C90.7807 89.9271 90.8762 90.0054 90.9608 90.0054C91.0455 90.0054 91.1409 89.9271 91.1729 89.8314C91.2048 89.7357 91.1095 89.6573 90.9608 89.6573C90.8122 89.6573 90.7169 89.7357 90.7488 89.8314ZM100.313 89.8314C100.345 89.9271 100.441 90.0054 100.526 90.0054C100.61 90.0054 100.706 89.9271 100.738 89.8314C100.769 89.7357 100.674 89.6573 100.526 89.6573C100.377 89.6573 100.282 89.7357 100.313 89.8314ZM134.195 89.8314C134.227 89.9271 134.322 90.0054 134.407 90.0054C134.492 90.0054 134.587 89.9271 134.619 89.8314C134.651 89.7357 134.556 89.6573 134.407 89.6573C134.258 89.6573 134.163 89.7357 134.195 89.8314ZM54.2714 92.1264C54.3219 92.4799 54.3776 92.4906 56.1876 92.4906C57.9976 92.4906 58.0534 92.4799 58.1038 92.1264C58.155 91.7658 58.1357 91.7621 56.1876 91.7621C54.2395 91.7621 54.2202 91.7658 54.2714 92.1264ZM61.3752 92.1668V92.5716H63.3206H65.2659V92.1668V91.7621H63.3206H61.3752V92.1668ZM68.5374 92.1264C68.5873 92.4775 68.658 92.4923 70.4941 92.5363L72.3989 92.5818V92.172V91.7621H70.4422C68.5059 91.7621 68.4861 91.7658 68.5374 92.1264ZM75.6412 92.1668V92.5716H77.5865H79.5319V92.1668V91.7621H77.5865H75.6412V92.1668ZM82.8033 92.1264C82.8534 92.4782 82.92 92.4918 84.76 92.5251L86.6648 92.5596V92.1608V91.7621H84.7081C82.7719 91.7621 82.7521 91.7658 82.8033 92.1264ZM89.9363 92.1264C89.9862 92.4775 90.0569 92.4923 91.893 92.5363L93.7978 92.5818V92.172V91.7621H91.8411C89.9048 91.7621 89.8851 91.7658 89.9363 92.1264ZM97.6885 92.172V92.5818L99.5934 92.5363C101.429 92.4923 101.5 92.4775 101.55 92.1264C101.601 91.7658 101.582 91.7621 99.6452 91.7621H97.6885V92.172ZM104.821 92.172V92.5818L106.726 92.5363C108.562 92.4923 108.633 92.4775 108.683 92.1264C108.734 91.7658 108.714 91.7621 106.778 91.7621H104.821V92.172ZM111.984 92.1264C112.034 92.4799 112.09 92.4906 113.9 92.4906C115.71 92.4906 115.766 92.4799 115.816 92.1264C115.867 91.7658 115.848 91.7621 113.9 91.7621C111.952 91.7621 111.932 91.7658 111.984 92.1264ZM119.087 92.172V92.5818L120.992 92.5363C122.828 92.4923 122.899 92.4775 122.949 92.1264C123 91.7658 122.98 91.7621 121.044 91.7621H119.087V92.172ZM126.25 92.1264C126.3 92.4799 126.356 92.4906 128.166 92.4906C129.976 92.4906 130.032 92.4799 130.082 92.1264C130.133 91.7658 130.114 91.7621 128.166 91.7621C126.218 91.7621 126.198 91.7658 126.25 92.1264ZM133.383 92.1264C133.432 92.4775 133.503 92.4923 135.339 92.5363L137.244 92.5818V92.172V91.7621H135.287C133.351 91.7621 133.331 91.7658 133.383 92.1264ZM51 94.9192V96.6192H71.1831H91.3661V94.9192V93.2192H71.1831H51V94.9192ZM99.4718 94.9192V96.6192H119.655H139.838V94.9192V93.2192H119.655H99.4718V94.9192ZM52.2473 94.1322C52.1178 94.2615 52.2642 94.5144 52.4686 94.5144C52.5526 94.5144 52.6211 94.4051 52.6211 94.2716C52.6211 94.0213 52.4298 93.9499 52.2473 94.1322ZM89.745 94.2716C89.745 94.42 89.8235 94.5152 89.9193 94.4833C90.0151 94.4515 90.0935 94.3561 90.0935 94.2716C90.0935 94.1871 90.0151 94.0917 89.9193 94.0598C89.8235 94.0279 89.745 94.1231 89.745 94.2716ZM100.769 94.2716C100.769 94.4051 100.842 94.5144 100.931 94.5144C101.02 94.5144 101.093 94.4051 101.093 94.2716C101.093 94.138 101.02 94.0287 100.931 94.0287C100.842 94.0287 100.769 94.138 100.769 94.2716ZM138.217 94.2581C138.217 94.3992 138.332 94.5144 138.473 94.5144C138.76 94.5144 138.71 94.1659 138.409 94.0658C138.303 94.0305 138.217 94.1171 138.217 94.2581ZM54.0801 95.4763C54.0801 95.5602 54.1531 95.6737 54.2423 95.7287C54.3314 95.7838 54.4044 95.7151 54.4044 95.5764C54.4044 95.4376 54.3314 95.3239 54.2423 95.3239C54.1531 95.3239 54.0801 95.3924 54.0801 95.4763ZM87.8877 95.4747C87.7769 95.6536 88.0326 95.8469 88.1824 95.6973C88.3364 95.5433 88.3077 95.3239 88.1334 95.3239C88.0495 95.3239 87.9389 95.3918 87.8877 95.4747ZM102.583 95.498C102.615 95.5937 102.71 95.672 102.795 95.672C102.88 95.672 102.975 95.5937 103.007 95.498C103.039 95.4023 102.944 95.3239 102.795 95.3239C102.646 95.3239 102.551 95.4023 102.583 95.498ZM136.434 95.4859C136.434 95.5749 136.506 95.6478 136.596 95.6478C136.685 95.6478 136.758 95.5749 136.758 95.4859C136.758 95.3968 136.685 95.3239 136.596 95.3239C136.506 95.3239 136.434 95.3968 136.434 95.4859ZM51.4863 98.0763V99.0477H53.3506H55.2149V98.0763V97.1049H53.3506H51.4863V98.0763ZM87.1512 98.0763V99.0477H89.0155H90.8798V98.0763V97.1049H89.0155H87.1512V98.0763ZM99.9581 98.0763V99.0477H101.822H103.687V98.0763V97.1049H101.822H99.9581V98.0763ZM135.623 98.0763V99.0477H137.568H139.514V98.0763V97.1049H137.568H135.623V98.0763ZM51 101.233V102.933H71.1831H91.3661V101.233V99.5334H71.1831H51V101.233ZM99.4718 101.233V102.933H119.655H139.838V101.233V99.5334H119.655H99.4718V101.233ZM52.2473 100.446C52.1178 100.576 52.2642 100.829 52.4686 100.829C52.5526 100.829 52.6211 100.719 52.6211 100.586C52.6211 100.336 52.4298 100.264 52.2473 100.446ZM89.745 100.586C89.745 100.734 89.8235 100.829 89.9193 100.798C90.0151 100.766 90.0935 100.67 90.0935 100.586C90.0935 100.501 90.0151 100.406 89.9193 100.374C89.8235 100.342 89.745 100.437 89.745 100.586ZM100.719 100.446C100.59 100.576 100.736 100.829 100.94 100.829C101.024 100.829 101.093 100.719 101.093 100.586C101.093 100.336 100.902 100.264 100.719 100.446ZM138.293 100.513C138.139 100.762 138.35 100.923 138.558 100.715C138.674 100.598 138.677 100.508 138.566 100.44C138.475 100.384 138.352 100.417 138.293 100.513ZM54.0801 101.8C54.0801 101.889 54.1531 101.962 54.2423 101.962C54.3314 101.962 54.4044 101.889 54.4044 101.8C54.4044 101.711 54.3314 101.638 54.2423 101.638C54.1531 101.638 54.0801 101.711 54.0801 101.8ZM87.8807 101.8C87.8256 101.889 87.8943 101.962 88.0332 101.962C88.1722 101.962 88.286 101.889 88.286 101.8C88.286 101.711 88.2174 101.638 88.1334 101.638C88.0495 101.638 87.9358 101.711 87.8807 101.8ZM102.583 101.812C102.615 101.908 102.71 101.986 102.795 101.986C102.88 101.986 102.975 101.908 103.007 101.812C103.039 101.717 102.944 101.638 102.795 101.638C102.646 101.638 102.551 101.717 102.583 101.812ZM136.434 101.8C136.434 101.889 136.506 101.962 136.596 101.962C136.685 101.962 136.758 101.889 136.758 101.8C136.758 101.711 136.685 101.638 136.596 101.638C136.506 101.638 136.434 101.711 136.434 101.8ZM51.4863 104.391V105.362H53.3506H55.2149V104.391V103.419H53.3506H51.4863V104.391ZM87.1512 104.391V105.362H89.0155H90.8798V104.391V103.419H89.0155H87.1512V104.391ZM99.9581 104.391V105.362H101.822H103.687V104.391V103.419H101.822H99.9581V104.391ZM135.623 104.391V105.362H137.466H139.309L139.41 104.755C139.644 103.339 139.754 103.419 137.568 103.419H135.623V104.391ZM51 107.548V109.248H71.1831H91.3661V107.548V105.848H71.1831H51V107.548ZM99.4718 107.548V109.248H119.655H139.838V107.548V105.848H119.655H99.4718V107.548ZM52.2473 106.761C52.1178 106.89 52.2642 107.143 52.4686 107.143C52.5526 107.143 52.6211 107.034 52.6211 106.9C52.6211 106.65 52.4298 106.578 52.2473 106.761ZM89.745 106.9C89.745 107.049 89.8235 107.144 89.9193 107.112C90.0151 107.08 90.0935 106.985 90.0935 106.9C90.0935 106.816 90.0151 106.72 89.9193 106.688C89.8235 106.656 89.745 106.752 89.745 106.9ZM100.769 106.9C100.769 107.034 100.842 107.143 100.931 107.143C101.02 107.143 101.093 107.034 101.093 106.9C101.093 106.766 101.02 106.657 100.931 106.657C100.842 106.657 100.769 106.766 100.769 106.9ZM138.217 106.887C138.217 107.028 138.332 107.143 138.473 107.143C138.76 107.143 138.71 106.794 138.409 106.694C138.303 106.659 138.217 106.746 138.217 106.887ZM136.38 107.899C136.193 108.085 136.261 108.276 136.515 108.276C136.648 108.276 136.758 108.167 136.758 108.033C136.758 107.78 136.566 107.712 136.38 107.899ZM54.0801 108.114C54.0801 108.203 54.1531 108.276 54.2423 108.276C54.3314 108.276 54.4044 108.203 54.4044 108.114C54.4044 108.025 54.3314 107.952 54.2423 107.952C54.1531 107.952 54.0801 108.025 54.0801 108.114ZM87.8807 108.114C87.8256 108.203 87.8943 108.276 88.0332 108.276C88.1722 108.276 88.286 108.203 88.286 108.114C88.286 108.025 88.2174 107.952 88.1334 107.952C88.0495 107.952 87.9358 108.025 87.8807 108.114ZM102.583 108.126C102.615 108.222 102.71 108.301 102.795 108.301C102.88 108.301 102.975 108.222 103.007 108.126C103.039 108.031 102.944 107.952 102.795 107.952C102.646 107.952 102.551 108.031 102.583 108.126ZM51.4863 110.381V110.867H53.3506H55.2149V110.381V109.895H53.3506H51.4863V110.381ZM58.6193 110.381V110.867H60.4836H62.3479V110.381V109.895H60.4836H58.6193V110.381ZM65.7523 110.381V110.867L67.2518 110.864C69.1588 110.862 69.4809 110.777 69.4809 110.281C69.4809 109.897 69.4728 109.895 67.6166 109.895H65.7523V110.381ZM72.8852 110.381V110.867H74.7495H76.6138V110.381V109.895H74.7495H72.8852V110.381ZM80.0182 110.381V110.867H81.8825H83.7468V110.381V109.895H81.8825H80.0182V110.381ZM87.1512 110.381V110.867H89.0155H90.8798V110.381V109.895H89.0155H87.1512V110.381ZM99.9581 110.381V110.867H101.822H103.687V110.381V109.895H101.822H99.9581V110.381ZM107.091 110.381V110.867H108.955H110.82V110.381V109.895H108.955H107.091V110.381ZM114.224 110.381V110.867H116.088H117.953V110.381V109.895H116.088H114.224V110.381ZM121.357 110.381V110.877L123.262 110.831L125.167 110.786V110.381V109.976L123.262 109.931L121.357 109.885V110.381ZM128.49 110.381V110.867H130.354H132.219V110.381V109.895H130.354H128.49V110.381ZM135.623 110.342V110.8L137.528 110.793L139.433 110.786V110.381V109.976L137.528 109.931L135.623 109.885V110.342ZM53.8615 111.463C53.8034 111.521 53.7559 112.321 53.7559 113.241V114.914H74.02H94.2842V113.134V111.354L74.1256 111.356C63.0383 111.357 53.9195 111.405 53.8615 111.463ZM97.3103 111.46C97.2508 111.52 97.2022 112.321 97.2022 113.241V114.914H117.466H137.73V113.233C137.73 111.627 137.714 111.548 137.366 111.454C136.864 111.32 97.4449 111.326 97.3103 111.46ZM55.0528 112.567C55.0528 112.715 55.1313 112.81 55.2271 112.778C55.3229 112.747 55.4014 112.651 55.4014 112.567C55.4014 112.482 55.3229 112.387 55.2271 112.355C55.1313 112.323 55.0528 112.418 55.0528 112.567ZM92.6134 112.427C92.4839 112.557 92.6303 112.81 92.8347 112.81C92.9187 112.81 92.9873 112.7 92.9873 112.567C92.9873 112.316 92.796 112.245 92.6134 112.427ZM98.4991 112.567C98.4991 112.715 98.5776 112.81 98.6734 112.778C98.7692 112.747 98.8476 112.651 98.8476 112.567C98.8476 112.482 98.7692 112.387 98.6734 112.355C98.5776 112.323 98.4991 112.418 98.4991 112.567ZM136.06 112.427C135.93 112.557 136.077 112.81 136.281 112.81C136.365 112.81 136.434 112.7 136.434 112.567C136.434 112.316 136.242 112.245 136.06 112.427ZM56.9397 113.57C56.7571 113.752 56.8286 113.943 57.0792 113.943C57.213 113.943 57.3224 113.874 57.3224 113.791C57.3224 113.586 57.0692 113.44 56.9397 113.57ZM90.8213 113.57C90.6387 113.752 90.7102 113.943 90.9608 113.943C91.0946 113.943 91.204 113.874 91.204 113.791C91.204 113.586 90.9508 113.44 90.8213 113.57ZM100.386 113.57C100.203 113.752 100.275 113.943 100.526 113.943C100.659 113.943 100.769 113.874 100.769 113.791C100.769 113.586 100.515 113.44 100.386 113.57ZM134.268 113.57C134.085 113.752 134.156 113.943 134.407 113.943C134.541 113.943 134.65 113.874 134.65 113.791C134.65 113.586 134.397 113.44 134.268 113.57ZM54.2423 116.371V117.343H56.0845H57.9268L58.0299 116.592C58.0866 116.179 58.133 115.741 58.133 115.62C58.133 115.447 57.7201 115.4 56.1876 115.4H54.2423V116.371ZM89.9395 116.331L89.9882 117.262L91.893 117.308L93.7978 117.353V116.377V115.4H91.8444H89.8909L89.9395 116.331ZM97.6885 116.371V117.343H99.6339H101.579V116.371V115.4H99.6339H97.6885V116.371ZM133.386 116.331L133.434 117.262L135.339 117.308L137.244 117.353V116.377V115.4H135.291H133.337L133.386 116.331ZM53.8331 117.805C53.7906 117.848 53.7559 118.635 53.7559 119.556V121.229H74.02H94.2842V119.439V117.649L74.0972 117.689C62.9944 117.711 53.8756 117.763 53.8331 117.805ZM97.3196 117.765C97.255 117.83 97.2022 118.635 97.2022 119.556V121.229H117.472H137.741L137.695 119.488L137.649 117.748L117.543 117.698C106.485 117.671 97.3841 117.701 97.3196 117.765ZM55.0528 118.881C55.0528 119.029 55.1313 119.125 55.2271 119.093C55.3229 119.061 55.4014 118.966 55.4014 118.881C55.4014 118.796 55.3229 118.701 55.2271 118.669C55.1313 118.637 55.0528 118.732 55.0528 118.881ZM92.6134 118.742C92.4839 118.871 92.6303 119.124 92.8347 119.124C92.9187 119.124 92.9873 119.014 92.9873 118.881C92.9873 118.631 92.796 118.559 92.6134 118.742ZM98.4991 118.881C98.4991 119.029 98.5776 119.125 98.6734 119.093C98.7692 119.061 98.8476 118.966 98.8476 118.881C98.8476 118.796 98.7692 118.701 98.6734 118.669C98.5776 118.637 98.4991 118.732 98.4991 118.881ZM136.06 118.742C135.93 118.871 136.077 119.124 136.281 119.124C136.365 119.124 136.434 119.014 136.434 118.881C136.434 118.631 136.242 118.559 136.06 118.742ZM56.9397 119.884C56.7571 120.066 56.8286 120.257 57.0792 120.257C57.213 120.257 57.3224 120.189 57.3224 120.105C57.3224 119.901 57.0692 119.754 56.9397 119.884ZM90.8213 119.884C90.6387 120.066 90.7102 120.257 90.9608 120.257C91.0946 120.257 91.204 120.189 91.204 120.105C91.204 119.901 90.9508 119.754 90.8213 119.884ZM100.386 119.884C100.203 120.066 100.275 120.257 100.526 120.257C100.659 120.257 100.769 120.189 100.769 120.105C100.769 119.901 100.515 119.754 100.386 119.884ZM134.268 119.884C134.085 120.066 134.156 120.257 134.407 120.257C134.541 120.257 134.65 120.189 134.65 120.105C134.65 119.901 134.397 119.754 134.268 119.884ZM54.2423 122.686V123.657H56.1876H58.133V122.686V121.714H56.1876H54.2423V122.686ZM89.9395 122.645L89.9882 123.576L91.893 123.622L93.7978 123.667V122.691V121.714H91.8444H89.8909L89.9395 122.645ZM97.6885 122.686V123.657H99.6339H101.579V122.686V121.714H99.6339H97.6885V122.686ZM133.353 122.686V123.657H135.299H137.244V122.686V121.714H135.299H133.353V122.686ZM53.86 124.588C53.8047 124.922 53.7587 125.723 53.7577 126.369L53.7559 127.543H74.02H94.2842V125.762V123.981H74.1223H53.9605L53.86 124.588ZM97.309 124.09C97.2503 124.149 97.2022 124.95 97.2022 125.87V127.543H117.472H137.741L137.695 125.802L137.649 124.062L117.533 124.023C106.468 124.001 97.3677 124.031 97.309 124.09ZM55.0528 125.209C55.0528 125.35 55.1394 125.436 55.2454 125.401C55.546 125.301 55.5957 124.952 55.3094 124.952C55.1684 124.952 55.0528 125.068 55.0528 125.209ZM92.6134 125.056C92.4839 125.185 92.6303 125.438 92.8347 125.438C92.9187 125.438 92.9873 125.329 92.9873 125.195C92.9873 124.945 92.796 124.873 92.6134 125.056ZM98.4991 125.195C98.4991 125.344 98.5776 125.439 98.6734 125.407C98.7692 125.375 98.8476 125.28 98.8476 125.195C98.8476 125.11 98.7692 125.015 98.6734 124.983C98.5776 124.952 98.4991 125.047 98.4991 125.195ZM135.984 125.145C136.084 125.445 136.434 125.495 136.434 125.209C136.434 125.068 136.318 124.952 136.177 124.952C136.036 124.952 135.949 125.039 135.984 125.145ZM56.9397 126.198C56.7571 126.38 56.8286 126.571 57.0792 126.571C57.213 126.571 57.3224 126.503 57.3224 126.419C57.3224 126.215 57.0692 126.069 56.9397 126.198ZM90.8213 126.198C90.6387 126.38 90.7102 126.571 90.9608 126.571C91.0946 126.571 91.204 126.503 91.204 126.419C91.204 126.215 90.9508 126.069 90.8213 126.198ZM100.386 126.198C100.203 126.38 100.275 126.571 100.526 126.571C100.659 126.571 100.769 126.503 100.769 126.419C100.769 126.215 100.515 126.069 100.386 126.198ZM134.268 126.198C134.085 126.38 134.156 126.571 134.407 126.571C134.541 126.571 134.65 126.503 134.65 126.419C134.65 126.215 134.397 126.069 134.268 126.198ZM54.2423 128.595V129H56.1876H58.133V128.595V128.19H56.1876H54.2423V128.595ZM61.3752 128.595V129H63.3206H65.2659V128.595V128.19H63.3206H61.3752V128.595ZM68.5082 128.595V129H70.4536H72.3989V128.595V128.19H70.4536H68.5082V128.595ZM75.6412 128.595V129H77.5865H79.5319V128.595V128.19H77.5865H75.6412V128.595ZM82.7741 128.595V129H84.7195H86.6648V128.595V128.19H84.7195H82.7741V128.595ZM90.0152 128.298C89.9557 128.358 89.9071 128.54 89.9071 128.703C89.9071 128.974 90.0741 129 91.8525 129H93.7978V128.595V128.19H91.9606C90.95 128.19 90.0746 128.239 90.0152 128.298ZM97.6885 128.595V129H99.6339H101.579V128.595V128.19H99.6339H97.6885V128.595ZM104.821 128.595V129H106.767H108.712V128.595V128.19H106.767H104.821V128.595ZM111.954 128.595V129H113.9H115.845V128.595V128.19H113.9H111.954V128.595ZM119.196 128.298C119.136 128.358 119.087 128.54 119.087 128.703C119.087 128.974 119.254 129 121.033 129H122.978V128.595V128.19H121.141C120.13 128.19 119.255 128.239 119.196 128.298ZM126.22 128.595V129H128.166H130.111V128.595V128.19H128.166H126.22V128.595ZM133.353 128.595V129H135.299H137.244V128.595V128.19H135.299H133.353V128.595Z" fill="#005D33"/>
<path fill-rule="evenodd" clip-rule="evenodd" d="M78.8588 47.6475C70.8342 52.3979 63.0833 56.9843 61.6343 57.8395C60.1855 58.6946 59 59.4724 59 59.5678C59 59.6632 59.3696 60.3524 59.8214 61.0994C60.5894 62.369 60.6659 62.4451 60.9967 62.2687C61.1914 62.1649 62.5179 61.3899 63.9444 60.5463C74.244 54.4565 82.4172 49.6308 88.2614 46.1889C92.0062 43.9834 95.1559 42.0971 95.2608 41.997C95.4057 41.8588 95.2496 41.4749 94.6123 40.4023C94.1508 39.6253 93.7003 38.9944 93.6111 39C93.5219 39.0059 86.8834 42.8972 78.8588 47.6475ZM92.832 40.5422C92.7025 40.6715 92.8489 40.9244 93.0533 40.9244C93.1373 40.9244 93.2058 40.8151 93.2058 40.6816C93.2058 40.4313 93.0145 40.3599 92.832 40.5422ZM91.8593 42.485C91.7298 42.6144 91.8762 42.8673 92.0806 42.8673C92.1646 42.8673 92.2332 42.758 92.2332 42.6244C92.2332 42.3741 92.0419 42.3027 91.8593 42.485ZM93.6922 43.4597C92.8451 43.9629 92.125 44.3964 92.0919 44.4232C92.043 44.4625 92.7894 45.8578 92.9819 46.0874C93.0212 46.1342 95.937 44.4855 96.2549 44.2368C96.2996 44.2018 95.3233 42.5427 95.2588 42.5441C95.2442 42.5444 94.5392 42.9565 93.6922 43.4597ZM91.0984 47.76C87.9331 49.6342 80.1638 54.2245 73.8333 57.9609C67.5028 61.6973 62.2744 64.8021 62.2145 64.8607C62.0232 65.0479 63.7574 67.811 64.0255 67.7462C64.2307 67.6966 97.6346 48.0262 98.4184 47.4932C98.6582 47.3301 98.6011 47.1658 97.8789 45.9391C97.4347 45.1846 97.0223 44.519 96.9623 44.4599C96.9023 44.4008 94.2636 45.886 91.0984 47.76ZM96.0653 45.8939C95.8828 46.0762 95.9543 46.2672 96.2049 46.2672C96.3387 46.2672 96.4481 46.1988 96.4481 46.1149C96.4481 45.9107 96.1949 45.7645 96.0653 45.8939ZM95.0927 47.8367C94.9101 48.019 94.9816 48.2101 95.2322 48.2101C95.366 48.2101 95.4754 48.1416 95.4754 48.0577C95.4754 47.8536 95.2222 47.7074 95.0927 47.8367ZM96.9344 48.8758C96.1765 49.325 95.4919 49.7548 95.4132 49.8311C95.2472 49.9915 96.0507 51.4482 96.3053 51.4482C96.6822 51.4482 99.5196 49.6221 99.4161 49.4461C98.8996 48.569 98.532 48.0492 98.4319 48.0537C98.3662 48.0568 97.6923 48.4267 96.9344 48.8758ZM93.8543 53.4559C90.5107 55.4404 84.3464 59.0881 80.1557 61.562C68.8185 68.2549 65.4083 70.2711 65.3586 70.3103C65.3222 70.3389 66.8691 73.0697 67.0442 73.2859C67.0716 73.3199 70.106 71.5663 73.7871 69.389C77.4682 67.2119 85.2764 62.5978 91.1389 59.1357C97.0014 55.6735 101.795 52.7643 101.791 52.6707C101.78 52.4118 100.266 49.9382 100.088 49.8902C100.003 49.867 97.1979 51.4716 93.8543 53.4559ZM99.2351 51.4603C99.2671 51.556 99.3626 51.6343 99.4472 51.6343C99.5318 51.6343 99.6273 51.556 99.6592 51.4603C99.6912 51.3646 99.5958 51.2863 99.4472 51.2863C99.2985 51.2863 99.2032 51.3646 99.2351 51.4603ZM98.2685 53.4214C98.3686 53.7216 98.7177 53.7713 98.7177 53.4854C98.7177 53.3445 98.6022 53.2291 98.461 53.2291C98.3198 53.2291 98.2331 53.3156 98.2685 53.4214ZM100.057 54.632C98.7293 55.4224 98.5779 55.5589 98.7251 55.8335C98.8164 56.004 98.9524 56.1434 99.0273 56.1434C99.1022 56.1434 99.8645 55.7357 100.721 55.2374C102.102 54.4343 102.26 54.2962 102.114 54.0231C102.023 53.8536 101.86 53.7205 101.752 53.7274C101.643 53.7346 100.881 54.1414 100.057 54.632ZM94.0569 58.1884C92.5767 59.0792 92.4254 59.2466 92.7043 59.6863C92.8171 59.8642 93.1411 59.7342 94.2824 59.0534C96.2098 57.9037 96.1483 57.959 95.9155 57.5867C95.8089 57.4163 95.6845 57.2788 95.639 57.2814C95.5936 57.284 94.8816 57.6921 94.0569 58.1884ZM60.4901 59.7174C60.5221 59.8131 60.6176 59.8914 60.7022 59.8914C60.7868 59.8914 60.8823 59.8131 60.9142 59.7174C60.9462 59.6217 60.8508 59.5433 60.7022 59.5433C60.5535 59.5433 60.4582 59.6217 60.4901 59.7174ZM62.7286 59.7862C62.7286 59.9347 62.8071 60.0299 62.9029 59.998C62.9987 59.9661 63.0771 59.8707 63.0771 59.7862C63.0771 59.7017 62.9987 59.6063 62.9029 59.5744C62.8071 59.5425 62.7286 59.6377 62.7286 59.7862ZM63.1339 61.492C62.4206 61.9259 61.71 62.3572 61.5549 62.4505C61.2955 62.6066 61.3132 62.6854 61.776 63.4366C62.0527 63.8858 62.3279 64.2317 62.3875 64.2054C62.8163 64.0164 65.4845 62.4158 65.4845 62.3478C65.4845 62.1932 64.5947 60.6767 64.5118 60.6899C64.4673 60.6972 63.8472 61.0581 63.1339 61.492ZM88.0124 61.7687C87.1686 62.2622 86.4532 62.6865 86.4229 62.7115C86.3224 62.794 86.5783 63.429 86.7119 63.429C86.916 63.429 89.9642 61.6267 89.9584 61.5095C89.9556 61.4522 89.8618 61.2851 89.7499 61.1384C89.5667 60.898 89.3952 60.9602 88.0124 61.7687ZM81.7363 65.4643C80.2689 66.3362 80.052 66.5797 80.4174 66.9446C80.5502 67.0772 80.9691 66.9082 81.998 66.3065C83.8448 65.2268 83.8305 65.2394 83.6321 64.8692C83.5416 64.7005 83.4155 64.5648 83.3518 64.5679C83.2881 64.5709 82.561 64.9744 81.7363 65.4643ZM63.8049 64.9985C63.6223 65.1808 63.6938 65.3719 63.9444 65.3719C64.0782 65.3719 64.1876 65.3034 64.1876 65.2195C64.1876 65.0154 63.9344 64.8692 63.8049 64.9985ZM65.9709 65.2004C65.9709 65.2843 66.0438 65.3978 66.133 65.4528C66.2221 65.5079 66.2951 65.4392 66.2951 65.3005C66.2951 65.1617 66.2221 65.0481 66.133 65.0481C66.0438 65.0481 65.9709 65.1166 65.9709 65.2004ZM66.0242 67.1169L64.5376 68.0256L64.8362 68.6012C65.4685 69.8195 65.4056 69.8122 67.0064 68.8491C67.799 68.3724 68.5147 67.9151 68.5968 67.8331C68.7688 67.6614 67.9311 66.1738 67.6742 66.1947C67.5844 66.202 66.8419 66.6169 66.0242 67.1169ZM75.6976 69.0351C74.8506 69.5325 74.1326 69.9625 74.1023 69.991C73.9997 70.0868 74.2592 70.7147 74.4014 70.7147C74.5922 70.7147 77.643 68.8779 77.643 68.7629C77.643 68.7129 77.5519 68.55 77.4403 68.4013C77.2568 68.1563 77.0923 68.2162 75.6976 69.0351ZM66.9747 70.5649C67.0066 70.6606 67.1021 70.739 67.1867 70.739C67.2713 70.739 67.3668 70.6606 67.3987 70.5649C67.4307 70.4692 67.3354 70.3909 67.1867 70.3909C67.038 70.3909 66.9427 70.4692 66.9747 70.5649ZM69.1635 70.4943C69.034 70.6237 69.1804 70.8766 69.3848 70.8766C69.4688 70.8766 69.5373 70.7673 69.5373 70.6337C69.5373 70.3834 69.346 70.312 69.1635 70.4943ZM69.5373 72.6721C67.8394 73.6868 67.8457 73.6806 68.0665 74.0925C68.2419 74.4199 68.2847 74.4067 69.662 73.6039C71.4608 72.5552 71.601 72.4284 71.3274 72.099C71.2126 71.961 71.073 71.8482 71.0171 71.8483C70.961 71.8485 70.2952 72.2193 69.5373 72.6721Z" fill="#A92023"/>
</g>
<defs>
<clipPath id="clip0_1832_2015">
<rect width="204" height="129" fill="white"/>
</clipPath>
</defs>
</svg>
