<svg width="204" height="131" viewBox="0 0 204 131" fill="none" xmlns="http://www.w3.org/2000/svg">
<g clip-path="url(#clip0_1829_1941)">
<path opacity="0.5" fill-rule="evenodd" clip-rule="evenodd" d="M132.693 0.125149C131 0.290483 129.184 0.628181 127.184 1.14987L125.485 1.5932L125.579 2.97141C125.759 5.61143 126.041 11.5261 125.99 11.617C125.963 11.6672 125.696 11.7539 125.399 11.8096C123.528 12.1599 118.724 14.0294 115.375 15.7107L112.937 16.935L112.672 16.6091C112.527 16.4298 111.134 14.8961 109.576 13.2007C108.019 11.5053 106.66 9.99878 106.556 9.85311C106.453 9.7073 106.31 9.58804 106.238 9.58804C106.046 9.58804 103.462 11.0879 102.216 11.9227C100.137 13.3148 96.3214 16.7262 96.3214 17.1921C96.3214 17.3497 96.7444 18.0189 100.079 23.1363L101.66 25.5619L100.946 26.2937C99.0628 28.2252 95.315 32.8531 95.315 33.2471C95.315 33.3309 95.7841 33.6687 96.3573 33.9979C96.9305 34.3272 98.2879 35.1119 99.3734 35.742C100.459 36.372 101.438 36.8967 101.549 36.9079C101.66 36.9191 102.227 36.3069 102.81 35.5474C106.408 30.8566 111.067 26.7511 116.212 23.7377C117.56 22.948 121.217 21.0695 121.406 21.0695C121.456 21.0695 121.783 20.9386 122.135 20.7787C125.113 19.4245 129.817 18.1948 134.253 17.6109C136.879 17.2651 142.01 17.1948 144.482 17.4706C152.419 18.3562 159.643 20.9342 165.845 25.0941C168.468 26.8543 170.263 28.308 172.566 30.5383C180.639 38.3585 185.599 48.8297 186.571 60.1065C186.76 62.2988 186.671 67.2179 186.403 69.3635C185.392 77.4596 182.627 84.6076 177.994 91.1065C177.403 91.9353 176.879 92.6457 176.83 92.6852C176.781 92.7247 176.498 93.0799 176.201 93.4746C175.311 94.6557 173.122 96.9499 171.438 98.465C168.81 100.828 165.746 103.036 162.706 104.757L161.593 105.387L161.591 109.525C161.591 111.801 161.638 113.639 161.698 113.61C161.757 113.581 162.083 113.438 162.423 113.293C163.051 113.024 163.986 112.556 165.879 111.561C166.519 111.225 166.971 111.064 167.029 111.152C167.082 111.231 168.33 112.614 169.804 114.226C171.278 115.837 172.737 117.438 173.047 117.783L173.611 118.41L174.609 117.87C175.958 117.14 178.561 115.426 179.704 114.514C180.724 113.699 183.586 110.931 183.586 110.758C183.586 110.699 183.246 110.132 182.831 109.497C182.416 108.863 181.775 107.872 181.407 107.296C181.039 106.719 180.176 105.384 179.49 104.329L178.242 102.411L178.665 101.961C181.023 99.4537 181.601 98.7794 183.174 96.7037C184.402 95.0823 186.646 91.771 186.772 91.3948C186.802 91.3043 187.651 91.5095 188.906 91.9108C190.052 92.2772 191.475 92.7276 192.068 92.9115C192.661 93.0954 193.849 93.4741 194.708 93.7531C195.567 94.032 196.321 94.2289 196.383 94.1906C196.581 94.0687 198.067 91.5015 198.586 90.3863C199.686 88.0237 200.677 85.2481 200.99 83.6583C201.157 82.8087 201.15 82.7256 200.901 82.5436C200.753 82.4356 199.336 81.695 197.751 80.8979C195.437 79.7333 192.597 78.2605 192.389 78.1162C192.368 78.1017 192.511 77.4137 192.707 76.5872C193.457 73.4184 194.076 69.0497 194.079 66.9089C194.08 66.3481 194.121 65.4999 194.171 65.0239L194.262 64.1585L195.429 63.9113C196.071 63.7756 197.405 63.4865 198.393 63.2692C199.382 63.0518 201.048 62.6907 202.095 62.4668L204 62.0595V59.9293C204 56.6906 203.518 53.2202 202.702 50.5825L202.397 49.5978L200.287 49.6927C199.127 49.7448 197.11 49.8478 195.805 49.9217C192.154 50.1287 192.431 50.1651 192.226 49.4503C191.164 45.7435 189.587 41.8053 187.893 38.6294C187.058 37.0635 187.042 37.0123 187.319 36.8182C187.476 36.7083 188.046 36.2038 188.585 35.6971C189.124 35.1901 189.885 34.4895 190.277 34.1399C190.669 33.7903 191.629 32.9185 192.41 32.2025C193.192 31.4865 193.963 30.7864 194.125 30.6468L194.418 30.3928L193.998 29.5087C192.807 27.0047 189.404 22.5535 187.406 20.8861L186.768 20.3536L183.631 22.376C181.906 23.4882 180.057 24.6876 179.521 25.0412C178.986 25.3949 178.49 25.663 178.419 25.6373C178.348 25.6114 177.719 25.0679 177.02 24.4293C174.292 21.9346 171.876 20.0685 168.945 18.1917C167.589 17.3231 167.327 17.0978 167.38 16.8483C167.416 16.6836 168.072 14.5871 168.839 12.1895C169.606 9.79183 170.202 7.75071 170.165 7.6537C170.021 7.27969 166.619 5.44495 164.465 4.58039C162.5 3.79118 158.806 2.6904 158.666 2.85214C158.636 2.8863 157.915 4.27068 157.063 5.92832C156.211 7.58596 155.19 9.56062 154.793 10.3165L154.073 11.6909L152.692 11.3547C149.407 10.5549 144.799 9.9276 141.899 9.88498C140.993 9.87177 140.225 9.83532 140.194 9.80418C140.163 9.77303 139.76 8.01637 139.299 5.90047C138.838 3.78458 138.397 1.76269 138.319 1.40749C138.241 1.05228 138.14 0.590291 138.096 0.380754L138.014 0L135.965 0.00287098C134.838 0.00444968 133.366 0.059418 132.693 0.125149ZM49.3963 29.8415C49.3612 29.9503 48.9958 31.5894 48.5841 33.4839C48.1723 35.3783 47.8194 36.9474 47.7997 36.9708C47.7801 36.9942 47.099 37.0395 46.2861 37.0715C43.7407 37.1718 40.3599 37.6528 38.2521 38.2145C37.5632 38.3982 37.4545 38.3972 37.3176 38.2062C37.2325 38.0874 36.4515 36.6049 35.5821 34.9117C34.2905 32.3966 33.9467 31.8334 33.7026 31.8334C32.2672 31.8334 25.3023 34.8506 25.3023 35.4723C25.3023 35.5703 25.563 36.4547 25.8817 37.4376C27.4859 42.3865 27.5166 42.5041 27.2405 42.6647C25.2235 43.8386 22.6 45.8043 20.3897 47.7982L19.1428 48.9229L18.3051 48.39C17.8442 48.0968 16.4337 47.1826 15.1706 46.3582L12.8741 44.8593L11.4243 46.3547C10.0299 47.7929 8.30664 50.1435 7.54153 51.6509C7.34716 52.0338 7.18816 52.3732 7.18816 52.405C7.18816 52.4369 8.41892 53.5807 9.92311 54.9467C11.4275 56.3129 12.6404 57.4697 12.6187 57.5175C12.597 57.5652 12.2081 58.3223 11.7542 59.1995C10.7841 61.0754 9.50332 64.2733 9.04055 65.9757L8.71306 67.1804L6.76449 67.0865C5.69288 67.0349 3.99849 66.9519 2.99919 66.9023C1.29948 66.8177 1.17699 66.8294 1.10036 67.083C0.377522 69.478 0 72.0141 0 74.4754C0 75.9571 0.0304778 76.1701 0.251586 76.235C0.39003 76.2756 0.988372 76.4078 1.5814 76.5286C2.72791 76.7624 3.69903 76.972 5.88754 77.4576C6.63496 77.6235 7.25702 77.7593 7.26982 77.7593C7.28261 77.7593 7.33811 78.5827 7.39331 79.5891C7.51925 81.8836 7.95399 85.0308 8.38528 86.7698C8.61444 87.6936 8.66892 88.1403 8.56297 88.2268C8.43488 88.3313 5.44144 89.8898 2.83932 91.2065C2.42414 91.4167 2.15645 91.6487 2.15645 91.7987C2.15645 92.4867 3.32625 96.0217 3.99331 97.3496C4.28558 97.9312 5.53 100.073 5.69044 100.27C5.73773 100.328 5.74679 100.325 9.61833 99.0814C11.2316 98.563 12.6226 98.1392 12.7092 98.1396C12.7959 98.1399 13.2512 98.7374 13.721 99.4672C14.1909 100.197 14.9327 101.278 15.3694 101.869C16.0733 102.821 16.5703 103.408 18.7233 105.827L19.2605 106.431L17.2292 109.563L15.1978 112.695L16.5272 113.966C17.2582 114.665 18.3187 115.578 18.8839 115.993C19.8681 116.718 22.1178 118.122 22.5721 118.296C22.7221 118.353 23.4928 117.605 25.0647 115.876C26.3163 114.5 27.454 113.271 27.593 113.145C27.827 112.934 27.9953 112.991 29.8447 113.909C31.73 114.845 35.1974 116.227 36.1645 116.428L36.6037 116.52L36.9204 114.039C37.3017 111.052 37.3093 110.769 37.0082 110.769C36.6165 110.769 33.8846 109.646 32.1831 108.785C30.3059 107.836 27.759 106.202 26.093 104.879C22.1795 101.77 18.5521 97.2068 16.4573 92.757C15.3444 90.3929 15.2984 90.2826 14.8134 88.8102C12.8218 82.7659 12.4411 76.9263 13.6384 70.7849C14.9515 64.0481 18.4087 57.6516 23.3827 52.7565C29.421 46.8138 36.8595 43.4274 45.4132 42.7269C52.2369 42.168 59.6389 43.8828 65.6508 47.4149C69.5401 49.7 73.1558 52.8603 75.6195 56.128C76.1334 56.8098 76.6104 57.3702 76.6796 57.3736C76.8373 57.3813 81.4992 54.7516 81.5076 54.6501C81.5235 54.4569 79.2134 51.5578 78.0383 50.2962L76.7207 48.8817L76.9967 48.3692C77.1485 48.0874 77.3376 47.7875 77.4168 47.7028C77.496 47.618 77.8166 47.1289 78.1293 46.6158C78.442 46.1027 78.7486 45.6183 78.8107 45.5394C79.0409 45.2465 80.2199 43.4181 80.2199 43.3539C80.2199 43.3173 80.3487 43.1069 80.506 42.8862L80.7922 42.485L79.4474 41.2017C78.7078 40.4957 77.5601 39.529 76.8969 39.0531C75.7008 38.1948 73.433 36.8475 73.2164 36.8664C73.1543 36.8719 72.3596 37.7092 71.4503 38.727C70.541 39.7448 69.4382 40.9724 68.9994 41.4549L68.202 42.3321L66.3398 41.4002C64.1319 40.2951 62.8263 39.7621 60.3087 38.9378L58.4397 38.326L58.4753 37.6272C58.4948 37.2427 58.5756 35.7335 58.655 34.2732C58.7342 32.8129 58.799 31.4505 58.799 31.2455C58.7992 30.9065 58.7054 30.8458 57.7569 30.5707C55.9482 30.0463 54.2006 29.7966 51.7933 29.7188C49.8873 29.6572 49.4482 29.6798 49.3963 29.8415ZM48.8292 53.0741C48.7487 53.4761 48.6999 53.5047 48.0951 53.5047C47.5241 53.5047 47.4367 53.4622 47.3572 53.1459C47.2565 52.7458 47.1171 52.7149 46.4533 52.946C46.0359 53.0912 46.0045 53.1447 46.085 53.5731C46.1615 53.9803 46.1152 54.0825 45.7305 54.356C45.3008 54.6614 45.2756 54.6633 44.8599 54.418C44.6244 54.2792 44.4135 54.1944 44.3913 54.2299C44.3691 54.2652 44.1941 54.4716 44.0025 54.6887L43.6538 55.0834L43.9734 55.4229C44.2858 55.7549 44.2874 55.7738 44.0437 56.2841C43.8341 56.7228 43.7217 56.8056 43.336 56.8056C42.9373 56.8056 42.8656 56.8643 42.7875 57.2541C42.6528 57.9268 42.6643 57.957 43.1147 58.1138C43.4665 58.2362 43.5404 58.35 43.5874 58.8408C43.6363 59.3528 43.5991 59.4416 43.2782 59.5785C43.0775 59.6641 42.8929 59.7467 42.8679 59.7624C42.843 59.7779 42.8946 60.0577 42.9828 60.3842C43.1374 60.958 43.159 60.975 43.6203 60.8886C44.0361 60.8108 44.1376 60.8548 44.4041 61.2284C44.7735 61.7462 44.7774 61.8039 44.4673 62.1461C44.2368 62.4004 44.2477 62.4377 44.6787 62.868L45.1333 63.3218L45.473 63.0032C45.7966 62.6998 45.8378 62.695 46.3398 62.9044C46.7988 63.0959 46.8668 63.1867 46.8668 63.6079C46.8668 63.9881 46.936 64.1101 47.1903 64.1781C47.8871 64.3646 48.1211 64.2865 48.211 63.838C48.2911 63.4386 48.3425 63.4074 48.9246 63.4074C49.4545 63.4074 49.5776 63.4633 49.7159 63.7662C49.9018 64.1734 49.9558 64.1858 50.5868 63.9662C51.0003 63.8224 51.0352 63.7647 50.9582 63.3545C50.8854 62.9678 50.9367 62.8545 51.3081 62.5804C51.8209 62.2019 51.9467 62.1867 52.186 62.4746C52.4572 62.8007 52.7089 62.7356 53.0552 62.2501L53.3689 61.8102L53.0581 61.48C52.7561 61.1591 52.7543 61.1351 52.993 60.6354C53.1987 60.2047 53.3225 60.1141 53.7547 60.078C54.2456 60.0369 54.2726 60.0068 54.3132 59.4588C54.352 58.9325 54.3178 58.8685 53.9178 58.7177C53.5286 58.5712 53.4799 58.4878 53.4799 57.969C53.4799 57.4659 53.5297 57.3726 53.8393 57.2951C54.2378 57.1953 54.2969 56.8909 54.031 56.308C53.8871 55.9929 53.7981 55.9527 53.4057 56.0261C53.0022 56.1018 52.9125 56.0554 52.6454 55.6343C52.3731 55.2051 52.3637 55.1249 52.5519 54.8382C52.8419 54.3964 52.8221 54.3213 52.3174 53.9489L51.8738 53.6214L51.5574 53.9182C51.2522 54.2043 51.2218 54.2063 50.7072 53.9734C50.2537 53.7682 50.1734 53.6631 50.1734 53.2749C50.1734 52.7815 49.9862 52.6436 49.317 52.6436C48.9859 52.6436 48.9003 52.7191 48.8292 53.0741ZM47.6575 56.3132C46.0308 57.1561 45.7268 59.0479 47.0379 60.1684C48.0688 61.0493 49.3152 60.9717 50.2217 59.9702C51.0743 59.028 51.0922 57.9239 50.2697 56.9889C49.5123 56.1278 48.5139 55.8696 47.6575 56.3132ZM34.0709 57.0235C33.9924 57.2297 33.9281 57.4823 33.9281 57.5848C33.9281 57.6977 33.6653 57.8072 33.2611 57.8625C32.2426 58.0018 32.2031 57.9892 31.9781 57.4514C31.7406 56.884 31.4808 56.8267 30.673 57.1637C30.1323 57.3893 30.1391 57.3586 30.403 58.3843C30.4373 58.5169 30.1887 58.7774 29.7561 59.0624L29.0537 59.5253L28.5945 59.1395L28.1352 58.7537L27.5745 59.3846L27.0137 60.0154L27.433 60.434L27.8524 60.8527L27.5478 61.6403L27.2431 62.4279L26.6222 62.3602C26.066 62.2993 25.9875 62.3289 25.8675 62.6439C25.7939 62.8374 25.7336 63.2061 25.7336 63.4633C25.7336 63.8844 25.7872 63.9442 26.2727 64.0639L26.8118 64.1968L26.8538 65.0628L26.8958 65.9288L26.3745 66.1169C25.8146 66.3192 25.7939 66.468 26.1873 67.4618C26.3581 67.8934 26.45 67.9195 27.1214 67.7273C27.5529 67.6036 27.5926 67.6288 28.0289 68.301L28.4852 69.004L28.1644 69.4537C27.8002 69.9642 27.858 70.1406 28.5685 70.6876L29.0156 71.0319L29.4923 70.6066L29.9689 70.1815L30.6546 70.5284C31.3154 70.8627 31.3404 70.8981 31.3404 71.5019C31.3404 72.187 31.4959 72.2996 32.4488 72.3036C32.8615 72.3055 32.9281 72.2463 33.0789 71.7437C33.2455 71.1884 33.2569 71.1813 34.0346 71.1338C34.8196 71.0858 34.8228 71.0873 35.1035 71.6371C35.3525 72.1246 35.4296 72.1773 35.7707 72.0928C36.4182 71.9324 36.8777 71.651 36.8303 71.4439C36.6195 70.5206 36.6182 70.5242 37.3047 70.0412L37.9715 69.572L38.38 69.8623C38.6047 70.0221 38.8467 70.1528 38.9179 70.1528C39.0838 70.1528 39.9662 69.2477 39.9662 69.0774C39.9662 69.0065 39.7973 68.7726 39.591 68.5576L39.2157 68.1667L39.5692 67.3958C39.9209 66.6289 39.9256 66.6251 40.5027 66.6801C41.1712 66.7437 41.1987 66.7158 41.3303 65.8378L41.4285 65.1825L40.8411 65.0068C40.385 64.8703 40.2534 64.7603 40.2521 64.514C40.2513 64.3395 40.2116 63.9614 40.1638 63.6738C40.0813 63.1754 40.1016 63.1419 40.5967 62.9633C41.169 62.7566 41.2385 62.5086 40.953 61.6907C40.7937 61.2347 40.7728 61.225 40.1263 61.305C39.4764 61.3854 39.4538 61.3747 39.0055 60.7659L38.5481 60.1444L38.9213 59.5962L39.2945 59.0478L38.7439 58.5725C38.2107 58.1125 37.8097 57.9629 37.8097 58.2243C37.8097 58.2942 37.6546 58.4528 37.4648 58.5769C37.1457 58.7856 37.0643 58.779 36.3718 58.4869L35.6237 58.1713L35.7065 57.5687C35.7969 56.9098 35.805 56.9168 34.7538 56.7397C34.2655 56.6575 34.1998 56.6848 34.0709 57.0235ZM32.3467 61.627C31.7458 61.8869 31.1449 62.4371 30.7282 63.1091C30.2658 63.8554 30.3038 65.167 30.8135 66.035C31.4051 67.0429 32.4751 67.713 33.4927 67.713C34.608 67.713 36.0187 66.7694 36.4523 65.7336C36.7048 65.1302 36.7216 63.9952 36.4862 63.4501C35.7643 61.7785 33.8975 60.9564 32.3467 61.627ZM29.5432 74.5186C29.5038 74.6434 29.4441 74.8347 29.4106 74.9437C29.3158 75.2526 28.2874 75.3351 28.0747 75.0508C27.632 74.4592 27.6155 74.4522 27.131 74.6514C26.7226 74.8192 26.6727 74.8993 26.7078 75.3317C26.7415 75.7499 26.6773 75.8664 26.2699 76.1268C25.7941 76.4306 25.7913 76.4307 25.4434 76.1496L25.0943 75.8673L24.6936 76.3149L24.2931 76.7624L24.5816 77.1532C24.8572 77.5268 24.8595 77.5673 24.6308 78.0693C24.4136 78.5462 24.3493 78.5877 23.9333 78.5204C23.5428 78.4571 23.4616 78.4961 23.3842 78.7844C23.1925 79.5 23.2694 79.7413 23.7209 79.8403C24.1212 79.9281 24.1522 79.9807 24.1522 80.5724C24.1522 81.1132 24.0977 81.2347 23.7928 81.3734C23.3906 81.5564 23.3542 81.7343 23.6066 82.2874C23.7554 82.6135 23.8457 82.6563 24.248 82.5911C24.6624 82.524 24.7513 82.572 25.0233 83.0113C25.3151 83.4828 25.3184 83.526 25.0894 83.8748C24.8636 84.2188 24.8638 84.259 25.0943 84.5131C25.4645 84.9214 25.8596 84.9958 26.1699 84.7153C26.4174 84.4919 26.4902 84.489 26.9783 84.6833C27.4458 84.8695 27.5158 84.959 27.5227 85.3794C27.5301 85.8255 27.5722 85.8687 28.0813 85.9519C28.579 86.0333 28.6454 86.0063 28.7731 85.6709C28.95 85.2062 29.1408 85.0838 29.6916 85.0809C30.0432 85.0792 30.1582 85.1607 30.2879 85.5034C30.4354 85.8936 30.4844 85.9179 30.8897 85.8019C31.582 85.6036 31.6607 85.5142 31.571 85.0264C31.4982 84.6315 31.5481 84.5377 31.9778 84.2597C32.4659 83.9441 32.4688 83.9439 32.8255 84.2241L33.1834 84.5051L33.5558 84.0633C34.0009 83.5353 34.0076 83.4729 33.6551 83.1544C33.3953 82.9196 33.3936 82.88 33.6192 82.3331C33.8374 81.8041 33.8922 81.764 34.3097 81.8286C34.6846 81.8866 34.7776 81.8448 34.8468 81.5872C35.0268 80.9171 34.9454 80.6615 34.5032 80.5077C34.1192 80.3741 34.0719 80.2935 34.0719 79.773C34.0719 79.2886 34.1336 79.1603 34.4313 79.0248C34.832 78.8426 34.8594 78.7166 34.6373 78.0805C34.4947 77.6722 34.4526 77.6504 34.0358 77.7696C33.7894 77.8402 33.5786 77.8829 33.5676 77.8645C33.5565 77.8461 33.4038 77.6232 33.2283 77.3694C32.9235 76.9287 32.9201 76.8909 33.1511 76.5388C33.3833 76.1849 33.3797 76.1555 33.0605 75.8165C32.6859 75.4184 32.2748 75.3559 32.1509 75.6783C32.0454 75.9528 31.7262 75.9517 31.1894 75.6745C30.867 75.5081 30.7653 75.3554 30.7653 75.0372C30.7653 74.564 30.7301 74.5307 30.0823 74.3921C29.7225 74.315 29.5985 74.3441 29.5432 74.5186ZM28.2384 78.0416C27.717 78.2523 27.0398 79.0464 26.8817 79.6326C26.3202 81.7144 28.8872 83.3387 30.5789 81.972C32.281 80.5967 31.2768 77.8751 29.0807 77.9118C28.7817 77.9169 28.4026 77.9753 28.2384 78.0416Z" fill="#A7AAAF"/>
<path fill-rule="evenodd" clip-rule="evenodd" d="M182.949 49.5318C182.584 49.7945 182.548 49.7868 181.947 49.3137C181.537 48.991 181.531 48.9757 181.699 48.6222C181.894 48.2131 181.794 48.0636 181.165 47.8221C180.725 47.6534 180.608 47.7124 180.4 48.2056C180.313 48.4114 180.233 48.4989 180.161 48.4651C180.101 48.437 179.816 48.3926 179.527 48.3663L179 48.3184L178.949 47.9608C178.884 47.5013 178.761 47.3922 178.339 47.4169C177.784 47.4495 177.555 47.6584 177.583 48.1087L177.607 48.5042L177.126 48.6843C176.862 48.7834 176.604 48.9077 176.554 48.9605C176.492 49.0259 176.36 48.9337 176.141 48.6722C175.782 48.2427 175.67 48.2611 175.112 48.842C174.839 49.1259 174.838 49.156 175.099 49.5057L175.372 49.8719L174.99 50.2722C174.78 50.4924 174.587 50.7048 174.561 50.7444C174.535 50.784 174.32 50.7537 174.083 50.6772L173.652 50.538L173.427 51.0638C173.193 51.6123 173.232 51.7144 173.789 52.0269C174.008 52.1503 174.029 52.2345 173.929 52.5992C173.864 52.8345 173.842 53.0565 173.88 53.0925C174 53.2075 173.713 53.4157 173.332 53.4889C172.904 53.5711 172.87 53.6628 173.019 54.3455L173.13 54.8518L173.581 54.818L174.032 54.7843L174.288 55.3804C174.544 55.9744 174.544 55.9773 174.206 56.2297C173.802 56.531 173.837 56.7896 174.348 57.2771C174.659 57.5744 174.679 57.5753 175.032 57.3073C175.382 57.0413 175.407 57.042 175.733 57.3278C175.919 57.491 176.138 57.6827 176.22 57.7539C176.31 57.8321 176.315 58.032 176.233 58.2594C176.077 58.6889 176.207 58.867 176.821 59.0699C177.249 59.2115 177.231 59.2234 177.622 58.5338C177.672 58.4445 177.962 58.4157 178.328 58.4637L178.948 58.5452L179 58.9111C179.071 59.4038 179.182 59.4843 179.711 59.4263C180.269 59.3652 180.336 59.2973 180.335 58.788L180.334 58.3813L180.929 58.1237C181.52 57.8674 181.524 57.8678 181.794 58.2048C182.034 58.5038 182.097 58.5285 182.335 58.415C182.483 58.3442 182.722 58.1637 182.865 58.0136C183.108 57.7589 183.107 57.7166 182.852 57.3746C182.591 57.0255 182.592 56.9942 182.862 56.7088C183.018 56.5442 183.2 56.3102 183.266 56.1891C183.366 56.0073 183.456 55.9991 183.781 56.1423C184.223 56.3374 184.355 56.2529 184.599 55.6167C184.766 55.1804 184.678 55.0428 184.069 54.7906C183.958 54.7445 183.93 54.5891 183.988 54.3399C184.036 54.1308 184.074 53.8497 184.07 53.7153C184.065 53.4956 184.105 53.4632 184.46 53.3952C184.967 53.2976 185.001 53.2549 184.969 52.7503C184.928 52.0944 184.812 51.9611 184.33 52.0138L183.902 52.0607L183.658 51.4817C183.422 50.9201 183.424 50.894 183.731 50.6113C184.108 50.2633 184.086 50.0693 183.616 49.6174C183.295 49.3086 183.265 49.3048 182.949 49.5318ZM182.981 65.8861C182.33 66.2922 182.311 66.2973 182.112 66.1095C182.01 66.0123 181.713 65.7736 181.454 65.5792L180.981 65.2256L181.158 64.6729C181.363 64.0349 181.291 63.9264 180.453 63.6152C179.823 63.381 179.921 63.3265 179.363 64.224C179.217 64.4598 179.113 64.482 178.531 64.4027C178.165 64.3529 177.788 64.2966 177.693 64.2778C177.582 64.2559 177.483 64.0631 177.417 63.7419C177.36 63.4662 177.255 63.1841 177.183 63.1151C177.11 63.0462 176.74 63.045 176.36 63.1123C175.602 63.2466 175.58 63.2771 175.663 64.1164L175.702 64.5102L174.897 64.837L174.093 65.1639L173.67 64.7239C173.182 64.2156 173.101 64.2272 172.361 64.9108L171.917 65.322L172.278 65.8C172.477 66.0629 172.618 66.3046 172.591 66.3368C172.192 66.8232 171.911 67.1963 171.767 67.4342C171.599 67.7106 171.558 67.7145 171.001 67.5076C170.437 67.298 170.406 67.3015 170.226 67.5942C170.123 67.762 169.96 68.0939 169.864 68.3315C169.701 68.7335 169.71 68.7764 169.994 68.9511C170.723 69.4009 170.912 69.5554 170.835 69.6369C170.79 69.6836 170.724 70.036 170.688 70.42L170.623 71.1181L170.039 71.2382C169.357 71.3783 169.312 71.4713 169.483 72.3878L169.598 72.9987L170.255 72.9867C170.873 72.9754 170.916 72.992 170.983 73.2715C171.022 73.4347 171.161 73.7919 171.292 74.0654L171.53 74.5625L171.073 74.9683C170.639 75.353 170.623 75.3895 170.755 75.6665C170.832 75.8273 171.067 76.1233 171.277 76.3243L171.66 76.6899L172.161 76.3652C172.437 76.1866 172.679 76.0417 172.7 76.0432C172.721 76.0447 173.023 76.2832 173.372 76.5731L174.006 77.1003L173.831 77.6773C173.663 78.236 173.668 78.2603 173.988 78.4433C174.988 79.0144 175.178 78.9843 175.524 78.2007L175.693 77.8192L176.578 77.9263L177.464 78.0335L177.583 78.6393L177.703 79.2451L178.1 79.2483C178.319 79.2501 178.692 79.201 178.929 79.1392L179.36 79.0269L179.345 78.3915L179.331 77.7561L180.001 77.5136C180.37 77.3802 180.718 77.2244 180.775 77.1676C180.854 77.0886 180.979 77.1845 181.304 77.5727L181.729 78.0814L182.21 77.7426C182.943 77.2263 183.052 76.9899 182.743 76.5832C182.601 76.3962 182.467 76.1749 182.445 76.0917C182.423 76.0085 182.63 75.6477 182.906 75.2901L183.406 74.6399L183.999 74.8191C184.661 75.019 184.714 74.9775 185.078 73.9735L185.253 73.4899L184.755 73.237C184.481 73.0979 184.233 72.9615 184.204 72.934C184.176 72.9064 184.208 72.5061 184.277 72.0442C184.378 71.3664 184.444 71.1966 184.619 71.163C184.737 71.1402 184.999 71.0704 185.2 71.0081L185.565 70.8948L185.512 70.1774C185.484 69.7828 185.412 69.4144 185.354 69.3588C185.296 69.3032 185.013 69.2784 184.726 69.3038C184.2 69.3501 183.994 69.2663 183.976 68.9982C183.971 68.9187 183.854 68.6224 183.717 68.34L183.467 67.8264L183.917 67.3553L184.367 66.8842L184.039 66.4031C183.507 65.6209 183.451 65.5932 182.981 65.8861ZM180.254 51.4088C179.278 50.823 178.052 50.9603 177.294 51.7402C175.798 53.2795 176.859 55.8028 179.007 55.8139C179.907 55.8186 180.882 55.1427 181.21 54.2859C181.605 53.2587 181.173 51.9608 180.254 51.4088ZM178.976 68.2452C178.078 67.8111 176.736 67.8543 175.871 68.3452C175.212 68.7194 174.844 69.1317 174.544 69.8316C173.775 71.6311 174.658 73.6444 176.469 74.2191C177.199 74.4507 177.896 74.4352 178.692 74.1697C179.419 73.9268 180.304 73.0005 180.547 72.2262C180.766 71.5283 180.762 70.6776 180.537 70.0298C180.344 69.4753 179.482 68.49 178.976 68.2452ZM175.832 82.9142C175.574 83.0997 175.462 83.107 175.222 82.9546C174.583 82.5502 174.456 82.3467 174.581 81.9313C174.646 81.7147 174.7 81.5154 174.701 81.488C174.703 81.4608 174.459 81.3501 174.159 81.2422L173.615 81.0461L173.323 81.4608C173.048 81.8505 173.01 81.8694 172.681 81.773C172.488 81.7166 172.227 81.6825 172.101 81.6973C171.894 81.7212 171.863 81.6734 171.792 81.2289L171.714 80.7339L171.143 80.7886C170.829 80.8187 170.55 80.8671 170.522 80.8961C170.495 80.925 170.481 81.1528 170.492 81.402L170.513 81.8553L169.917 82.0893C169.337 82.3177 169.314 82.3153 168.974 81.9911L168.626 81.6588L168.203 82.1018C167.795 82.5296 167.787 82.5555 167.972 82.8538C168.121 83.095 168.121 83.2296 167.971 83.4665C167.563 84.1107 167.385 84.2168 166.952 84.0745C166.579 83.952 166.53 83.9665 166.385 84.2419C166.109 84.7682 166.066 85.076 166.254 85.1727C166.907 85.5075 166.927 85.5436 166.804 86.1504L166.684 86.7372L166.251 86.8503L165.817 86.9633L165.864 87.4928C165.92 88.1329 165.984 88.2033 166.506 88.2023L166.913 88.2017L167.16 88.7721C167.405 89.3375 167.404 89.3449 167.068 89.6144C166.762 89.8592 166.742 89.9154 166.868 90.1793C166.945 90.3404 167.114 90.5737 167.244 90.6976C167.451 90.8946 167.53 90.8925 167.879 90.6808C168.2 90.486 168.315 90.4742 168.469 90.6204C168.573 90.7204 168.794 90.8875 168.958 90.9919C169.23 91.1641 169.245 91.2214 169.117 91.6107C168.958 92.0956 169.004 92.1677 169.643 92.4241C169.97 92.5553 170.124 92.5589 170.187 92.4368C170.53 91.7682 170.546 91.759 171.198 91.8564L171.827 91.9503L171.901 92.3362C172.003 92.868 172.075 92.9079 172.683 92.7696L173.214 92.6485L173.213 92.1875L173.213 91.7264L173.801 91.4978C174.378 91.2734 174.395 91.2755 174.697 91.6081C175.001 91.944 175.007 91.9446 175.4 91.6755C175.924 91.3163 175.977 91.1503 175.69 90.7518C175.482 90.4628 175.48 90.388 175.671 90.188C175.792 90.0611 175.971 89.8321 176.068 89.6789C176.224 89.4343 176.3 89.4155 176.692 89.5246C177.162 89.6554 177.222 89.6109 177.518 88.9086C177.641 88.6163 177.479 88.3753 177.038 88.1945C176.866 88.1237 176.835 87.9789 176.89 87.4866L176.958 86.8678L177.406 86.751L177.854 86.6342L177.858 86.2436C177.865 85.5441 177.767 85.4022 177.274 85.403L176.832 85.4038L176.561 84.8613C176.293 84.3264 176.294 84.3138 176.616 83.9767C176.983 83.5927 176.963 83.4655 176.463 82.9885C176.169 82.7075 176.126 82.7025 175.832 82.9142ZM173.022 84.6837C172.382 84.309 171.353 84.3371 170.587 84.7501C169.828 85.1596 169.34 86.2499 169.492 87.1961C169.712 88.558 171.046 89.4267 172.433 89.1109C173.936 88.7684 174.691 86.9748 173.907 85.6057C173.592 85.0553 173.507 84.9672 173.022 84.6837ZM165.627 94.2847C165.339 94.5822 165.145 94.5674 164.675 94.2121C164.243 93.8863 164.233 93.8638 164.361 93.5193C164.51 93.1185 164.432 93.0048 163.853 92.783C163.557 92.6694 163.424 92.6767 163.352 92.8108C163.037 93.4023 163.036 93.4028 162.496 93.3179C161.971 93.2356 161.958 93.2264 161.807 92.8272C161.652 92.4216 161.65 92.4205 161.219 92.4629C160.696 92.5145 160.609 92.5931 160.638 92.987C160.665 93.3561 160.615 93.4121 160.03 93.6708C159.586 93.8671 159.559 93.8623 159.303 93.5431C159.065 93.2464 159.011 93.2278 158.791 93.3665C158.656 93.452 158.459 93.6363 158.353 93.7764C158.201 93.9777 158.203 94.0987 158.361 94.3522C158.524 94.6149 158.522 94.7136 158.35 94.8961C158.234 95.0186 158.083 95.2226 158.013 95.3494C157.908 95.5414 157.819 95.5537 157.479 95.4229C157.051 95.2587 157.052 95.2579 156.755 95.953C156.628 96.2498 156.643 96.283 157.025 96.552C157.27 96.724 157.4 96.8684 157.353 96.9169C157.311 96.961 157.264 97.1997 157.248 97.4473L157.22 97.8974L156.792 97.9797L156.364 98.0619L156.422 98.5587C156.493 99.1714 156.574 99.2573 157.008 99.182L157.35 99.1224L157.604 99.6324C157.85 100.129 157.848 100.151 157.535 100.48C157.189 100.841 157.217 101.007 157.702 101.475C157.881 101.647 157.972 101.647 158.229 101.473C158.617 101.211 158.749 101.235 159.191 101.655C159.51 101.958 159.532 102.024 159.405 102.324C159.245 102.7 159.311 102.797 159.875 103.013C160.253 103.158 160.284 103.148 160.521 102.805C160.755 102.465 160.801 102.449 161.305 102.528C161.833 102.611 161.842 102.618 161.953 102.995C162.062 103.363 162.078 103.377 162.396 103.385C163.014 103.402 163.17 103.289 163.159 102.835C163.154 102.607 163.18 102.409 163.218 102.395C163.256 102.381 163.471 102.283 163.696 102.176C164.071 102 164.133 102.009 164.418 102.281C164.748 102.596 164.781 102.592 165.326 102.182C165.658 101.934 165.66 101.921 165.426 101.536C165.192 101.151 165.195 101.133 165.554 100.702C165.911 100.273 165.932 100.265 166.304 100.408C166.644 100.538 166.705 100.524 166.846 100.278C166.934 100.125 167.03 99.8689 167.061 99.7077C167.108 99.4616 167.071 99.3954 166.833 99.2948C166.421 99.1211 166.41 99.0982 166.472 98.5359C166.529 98.0241 166.529 98.0239 166.938 97.8908C167.335 97.7617 167.348 97.7481 167.356 97.4396C167.372 96.8302 167.255 96.669 166.798 96.6698L166.379 96.6705L166.159 96.1159C165.95 95.5881 165.954 95.5503 166.241 95.3333C166.501 95.1367 166.524 95.0676 166.412 94.8322C166.34 94.6821 166.174 94.4565 166.043 94.3309C165.849 94.1464 165.77 94.1375 165.627 94.2847ZM162.626 95.8811C160.787 95.2542 159.139 97.0537 159.919 98.8355C160.639 100.48 163.038 100.509 163.807 98.8825C164.375 97.6799 163.829 96.2913 162.626 95.8811Z" fill="#C2C4C8"/>
<path fill-rule="evenodd" clip-rule="evenodd" d="M137.435 22.1724C137.377 22.2671 137.368 22.4589 137.416 22.5985C137.464 22.7381 137.676 24.0456 137.887 25.504C138.098 26.9624 138.57 30.0649 138.937 32.3986C139.303 34.7321 139.603 36.8417 139.603 37.0864V37.5313H144.127H148.651L148.782 36.4422C148.854 35.8433 149.165 33.7337 149.473 31.7544C149.782 29.7751 150.202 27.0051 150.406 25.5987C150.611 24.1924 150.828 22.8074 150.888 22.5209L150.997 22H144.269C140.433 22 137.496 22.0741 137.435 22.1724ZM143.486 23.4401C142.444 23.9086 140.888 24.6038 140.029 24.9847C138.286 25.7572 138.331 25.6678 138.712 27.617L138.94 28.783L141.591 27.6017C143.05 26.952 145.181 26.0095 146.327 25.5072C149.923 23.9308 150.154 23.7918 150.249 23.1448L150.333 22.5682L147.856 22.5781L145.38 22.5881L143.486 23.4401ZM147.558 29.8469C146.776 30.1903 144.732 31.0828 143.014 31.8304C141.296 32.5781 139.83 33.2505 139.756 33.3248C139.63 33.4509 139.928 36.2142 140.085 36.3718C140.124 36.4112 140.522 36.2733 140.969 36.0651C141.415 35.8571 143.37 34.988 145.311 34.1335L148.842 32.58L149.052 31.1652C149.3 29.4967 149.311 29.1931 149.12 29.2099C149.042 29.2169 148.339 29.5035 147.558 29.8469ZM140.818 37.9783C140.758 38.134 140.737 38.4594 140.772 38.7013L140.834 39.1413H144.148H147.463L147.521 38.5505C147.594 37.8001 147.62 37.8059 143.911 37.7446C141.406 37.7031 140.909 37.7408 140.818 37.9783ZM142.738 40.1029C142.644 40.6008 142.235 41.1658 141.194 42.2337C139.532 43.9376 139.099 44.9801 139.298 46.7921L139.415 47.8539L135.011 50.0868C120.898 57.2415 120.951 57.2123 120.887 57.8116L120.827 58.366H142.621C154.608 58.366 164.415 58.3245 164.415 58.2739C164.415 58.2234 163.906 57.925 163.284 57.611L162.153 57.0401L142.875 57.039C125.233 57.0379 123.646 57.0125 124.166 56.7401C124.479 56.5763 127.419 55.0735 130.701 53.4003C133.982 51.7273 137.377 49.9815 138.245 49.5211L139.824 48.6839L140.735 49.5362C142.403 51.096 144.785 51.3752 146.974 50.2673C147.539 49.9817 148.028 49.6628 148.06 49.5586C148.092 49.4544 147.045 48.8152 145.732 48.138C144.174 47.3338 143.276 46.7561 143.145 46.4722C142.881 45.9017 143.345 44.5908 144.458 42.7653C145.199 41.549 145.773 39.7869 145.512 39.5261C145.456 39.4706 144.838 39.4254 144.138 39.4254H142.865L142.738 40.1029ZM148.226 42.6926C148.183 42.8229 148.017 43.462 147.857 44.113C147.697 44.7638 147.394 45.6341 147.183 46.0468C146.972 46.4595 146.8 46.8419 146.8 46.8967C146.8 47.1187 149.131 48.1562 149.284 48.0026C149.375 47.9121 149.547 47.3505 149.666 46.7546C149.847 45.8551 149.831 45.4566 149.572 44.409C149.192 42.8674 148.471 41.9477 148.226 42.6926ZM143.29 45.686C143.029 46.108 143.835 46.8135 145.739 47.8306C146.834 48.4151 148.096 49.0951 148.543 49.3415C148.991 49.5881 150.678 50.496 152.293 51.3591C153.908 52.2222 155.74 53.2033 156.365 53.5393C156.99 53.8753 158.737 54.8108 160.248 55.6183C161.758 56.4257 163.351 57.2939 163.787 57.5475C164.568 58.0021 164.582 58.0033 164.781 57.6315C164.892 57.4241 164.983 57.214 164.983 57.1644C164.983 57.0873 163.575 56.2745 161.479 55.1423C159.966 54.3246 156.556 52.5164 154.945 51.6769C153.955 51.1613 152.739 50.495 152.243 50.1963C151.746 49.8976 151.305 49.6533 151.261 49.6533C151.217 49.6533 149.847 48.926 148.215 48.0371C143.91 45.6921 143.428 45.4621 143.29 45.686ZM164.904 57.9618C164.823 58.0938 164.807 58.2529 164.869 58.3154C165.039 58.4849 165.224 58.2357 165.132 57.961C165.068 57.7686 165.023 57.7686 164.904 57.9618ZM121.509 58.791C121.46 58.9219 121.441 63.6529 121.467 69.3042C121.512 79.1118 121.499 79.5795 121.172 79.5795C120.894 79.5795 120.84 79.7075 120.887 80.2482L120.946 80.9172L143.059 80.9585L165.173 81V80.2897C165.173 79.7395 165.098 79.5795 164.841 79.5795C164.529 79.5795 164.51 78.955 164.51 69.1148V58.6501L143.054 58.6016C125.973 58.563 121.58 58.6016 121.509 58.791ZM123.819 60.3864C123.749 60.4557 123.693 64.3715 123.693 69.0879C123.693 77.4973 123.76 78.482 124.279 77.6623C124.463 77.3715 124.517 61.033 124.335 60.5597C124.213 60.2417 124.026 60.179 123.819 60.3864ZM126.08 60.5597C125.899 61.033 125.952 77.3715 126.137 77.6623C126.657 78.4832 126.723 77.4964 126.723 68.9615C126.723 61.6501 126.681 60.26 126.459 60.26C126.314 60.26 126.144 60.3949 126.08 60.5597ZM128.428 69.0674C128.428 76.4692 128.47 77.8748 128.692 77.8748C128.837 77.8748 129.007 77.7399 129.07 77.5752C129.221 77.1838 129.221 60.951 129.07 60.5597C129.007 60.3949 128.837 60.26 128.692 60.26C128.47 60.26 128.428 61.6656 128.428 69.0674ZM130.827 60.3864C130.669 60.5441 130.658 77.1651 130.816 77.5752C130.879 77.7399 131.049 77.8748 131.194 77.8748C131.416 77.8748 131.458 76.4692 131.458 69.0674C131.458 61.8543 131.413 60.26 131.206 60.26C131.067 60.26 130.896 60.3169 130.827 60.3864ZM133.256 60.4811C133.202 60.6199 133.181 64.569 133.208 69.2568C133.251 76.6848 133.294 77.7801 133.542 77.7801C133.79 77.7801 133.826 76.6874 133.826 69.0831C133.826 62.296 133.774 60.3689 133.589 60.3074C133.459 60.264 133.309 60.3422 133.256 60.4811ZM135.551 60.5597C135.487 60.7245 135.436 64.5921 135.436 69.1544C135.436 76.0643 135.48 77.4867 135.703 77.6714C135.889 77.8261 136.008 77.832 136.095 77.6911C136.243 77.4513 136.232 60.6656 136.084 60.4252C135.925 60.1678 135.677 60.2303 135.551 60.5597ZM137.991 60.4811C137.938 60.6199 137.916 64.569 137.943 69.2568C137.986 76.6848 138.029 77.7801 138.277 77.7801C138.525 77.7801 138.561 76.6874 138.561 69.0831C138.561 62.296 138.509 60.3689 138.324 60.3074C138.194 60.264 138.044 60.3422 137.991 60.4811ZM140.459 60.4424C140.306 60.6909 140.307 77.4464 140.461 77.6951C140.544 77.8301 140.669 77.8227 140.851 77.6714C141.073 77.4867 141.118 76.0643 141.118 69.1544C141.118 64.5921 141.066 60.7245 141.003 60.5597C140.873 60.2221 140.628 60.1693 140.459 60.4424ZM142.726 60.4811C142.673 60.6199 142.651 64.569 142.678 69.2568C142.721 76.6848 142.764 77.7801 143.012 77.7801C143.261 77.7801 143.296 76.6874 143.296 69.0831C143.296 62.296 143.244 60.3689 143.06 60.3074C142.929 60.264 142.779 60.3422 142.726 60.4811ZM145.095 69.0674C145.095 76.465 145.138 77.8748 145.359 77.8748C145.504 77.8748 145.677 77.6577 145.744 77.3926C145.88 76.8505 145.863 61.1082 145.726 60.5915C145.678 60.4091 145.516 60.26 145.367 60.26C145.135 60.26 145.095 61.5489 145.095 69.0674ZM147.455 60.4968C147.405 60.6271 147.387 64.569 147.414 69.2568C147.457 76.6848 147.5 77.7801 147.747 77.7801C147.995 77.7801 148.038 76.6586 148.081 69.0201C148.124 61.2338 148.097 60.26 147.838 60.26C147.677 60.26 147.505 60.3667 147.455 60.4968ZM149.799 61.6332C149.764 62.3886 149.779 66.3305 149.831 70.3933C149.913 76.791 149.963 77.7801 150.209 77.7801C150.457 77.7801 150.5 76.7045 150.546 69.4462C150.575 64.8626 150.552 60.9207 150.495 60.6862C150.438 60.4517 150.272 60.26 150.127 60.26C149.93 60.26 149.846 60.6129 149.799 61.6332ZM152.234 60.3824C152.162 60.454 152.104 64.3234 152.104 68.981C152.104 76.2476 152.143 77.4827 152.385 77.6835C152.611 77.8706 152.687 77.8659 152.766 77.6594C152.821 77.5174 152.843 73.5728 152.816 68.8937C152.769 60.7404 152.711 59.9047 152.234 60.3824ZM154.659 60.4811C154.605 60.6199 154.584 64.569 154.611 69.2568C154.654 76.6848 154.697 77.7801 154.945 77.7801C155.193 77.7801 155.229 76.6874 155.229 69.0831C155.229 62.296 155.177 60.3689 154.992 60.3074C154.862 60.264 154.712 60.3422 154.659 60.4811ZM157.066 60.4873C156.896 60.6572 156.839 62.8267 156.839 69.0822C156.839 76.0542 156.883 77.4865 157.106 77.6714C157.253 77.7934 157.42 77.8174 157.477 77.7246C157.57 77.5752 157.626 71.0836 157.604 63.0538C157.6 61.5171 157.528 60.26 157.445 60.26C157.361 60.26 157.191 60.3623 157.066 60.4873ZM159.394 60.4811C159.341 60.6199 159.319 64.569 159.346 69.2568C159.389 76.6848 159.432 77.7801 159.68 77.7801C159.928 77.7801 159.964 76.6874 159.964 69.0831C159.964 62.296 159.912 60.3689 159.727 60.3074C159.597 60.264 159.447 60.3422 159.394 60.4811ZM161.763 69.0674C161.763 76.77 161.799 77.8748 162.047 77.8748C162.204 77.8748 162.335 77.7684 162.34 77.638C162.349 77.3738 162.348 72.9375 162.338 65.3266C162.332 60.9523 162.293 60.26 162.047 60.26C161.799 60.26 161.763 61.3648 161.763 69.0674ZM124.108 79.5315C125.43 79.5639 127.646 79.5641 129.032 79.5317C130.419 79.4993 129.337 79.4726 126.628 79.4726C123.92 79.4724 122.786 79.499 124.108 79.5315ZM131.884 79.5205C132.067 79.5683 132.365 79.5683 132.547 79.5205C132.73 79.473 132.58 79.434 132.216 79.434C131.851 79.434 131.702 79.473 131.884 79.5205ZM135.199 79.5315C136.475 79.5643 138.563 79.5643 139.839 79.5315C141.116 79.4988 140.071 79.4719 137.519 79.4719C134.967 79.4719 133.923 79.4988 135.199 79.5315ZM142.491 79.5205C142.674 79.5683 142.972 79.5683 143.154 79.5205C143.336 79.473 143.187 79.434 142.823 79.434C142.458 79.434 142.309 79.473 142.491 79.5205ZM147.605 79.5319C149.871 79.562 153.579 79.562 155.844 79.5319C158.11 79.5016 156.256 79.477 151.725 79.477C147.193 79.477 145.339 79.5016 147.605 79.5319ZM160.582 79.524C160.817 79.5692 161.158 79.5675 161.339 79.5202C161.52 79.4728 161.328 79.4357 160.911 79.4378C160.494 79.4399 160.346 79.4787 160.582 79.524ZM162.28 79.5268C162.616 79.5687 163.213 79.5692 163.606 79.5283C163.999 79.4872 163.724 79.4531 162.994 79.4522C162.265 79.4514 161.944 79.4849 162.28 79.5268Z" fill="#005D33"/>
<path fill-rule="evenodd" clip-rule="evenodd" d="M85.0681 31.2921C84.9689 31.4526 84.9541 31.7778 85.0356 32.0144C85.1169 32.251 85.4761 34.4671 85.8334 36.939C86.191 39.4109 86.9917 44.6693 87.6129 48.6247C88.2337 52.5798 88.7419 56.1554 88.7419 56.5701V57.3242H96.4096H104.077L104.3 55.4783C104.422 54.4632 104.949 50.8876 105.472 47.5329C105.994 44.1782 106.706 39.4831 107.053 37.0995C107.4 34.7159 107.767 32.3685 107.869 31.8828L108.055 31H96.6514C90.1499 31 85.1708 31.1255 85.0681 31.2921ZM95.323 33.4408C93.5573 34.235 90.9207 35.4132 89.4642 36.0587C86.5104 37.3682 86.5862 37.2167 87.2321 40.5204L87.6183 42.4966L92.1127 40.4944C94.5846 39.3933 98.1962 37.7958 100.138 36.9445C106.233 34.2726 106.625 34.0369 106.786 32.9403L106.929 31.9631L102.731 31.9798L98.5332 31.9968L95.323 33.4408ZM102.225 44.2998C100.901 44.8819 97.4353 46.3945 94.5239 47.6616C91.6125 48.9291 89.1275 50.0687 89.0016 50.1945C88.7878 50.4083 89.2941 55.0918 89.5596 55.3589C89.626 55.4257 90.2999 55.192 91.0572 54.8392C91.8141 54.4867 95.1265 53.0135 98.4173 51.5653L104.401 48.9323L104.758 46.5342C105.178 43.7063 105.196 43.1917 104.874 43.2202C104.741 43.2321 103.549 43.7178 102.225 44.2998ZM90.8013 58.0819C90.7002 58.3457 90.6649 58.8973 90.723 59.3072L90.8286 60.053H96.4466H102.065L102.162 59.0517C102.286 57.7798 102.33 57.7897 96.0434 57.6857C91.7987 57.6154 90.956 57.6793 90.8013 58.0819ZM94.0552 61.6828C93.897 62.5268 93.2032 63.4844 91.4382 65.2944C88.6218 68.1823 87.8873 69.9493 88.2257 73.0205L88.4238 74.8202L80.9586 78.6048C57.0382 90.7313 57.1287 90.6819 57.0202 91.6976L56.9194 92.6372H93.8581C114.174 92.6372 130.796 92.5669 130.796 92.4812C130.796 92.3955 129.934 91.8899 128.88 91.3576L126.962 90.39L94.2889 90.3881C64.3865 90.3862 61.6966 90.3432 62.5782 89.8815C63.1079 89.6039 68.0918 87.0568 73.6536 84.2209C79.2154 81.3852 84.9698 78.4263 86.4411 77.6459L89.1162 76.227L90.661 77.6716C93.4873 80.3153 97.5252 80.7884 101.236 78.9108C102.194 78.4266 103.021 77.886 103.076 77.7095C103.131 77.5329 101.356 76.4494 99.131 75.3018C96.4893 73.9387 94.9682 72.9595 94.7451 72.4783C94.2976 71.5114 95.0848 69.2896 96.9708 66.1955C98.2276 64.1339 99.1997 61.1474 98.7573 60.7053C98.6636 60.6112 97.6157 60.5345 96.4289 60.5345H94.271L94.0552 61.6828ZM103.357 66.0722C103.285 66.2931 103.003 67.3762 102.732 68.4796C102.461 69.5827 101.947 71.0578 101.59 71.7573C101.233 72.4568 100.941 73.105 100.941 73.1978C100.941 73.574 104.891 75.3326 105.151 75.0722C105.305 74.9188 105.596 73.9669 105.799 72.957C106.105 71.4324 106.078 70.757 105.64 68.9814C104.995 66.3685 103.772 64.8096 103.357 66.0722ZM94.9913 71.1457C94.549 71.861 95.9146 73.0568 99.1432 74.7807C100.998 75.7714 103.137 76.9239 103.896 77.3416C104.654 77.7596 107.514 79.2982 110.251 80.7612C112.987 82.2241 116.093 83.887 117.153 84.4565C118.212 85.026 121.174 86.6116 123.734 87.9801C126.294 89.3486 128.993 90.8202 129.732 91.2501C131.057 92.0205 131.08 92.0225 131.418 91.3923C131.606 91.0408 131.76 90.6848 131.76 90.6006C131.76 90.47 129.373 89.0925 125.821 87.1734C123.256 85.7875 117.476 82.7226 114.745 81.2998C113.068 80.426 111.007 79.2966 110.166 78.7904C109.324 78.2841 108.576 77.87 108.502 77.87C108.428 77.87 106.104 76.6372 103.339 75.1307C96.0417 71.156 95.2257 70.7663 94.9913 71.1457ZM131.626 91.9522C131.487 92.1759 131.461 92.4456 131.567 92.5515C131.854 92.8388 132.168 92.4164 132.012 91.9509C131.904 91.6247 131.828 91.6247 131.626 91.9522ZM58.0748 93.3576C57.9917 93.5795 57.9599 101.598 58.0039 111.177C58.0803 127.8 58.0575 128.592 57.5027 128.592C57.0328 128.592 56.9406 128.809 57.0212 129.726L57.1207 130.86L94.6007 130.93L132.081 131V129.796C132.081 128.864 131.954 128.592 131.519 128.592C130.99 128.592 130.957 127.534 130.957 110.856V93.1188L94.5913 93.0366C65.6411 92.9711 58.1949 93.0366 58.0748 93.3576ZM61.9897 96.0616C61.8719 96.1791 61.7756 102.816 61.7756 110.81C61.7756 125.063 61.8899 126.732 62.7695 125.343C63.0819 124.85 63.1727 97.1576 62.8649 96.3554C62.6581 95.8164 62.3413 95.7101 61.9897 96.0616ZM65.8228 96.3554C65.5149 97.1576 65.6058 124.85 65.9181 125.343C66.7994 126.734 66.912 125.062 66.912 110.596C66.912 98.2035 66.8405 95.8475 66.4649 95.8475C66.219 95.8475 65.93 96.0761 65.8228 96.3554ZM69.8013 110.775C69.8013 123.321 69.8726 125.703 70.2485 125.703C70.4944 125.703 70.7833 125.474 70.8905 125.195C71.1451 124.532 71.1451 97.0186 70.8905 96.3554C70.7833 96.0761 70.4944 95.8475 70.2485 95.8475C69.8726 95.8475 69.8013 98.2299 69.8013 110.775ZM73.8678 96.0616C73.6003 96.3291 73.5817 124.5 73.8485 125.195C73.9557 125.474 74.2446 125.703 74.4905 125.703C74.8665 125.703 74.9377 123.321 74.9377 110.775C74.9377 98.5496 74.8604 95.8475 74.5098 95.8475C74.2742 95.8475 73.9852 95.9438 73.8678 96.0616ZM77.9843 96.2222C77.8941 96.4575 77.8578 103.151 77.9037 111.096C77.9766 123.686 78.0494 125.543 78.469 125.543C78.8902 125.543 78.9506 123.691 78.9506 110.802C78.9506 99.2982 78.8626 96.0321 78.5496 95.9278C78.3287 95.8543 78.0745 95.9868 77.9843 96.2222ZM81.8742 96.3554C81.7669 96.6347 81.6793 103.19 81.6793 110.923C81.6793 122.634 81.7551 125.045 82.1323 125.358C82.4482 125.621 82.6494 125.63 82.7971 125.392C83.0482 124.985 83.0292 96.5348 82.7775 96.1274C82.5079 95.6912 82.0883 95.7971 81.8742 96.3554ZM86.01 96.2222C85.9198 96.4575 85.8835 103.151 85.9294 111.096C86.0023 123.686 86.0751 125.543 86.4947 125.543C86.9159 125.543 86.9763 123.691 86.9763 110.802C86.9763 99.2982 86.8883 96.0321 86.5753 95.9278C86.3544 95.8543 86.1002 95.9868 86.01 96.2222ZM90.1939 96.1567C89.9336 96.5779 89.9361 124.977 90.1965 125.398C90.3381 125.627 90.5483 125.615 90.8572 125.358C91.2344 125.045 91.3101 122.634 91.3101 110.923C91.3101 103.19 91.2225 96.6347 91.1153 96.3554C90.8957 95.7833 90.4799 95.6937 90.1939 96.1567ZM94.0356 96.2222C93.9454 96.4575 93.9092 103.151 93.9551 111.096C94.0279 123.686 94.1008 125.543 94.5204 125.543C94.9416 125.543 95.0019 123.691 95.0019 110.802C95.0019 99.2982 94.914 96.0321 94.601 95.9278C94.3801 95.8543 94.1259 95.9868 94.0356 96.2222ZM98.0517 110.775C98.0517 123.314 98.1233 125.703 98.4986 125.703C98.7442 125.703 99.0376 125.335 99.1502 124.886C99.3807 123.967 99.3531 97.2851 99.1207 96.4093C99.0385 96.1002 98.7647 95.8475 98.5117 95.8475C98.1191 95.8475 98.0517 98.0321 98.0517 110.775ZM102.051 96.2488C101.966 96.4697 101.935 103.151 101.981 111.096C102.054 123.686 102.126 125.543 102.546 125.543C102.966 125.543 103.038 123.642 103.111 110.695C103.185 97.4979 103.14 95.8475 102.7 95.8475C102.428 95.8475 102.136 96.0283 102.051 96.2488ZM106.023 98.175C105.965 99.4552 105.989 106.136 106.077 113.022C106.216 123.866 106.302 125.543 106.719 125.543C107.139 125.543 107.213 123.719 107.29 111.417C107.339 103.648 107.3 96.9673 107.204 96.5698C107.107 96.1724 106.826 95.8475 106.579 95.8475C106.246 95.8475 106.103 96.4456 106.023 98.175ZM110.151 96.0549C110.029 96.1762 109.93 102.735 109.93 110.629C109.93 122.945 109.997 125.039 110.407 125.379C110.79 125.696 110.919 125.688 111.053 125.338C111.145 125.097 111.183 118.412 111.137 110.481C111.057 96.6616 110.96 95.2453 110.151 96.0549ZM114.26 96.2222C114.17 96.4575 114.134 103.151 114.18 111.096C114.253 123.686 114.326 125.543 114.745 125.543C115.166 125.543 115.227 123.691 115.227 110.802C115.227 99.2982 115.139 96.0321 114.826 95.9278C114.605 95.8543 114.351 95.9868 114.26 96.2222ZM118.341 96.2327C118.053 96.5207 117.955 100.198 117.955 110.8C117.955 122.617 118.031 125.045 118.408 125.358C118.657 125.565 118.941 125.606 119.038 125.448C119.195 125.195 119.289 114.193 119.252 100.583C119.245 97.9782 119.124 95.8475 118.983 95.8475C118.841 95.8475 118.553 96.0209 118.341 96.2327ZM122.286 96.2222C122.196 96.4575 122.16 103.151 122.205 111.096C122.278 123.686 122.351 125.543 122.771 125.543C123.192 125.543 123.252 123.691 123.252 110.802C123.252 99.2982 123.164 96.0321 122.851 95.9278C122.631 95.8543 122.376 95.9868 122.286 96.2222ZM126.302 110.775C126.302 123.83 126.362 125.703 126.784 125.703C127.048 125.703 127.272 125.523 127.279 125.302C127.295 124.854 127.294 117.335 127.277 104.435C127.267 97.0209 127.199 95.8475 126.784 95.8475C126.362 95.8475 126.302 97.7201 126.302 110.775ZM62.479 128.511C64.7198 128.566 68.4758 128.566 70.8257 128.511C73.1756 128.456 71.3422 128.411 66.7515 128.411C62.1608 128.411 60.2382 128.456 62.479 128.511ZM75.66 128.492C75.9692 128.573 76.4745 128.573 76.7836 128.492C77.0928 128.412 76.8398 128.346 76.2218 128.346C75.6039 128.346 75.3509 128.412 75.66 128.492ZM81.278 128.511C83.4411 128.567 86.9801 128.567 89.1432 128.511C91.3063 128.456 89.5364 128.41 85.2106 128.41C80.8848 128.41 79.1149 128.456 81.278 128.511ZM93.6376 128.492C93.9467 128.573 94.452 128.573 94.7612 128.492C95.0703 128.412 94.8173 128.346 94.1994 128.346C93.5814 128.346 93.3284 128.412 93.6376 128.492ZM102.305 128.512C106.146 128.563 112.43 128.563 116.27 128.512C120.11 128.46 116.968 128.419 109.288 128.419C101.607 128.419 98.4652 128.46 102.305 128.512ZM124.3 128.498C124.699 128.575 125.277 128.572 125.584 128.492C125.891 128.412 125.564 128.349 124.857 128.352C124.151 128.356 123.9 128.422 124.3 128.498ZM127.178 128.503C127.748 128.574 128.759 128.575 129.425 128.506C130.091 128.436 129.625 128.378 128.389 128.377C127.153 128.375 126.608 128.432 127.178 128.503Z" fill="#A92023"/>
</g>
<defs>
<clipPath id="clip0_1829_1941">
<rect width="204" height="131" fill="white"/>
</clipPath>
</defs>
</svg>
