<svg width="150" height="106" viewBox="0 0 150 106" fill="none" xmlns="http://www.w3.org/2000/svg">
<g clip-path="url(#clip0_1625_3658)">
<path d="M78 92C103.379 92 124 71.3556 124 45.9471C124 20.5386 103.379 0 78 0C52.6207 0 32 20.6444 32 46.0529C32 71.4614 52.6207 92 78 92Z" fill="#DADADA"/>
<mask id="path-2-inside-1_1625_3658" fill="white">
<path d="M118.432 24.1221C128.584 42.9668 124.46 66.8931 107.54 81.1854C88.0828 97.4892 59.1081 95.0542 42.8231 75.5744C26.4323 56.0945 28.9702 27.0865 48.3219 10.7827C67.7794 -5.52114 96.7541 -3.08616 113.039 16.3937"/>
</mask>
<path d="M119.753 23.4107C119.36 22.6814 118.45 22.4087 117.721 22.8016C116.992 23.1945 116.719 24.1042 117.112 24.8335L119.753 23.4107ZM107.54 81.1854L108.504 82.3352L108.508 82.3313L107.54 81.1854ZM42.8231 75.5744L43.9739 74.6123L43.9708 74.6086L42.8231 75.5744ZM48.3219 10.7827L47.3585 9.63292L47.3554 9.63551L48.3219 10.7827ZM111.888 17.3558C112.42 17.9914 113.366 18.0759 114.001 17.5445C114.637 17.0132 114.721 16.0672 114.19 15.4316L111.888 17.3558ZM117.112 24.8335C126.932 43.0634 122.941 66.2122 106.572 80.0395L108.508 82.3313C125.978 67.5741 130.236 42.8702 119.753 23.4107L117.112 24.8335ZM106.577 80.0357C87.7487 95.8122 59.722 93.4499 43.9739 74.6123L41.6722 76.5365C58.4942 96.6586 88.4169 99.1662 108.504 82.3352L106.577 80.0357ZM43.9708 74.6086C28.1129 55.7621 30.5702 27.6999 49.2884 11.9298L47.3554 9.63551C27.3702 26.4731 24.7516 56.4269 41.6753 76.5401L43.9708 74.6086ZM49.2853 11.9324C68.1135 -3.84412 96.1402 -1.48179 111.888 17.3558L114.19 15.4316C97.368 -4.69053 67.4453 -7.19816 47.3585 9.63292L49.2853 11.9324Z" fill="#2D346A" mask="url(#path-2-inside-1_1625_3658)"/>
<path d="M54.5238 71.779C60.7629 77.6018 69.1169 81.2013 78.3169 81.2013C97.4571 81.2013 113.002 65.6386 113.002 46.4763C113.002 27.3141 97.4571 11.6455 78.3169 11.6455C59.1767 11.6455 43.6318 27.2082 43.6318 46.3705C43.6318 53.252 45.641 59.7099 49.1307 65.1093" fill="#005D33"/>
<path d="M94.2779 50.0867C89.8443 50.0867 86.2373 53.7118 86.2373 58.1677C86.6794 68.8883 101.878 68.8852 102.318 58.1676C102.318 53.7118 98.7114 50.0867 94.2779 50.0867ZM94.2779 63.5482C91.3317 63.5482 88.9347 61.1345 88.9347 58.1677C89.2287 51.0296 99.3282 51.0316 99.621 58.1677C99.6209 61.1345 97.2241 63.5482 94.2779 63.5482Z" fill="white"/>
<path d="M77.2233 52.7873C78.7817 52.7873 80.259 53.4705 81.2763 54.6618C81.7605 55.2286 82.6119 55.2951 83.1779 54.8105C83.7441 54.3259 83.8105 53.4735 83.3264 52.9068C78.4993 47.245 69.1815 50.7209 69.1826 58.168C69.1653 65.3079 77.9001 68.9581 82.9108 63.8798C83.4364 63.3512 83.4343 62.4963 82.9064 61.9702C82.3785 61.4442 81.5245 61.4462 80.9991 61.9746C77.6639 65.3523 71.8681 62.9166 71.88 58.1678C71.8801 55.201 74.277 52.7873 77.2233 52.7873Z" fill="white"/>
<path d="M65.8314 52.7872C67.6209 52.7158 67.6195 50.1573 65.8314 50.0867H57.67C56.9252 50.0867 56.3213 50.6912 56.3213 51.4369V64.8984C56.3213 65.6441 56.9252 66.2487 57.67 66.2487H65.8314C67.6209 66.1773 67.6195 63.6188 65.8314 63.5482H59.0187V59.5469H63.5893C65.3788 59.4755 65.3774 56.917 63.5893 56.8463H59.0187V52.7872H65.8314Z" fill="white"/>
<path d="M78.3422 42.2632L88.9148 31.6786C89.5137 31.0789 90.4848 31.0789 91.0837 31.6786C91.6827 32.2782 91.6827 33.2503 91.0837 33.85L80.5106 44.435H86.4914C92.4865 44.435 97.3465 39.5695 97.3465 33.5674V26.9178C97.3465 26.0842 96.6715 25.4084 95.8389 25.4084H89.197C83.2019 25.4084 78.3418 30.2741 78.3418 36.2762V39.7593C78.3418 39.7725 78.3423 39.7855 78.3423 39.7987V42.2632H78.3422Z" fill="white"/>
<path d="M65.6599 36.9804C64.2782 35.4826 66.3344 33.4264 67.8288 34.8089L75.2745 42.2633V39.7593C75.2532 34.7307 73.9853 30.6462 66.1331 30.6462H63.0096C62.1769 30.6462 61.502 31.322 61.502 32.1556V37.664C61.502 41.4036 64.53 44.4351 68.2653 44.4351H73.1062L65.6599 36.9804Z" fill="white"/>
<path d="M144.4 13.1994C144.4 12.6994 144.2 10.3994 141.6 10.3994C141.1 10.3994 140.7 9.99941 140.7 9.49941C140.7 8.99941 141.1 8.59941 141.6 8.59941C142.1 8.59941 144.4 8.39941 144.4 5.79941C144.4 5.29941 144.8 4.89941 145.3 4.89941C145.8 4.89941 146.2 5.29941 146.2 5.79941C146.2 8.39941 148.5 8.59941 149 8.59941C149.5 8.59941 149.9 8.99941 149.9 9.49941C149.9 9.99941 149.5 10.3994 149 10.3994C146.4 10.3994 146.2 12.6994 146.2 13.1994C146.2 13.6994 145.8 14.0994 145.3 14.0994C144.8 14.0994 144.4 13.6994 144.4 13.1994Z" fill="#A92023"/>
<path d="M98.9 4.3C98.9 4.1 98.8 2.9 97.5 2.9C97.2 2.9 97 2.7 97 2.4C97 2.1 97.2 1.9 97.5 1.9C97.7 1.9 98.9 1.8 98.9 0.5C98.9 0.2 99.1 0 99.4 0C99.7 0 99.9 0.2 99.9 0.5C99.9 1.8 101.1 1.9 101.3 1.9C101.6 1.9 101.8 2.1 101.8 2.4C101.8 2.7 101.6 2.9 101.3 2.9C100 2.9 99.9 4.1 99.9 4.3C99.9 4.6 99.7 4.8 99.4 4.8C99.1 4.7 98.9 4.5 98.9 4.3Z" fill="#A92023"/>
<path d="M14.8004 12.9992C14.8004 12.7992 14.7004 11.5992 13.4004 11.5992C13.1004 11.5992 12.9004 11.3992 12.9004 11.0992C12.9004 10.7992 13.1004 10.5992 13.4004 10.5992C13.6004 10.5992 14.8004 10.4992 14.8004 9.19922C14.8004 8.89922 15.0004 8.69922 15.3004 8.69922C15.6004 8.69922 15.8004 8.89922 15.8004 9.19922C15.8004 10.4992 17.0004 10.5992 17.2004 10.5992C17.5004 10.5992 17.7004 10.7992 17.7004 11.0992C17.7004 11.3992 17.5004 11.5992 17.2004 11.5992C15.9004 11.5992 15.8004 12.7992 15.8004 12.9992C15.8004 13.2992 15.6004 13.4992 15.3004 13.4992C15.0004 13.4992 14.8004 13.1992 14.8004 12.9992Z" fill="#A92023"/>
<path d="M3.8 86.5992C3.8 86.0992 3.6 83.7992 1 83.7992C0.4 83.7992 0 83.2992 0 82.7992C0 82.2992 0.4 81.8992 0.9 81.8992C1.4 81.8992 3.7 81.6992 3.7 79.0992C3.7 78.5992 4.1 78.1992 4.6 78.1992C5.1 78.1992 5.5 78.5992 5.5 79.0992C5.5 81.6992 7.8 81.8992 8.3 81.8992C8.8 81.8992 9.2 82.2992 9.2 82.7992C9.2 83.2992 8.8 83.6992 8.3 83.6992C5.7 83.6992 5.5 85.9992 5.5 86.4992C5.5 86.9992 5.1 87.3992 4.6 87.3992C4.2 87.4992 3.8 87.0992 3.8 86.5992Z" fill="#A92023"/>
<path d="M139 91.3996C139 91.1996 138.9 89.9996 137.6 89.9996C137.3 89.9996 137.1 89.7996 137.1 89.4996C137.1 89.1996 137.3 88.9996 137.6 88.9996C137.8 88.9996 139 88.8996 139 87.5996C139 87.2996 139.2 87.0996 139.5 87.0996C139.8 87.0996 140 87.2996 140 87.5996C140 88.8996 141.2 88.9996 141.4 88.9996C141.7 88.9996 141.9 89.1996 141.9 89.4996C141.9 89.7996 141.7 89.9996 141.4 89.9996C140.1 89.9996 140 91.1996 140 91.3996C140 91.6996 139.8 91.8996 139.5 91.8996C139.2 91.7996 139 91.5996 139 91.3996Z" fill="#A92023"/>
<path d="M33 105H117" stroke="#2D346A" stroke-width="1.5" stroke-miterlimit="10" stroke-linecap="round"/>
</g>
<defs>
<clipPath id="clip0_1625_3658">
<rect width="150" height="106" fill="white"/>
</clipPath>
</defs>
</svg>
